%TF.GenerationSoftware,KiCad,Pcbnew,10.0.3*%
%TF.CreationDate,2026-06-21T11:29:54+10:00*%
%TF.ProjectId,travel-router,74726176-656c-42d7-926f-757465722e6b,rev?*%
%TF.SameCoordinates,Original*%
%TF.FileFunction,Paste,Top*%
%TF.FilePolarity,Positive*%
%FSLAX46Y46*%
G04 Gerber Fmt 4.6, Leading zero omitted, Abs format (unit mm)*
G04 Created by KiCad (PCBNEW 10.0.3) date 2026-06-21 11:29:54*
%MOMM*%
%LPD*%
G01*
G04 APERTURE LIST*
G04 Aperture macros list*
%AMRoundRect*
0 Rectangle with rounded corners*
0 $1 Rounding radius*
0 $2 $3 $4 $5 $6 $7 $8 $9 X,Y pos of 4 corners*
0 Add a 4 corners polygon primitive as box body*
4,1,4,$2,$3,$4,$5,$6,$7,$8,$9,$2,$3,0*
0 Add four circle primitives for the rounded corners*
1,1,$1+$1,$2,$3*
1,1,$1+$1,$4,$5*
1,1,$1+$1,$6,$7*
1,1,$1+$1,$8,$9*
0 Add four rect primitives between the rounded corners*
20,1,$1+$1,$2,$3,$4,$5,0*
20,1,$1+$1,$4,$5,$6,$7,0*
20,1,$1+$1,$6,$7,$8,$9,0*
20,1,$1+$1,$8,$9,$2,$3,0*%
G04 Aperture macros list end*
%ADD10RoundRect,0.225000X0.225000X0.250000X-0.225000X0.250000X-0.225000X-0.250000X0.225000X-0.250000X0*%
%ADD11RoundRect,0.140000X-0.170000X0.140000X-0.170000X-0.140000X0.170000X-0.140000X0.170000X0.140000X0*%
%ADD12RoundRect,0.200000X0.275000X-0.200000X0.275000X0.200000X-0.275000X0.200000X-0.275000X-0.200000X0*%
%ADD13RoundRect,0.079500X-0.100500X0.079500X-0.100500X-0.079500X0.100500X-0.079500X0.100500X0.079500X0*%
%ADD14RoundRect,0.079500X-0.014849X0.127279X-0.127279X0.014849X0.014849X-0.127279X0.127279X-0.014849X0*%
%ADD15RoundRect,0.140000X0.170000X-0.140000X0.170000X0.140000X-0.170000X0.140000X-0.170000X-0.140000X0*%
%ADD16RoundRect,0.079500X0.127279X0.014849X0.014849X0.127279X-0.127279X-0.014849X-0.014849X-0.127279X0*%
%ADD17RoundRect,0.075000X-0.075000X-0.200000X0.075000X-0.200000X0.075000X0.200000X-0.075000X0.200000X0*%
%ADD18RoundRect,0.079500X0.079500X0.100500X-0.079500X0.100500X-0.079500X-0.100500X0.079500X-0.100500X0*%
%ADD19R,5.080000X1.270000*%
%ADD20RoundRect,0.218750X0.218750X0.256250X-0.218750X0.256250X-0.218750X-0.256250X0.218750X-0.256250X0*%
%ADD21RoundRect,0.200000X-0.275000X0.200000X-0.275000X-0.200000X0.275000X-0.200000X0.275000X0.200000X0*%
%ADD22RoundRect,0.150000X-0.500000X0.150000X-0.500000X-0.150000X0.500000X-0.150000X0.500000X0.150000X0*%
%ADD23RoundRect,0.175000X-0.175000X0.350000X-0.175000X-0.350000X0.175000X-0.350000X0.175000X0.350000X0*%
%ADD24RoundRect,0.075000X-0.200000X0.075000X-0.200000X-0.075000X0.200000X-0.075000X0.200000X0.075000X0*%
%ADD25RoundRect,0.150000X-0.512500X-0.150000X0.512500X-0.150000X0.512500X0.150000X-0.512500X0.150000X0*%
%ADD26R,1.800000X0.300000*%
%ADD27RoundRect,0.250000X-1.412500X-0.550000X1.412500X-0.550000X1.412500X0.550000X-1.412500X0.550000X0*%
%ADD28RoundRect,0.112500X-0.112500X0.350000X-0.112500X-0.350000X0.112500X-0.350000X0.112500X0.350000X0*%
%ADD29RoundRect,0.150000X0.512500X0.150000X-0.512500X0.150000X-0.512500X-0.150000X0.512500X-0.150000X0*%
%ADD30RoundRect,0.225000X-0.225000X-0.250000X0.225000X-0.250000X0.225000X0.250000X-0.225000X0.250000X0*%
%ADD31O,0.200000X0.700000*%
%ADD32O,0.700000X0.200000*%
%ADD33R,2.800000X2.800000*%
%ADD34R,0.700000X0.200000*%
%ADD35RoundRect,0.079500X0.100500X-0.079500X0.100500X0.079500X-0.100500X0.079500X-0.100500X-0.079500X0*%
%ADD36RoundRect,0.150000X0.150000X0.575000X-0.150000X0.575000X-0.150000X-0.575000X0.150000X-0.575000X0*%
%ADD37RoundRect,0.075000X0.075000X0.650000X-0.075000X0.650000X-0.075000X-0.650000X0.075000X-0.650000X0*%
%ADD38RoundRect,0.225000X-0.250000X0.225000X-0.250000X-0.225000X0.250000X-0.225000X0.250000X0.225000X0*%
%ADD39RoundRect,0.218750X-0.218750X-0.256250X0.218750X-0.256250X0.218750X0.256250X-0.218750X0.256250X0*%
%ADD40RoundRect,0.150000X-0.625000X0.150000X-0.625000X-0.150000X0.625000X-0.150000X0.625000X0.150000X0*%
%ADD41RoundRect,0.250000X-0.650000X0.350000X-0.650000X-0.350000X0.650000X-0.350000X0.650000X0.350000X0*%
%ADD42RoundRect,0.200000X0.200000X0.275000X-0.200000X0.275000X-0.200000X-0.275000X0.200000X-0.275000X0*%
%ADD43RoundRect,0.250000X-0.450000X-0.350000X0.450000X-0.350000X0.450000X0.350000X-0.450000X0.350000X0*%
%ADD44RoundRect,0.079500X-0.127279X-0.014849X-0.014849X-0.127279X0.127279X0.014849X0.014849X0.127279X0*%
%ADD45RoundRect,0.135000X-0.185000X0.135000X-0.185000X-0.135000X0.185000X-0.135000X0.185000X0.135000X0*%
%ADD46RoundRect,0.140000X0.140000X0.170000X-0.140000X0.170000X-0.140000X-0.170000X0.140000X-0.170000X0*%
G04 APERTURE END LIST*
D10*
%TO.C,C6*%
X150862500Y-109037500D03*
X149312500Y-109037500D03*
%TD*%
D11*
%TO.C,C18*%
X102280000Y-98100000D03*
X102280000Y-99060000D03*
%TD*%
D12*
%TO.C,R4*%
X107700000Y-89450000D03*
X107700000Y-87800000D03*
%TD*%
D13*
%TO.C,C10*%
X109055000Y-98455000D03*
X109055000Y-99145000D03*
%TD*%
D14*
%TO.C,C17*%
X106300000Y-99600000D03*
X105812096Y-100087904D03*
%TD*%
D15*
%TO.C,C14*%
X96980000Y-98580000D03*
X96980000Y-97620000D03*
%TD*%
D16*
%TO.C,C16*%
X105505000Y-93000000D03*
X105017096Y-92512096D03*
%TD*%
D17*
%TO.C,U11*%
X110300000Y-105370000D03*
X110800000Y-105370000D03*
X111300000Y-105370000D03*
X111800000Y-105370000D03*
X112300000Y-105370000D03*
X112300000Y-104600000D03*
X111800000Y-104600000D03*
X111300000Y-104600000D03*
X110800000Y-104600000D03*
X110300000Y-104600000D03*
%TD*%
D18*
%TO.C,C15*%
X104030000Y-96700000D03*
X103340000Y-96700000D03*
%TD*%
D19*
%TO.C,BT1*%
X99250000Y-68990000D03*
X99250000Y-90960000D03*
%TD*%
D20*
%TO.C,D2*%
X115400000Y-49025000D03*
X113825000Y-49025000D03*
%TD*%
D21*
%TO.C,R3*%
X114325000Y-50450000D03*
X114325000Y-52100000D03*
%TD*%
%TO.C,R2*%
X111725000Y-50475000D03*
X111725000Y-52125000D03*
%TD*%
D22*
%TO.C,SW2*%
X165600000Y-87950000D03*
X165600000Y-90950000D03*
X165600000Y-92450000D03*
D23*
X164750000Y-86525000D03*
X162550000Y-86525000D03*
X164750000Y-93875000D03*
X162550000Y-93875000D03*
%TD*%
D24*
%TO.C,U5*%
X141080000Y-105925000D03*
X141080000Y-106425000D03*
X141080000Y-106925000D03*
X141080000Y-107425000D03*
X141080000Y-107925000D03*
X141850000Y-107925000D03*
X141850000Y-107425000D03*
X141850000Y-106925000D03*
X141850000Y-106425000D03*
X141850000Y-105925000D03*
%TD*%
D25*
%TO.C,U2*%
X152525000Y-104650000D03*
X152525000Y-105600000D03*
X152525000Y-106550000D03*
X154800000Y-106550000D03*
X154800000Y-105600000D03*
X154800000Y-104650000D03*
%TD*%
D18*
%TO.C,C19*%
X104830000Y-93600000D03*
X104140000Y-93600000D03*
%TD*%
D26*
%TO.C,U4*%
X115450000Y-68035000D03*
X115450000Y-67535000D03*
X115450000Y-67035000D03*
X115450000Y-66535000D03*
X115450000Y-66035000D03*
X115450000Y-65535000D03*
X115450000Y-65035000D03*
X115450000Y-64535000D03*
X115450000Y-64035000D03*
X115450000Y-63535000D03*
X115450000Y-63035000D03*
X115450000Y-62535000D03*
X115450000Y-62035000D03*
X115450000Y-61535000D03*
X115450000Y-61035000D03*
X115450000Y-60535000D03*
X115450000Y-60035000D03*
X115450000Y-59535000D03*
X115450000Y-59035000D03*
%TD*%
D27*
%TO.C,C4*%
X157925000Y-107000000D03*
X163000000Y-107000000D03*
%TD*%
D13*
%TO.C,C11*%
X104785000Y-97835000D03*
X104785000Y-98525000D03*
%TD*%
D28*
%TO.C,U1*%
X103900000Y-59300000D03*
X102600000Y-59300000D03*
X103250000Y-61075000D03*
%TD*%
D29*
%TO.C,U3*%
X108312500Y-68475000D03*
X108312500Y-66575000D03*
X106037500Y-67525000D03*
%TD*%
D30*
%TO.C,C9*%
X127025000Y-104700000D03*
X128575000Y-104700000D03*
%TD*%
D31*
%TO.C,U9*%
X105730000Y-98060000D03*
X106130000Y-98060000D03*
X106530000Y-98060000D03*
X106930000Y-98060000D03*
X107330000Y-98060000D03*
X107730000Y-98060000D03*
X108130000Y-98060000D03*
X108530000Y-98060000D03*
D32*
X109190000Y-97400000D03*
X109190000Y-97000000D03*
X109190000Y-96600000D03*
X109190000Y-96200000D03*
X109190000Y-95800000D03*
X109190000Y-95400000D03*
X109190000Y-95000000D03*
X109190000Y-94600000D03*
D31*
X108530000Y-93940000D03*
X108130000Y-93940000D03*
X107730000Y-93940000D03*
X107330000Y-93940000D03*
X106930000Y-93940000D03*
X106530000Y-93940000D03*
X106130000Y-93940000D03*
X105730000Y-93940000D03*
D32*
X105070000Y-94600000D03*
X105070000Y-95000000D03*
X105070000Y-95400000D03*
X105070000Y-95800000D03*
X105070000Y-96200000D03*
X105070000Y-96600000D03*
X105070000Y-97000000D03*
X105070000Y-97400000D03*
D33*
X107130000Y-96000000D03*
%TD*%
D34*
%TO.C,Module1*%
X157080000Y-83100000D03*
X154000000Y-83100000D03*
X157080000Y-82700000D03*
X154000000Y-82700000D03*
X157080000Y-82300000D03*
X154000000Y-82300000D03*
X157080000Y-81900000D03*
X154000000Y-81900000D03*
X157080000Y-81500000D03*
X154000000Y-81500000D03*
X157080000Y-81100000D03*
X154000000Y-81100000D03*
X157080000Y-80700000D03*
X154000000Y-80700000D03*
X157080000Y-80300000D03*
X154000000Y-80300000D03*
X157080000Y-79900000D03*
X154000000Y-79900000D03*
X157080000Y-79500000D03*
X154000000Y-79500000D03*
X157080000Y-79100000D03*
X154000000Y-79100000D03*
X157080000Y-78700000D03*
X154000000Y-78700000D03*
X157080000Y-78300000D03*
X154000000Y-78300000D03*
X157080000Y-77900000D03*
X154000000Y-77900000D03*
X157080000Y-77500000D03*
X154000000Y-77500000D03*
X157080000Y-77100000D03*
X154000000Y-77100000D03*
X157080000Y-76700000D03*
X154000000Y-76700000D03*
X157080000Y-76300000D03*
X154000000Y-76300000D03*
X157080000Y-75900000D03*
X154000000Y-75900000D03*
X157080000Y-75500000D03*
X154000000Y-75500000D03*
X157080000Y-75100000D03*
X154000000Y-75100000D03*
X157080000Y-74700000D03*
X154000000Y-74700000D03*
X157080000Y-74300000D03*
X154000000Y-74300000D03*
X157080000Y-73900000D03*
X154000000Y-73900000D03*
X157080000Y-73500000D03*
X154000000Y-73500000D03*
X157080000Y-73100000D03*
X154000000Y-73100000D03*
X157080000Y-72700000D03*
X154000000Y-72700000D03*
X157080000Y-72300000D03*
X154000000Y-72300000D03*
X157080000Y-71900000D03*
X154000000Y-71900000D03*
X157080000Y-71500000D03*
X154000000Y-71500000D03*
X157080000Y-71100000D03*
X154000000Y-71100000D03*
X157080000Y-70700000D03*
X154000000Y-70700000D03*
X157080000Y-70300000D03*
X154000000Y-70300000D03*
X157080000Y-69900000D03*
X154000000Y-69900000D03*
X157080000Y-69500000D03*
X154000000Y-69500000D03*
X157080000Y-69100000D03*
X154000000Y-69100000D03*
X157080000Y-68700000D03*
X154000000Y-68700000D03*
X157080000Y-68300000D03*
X154000000Y-68300000D03*
X157080000Y-67900000D03*
X154000000Y-67900000D03*
X157080000Y-67500000D03*
X154000000Y-67500000D03*
X157080000Y-67100000D03*
X154000000Y-67100000D03*
X157080000Y-66700000D03*
X154000000Y-66700000D03*
X157080000Y-66300000D03*
X154000000Y-66300000D03*
X157080000Y-65900000D03*
X154000000Y-65900000D03*
X157080000Y-65500000D03*
X154000000Y-65500000D03*
X157080000Y-65100000D03*
X154000000Y-65100000D03*
X157080000Y-64700000D03*
X154000000Y-64700000D03*
X157080000Y-64300000D03*
X154000000Y-64300000D03*
X157080000Y-63900000D03*
X154000000Y-63900000D03*
X157080000Y-63500000D03*
X154000000Y-63500000D03*
X123080000Y-83100000D03*
X120000000Y-83100000D03*
X123080000Y-82700000D03*
X120000000Y-82700000D03*
X123080000Y-82300000D03*
X120000000Y-82300000D03*
X123080000Y-81900000D03*
X120000000Y-81900000D03*
X123080000Y-81500000D03*
X120000000Y-81500000D03*
X123080000Y-81100000D03*
X120000000Y-81100000D03*
X123080000Y-80700000D03*
X120000000Y-80700000D03*
X123080000Y-80300000D03*
X120000000Y-80300000D03*
X123080000Y-79900000D03*
X120000000Y-79900000D03*
X123080000Y-79500000D03*
X120000000Y-79500000D03*
X123080000Y-79100000D03*
X120000000Y-79100000D03*
X123080000Y-78700000D03*
X120000000Y-78700000D03*
X123080000Y-78300000D03*
X120000000Y-78300000D03*
X123080000Y-77900000D03*
X120000000Y-77900000D03*
X123080000Y-77500000D03*
X120000000Y-77500000D03*
X123080000Y-77100000D03*
X120000000Y-77100000D03*
X123080000Y-76700000D03*
X120000000Y-76700000D03*
X123080000Y-76300000D03*
X120000000Y-76300000D03*
X123080000Y-75900000D03*
X120000000Y-75900000D03*
X123080000Y-75500000D03*
X120000000Y-75500000D03*
X123080000Y-75100000D03*
X120000000Y-75100000D03*
X123080000Y-74700000D03*
X120000000Y-74700000D03*
X123080000Y-74300000D03*
X120000000Y-74300000D03*
X123080000Y-73900000D03*
X120000000Y-73900000D03*
X123080000Y-73500000D03*
X120000000Y-73500000D03*
X123080000Y-73100000D03*
X120000000Y-73100000D03*
X123080000Y-72700000D03*
X120000000Y-72700000D03*
X123080000Y-72300000D03*
X120000000Y-72300000D03*
X123080000Y-71900000D03*
X120000000Y-71900000D03*
X123080000Y-71500000D03*
X120000000Y-71500000D03*
X123080000Y-71100000D03*
X120000000Y-71100000D03*
X123080000Y-70700000D03*
X120000000Y-70700000D03*
X123080000Y-70300000D03*
X120000000Y-70300000D03*
X123080000Y-69900000D03*
X120000000Y-69900000D03*
X123080000Y-69500000D03*
X120000000Y-69500000D03*
X123080000Y-69100000D03*
X120000000Y-69100000D03*
X123080000Y-68700000D03*
X120000000Y-68700000D03*
X123080000Y-68300000D03*
X120000000Y-68300000D03*
X123080000Y-67900000D03*
X120000000Y-67900000D03*
X123080000Y-67500000D03*
X120000000Y-67500000D03*
X123080000Y-67100000D03*
X120000000Y-67100000D03*
X123080000Y-66700000D03*
X120000000Y-66700000D03*
X123080000Y-66300000D03*
X120000000Y-66300000D03*
X123080000Y-65900000D03*
X120000000Y-65900000D03*
X123080000Y-65500000D03*
X120000000Y-65500000D03*
X123080000Y-65100000D03*
X120000000Y-65100000D03*
X123080000Y-64700000D03*
X120000000Y-64700000D03*
X123080000Y-64300000D03*
X120000000Y-64300000D03*
X123080000Y-63900000D03*
X120000000Y-63900000D03*
X123080000Y-63500000D03*
X120000000Y-63500000D03*
%TD*%
D21*
%TO.C,R6*%
X109200000Y-87800000D03*
X109200000Y-89450000D03*
%TD*%
D17*
%TO.C,U6*%
X123600000Y-105320000D03*
X124100000Y-105320000D03*
X124600000Y-105320000D03*
X125100000Y-105320000D03*
X125600000Y-105320000D03*
X125600000Y-104550000D03*
X125100000Y-104550000D03*
X124600000Y-104550000D03*
X124100000Y-104550000D03*
X123600000Y-104550000D03*
%TD*%
D11*
%TO.C,C7*%
X108725000Y-69500000D03*
X108725000Y-70460000D03*
%TD*%
D10*
%TO.C,C3*%
X150875000Y-104600000D03*
X149325000Y-104600000D03*
%TD*%
D35*
%TO.C,C12*%
X106430000Y-92925000D03*
X106430000Y-92235000D03*
%TD*%
D36*
%TO.C,J1*%
X105950000Y-55845000D03*
X105150000Y-55845000D03*
D37*
X103950000Y-55845000D03*
X102950000Y-55845000D03*
X102450000Y-55845000D03*
X101450000Y-55845000D03*
D36*
X100250000Y-55845000D03*
X99450000Y-55845000D03*
X99450000Y-55845000D03*
X100250000Y-55845000D03*
D37*
X100950000Y-55845000D03*
X101950000Y-55845000D03*
X103450000Y-55845000D03*
X104450000Y-55845000D03*
D36*
X105150000Y-55845000D03*
X105950000Y-55845000D03*
%TD*%
D17*
%TO.C,U7*%
X131100000Y-105320000D03*
X131600000Y-105320000D03*
X132100000Y-105320000D03*
X132600000Y-105320000D03*
X133100000Y-105320000D03*
X133100000Y-104550000D03*
X132600000Y-104550000D03*
X132100000Y-104550000D03*
X131600000Y-104550000D03*
X131100000Y-104550000D03*
%TD*%
%TO.C,U10*%
X102800000Y-105370000D03*
X103300000Y-105370000D03*
X103800000Y-105370000D03*
X104300000Y-105370000D03*
X104800000Y-105370000D03*
X104800000Y-104600000D03*
X104300000Y-104600000D03*
X103800000Y-104600000D03*
X103300000Y-104600000D03*
X102800000Y-104600000D03*
%TD*%
D38*
%TO.C,C2*%
X105170000Y-57850000D03*
X105170000Y-59400000D03*
%TD*%
D39*
%TO.C,D1*%
X110837500Y-49025000D03*
X112412500Y-49025000D03*
%TD*%
D10*
%TO.C,C5*%
X150837500Y-107537500D03*
X149287500Y-107537500D03*
%TD*%
D30*
%TO.C,C20*%
X106225000Y-105200000D03*
X107775000Y-105200000D03*
%TD*%
D40*
%TO.C,J3*%
X162850000Y-71525000D03*
X162850000Y-72525000D03*
X162850000Y-73525000D03*
X162850000Y-74525000D03*
D41*
X165375000Y-70225000D03*
X165375000Y-75825000D03*
%TD*%
D42*
%TO.C,R1*%
X155025000Y-108300000D03*
X153375000Y-108300000D03*
%TD*%
D43*
%TO.C,Y1*%
X98530000Y-99050000D03*
X100730000Y-99050000D03*
X100730000Y-97350000D03*
X98530000Y-97350000D03*
%TD*%
D38*
%TO.C,C1*%
X100270000Y-57800000D03*
X100270000Y-59350000D03*
%TD*%
D44*
%TO.C,C13*%
X110191048Y-96836048D03*
X110678952Y-97323952D03*
%TD*%
D45*
%TO.C,R5*%
X103235000Y-97695000D03*
X103235000Y-98715000D03*
%TD*%
D12*
%TO.C,R7*%
X110700000Y-89450000D03*
X110700000Y-87800000D03*
%TD*%
D46*
%TO.C,C8*%
X108305000Y-65200000D03*
X107345000Y-65200000D03*
%TD*%
M02*
