%TF.GenerationSoftware,KiCad,Pcbnew,10.0.3*%
%TF.CreationDate,2026-06-19T21:26:40+10:00*%
%TF.ProjectId,travel-router,74726176-656c-42d7-926f-757465722e6b,rev?*%
%TF.SameCoordinates,Original*%
%TF.FileFunction,Legend,Top*%
%TF.FilePolarity,Positive*%
%FSLAX46Y46*%
G04 Gerber Fmt 4.6, Leading zero omitted, Abs format (unit mm)*
G04 Created by KiCad (PCBNEW 10.0.3) date 2026-06-19 21:26:40*
%MOMM*%
%LPD*%
G01*
G04 APERTURE LIST*
%ADD10C,0.150000*%
%ADD11C,0.120000*%
%ADD12C,0.250000*%
%ADD13C,0.200000*%
%ADD14C,0.060000*%
G04 APERTURE END LIST*
D10*
X137114819Y-59737142D02*
X136114819Y-59737142D01*
X136114819Y-59737142D02*
X136829104Y-59403809D01*
X136829104Y-59403809D02*
X136114819Y-59070476D01*
X136114819Y-59070476D02*
X137114819Y-59070476D01*
X137114819Y-58451428D02*
X137067200Y-58546666D01*
X137067200Y-58546666D02*
X137019580Y-58594285D01*
X137019580Y-58594285D02*
X136924342Y-58641904D01*
X136924342Y-58641904D02*
X136638628Y-58641904D01*
X136638628Y-58641904D02*
X136543390Y-58594285D01*
X136543390Y-58594285D02*
X136495771Y-58546666D01*
X136495771Y-58546666D02*
X136448152Y-58451428D01*
X136448152Y-58451428D02*
X136448152Y-58308571D01*
X136448152Y-58308571D02*
X136495771Y-58213333D01*
X136495771Y-58213333D02*
X136543390Y-58165714D01*
X136543390Y-58165714D02*
X136638628Y-58118095D01*
X136638628Y-58118095D02*
X136924342Y-58118095D01*
X136924342Y-58118095D02*
X137019580Y-58165714D01*
X137019580Y-58165714D02*
X137067200Y-58213333D01*
X137067200Y-58213333D02*
X137114819Y-58308571D01*
X137114819Y-58308571D02*
X137114819Y-58451428D01*
X137114819Y-57260952D02*
X136114819Y-57260952D01*
X137067200Y-57260952D02*
X137114819Y-57356190D01*
X137114819Y-57356190D02*
X137114819Y-57546666D01*
X137114819Y-57546666D02*
X137067200Y-57641904D01*
X137067200Y-57641904D02*
X137019580Y-57689523D01*
X137019580Y-57689523D02*
X136924342Y-57737142D01*
X136924342Y-57737142D02*
X136638628Y-57737142D01*
X136638628Y-57737142D02*
X136543390Y-57689523D01*
X136543390Y-57689523D02*
X136495771Y-57641904D01*
X136495771Y-57641904D02*
X136448152Y-57546666D01*
X136448152Y-57546666D02*
X136448152Y-57356190D01*
X136448152Y-57356190D02*
X136495771Y-57260952D01*
X136448152Y-56356190D02*
X137114819Y-56356190D01*
X136448152Y-56784761D02*
X136971961Y-56784761D01*
X136971961Y-56784761D02*
X137067200Y-56737142D01*
X137067200Y-56737142D02*
X137114819Y-56641904D01*
X137114819Y-56641904D02*
X137114819Y-56499047D01*
X137114819Y-56499047D02*
X137067200Y-56403809D01*
X137067200Y-56403809D02*
X137019580Y-56356190D01*
X137114819Y-55737142D02*
X137067200Y-55832380D01*
X137067200Y-55832380D02*
X136971961Y-55879999D01*
X136971961Y-55879999D02*
X136114819Y-55879999D01*
X137067200Y-54975237D02*
X137114819Y-55070475D01*
X137114819Y-55070475D02*
X137114819Y-55260951D01*
X137114819Y-55260951D02*
X137067200Y-55356189D01*
X137067200Y-55356189D02*
X136971961Y-55403808D01*
X136971961Y-55403808D02*
X136591009Y-55403808D01*
X136591009Y-55403808D02*
X136495771Y-55356189D01*
X136495771Y-55356189D02*
X136448152Y-55260951D01*
X136448152Y-55260951D02*
X136448152Y-55070475D01*
X136448152Y-55070475D02*
X136495771Y-54975237D01*
X136495771Y-54975237D02*
X136591009Y-54927618D01*
X136591009Y-54927618D02*
X136686247Y-54927618D01*
X136686247Y-54927618D02*
X136781485Y-55403808D01*
X137114819Y-53975237D02*
X137114819Y-54546665D01*
X137114819Y-54260951D02*
X136114819Y-54260951D01*
X136114819Y-54260951D02*
X136257676Y-54356189D01*
X136257676Y-54356189D02*
X136352914Y-54451427D01*
X136352914Y-54451427D02*
X136400533Y-54546665D01*
X143113095Y-106379819D02*
X143113095Y-107189342D01*
X143113095Y-107189342D02*
X143160714Y-107284580D01*
X143160714Y-107284580D02*
X143208333Y-107332200D01*
X143208333Y-107332200D02*
X143303571Y-107379819D01*
X143303571Y-107379819D02*
X143494047Y-107379819D01*
X143494047Y-107379819D02*
X143589285Y-107332200D01*
X143589285Y-107332200D02*
X143636904Y-107284580D01*
X143636904Y-107284580D02*
X143684523Y-107189342D01*
X143684523Y-107189342D02*
X143684523Y-106379819D01*
X144636904Y-106379819D02*
X144160714Y-106379819D01*
X144160714Y-106379819D02*
X144113095Y-106856009D01*
X144113095Y-106856009D02*
X144160714Y-106808390D01*
X144160714Y-106808390D02*
X144255952Y-106760771D01*
X144255952Y-106760771D02*
X144494047Y-106760771D01*
X144494047Y-106760771D02*
X144589285Y-106808390D01*
X144589285Y-106808390D02*
X144636904Y-106856009D01*
X144636904Y-106856009D02*
X144684523Y-106951247D01*
X144684523Y-106951247D02*
X144684523Y-107189342D01*
X144684523Y-107189342D02*
X144636904Y-107284580D01*
X144636904Y-107284580D02*
X144589285Y-107332200D01*
X144589285Y-107332200D02*
X144494047Y-107379819D01*
X144494047Y-107379819D02*
X144255952Y-107379819D01*
X144255952Y-107379819D02*
X144160714Y-107332200D01*
X144160714Y-107332200D02*
X144113095Y-107284580D01*
X147433333Y-109359580D02*
X147385714Y-109407200D01*
X147385714Y-109407200D02*
X147242857Y-109454819D01*
X147242857Y-109454819D02*
X147147619Y-109454819D01*
X147147619Y-109454819D02*
X147004762Y-109407200D01*
X147004762Y-109407200D02*
X146909524Y-109311961D01*
X146909524Y-109311961D02*
X146861905Y-109216723D01*
X146861905Y-109216723D02*
X146814286Y-109026247D01*
X146814286Y-109026247D02*
X146814286Y-108883390D01*
X146814286Y-108883390D02*
X146861905Y-108692914D01*
X146861905Y-108692914D02*
X146909524Y-108597676D01*
X146909524Y-108597676D02*
X147004762Y-108502438D01*
X147004762Y-108502438D02*
X147147619Y-108454819D01*
X147147619Y-108454819D02*
X147242857Y-108454819D01*
X147242857Y-108454819D02*
X147385714Y-108502438D01*
X147385714Y-108502438D02*
X147433333Y-108550057D01*
X148290476Y-108454819D02*
X148100000Y-108454819D01*
X148100000Y-108454819D02*
X148004762Y-108502438D01*
X148004762Y-108502438D02*
X147957143Y-108550057D01*
X147957143Y-108550057D02*
X147861905Y-108692914D01*
X147861905Y-108692914D02*
X147814286Y-108883390D01*
X147814286Y-108883390D02*
X147814286Y-109264342D01*
X147814286Y-109264342D02*
X147861905Y-109359580D01*
X147861905Y-109359580D02*
X147909524Y-109407200D01*
X147909524Y-109407200D02*
X148004762Y-109454819D01*
X148004762Y-109454819D02*
X148195238Y-109454819D01*
X148195238Y-109454819D02*
X148290476Y-109407200D01*
X148290476Y-109407200D02*
X148338095Y-109359580D01*
X148338095Y-109359580D02*
X148385714Y-109264342D01*
X148385714Y-109264342D02*
X148385714Y-109026247D01*
X148385714Y-109026247D02*
X148338095Y-108931009D01*
X148338095Y-108931009D02*
X148290476Y-108883390D01*
X148290476Y-108883390D02*
X148195238Y-108835771D01*
X148195238Y-108835771D02*
X148004762Y-108835771D01*
X148004762Y-108835771D02*
X147909524Y-108883390D01*
X147909524Y-108883390D02*
X147861905Y-108931009D01*
X147861905Y-108931009D02*
X147814286Y-109026247D01*
X108154819Y-86166666D02*
X107678628Y-86499999D01*
X108154819Y-86738094D02*
X107154819Y-86738094D01*
X107154819Y-86738094D02*
X107154819Y-86357142D01*
X107154819Y-86357142D02*
X107202438Y-86261904D01*
X107202438Y-86261904D02*
X107250057Y-86214285D01*
X107250057Y-86214285D02*
X107345295Y-86166666D01*
X107345295Y-86166666D02*
X107488152Y-86166666D01*
X107488152Y-86166666D02*
X107583390Y-86214285D01*
X107583390Y-86214285D02*
X107631009Y-86261904D01*
X107631009Y-86261904D02*
X107678628Y-86357142D01*
X107678628Y-86357142D02*
X107678628Y-86738094D01*
X107488152Y-85309523D02*
X108154819Y-85309523D01*
X107107200Y-85547618D02*
X107821485Y-85785713D01*
X107821485Y-85785713D02*
X107821485Y-85166666D01*
X112961905Y-104454819D02*
X112961905Y-105264342D01*
X112961905Y-105264342D02*
X113009524Y-105359580D01*
X113009524Y-105359580D02*
X113057143Y-105407200D01*
X113057143Y-105407200D02*
X113152381Y-105454819D01*
X113152381Y-105454819D02*
X113342857Y-105454819D01*
X113342857Y-105454819D02*
X113438095Y-105407200D01*
X113438095Y-105407200D02*
X113485714Y-105359580D01*
X113485714Y-105359580D02*
X113533333Y-105264342D01*
X113533333Y-105264342D02*
X113533333Y-104454819D01*
X114533333Y-105454819D02*
X113961905Y-105454819D01*
X114247619Y-105454819D02*
X114247619Y-104454819D01*
X114247619Y-104454819D02*
X114152381Y-104597676D01*
X114152381Y-104597676D02*
X114057143Y-104692914D01*
X114057143Y-104692914D02*
X113961905Y-104740533D01*
X115485714Y-105454819D02*
X114914286Y-105454819D01*
X115200000Y-105454819D02*
X115200000Y-104454819D01*
X115200000Y-104454819D02*
X115104762Y-104597676D01*
X115104762Y-104597676D02*
X115009524Y-104692914D01*
X115009524Y-104692914D02*
X114914286Y-104740533D01*
X110681009Y-80760714D02*
X110728628Y-80617857D01*
X110728628Y-80617857D02*
X110776247Y-80570238D01*
X110776247Y-80570238D02*
X110871485Y-80522619D01*
X110871485Y-80522619D02*
X111014342Y-80522619D01*
X111014342Y-80522619D02*
X111109580Y-80570238D01*
X111109580Y-80570238D02*
X111157200Y-80617857D01*
X111157200Y-80617857D02*
X111204819Y-80713095D01*
X111204819Y-80713095D02*
X111204819Y-81094047D01*
X111204819Y-81094047D02*
X110204819Y-81094047D01*
X110204819Y-81094047D02*
X110204819Y-80760714D01*
X110204819Y-80760714D02*
X110252438Y-80665476D01*
X110252438Y-80665476D02*
X110300057Y-80617857D01*
X110300057Y-80617857D02*
X110395295Y-80570238D01*
X110395295Y-80570238D02*
X110490533Y-80570238D01*
X110490533Y-80570238D02*
X110585771Y-80617857D01*
X110585771Y-80617857D02*
X110633390Y-80665476D01*
X110633390Y-80665476D02*
X110681009Y-80760714D01*
X110681009Y-80760714D02*
X110681009Y-81094047D01*
X110204819Y-80236904D02*
X110204819Y-79665476D01*
X111204819Y-79951190D02*
X110204819Y-79951190D01*
X111204819Y-78808333D02*
X111204819Y-79379761D01*
X111204819Y-79094047D02*
X110204819Y-79094047D01*
X110204819Y-79094047D02*
X110347676Y-79189285D01*
X110347676Y-79189285D02*
X110442914Y-79284523D01*
X110442914Y-79284523D02*
X110490533Y-79379761D01*
X116461905Y-49454819D02*
X116461905Y-48454819D01*
X116461905Y-48454819D02*
X116700000Y-48454819D01*
X116700000Y-48454819D02*
X116842857Y-48502438D01*
X116842857Y-48502438D02*
X116938095Y-48597676D01*
X116938095Y-48597676D02*
X116985714Y-48692914D01*
X116985714Y-48692914D02*
X117033333Y-48883390D01*
X117033333Y-48883390D02*
X117033333Y-49026247D01*
X117033333Y-49026247D02*
X116985714Y-49216723D01*
X116985714Y-49216723D02*
X116938095Y-49311961D01*
X116938095Y-49311961D02*
X116842857Y-49407200D01*
X116842857Y-49407200D02*
X116700000Y-49454819D01*
X116700000Y-49454819D02*
X116461905Y-49454819D01*
X117414286Y-48550057D02*
X117461905Y-48502438D01*
X117461905Y-48502438D02*
X117557143Y-48454819D01*
X117557143Y-48454819D02*
X117795238Y-48454819D01*
X117795238Y-48454819D02*
X117890476Y-48502438D01*
X117890476Y-48502438D02*
X117938095Y-48550057D01*
X117938095Y-48550057D02*
X117985714Y-48645295D01*
X117985714Y-48645295D02*
X117985714Y-48740533D01*
X117985714Y-48740533D02*
X117938095Y-48883390D01*
X117938095Y-48883390D02*
X117366667Y-49454819D01*
X117366667Y-49454819D02*
X117985714Y-49454819D01*
X116254819Y-51466666D02*
X115778628Y-51799999D01*
X116254819Y-52038094D02*
X115254819Y-52038094D01*
X115254819Y-52038094D02*
X115254819Y-51657142D01*
X115254819Y-51657142D02*
X115302438Y-51561904D01*
X115302438Y-51561904D02*
X115350057Y-51514285D01*
X115350057Y-51514285D02*
X115445295Y-51466666D01*
X115445295Y-51466666D02*
X115588152Y-51466666D01*
X115588152Y-51466666D02*
X115683390Y-51514285D01*
X115683390Y-51514285D02*
X115731009Y-51561904D01*
X115731009Y-51561904D02*
X115778628Y-51657142D01*
X115778628Y-51657142D02*
X115778628Y-52038094D01*
X115254819Y-51133332D02*
X115254819Y-50514285D01*
X115254819Y-50514285D02*
X115635771Y-50847618D01*
X115635771Y-50847618D02*
X115635771Y-50704761D01*
X115635771Y-50704761D02*
X115683390Y-50609523D01*
X115683390Y-50609523D02*
X115731009Y-50561904D01*
X115731009Y-50561904D02*
X115826247Y-50514285D01*
X115826247Y-50514285D02*
X116064342Y-50514285D01*
X116064342Y-50514285D02*
X116159580Y-50561904D01*
X116159580Y-50561904D02*
X116207200Y-50609523D01*
X116207200Y-50609523D02*
X116254819Y-50704761D01*
X116254819Y-50704761D02*
X116254819Y-50990475D01*
X116254819Y-50990475D02*
X116207200Y-51085713D01*
X116207200Y-51085713D02*
X116159580Y-51133332D01*
X110754819Y-51466666D02*
X110278628Y-51799999D01*
X110754819Y-52038094D02*
X109754819Y-52038094D01*
X109754819Y-52038094D02*
X109754819Y-51657142D01*
X109754819Y-51657142D02*
X109802438Y-51561904D01*
X109802438Y-51561904D02*
X109850057Y-51514285D01*
X109850057Y-51514285D02*
X109945295Y-51466666D01*
X109945295Y-51466666D02*
X110088152Y-51466666D01*
X110088152Y-51466666D02*
X110183390Y-51514285D01*
X110183390Y-51514285D02*
X110231009Y-51561904D01*
X110231009Y-51561904D02*
X110278628Y-51657142D01*
X110278628Y-51657142D02*
X110278628Y-52038094D01*
X109850057Y-51085713D02*
X109802438Y-51038094D01*
X109802438Y-51038094D02*
X109754819Y-50942856D01*
X109754819Y-50942856D02*
X109754819Y-50704761D01*
X109754819Y-50704761D02*
X109802438Y-50609523D01*
X109802438Y-50609523D02*
X109850057Y-50561904D01*
X109850057Y-50561904D02*
X109945295Y-50514285D01*
X109945295Y-50514285D02*
X110040533Y-50514285D01*
X110040533Y-50514285D02*
X110183390Y-50561904D01*
X110183390Y-50561904D02*
X110754819Y-51133332D01*
X110754819Y-51133332D02*
X110754819Y-50514285D01*
X167757200Y-91533332D02*
X167804819Y-91390475D01*
X167804819Y-91390475D02*
X167804819Y-91152380D01*
X167804819Y-91152380D02*
X167757200Y-91057142D01*
X167757200Y-91057142D02*
X167709580Y-91009523D01*
X167709580Y-91009523D02*
X167614342Y-90961904D01*
X167614342Y-90961904D02*
X167519104Y-90961904D01*
X167519104Y-90961904D02*
X167423866Y-91009523D01*
X167423866Y-91009523D02*
X167376247Y-91057142D01*
X167376247Y-91057142D02*
X167328628Y-91152380D01*
X167328628Y-91152380D02*
X167281009Y-91342856D01*
X167281009Y-91342856D02*
X167233390Y-91438094D01*
X167233390Y-91438094D02*
X167185771Y-91485713D01*
X167185771Y-91485713D02*
X167090533Y-91533332D01*
X167090533Y-91533332D02*
X166995295Y-91533332D01*
X166995295Y-91533332D02*
X166900057Y-91485713D01*
X166900057Y-91485713D02*
X166852438Y-91438094D01*
X166852438Y-91438094D02*
X166804819Y-91342856D01*
X166804819Y-91342856D02*
X166804819Y-91104761D01*
X166804819Y-91104761D02*
X166852438Y-90961904D01*
X166804819Y-90628570D02*
X167804819Y-90390475D01*
X167804819Y-90390475D02*
X167090533Y-90199999D01*
X167090533Y-90199999D02*
X167804819Y-90009523D01*
X167804819Y-90009523D02*
X166804819Y-89771428D01*
X166900057Y-89438094D02*
X166852438Y-89390475D01*
X166852438Y-89390475D02*
X166804819Y-89295237D01*
X166804819Y-89295237D02*
X166804819Y-89057142D01*
X166804819Y-89057142D02*
X166852438Y-88961904D01*
X166852438Y-88961904D02*
X166900057Y-88914285D01*
X166900057Y-88914285D02*
X166995295Y-88866666D01*
X166995295Y-88866666D02*
X167090533Y-88866666D01*
X167090533Y-88866666D02*
X167233390Y-88914285D01*
X167233390Y-88914285D02*
X167804819Y-89485713D01*
X167804819Y-89485713D02*
X167804819Y-88866666D01*
X101809819Y-64533333D02*
X102524104Y-64533333D01*
X102524104Y-64533333D02*
X102666961Y-64580952D01*
X102666961Y-64580952D02*
X102762200Y-64676190D01*
X102762200Y-64676190D02*
X102809819Y-64819047D01*
X102809819Y-64819047D02*
X102809819Y-64914285D01*
X102143152Y-63628571D02*
X102809819Y-63628571D01*
X101762200Y-63866666D02*
X102476485Y-64104761D01*
X102476485Y-64104761D02*
X102476485Y-63485714D01*
X156050595Y-104004819D02*
X156050595Y-104814342D01*
X156050595Y-104814342D02*
X156098214Y-104909580D01*
X156098214Y-104909580D02*
X156145833Y-104957200D01*
X156145833Y-104957200D02*
X156241071Y-105004819D01*
X156241071Y-105004819D02*
X156431547Y-105004819D01*
X156431547Y-105004819D02*
X156526785Y-104957200D01*
X156526785Y-104957200D02*
X156574404Y-104909580D01*
X156574404Y-104909580D02*
X156622023Y-104814342D01*
X156622023Y-104814342D02*
X156622023Y-104004819D01*
X157050595Y-104100057D02*
X157098214Y-104052438D01*
X157098214Y-104052438D02*
X157193452Y-104004819D01*
X157193452Y-104004819D02*
X157431547Y-104004819D01*
X157431547Y-104004819D02*
X157526785Y-104052438D01*
X157526785Y-104052438D02*
X157574404Y-104100057D01*
X157574404Y-104100057D02*
X157622023Y-104195295D01*
X157622023Y-104195295D02*
X157622023Y-104290533D01*
X157622023Y-104290533D02*
X157574404Y-104433390D01*
X157574404Y-104433390D02*
X157002976Y-105004819D01*
X157002976Y-105004819D02*
X157622023Y-105004819D01*
X112104819Y-64586904D02*
X112914342Y-64586904D01*
X112914342Y-64586904D02*
X113009580Y-64539285D01*
X113009580Y-64539285D02*
X113057200Y-64491666D01*
X113057200Y-64491666D02*
X113104819Y-64396428D01*
X113104819Y-64396428D02*
X113104819Y-64205952D01*
X113104819Y-64205952D02*
X113057200Y-64110714D01*
X113057200Y-64110714D02*
X113009580Y-64063095D01*
X113009580Y-64063095D02*
X112914342Y-64015476D01*
X112914342Y-64015476D02*
X112104819Y-64015476D01*
X112438152Y-63110714D02*
X113104819Y-63110714D01*
X112057200Y-63348809D02*
X112771485Y-63586904D01*
X112771485Y-63586904D02*
X112771485Y-62967857D01*
X160295833Y-111709580D02*
X160248214Y-111757200D01*
X160248214Y-111757200D02*
X160105357Y-111804819D01*
X160105357Y-111804819D02*
X160010119Y-111804819D01*
X160010119Y-111804819D02*
X159867262Y-111757200D01*
X159867262Y-111757200D02*
X159772024Y-111661961D01*
X159772024Y-111661961D02*
X159724405Y-111566723D01*
X159724405Y-111566723D02*
X159676786Y-111376247D01*
X159676786Y-111376247D02*
X159676786Y-111233390D01*
X159676786Y-111233390D02*
X159724405Y-111042914D01*
X159724405Y-111042914D02*
X159772024Y-110947676D01*
X159772024Y-110947676D02*
X159867262Y-110852438D01*
X159867262Y-110852438D02*
X160010119Y-110804819D01*
X160010119Y-110804819D02*
X160105357Y-110804819D01*
X160105357Y-110804819D02*
X160248214Y-110852438D01*
X160248214Y-110852438D02*
X160295833Y-110900057D01*
X161152976Y-111138152D02*
X161152976Y-111804819D01*
X160914881Y-110757200D02*
X160676786Y-111471485D01*
X160676786Y-111471485D02*
X161295833Y-111471485D01*
X100538095Y-60454819D02*
X100538095Y-61264342D01*
X100538095Y-61264342D02*
X100585714Y-61359580D01*
X100585714Y-61359580D02*
X100633333Y-61407200D01*
X100633333Y-61407200D02*
X100728571Y-61454819D01*
X100728571Y-61454819D02*
X100919047Y-61454819D01*
X100919047Y-61454819D02*
X101014285Y-61407200D01*
X101014285Y-61407200D02*
X101061904Y-61359580D01*
X101061904Y-61359580D02*
X101109523Y-61264342D01*
X101109523Y-61264342D02*
X101109523Y-60454819D01*
X102109523Y-61454819D02*
X101538095Y-61454819D01*
X101823809Y-61454819D02*
X101823809Y-60454819D01*
X101823809Y-60454819D02*
X101728571Y-60597676D01*
X101728571Y-60597676D02*
X101633333Y-60692914D01*
X101633333Y-60692914D02*
X101538095Y-60740533D01*
X104854819Y-66461904D02*
X105664342Y-66461904D01*
X105664342Y-66461904D02*
X105759580Y-66414285D01*
X105759580Y-66414285D02*
X105807200Y-66366666D01*
X105807200Y-66366666D02*
X105854819Y-66271428D01*
X105854819Y-66271428D02*
X105854819Y-66080952D01*
X105854819Y-66080952D02*
X105807200Y-65985714D01*
X105807200Y-65985714D02*
X105759580Y-65938095D01*
X105759580Y-65938095D02*
X105664342Y-65890476D01*
X105664342Y-65890476D02*
X104854819Y-65890476D01*
X104854819Y-65509523D02*
X104854819Y-64890476D01*
X104854819Y-64890476D02*
X105235771Y-65223809D01*
X105235771Y-65223809D02*
X105235771Y-65080952D01*
X105235771Y-65080952D02*
X105283390Y-64985714D01*
X105283390Y-64985714D02*
X105331009Y-64938095D01*
X105331009Y-64938095D02*
X105426247Y-64890476D01*
X105426247Y-64890476D02*
X105664342Y-64890476D01*
X105664342Y-64890476D02*
X105759580Y-64938095D01*
X105759580Y-64938095D02*
X105807200Y-64985714D01*
X105807200Y-64985714D02*
X105854819Y-65080952D01*
X105854819Y-65080952D02*
X105854819Y-65366666D01*
X105854819Y-65366666D02*
X105807200Y-65461904D01*
X105807200Y-65461904D02*
X105759580Y-65509523D01*
X130334580Y-104866666D02*
X130382200Y-104914285D01*
X130382200Y-104914285D02*
X130429819Y-105057142D01*
X130429819Y-105057142D02*
X130429819Y-105152380D01*
X130429819Y-105152380D02*
X130382200Y-105295237D01*
X130382200Y-105295237D02*
X130286961Y-105390475D01*
X130286961Y-105390475D02*
X130191723Y-105438094D01*
X130191723Y-105438094D02*
X130001247Y-105485713D01*
X130001247Y-105485713D02*
X129858390Y-105485713D01*
X129858390Y-105485713D02*
X129667914Y-105438094D01*
X129667914Y-105438094D02*
X129572676Y-105390475D01*
X129572676Y-105390475D02*
X129477438Y-105295237D01*
X129477438Y-105295237D02*
X129429819Y-105152380D01*
X129429819Y-105152380D02*
X129429819Y-105057142D01*
X129429819Y-105057142D02*
X129477438Y-104914285D01*
X129477438Y-104914285D02*
X129525057Y-104866666D01*
X130429819Y-104390475D02*
X130429819Y-104199999D01*
X130429819Y-104199999D02*
X130382200Y-104104761D01*
X130382200Y-104104761D02*
X130334580Y-104057142D01*
X130334580Y-104057142D02*
X130191723Y-103961904D01*
X130191723Y-103961904D02*
X130001247Y-103914285D01*
X130001247Y-103914285D02*
X129620295Y-103914285D01*
X129620295Y-103914285D02*
X129525057Y-103961904D01*
X129525057Y-103961904D02*
X129477438Y-104009523D01*
X129477438Y-104009523D02*
X129429819Y-104104761D01*
X129429819Y-104104761D02*
X129429819Y-104295237D01*
X129429819Y-104295237D02*
X129477438Y-104390475D01*
X129477438Y-104390475D02*
X129525057Y-104438094D01*
X129525057Y-104438094D02*
X129620295Y-104485713D01*
X129620295Y-104485713D02*
X129858390Y-104485713D01*
X129858390Y-104485713D02*
X129953628Y-104438094D01*
X129953628Y-104438094D02*
X130001247Y-104390475D01*
X130001247Y-104390475D02*
X130048866Y-104295237D01*
X130048866Y-104295237D02*
X130048866Y-104104761D01*
X130048866Y-104104761D02*
X130001247Y-104009523D01*
X130001247Y-104009523D02*
X129953628Y-103961904D01*
X129953628Y-103961904D02*
X129858390Y-103914285D01*
X109654819Y-86166666D02*
X109178628Y-86499999D01*
X109654819Y-86738094D02*
X108654819Y-86738094D01*
X108654819Y-86738094D02*
X108654819Y-86357142D01*
X108654819Y-86357142D02*
X108702438Y-86261904D01*
X108702438Y-86261904D02*
X108750057Y-86214285D01*
X108750057Y-86214285D02*
X108845295Y-86166666D01*
X108845295Y-86166666D02*
X108988152Y-86166666D01*
X108988152Y-86166666D02*
X109083390Y-86214285D01*
X109083390Y-86214285D02*
X109131009Y-86261904D01*
X109131009Y-86261904D02*
X109178628Y-86357142D01*
X109178628Y-86357142D02*
X109178628Y-86738094D01*
X108654819Y-85309523D02*
X108654819Y-85499999D01*
X108654819Y-85499999D02*
X108702438Y-85595237D01*
X108702438Y-85595237D02*
X108750057Y-85642856D01*
X108750057Y-85642856D02*
X108892914Y-85738094D01*
X108892914Y-85738094D02*
X109083390Y-85785713D01*
X109083390Y-85785713D02*
X109464342Y-85785713D01*
X109464342Y-85785713D02*
X109559580Y-85738094D01*
X109559580Y-85738094D02*
X109607200Y-85690475D01*
X109607200Y-85690475D02*
X109654819Y-85595237D01*
X109654819Y-85595237D02*
X109654819Y-85404761D01*
X109654819Y-85404761D02*
X109607200Y-85309523D01*
X109607200Y-85309523D02*
X109559580Y-85261904D01*
X109559580Y-85261904D02*
X109464342Y-85214285D01*
X109464342Y-85214285D02*
X109226247Y-85214285D01*
X109226247Y-85214285D02*
X109131009Y-85261904D01*
X109131009Y-85261904D02*
X109083390Y-85309523D01*
X109083390Y-85309523D02*
X109035771Y-85404761D01*
X109035771Y-85404761D02*
X109035771Y-85595237D01*
X109035771Y-85595237D02*
X109083390Y-85690475D01*
X109083390Y-85690475D02*
X109131009Y-85738094D01*
X109131009Y-85738094D02*
X109226247Y-85785713D01*
X121554819Y-105678614D02*
X122364342Y-105678614D01*
X122364342Y-105678614D02*
X122459580Y-105630995D01*
X122459580Y-105630995D02*
X122507200Y-105583376D01*
X122507200Y-105583376D02*
X122554819Y-105488138D01*
X122554819Y-105488138D02*
X122554819Y-105297662D01*
X122554819Y-105297662D02*
X122507200Y-105202424D01*
X122507200Y-105202424D02*
X122459580Y-105154805D01*
X122459580Y-105154805D02*
X122364342Y-105107186D01*
X122364342Y-105107186D02*
X121554819Y-105107186D01*
X121554819Y-104202424D02*
X121554819Y-104392900D01*
X121554819Y-104392900D02*
X121602438Y-104488138D01*
X121602438Y-104488138D02*
X121650057Y-104535757D01*
X121650057Y-104535757D02*
X121792914Y-104630995D01*
X121792914Y-104630995D02*
X121983390Y-104678614D01*
X121983390Y-104678614D02*
X122364342Y-104678614D01*
X122364342Y-104678614D02*
X122459580Y-104630995D01*
X122459580Y-104630995D02*
X122507200Y-104583376D01*
X122507200Y-104583376D02*
X122554819Y-104488138D01*
X122554819Y-104488138D02*
X122554819Y-104297662D01*
X122554819Y-104297662D02*
X122507200Y-104202424D01*
X122507200Y-104202424D02*
X122459580Y-104154805D01*
X122459580Y-104154805D02*
X122364342Y-104107186D01*
X122364342Y-104107186D02*
X122126247Y-104107186D01*
X122126247Y-104107186D02*
X122031009Y-104154805D01*
X122031009Y-104154805D02*
X121983390Y-104202424D01*
X121983390Y-104202424D02*
X121935771Y-104297662D01*
X121935771Y-104297662D02*
X121935771Y-104488138D01*
X121935771Y-104488138D02*
X121983390Y-104583376D01*
X121983390Y-104583376D02*
X122031009Y-104630995D01*
X122031009Y-104630995D02*
X122126247Y-104678614D01*
X162413095Y-81056819D02*
X162984523Y-81056819D01*
X162698809Y-82056819D02*
X162698809Y-81056819D01*
X163317857Y-82056819D02*
X163317857Y-81056819D01*
X163317857Y-81056819D02*
X163698809Y-81056819D01*
X163698809Y-81056819D02*
X163794047Y-81104438D01*
X163794047Y-81104438D02*
X163841666Y-81152057D01*
X163841666Y-81152057D02*
X163889285Y-81247295D01*
X163889285Y-81247295D02*
X163889285Y-81390152D01*
X163889285Y-81390152D02*
X163841666Y-81485390D01*
X163841666Y-81485390D02*
X163794047Y-81533009D01*
X163794047Y-81533009D02*
X163698809Y-81580628D01*
X163698809Y-81580628D02*
X163317857Y-81580628D01*
X164841666Y-82056819D02*
X164270238Y-82056819D01*
X164555952Y-82056819D02*
X164555952Y-81056819D01*
X164555952Y-81056819D02*
X164460714Y-81199676D01*
X164460714Y-81199676D02*
X164365476Y-81294914D01*
X164365476Y-81294914D02*
X164270238Y-81342533D01*
X107884580Y-70441666D02*
X107932200Y-70489285D01*
X107932200Y-70489285D02*
X107979819Y-70632142D01*
X107979819Y-70632142D02*
X107979819Y-70727380D01*
X107979819Y-70727380D02*
X107932200Y-70870237D01*
X107932200Y-70870237D02*
X107836961Y-70965475D01*
X107836961Y-70965475D02*
X107741723Y-71013094D01*
X107741723Y-71013094D02*
X107551247Y-71060713D01*
X107551247Y-71060713D02*
X107408390Y-71060713D01*
X107408390Y-71060713D02*
X107217914Y-71013094D01*
X107217914Y-71013094D02*
X107122676Y-70965475D01*
X107122676Y-70965475D02*
X107027438Y-70870237D01*
X107027438Y-70870237D02*
X106979819Y-70727380D01*
X106979819Y-70727380D02*
X106979819Y-70632142D01*
X106979819Y-70632142D02*
X107027438Y-70489285D01*
X107027438Y-70489285D02*
X107075057Y-70441666D01*
X106979819Y-70108332D02*
X106979819Y-69441666D01*
X106979819Y-69441666D02*
X107979819Y-69870237D01*
X149933333Y-106359580D02*
X149885714Y-106407200D01*
X149885714Y-106407200D02*
X149742857Y-106454819D01*
X149742857Y-106454819D02*
X149647619Y-106454819D01*
X149647619Y-106454819D02*
X149504762Y-106407200D01*
X149504762Y-106407200D02*
X149409524Y-106311961D01*
X149409524Y-106311961D02*
X149361905Y-106216723D01*
X149361905Y-106216723D02*
X149314286Y-106026247D01*
X149314286Y-106026247D02*
X149314286Y-105883390D01*
X149314286Y-105883390D02*
X149361905Y-105692914D01*
X149361905Y-105692914D02*
X149409524Y-105597676D01*
X149409524Y-105597676D02*
X149504762Y-105502438D01*
X149504762Y-105502438D02*
X149647619Y-105454819D01*
X149647619Y-105454819D02*
X149742857Y-105454819D01*
X149742857Y-105454819D02*
X149885714Y-105502438D01*
X149885714Y-105502438D02*
X149933333Y-105550057D01*
X150266667Y-105454819D02*
X150885714Y-105454819D01*
X150885714Y-105454819D02*
X150552381Y-105835771D01*
X150552381Y-105835771D02*
X150695238Y-105835771D01*
X150695238Y-105835771D02*
X150790476Y-105883390D01*
X150790476Y-105883390D02*
X150838095Y-105931009D01*
X150838095Y-105931009D02*
X150885714Y-106026247D01*
X150885714Y-106026247D02*
X150885714Y-106264342D01*
X150885714Y-106264342D02*
X150838095Y-106359580D01*
X150838095Y-106359580D02*
X150790476Y-106407200D01*
X150790476Y-106407200D02*
X150695238Y-106454819D01*
X150695238Y-106454819D02*
X150409524Y-106454819D01*
X150409524Y-106454819D02*
X150314286Y-106407200D01*
X150314286Y-106407200D02*
X150266667Y-106359580D01*
X102366666Y-51254819D02*
X102366666Y-51969104D01*
X102366666Y-51969104D02*
X102319047Y-52111961D01*
X102319047Y-52111961D02*
X102223809Y-52207200D01*
X102223809Y-52207200D02*
X102080952Y-52254819D01*
X102080952Y-52254819D02*
X101985714Y-52254819D01*
X103366666Y-52254819D02*
X102795238Y-52254819D01*
X103080952Y-52254819D02*
X103080952Y-51254819D01*
X103080952Y-51254819D02*
X102985714Y-51397676D01*
X102985714Y-51397676D02*
X102890476Y-51492914D01*
X102890476Y-51492914D02*
X102795238Y-51540533D01*
X135138095Y-104854819D02*
X135138095Y-105664342D01*
X135138095Y-105664342D02*
X135185714Y-105759580D01*
X135185714Y-105759580D02*
X135233333Y-105807200D01*
X135233333Y-105807200D02*
X135328571Y-105854819D01*
X135328571Y-105854819D02*
X135519047Y-105854819D01*
X135519047Y-105854819D02*
X135614285Y-105807200D01*
X135614285Y-105807200D02*
X135661904Y-105759580D01*
X135661904Y-105759580D02*
X135709523Y-105664342D01*
X135709523Y-105664342D02*
X135709523Y-104854819D01*
X136090476Y-104854819D02*
X136757142Y-104854819D01*
X136757142Y-104854819D02*
X136328571Y-105854819D01*
X99361905Y-104454819D02*
X99361905Y-105264342D01*
X99361905Y-105264342D02*
X99409524Y-105359580D01*
X99409524Y-105359580D02*
X99457143Y-105407200D01*
X99457143Y-105407200D02*
X99552381Y-105454819D01*
X99552381Y-105454819D02*
X99742857Y-105454819D01*
X99742857Y-105454819D02*
X99838095Y-105407200D01*
X99838095Y-105407200D02*
X99885714Y-105359580D01*
X99885714Y-105359580D02*
X99933333Y-105264342D01*
X99933333Y-105264342D02*
X99933333Y-104454819D01*
X100933333Y-105454819D02*
X100361905Y-105454819D01*
X100647619Y-105454819D02*
X100647619Y-104454819D01*
X100647619Y-104454819D02*
X100552381Y-104597676D01*
X100552381Y-104597676D02*
X100457143Y-104692914D01*
X100457143Y-104692914D02*
X100361905Y-104740533D01*
X101552381Y-104454819D02*
X101647619Y-104454819D01*
X101647619Y-104454819D02*
X101742857Y-104502438D01*
X101742857Y-104502438D02*
X101790476Y-104550057D01*
X101790476Y-104550057D02*
X101838095Y-104645295D01*
X101838095Y-104645295D02*
X101885714Y-104835771D01*
X101885714Y-104835771D02*
X101885714Y-105073866D01*
X101885714Y-105073866D02*
X101838095Y-105264342D01*
X101838095Y-105264342D02*
X101790476Y-105359580D01*
X101790476Y-105359580D02*
X101742857Y-105407200D01*
X101742857Y-105407200D02*
X101647619Y-105454819D01*
X101647619Y-105454819D02*
X101552381Y-105454819D01*
X101552381Y-105454819D02*
X101457143Y-105407200D01*
X101457143Y-105407200D02*
X101409524Y-105359580D01*
X101409524Y-105359580D02*
X101361905Y-105264342D01*
X101361905Y-105264342D02*
X101314286Y-105073866D01*
X101314286Y-105073866D02*
X101314286Y-104835771D01*
X101314286Y-104835771D02*
X101361905Y-104645295D01*
X101361905Y-104645295D02*
X101409524Y-104550057D01*
X101409524Y-104550057D02*
X101457143Y-104502438D01*
X101457143Y-104502438D02*
X101552381Y-104454819D01*
X107333333Y-59859580D02*
X107285714Y-59907200D01*
X107285714Y-59907200D02*
X107142857Y-59954819D01*
X107142857Y-59954819D02*
X107047619Y-59954819D01*
X107047619Y-59954819D02*
X106904762Y-59907200D01*
X106904762Y-59907200D02*
X106809524Y-59811961D01*
X106809524Y-59811961D02*
X106761905Y-59716723D01*
X106761905Y-59716723D02*
X106714286Y-59526247D01*
X106714286Y-59526247D02*
X106714286Y-59383390D01*
X106714286Y-59383390D02*
X106761905Y-59192914D01*
X106761905Y-59192914D02*
X106809524Y-59097676D01*
X106809524Y-59097676D02*
X106904762Y-59002438D01*
X106904762Y-59002438D02*
X107047619Y-58954819D01*
X107047619Y-58954819D02*
X107142857Y-58954819D01*
X107142857Y-58954819D02*
X107285714Y-59002438D01*
X107285714Y-59002438D02*
X107333333Y-59050057D01*
X107714286Y-59050057D02*
X107761905Y-59002438D01*
X107761905Y-59002438D02*
X107857143Y-58954819D01*
X107857143Y-58954819D02*
X108095238Y-58954819D01*
X108095238Y-58954819D02*
X108190476Y-59002438D01*
X108190476Y-59002438D02*
X108238095Y-59050057D01*
X108238095Y-59050057D02*
X108285714Y-59145295D01*
X108285714Y-59145295D02*
X108285714Y-59240533D01*
X108285714Y-59240533D02*
X108238095Y-59383390D01*
X108238095Y-59383390D02*
X107666667Y-59954819D01*
X107666667Y-59954819D02*
X108285714Y-59954819D01*
X108361905Y-49454819D02*
X108361905Y-48454819D01*
X108361905Y-48454819D02*
X108600000Y-48454819D01*
X108600000Y-48454819D02*
X108742857Y-48502438D01*
X108742857Y-48502438D02*
X108838095Y-48597676D01*
X108838095Y-48597676D02*
X108885714Y-48692914D01*
X108885714Y-48692914D02*
X108933333Y-48883390D01*
X108933333Y-48883390D02*
X108933333Y-49026247D01*
X108933333Y-49026247D02*
X108885714Y-49216723D01*
X108885714Y-49216723D02*
X108838095Y-49311961D01*
X108838095Y-49311961D02*
X108742857Y-49407200D01*
X108742857Y-49407200D02*
X108600000Y-49454819D01*
X108600000Y-49454819D02*
X108361905Y-49454819D01*
X109885714Y-49454819D02*
X109314286Y-49454819D01*
X109600000Y-49454819D02*
X109600000Y-48454819D01*
X109600000Y-48454819D02*
X109504762Y-48597676D01*
X109504762Y-48597676D02*
X109409524Y-48692914D01*
X109409524Y-48692914D02*
X109314286Y-48740533D01*
X147420833Y-107847080D02*
X147373214Y-107894700D01*
X147373214Y-107894700D02*
X147230357Y-107942319D01*
X147230357Y-107942319D02*
X147135119Y-107942319D01*
X147135119Y-107942319D02*
X146992262Y-107894700D01*
X146992262Y-107894700D02*
X146897024Y-107799461D01*
X146897024Y-107799461D02*
X146849405Y-107704223D01*
X146849405Y-107704223D02*
X146801786Y-107513747D01*
X146801786Y-107513747D02*
X146801786Y-107370890D01*
X146801786Y-107370890D02*
X146849405Y-107180414D01*
X146849405Y-107180414D02*
X146897024Y-107085176D01*
X146897024Y-107085176D02*
X146992262Y-106989938D01*
X146992262Y-106989938D02*
X147135119Y-106942319D01*
X147135119Y-106942319D02*
X147230357Y-106942319D01*
X147230357Y-106942319D02*
X147373214Y-106989938D01*
X147373214Y-106989938D02*
X147420833Y-107037557D01*
X148325595Y-106942319D02*
X147849405Y-106942319D01*
X147849405Y-106942319D02*
X147801786Y-107418509D01*
X147801786Y-107418509D02*
X147849405Y-107370890D01*
X147849405Y-107370890D02*
X147944643Y-107323271D01*
X147944643Y-107323271D02*
X148182738Y-107323271D01*
X148182738Y-107323271D02*
X148277976Y-107370890D01*
X148277976Y-107370890D02*
X148325595Y-107418509D01*
X148325595Y-107418509D02*
X148373214Y-107513747D01*
X148373214Y-107513747D02*
X148373214Y-107751842D01*
X148373214Y-107751842D02*
X148325595Y-107847080D01*
X148325595Y-107847080D02*
X148277976Y-107894700D01*
X148277976Y-107894700D02*
X148182738Y-107942319D01*
X148182738Y-107942319D02*
X147944643Y-107942319D01*
X147944643Y-107942319D02*
X147849405Y-107894700D01*
X147849405Y-107894700D02*
X147801786Y-107847080D01*
X106357142Y-104129580D02*
X106309523Y-104177200D01*
X106309523Y-104177200D02*
X106166666Y-104224819D01*
X106166666Y-104224819D02*
X106071428Y-104224819D01*
X106071428Y-104224819D02*
X105928571Y-104177200D01*
X105928571Y-104177200D02*
X105833333Y-104081961D01*
X105833333Y-104081961D02*
X105785714Y-103986723D01*
X105785714Y-103986723D02*
X105738095Y-103796247D01*
X105738095Y-103796247D02*
X105738095Y-103653390D01*
X105738095Y-103653390D02*
X105785714Y-103462914D01*
X105785714Y-103462914D02*
X105833333Y-103367676D01*
X105833333Y-103367676D02*
X105928571Y-103272438D01*
X105928571Y-103272438D02*
X106071428Y-103224819D01*
X106071428Y-103224819D02*
X106166666Y-103224819D01*
X106166666Y-103224819D02*
X106309523Y-103272438D01*
X106309523Y-103272438D02*
X106357142Y-103320057D01*
X106738095Y-103320057D02*
X106785714Y-103272438D01*
X106785714Y-103272438D02*
X106880952Y-103224819D01*
X106880952Y-103224819D02*
X107119047Y-103224819D01*
X107119047Y-103224819D02*
X107214285Y-103272438D01*
X107214285Y-103272438D02*
X107261904Y-103320057D01*
X107261904Y-103320057D02*
X107309523Y-103415295D01*
X107309523Y-103415295D02*
X107309523Y-103510533D01*
X107309523Y-103510533D02*
X107261904Y-103653390D01*
X107261904Y-103653390D02*
X106690476Y-104224819D01*
X106690476Y-104224819D02*
X107309523Y-104224819D01*
X107928571Y-103224819D02*
X108023809Y-103224819D01*
X108023809Y-103224819D02*
X108119047Y-103272438D01*
X108119047Y-103272438D02*
X108166666Y-103320057D01*
X108166666Y-103320057D02*
X108214285Y-103415295D01*
X108214285Y-103415295D02*
X108261904Y-103605771D01*
X108261904Y-103605771D02*
X108261904Y-103843866D01*
X108261904Y-103843866D02*
X108214285Y-104034342D01*
X108214285Y-104034342D02*
X108166666Y-104129580D01*
X108166666Y-104129580D02*
X108119047Y-104177200D01*
X108119047Y-104177200D02*
X108023809Y-104224819D01*
X108023809Y-104224819D02*
X107928571Y-104224819D01*
X107928571Y-104224819D02*
X107833333Y-104177200D01*
X107833333Y-104177200D02*
X107785714Y-104129580D01*
X107785714Y-104129580D02*
X107738095Y-104034342D01*
X107738095Y-104034342D02*
X107690476Y-103843866D01*
X107690476Y-103843866D02*
X107690476Y-103605771D01*
X107690476Y-103605771D02*
X107738095Y-103415295D01*
X107738095Y-103415295D02*
X107785714Y-103320057D01*
X107785714Y-103320057D02*
X107833333Y-103272438D01*
X107833333Y-103272438D02*
X107928571Y-103224819D01*
X166929819Y-73358333D02*
X167644104Y-73358333D01*
X167644104Y-73358333D02*
X167786961Y-73405952D01*
X167786961Y-73405952D02*
X167882200Y-73501190D01*
X167882200Y-73501190D02*
X167929819Y-73644047D01*
X167929819Y-73644047D02*
X167929819Y-73739285D01*
X166929819Y-72977380D02*
X166929819Y-72358333D01*
X166929819Y-72358333D02*
X167310771Y-72691666D01*
X167310771Y-72691666D02*
X167310771Y-72548809D01*
X167310771Y-72548809D02*
X167358390Y-72453571D01*
X167358390Y-72453571D02*
X167406009Y-72405952D01*
X167406009Y-72405952D02*
X167501247Y-72358333D01*
X167501247Y-72358333D02*
X167739342Y-72358333D01*
X167739342Y-72358333D02*
X167834580Y-72405952D01*
X167834580Y-72405952D02*
X167882200Y-72453571D01*
X167882200Y-72453571D02*
X167929819Y-72548809D01*
X167929819Y-72548809D02*
X167929819Y-72834523D01*
X167929819Y-72834523D02*
X167882200Y-72929761D01*
X167882200Y-72929761D02*
X167834580Y-72977380D01*
X155233333Y-110254819D02*
X154900000Y-109778628D01*
X154661905Y-110254819D02*
X154661905Y-109254819D01*
X154661905Y-109254819D02*
X155042857Y-109254819D01*
X155042857Y-109254819D02*
X155138095Y-109302438D01*
X155138095Y-109302438D02*
X155185714Y-109350057D01*
X155185714Y-109350057D02*
X155233333Y-109445295D01*
X155233333Y-109445295D02*
X155233333Y-109588152D01*
X155233333Y-109588152D02*
X155185714Y-109683390D01*
X155185714Y-109683390D02*
X155138095Y-109731009D01*
X155138095Y-109731009D02*
X155042857Y-109778628D01*
X155042857Y-109778628D02*
X154661905Y-109778628D01*
X156185714Y-110254819D02*
X155614286Y-110254819D01*
X155900000Y-110254819D02*
X155900000Y-109254819D01*
X155900000Y-109254819D02*
X155804762Y-109397676D01*
X155804762Y-109397676D02*
X155709524Y-109492914D01*
X155709524Y-109492914D02*
X155614286Y-109540533D01*
X99153809Y-95728628D02*
X99153809Y-96204819D01*
X98820476Y-95204819D02*
X99153809Y-95728628D01*
X99153809Y-95728628D02*
X99487142Y-95204819D01*
X100344285Y-96204819D02*
X99772857Y-96204819D01*
X100058571Y-96204819D02*
X100058571Y-95204819D01*
X100058571Y-95204819D02*
X99963333Y-95347676D01*
X99963333Y-95347676D02*
X99868095Y-95442914D01*
X99868095Y-95442914D02*
X99772857Y-95490533D01*
X102059580Y-58741666D02*
X102107200Y-58789285D01*
X102107200Y-58789285D02*
X102154819Y-58932142D01*
X102154819Y-58932142D02*
X102154819Y-59027380D01*
X102154819Y-59027380D02*
X102107200Y-59170237D01*
X102107200Y-59170237D02*
X102011961Y-59265475D01*
X102011961Y-59265475D02*
X101916723Y-59313094D01*
X101916723Y-59313094D02*
X101726247Y-59360713D01*
X101726247Y-59360713D02*
X101583390Y-59360713D01*
X101583390Y-59360713D02*
X101392914Y-59313094D01*
X101392914Y-59313094D02*
X101297676Y-59265475D01*
X101297676Y-59265475D02*
X101202438Y-59170237D01*
X101202438Y-59170237D02*
X101154819Y-59027380D01*
X101154819Y-59027380D02*
X101154819Y-58932142D01*
X101154819Y-58932142D02*
X101202438Y-58789285D01*
X101202438Y-58789285D02*
X101250057Y-58741666D01*
X102154819Y-57789285D02*
X102154819Y-58360713D01*
X102154819Y-58074999D02*
X101154819Y-58074999D01*
X101154819Y-58074999D02*
X101297676Y-58170237D01*
X101297676Y-58170237D02*
X101392914Y-58265475D01*
X101392914Y-58265475D02*
X101440533Y-58360713D01*
X99268095Y-92106819D02*
X99839523Y-92106819D01*
X99553809Y-93106819D02*
X99553809Y-92106819D01*
X100172857Y-93106819D02*
X100172857Y-92106819D01*
X100172857Y-92106819D02*
X100553809Y-92106819D01*
X100553809Y-92106819D02*
X100649047Y-92154438D01*
X100649047Y-92154438D02*
X100696666Y-92202057D01*
X100696666Y-92202057D02*
X100744285Y-92297295D01*
X100744285Y-92297295D02*
X100744285Y-92440152D01*
X100744285Y-92440152D02*
X100696666Y-92535390D01*
X100696666Y-92535390D02*
X100649047Y-92583009D01*
X100649047Y-92583009D02*
X100553809Y-92630628D01*
X100553809Y-92630628D02*
X100172857Y-92630628D01*
X101125238Y-92202057D02*
X101172857Y-92154438D01*
X101172857Y-92154438D02*
X101268095Y-92106819D01*
X101268095Y-92106819D02*
X101506190Y-92106819D01*
X101506190Y-92106819D02*
X101601428Y-92154438D01*
X101601428Y-92154438D02*
X101649047Y-92202057D01*
X101649047Y-92202057D02*
X101696666Y-92297295D01*
X101696666Y-92297295D02*
X101696666Y-92392533D01*
X101696666Y-92392533D02*
X101649047Y-92535390D01*
X101649047Y-92535390D02*
X101077619Y-93106819D01*
X101077619Y-93106819D02*
X101696666Y-93106819D01*
X111154819Y-86166666D02*
X110678628Y-86499999D01*
X111154819Y-86738094D02*
X110154819Y-86738094D01*
X110154819Y-86738094D02*
X110154819Y-86357142D01*
X110154819Y-86357142D02*
X110202438Y-86261904D01*
X110202438Y-86261904D02*
X110250057Y-86214285D01*
X110250057Y-86214285D02*
X110345295Y-86166666D01*
X110345295Y-86166666D02*
X110488152Y-86166666D01*
X110488152Y-86166666D02*
X110583390Y-86214285D01*
X110583390Y-86214285D02*
X110631009Y-86261904D01*
X110631009Y-86261904D02*
X110678628Y-86357142D01*
X110678628Y-86357142D02*
X110678628Y-86738094D01*
X110154819Y-85833332D02*
X110154819Y-85166666D01*
X110154819Y-85166666D02*
X111154819Y-85595237D01*
X106883333Y-64384580D02*
X106835714Y-64432200D01*
X106835714Y-64432200D02*
X106692857Y-64479819D01*
X106692857Y-64479819D02*
X106597619Y-64479819D01*
X106597619Y-64479819D02*
X106454762Y-64432200D01*
X106454762Y-64432200D02*
X106359524Y-64336961D01*
X106359524Y-64336961D02*
X106311905Y-64241723D01*
X106311905Y-64241723D02*
X106264286Y-64051247D01*
X106264286Y-64051247D02*
X106264286Y-63908390D01*
X106264286Y-63908390D02*
X106311905Y-63717914D01*
X106311905Y-63717914D02*
X106359524Y-63622676D01*
X106359524Y-63622676D02*
X106454762Y-63527438D01*
X106454762Y-63527438D02*
X106597619Y-63479819D01*
X106597619Y-63479819D02*
X106692857Y-63479819D01*
X106692857Y-63479819D02*
X106835714Y-63527438D01*
X106835714Y-63527438D02*
X106883333Y-63575057D01*
X107454762Y-63908390D02*
X107359524Y-63860771D01*
X107359524Y-63860771D02*
X107311905Y-63813152D01*
X107311905Y-63813152D02*
X107264286Y-63717914D01*
X107264286Y-63717914D02*
X107264286Y-63670295D01*
X107264286Y-63670295D02*
X107311905Y-63575057D01*
X107311905Y-63575057D02*
X107359524Y-63527438D01*
X107359524Y-63527438D02*
X107454762Y-63479819D01*
X107454762Y-63479819D02*
X107645238Y-63479819D01*
X107645238Y-63479819D02*
X107740476Y-63527438D01*
X107740476Y-63527438D02*
X107788095Y-63575057D01*
X107788095Y-63575057D02*
X107835714Y-63670295D01*
X107835714Y-63670295D02*
X107835714Y-63717914D01*
X107835714Y-63717914D02*
X107788095Y-63813152D01*
X107788095Y-63813152D02*
X107740476Y-63860771D01*
X107740476Y-63860771D02*
X107645238Y-63908390D01*
X107645238Y-63908390D02*
X107454762Y-63908390D01*
X107454762Y-63908390D02*
X107359524Y-63956009D01*
X107359524Y-63956009D02*
X107311905Y-64003628D01*
X107311905Y-64003628D02*
X107264286Y-64098866D01*
X107264286Y-64098866D02*
X107264286Y-64289342D01*
X107264286Y-64289342D02*
X107311905Y-64384580D01*
X107311905Y-64384580D02*
X107359524Y-64432200D01*
X107359524Y-64432200D02*
X107454762Y-64479819D01*
X107454762Y-64479819D02*
X107645238Y-64479819D01*
X107645238Y-64479819D02*
X107740476Y-64432200D01*
X107740476Y-64432200D02*
X107788095Y-64384580D01*
X107788095Y-64384580D02*
X107835714Y-64289342D01*
X107835714Y-64289342D02*
X107835714Y-64098866D01*
X107835714Y-64098866D02*
X107788095Y-64003628D01*
X107788095Y-64003628D02*
X107740476Y-63956009D01*
X107740476Y-63956009D02*
X107645238Y-63908390D01*
%TO.C,Module1*%
D11*
X158540000Y-99800000D02*
G75*
G02*
X155040000Y-103300000I-3499999J-1D01*
G01*
X155040000Y-48300000D02*
G75*
G02*
X158540000Y-51800000I1J-3499999D01*
G01*
X122040000Y-103300000D02*
G75*
G02*
X118540000Y-99800000I0J3500000D01*
G01*
X118540000Y-51800000D02*
G75*
G02*
X122040000Y-48300000I3500000J0D01*
G01*
X158540000Y-99800000D02*
X158540000Y-51800000D01*
X156900000Y-84700000D02*
X156900000Y-83700000D01*
X156900000Y-84700000D02*
X154100000Y-84700000D01*
X156900000Y-61900000D02*
X156900000Y-62900000D01*
X156900000Y-61900000D02*
X154100000Y-61900000D01*
X155040000Y-48300000D02*
X122040000Y-48300000D01*
X154100000Y-84700000D02*
X154100000Y-83700000D01*
X154100000Y-61900000D02*
X154100000Y-62900000D01*
X122980000Y-84700000D02*
X122980000Y-83700000D01*
X122980000Y-84700000D02*
X120100000Y-84700000D01*
X122980000Y-61900000D02*
X122980000Y-62900000D01*
X122980000Y-61900000D02*
X120100000Y-61900000D01*
X122040000Y-103300000D02*
X155040000Y-103300000D01*
X120100000Y-84700000D02*
X120100000Y-83700000D01*
X120100000Y-61900000D02*
X120100000Y-62900000D01*
X118540000Y-51800000D02*
X118540000Y-99800000D01*
%TO.C,U5*%
X140845000Y-105515000D02*
X140565000Y-105515000D01*
X140845000Y-105235000D01*
X140845000Y-105515000D01*
G36*
X140845000Y-105515000D02*
G01*
X140565000Y-105515000D01*
X140845000Y-105235000D01*
X140845000Y-105515000D01*
G37*
X141965000Y-108335000D02*
X140965000Y-108335000D01*
X141965000Y-105515000D02*
X141175000Y-105515000D01*
%TO.C,C6*%
X150228080Y-108527500D02*
X149946920Y-108527500D01*
X150228080Y-109547500D02*
X149946920Y-109547500D01*
%TO.C,C18*%
X101920000Y-98472164D02*
X101920000Y-98687836D01*
X102640000Y-98472164D02*
X102640000Y-98687836D01*
%TO.C,R4*%
X107177500Y-88862258D02*
X107177500Y-88387742D01*
X108222500Y-88862258D02*
X108222500Y-88387742D01*
%TO.C,C14*%
X96620000Y-98207836D02*
X96620000Y-97992164D01*
X97340000Y-98207836D02*
X97340000Y-97992164D01*
%TO.C,U11*%
X109890000Y-104485000D02*
X109890000Y-105275000D01*
X112710000Y-104485000D02*
X112710000Y-105485000D01*
X109890000Y-105605000D02*
X109890000Y-105885000D01*
X109610000Y-105605000D01*
X109890000Y-105605000D01*
G36*
X109890000Y-105885000D02*
G01*
X109610000Y-105605000D01*
X109890000Y-105605000D01*
X109890000Y-105885000D01*
G37*
%TO.C,BT1*%
X95620000Y-69195000D02*
X91670000Y-70635000D01*
X95620000Y-90755000D02*
X91670000Y-89315000D01*
X96250000Y-69195000D02*
X95620000Y-69195000D01*
X96250000Y-90755000D02*
X95620000Y-90755000D01*
X104710000Y-69195000D02*
X102250000Y-69195000D01*
X104710000Y-90755000D02*
X102250000Y-90755000D01*
X106790000Y-71275000D02*
X104710000Y-69195000D01*
X106790000Y-74775000D02*
X106790000Y-71275000D01*
X106790000Y-88675000D02*
X104710000Y-90755000D01*
X106790000Y-88675000D02*
X106790000Y-85175000D01*
X90683470Y-73971646D02*
G75*
G02*
X91670000Y-70635000I1716531J1306646D01*
G01*
X91661831Y-89300243D02*
G75*
G02*
X90700000Y-85975000I738169J2015243D01*
G01*
%TO.C,J2*%
X138985000Y-126795000D02*
X139985000Y-126795000D01*
X138985000Y-127415000D02*
X138985000Y-126795000D01*
X139985000Y-115325000D02*
X139985000Y-113145000D01*
X139985000Y-126795000D02*
X139985000Y-118825000D01*
X141105000Y-110295000D02*
X151485000Y-110295000D01*
X143195000Y-110145000D02*
X142395000Y-110145000D01*
X152605000Y-115325000D02*
X152605000Y-113145000D01*
X152605000Y-118825000D02*
X152605000Y-126795000D01*
X152605000Y-126795000D02*
X153605000Y-126795000D01*
X153605000Y-126795000D02*
X153605000Y-127415000D01*
X153605000Y-127415000D02*
X138985000Y-127415000D01*
%TO.C,D2*%
X113812500Y-49760000D02*
X116097500Y-49760000D01*
X116097500Y-48290000D02*
X113812500Y-48290000D01*
X116097500Y-49760000D02*
X116097500Y-48290000D01*
%TO.C,R3*%
X113802500Y-51037742D02*
X113802500Y-51512258D01*
X114847500Y-51037742D02*
X114847500Y-51512258D01*
%TO.C,R2*%
X111202500Y-51062742D02*
X111202500Y-51537258D01*
X112247500Y-51062742D02*
X112247500Y-51537258D01*
%TO.C,SW2*%
X164050000Y-86750000D02*
X163250000Y-86750000D01*
X164050000Y-93650000D02*
X163250000Y-93650000D01*
X165150000Y-88600000D02*
X165150000Y-90300000D01*
X165150000Y-91600000D02*
X165150000Y-91800000D01*
%TO.C,J4*%
X96055000Y-62820000D02*
X96055000Y-65580000D01*
X98705000Y-62820000D02*
X96055000Y-62820000D01*
X98705000Y-62820000D02*
X98705000Y-65580000D01*
X98705000Y-65580000D02*
X96055000Y-65580000D01*
X99975000Y-62820000D02*
X101355000Y-62820000D01*
X101355000Y-62820000D02*
X101355000Y-64200000D01*
%TO.C,U2*%
X152752500Y-104040000D02*
X154572500Y-104040000D01*
X152752500Y-104090000D02*
X152752500Y-104040000D01*
X152752500Y-107160000D02*
X152752500Y-107110000D01*
X154572500Y-104040000D02*
X154572500Y-104090000D01*
X154572500Y-107110000D02*
X154572500Y-107160000D01*
X154572500Y-107160000D02*
X152752500Y-107160000D01*
X152212500Y-104090000D02*
X151972500Y-103760000D01*
X152452500Y-103760000D01*
X152212500Y-104090000D01*
G36*
X152212500Y-104090000D02*
G01*
X151972500Y-103760000D01*
X152452500Y-103760000D01*
X152212500Y-104090000D01*
G37*
%TO.C,U4*%
D12*
X109450000Y-56325000D02*
X111940000Y-56325000D01*
X109450000Y-62665000D02*
X109450000Y-56325000D01*
X109450000Y-71325000D02*
X109450000Y-64985000D01*
X111940000Y-71325000D02*
X109450000Y-71325000D01*
X114360000Y-56325000D02*
X115500000Y-56325000D01*
X115500000Y-56325000D02*
X115500000Y-58945000D01*
X115500000Y-68705000D02*
X115500000Y-71325000D01*
X115500000Y-71325000D02*
X114360000Y-71325000D01*
D13*
X116020000Y-69215000D02*
G75*
G02*
X115820000Y-69215000I-100000J0D01*
G01*
X115820000Y-69215000D02*
G75*
G02*
X116020000Y-69215000I100000J0D01*
G01*
D14*
X116050000Y-71325000D02*
G75*
G02*
X115990000Y-71325000I-30000J0D01*
G01*
X115990000Y-71325000D02*
G75*
G02*
X116050000Y-71325000I30000J0D01*
G01*
%TO.C,C4*%
D11*
X157052500Y-104654437D02*
X157052500Y-105940000D01*
X157052500Y-104654437D02*
X158116937Y-103590000D01*
X157052500Y-109345563D02*
X157052500Y-108060000D01*
X157052500Y-109345563D02*
X158116937Y-110410000D01*
X158116937Y-103590000D02*
X163872500Y-103590000D01*
X158116937Y-110410000D02*
X163872500Y-110410000D01*
X163872500Y-103590000D02*
X163872500Y-105940000D01*
X163872500Y-110410000D02*
X163872500Y-108060000D01*
%TO.C,U1*%
X102115000Y-60922500D02*
X102115000Y-59452500D01*
X102765000Y-60922500D02*
X102115000Y-60922500D01*
X103085000Y-59452500D02*
X103415000Y-59452500D01*
X104385000Y-59452500D02*
X104385000Y-60922500D01*
X104385000Y-60922500D02*
X103735000Y-60922500D01*
X103410000Y-59007500D02*
X103220000Y-59147500D01*
X103220000Y-58867500D01*
X103410000Y-59007500D01*
G36*
X103410000Y-59007500D02*
G01*
X103220000Y-59147500D01*
X103220000Y-58867500D01*
X103410000Y-59007500D01*
G37*
%TO.C,U3*%
X106265000Y-65965000D02*
X108085000Y-65965000D01*
X106265000Y-66965000D02*
X106265000Y-65965000D01*
X106265000Y-69085000D02*
X106265000Y-68085000D01*
X108085000Y-65965000D02*
X108085000Y-66015000D01*
X108085000Y-67135000D02*
X108085000Y-67915000D01*
X108085000Y-69035000D02*
X108085000Y-69085000D01*
X108085000Y-69085000D02*
X106265000Y-69085000D01*
X108625000Y-67905000D02*
X108385000Y-67575000D01*
X108865000Y-67575000D01*
X108625000Y-67905000D01*
G36*
X108625000Y-67905000D02*
G01*
X108385000Y-67575000D01*
X108865000Y-67575000D01*
X108625000Y-67905000D01*
G37*
%TO.C,C9*%
X127659420Y-104190000D02*
X127940580Y-104190000D01*
X127659420Y-105210000D02*
X127940580Y-105210000D01*
%TO.C,U12*%
X99290000Y-106120000D02*
X99290000Y-112030000D01*
X99290000Y-106120000D02*
X115530000Y-106120000D01*
X99290000Y-115310000D02*
X99290000Y-127760000D01*
X99410000Y-127490000D02*
X99160000Y-127490000D01*
X99510000Y-127640000D02*
X99510000Y-127890000D01*
X115530000Y-106120000D02*
X115530000Y-112030000D01*
X115530000Y-115310000D02*
X115530000Y-127760000D01*
X115530000Y-127760000D02*
X99290000Y-127760000D01*
%TO.C,U9*%
D12*
X105130000Y-94000000D02*
X105400000Y-94000000D01*
X105130000Y-94270000D02*
X105130000Y-94000000D01*
X105130000Y-98000000D02*
X105130000Y-97730000D01*
X105400000Y-98000000D02*
X105130000Y-98000000D01*
X108860000Y-94000000D02*
X109130000Y-94000000D01*
X109130000Y-94000000D02*
X109130000Y-94270000D01*
X109130000Y-97730000D02*
X109130000Y-98000000D01*
X109130000Y-98000000D02*
X108860000Y-98000000D01*
X105320001Y-98310000D02*
X105320001Y-98310000D01*
X105320001Y-98310000D01*
X105320001Y-98310000D01*
X105320001Y-98310000D01*
X105320001Y-98310000D01*
X105320001Y-98310001D01*
X105320001Y-98310001D01*
X105320001Y-98310001D01*
X105320001Y-98310001D01*
X105320001Y-98310001D01*
X105320001Y-98310001D01*
X105320001Y-98310001D01*
X105320000Y-98310001D01*
X105320000Y-98310001D01*
X105320000Y-98310001D01*
X105320000Y-98310001D01*
X105320000Y-98310001D01*
X105320000Y-98310001D01*
X105320000Y-98310001D01*
X105320000Y-98310001D01*
X105320000Y-98310001D01*
X105320000Y-98310001D01*
X105320000Y-98310001D01*
X105320000Y-98310001D01*
X105319999Y-98310001D01*
X105319999Y-98310001D01*
X105319999Y-98310001D01*
X105319999Y-98310001D01*
X105319999Y-98310001D01*
X105319999Y-98310001D01*
X105319999Y-98310000D01*
X105319999Y-98310000D01*
X105319999Y-98310000D01*
X105319999Y-98310000D01*
X105319999Y-98310000D01*
X105319999Y-98310000D01*
X105319999Y-98310000D02*
X105319999Y-98310000D01*
X105319999Y-98310000D01*
X105319999Y-98310000D01*
X105319999Y-98310000D01*
X105319999Y-98310000D01*
X105319999Y-98310000D01*
X105319999Y-98309999D01*
X105319999Y-98309999D01*
X105319999Y-98309999D01*
X105319999Y-98309999D01*
X105319999Y-98309999D01*
X105320000Y-98309999D01*
X105320000Y-98309999D01*
X105320000Y-98309999D01*
X105320000Y-98309999D01*
X105320000Y-98309999D01*
X105320000Y-98309999D01*
X105320000Y-98309999D01*
X105320000Y-98309999D01*
X105320000Y-98309999D01*
X105320000Y-98309999D01*
X105320000Y-98309999D01*
X105320000Y-98309999D01*
X105320001Y-98309999D01*
X105320001Y-98309999D01*
X105320001Y-98309999D01*
X105320001Y-98309999D01*
X105320001Y-98309999D01*
X105320001Y-98309999D01*
X105320001Y-98310000D01*
X105320001Y-98310000D01*
X105320001Y-98310000D01*
X105320001Y-98310000D01*
X105320001Y-98310000D01*
X105320001Y-98310000D01*
X105320001Y-98310000D01*
D14*
X105160000Y-98000000D02*
G75*
G02*
X105100000Y-98000000I-30000J0D01*
G01*
X105100000Y-98000000D02*
G75*
G02*
X105160000Y-98000000I30000J0D01*
G01*
%TO.C,R6*%
D11*
X108677500Y-88387742D02*
X108677500Y-88862258D01*
X109722500Y-88387742D02*
X109722500Y-88862258D01*
%TO.C,U6*%
X123190000Y-104435000D02*
X123190000Y-105225000D01*
X126010000Y-104435000D02*
X126010000Y-105435000D01*
X123190000Y-105555000D02*
X123190000Y-105835000D01*
X122910000Y-105555000D01*
X123190000Y-105555000D01*
G36*
X123190000Y-105835000D02*
G01*
X122910000Y-105555000D01*
X123190000Y-105555000D01*
X123190000Y-105835000D01*
G37*
%TO.C,TP1*%
X164375000Y-83050000D02*
G75*
G02*
X162975000Y-83050000I-700000J0D01*
G01*
X162975000Y-83050000D02*
G75*
G02*
X164375000Y-83050000I700000J0D01*
G01*
%TO.C,C7*%
X108365000Y-69872164D02*
X108365000Y-70087836D01*
X109085000Y-69872164D02*
X109085000Y-70087836D01*
%TO.C,C3*%
X150240580Y-104090000D02*
X149959420Y-104090000D01*
X150240580Y-105110000D02*
X149959420Y-105110000D01*
%TO.C,J1*%
X98000000Y-49800000D02*
X98000000Y-47900000D01*
X98000000Y-53700000D02*
X98000000Y-51700000D01*
X107400000Y-47900000D02*
X98000000Y-47900000D01*
X107400000Y-49800000D02*
X107400000Y-47900000D01*
X107400000Y-53700000D02*
X107400000Y-51700000D01*
%TO.C,U7*%
X130690000Y-104435000D02*
X130690000Y-105225000D01*
X133510000Y-104435000D02*
X133510000Y-105435000D01*
X130690000Y-105555000D02*
X130690000Y-105835000D01*
X130410000Y-105555000D01*
X130690000Y-105555000D01*
G36*
X130690000Y-105835000D02*
G01*
X130410000Y-105555000D01*
X130690000Y-105555000D01*
X130690000Y-105835000D01*
G37*
%TO.C,U8*%
X119790000Y-106120000D02*
X119790000Y-112030000D01*
X119790000Y-106120000D02*
X136030000Y-106120000D01*
X119790000Y-115310000D02*
X119790000Y-127760000D01*
X119910000Y-127490000D02*
X119660000Y-127490000D01*
X120010000Y-127640000D02*
X120010000Y-127890000D01*
X136030000Y-106120000D02*
X136030000Y-112030000D01*
X136030000Y-115310000D02*
X136030000Y-127760000D01*
X136030000Y-127760000D02*
X119790000Y-127760000D01*
%TO.C,U10*%
X102390000Y-104485000D02*
X102390000Y-105275000D01*
X105210000Y-104485000D02*
X105210000Y-105485000D01*
X102390000Y-105605000D02*
X102390000Y-105885000D01*
X102110000Y-105605000D01*
X102390000Y-105605000D01*
G36*
X102390000Y-105885000D02*
G01*
X102110000Y-105605000D01*
X102390000Y-105605000D01*
X102390000Y-105885000D01*
G37*
%TO.C,C2*%
X104660000Y-58484420D02*
X104660000Y-58765580D01*
X105680000Y-58484420D02*
X105680000Y-58765580D01*
%TO.C,D1*%
X110140000Y-48290000D02*
X110140000Y-49760000D01*
X110140000Y-49760000D02*
X112425000Y-49760000D01*
X112425000Y-48290000D02*
X110140000Y-48290000D01*
%TO.C,C5*%
X150203080Y-107027500D02*
X149921920Y-107027500D01*
X150203080Y-108047500D02*
X149921920Y-108047500D01*
%TO.C,C20*%
X106859420Y-104690000D02*
X107140580Y-104690000D01*
X106859420Y-105710000D02*
X107140580Y-105710000D01*
%TO.C,J3*%
X163065000Y-69915000D02*
X163065000Y-70965000D01*
X163065000Y-70965000D02*
X162075000Y-70965000D01*
X163065000Y-76135000D02*
X163065000Y-75085000D01*
X164215000Y-69915000D02*
X163065000Y-69915000D01*
X164215000Y-76135000D02*
X163065000Y-76135000D01*
X166185000Y-71085000D02*
X166185000Y-74965000D01*
%TO.C,R1*%
X154437258Y-107777500D02*
X153962742Y-107777500D01*
X154437258Y-108822500D02*
X153962742Y-108822500D01*
%TO.C,Y1*%
X97570000Y-96490000D02*
X97570000Y-99910000D01*
X97570000Y-99910000D02*
X101690000Y-99910000D01*
%TO.C,C1*%
X99760000Y-58434420D02*
X99760000Y-58715580D01*
X100780000Y-58434420D02*
X100780000Y-58715580D01*
%TO.C,R5*%
X102855000Y-98051359D02*
X102855000Y-98358641D01*
X103615000Y-98051359D02*
X103615000Y-98358641D01*
%TO.C,TP2*%
X101230000Y-94100000D02*
G75*
G02*
X99830000Y-94100000I-700000J0D01*
G01*
X99830000Y-94100000D02*
G75*
G02*
X101230000Y-94100000I700000J0D01*
G01*
%TO.C,R7*%
X110177500Y-88862258D02*
X110177500Y-88387742D01*
X111222500Y-88862258D02*
X111222500Y-88387742D01*
%TO.C,C8*%
X107932836Y-64840000D02*
X107717164Y-64840000D01*
X107932836Y-65560000D02*
X107717164Y-65560000D01*
%TD*%
M02*
