%TF.GenerationSoftware,KiCad,Pcbnew,10.0.3*%
%TF.CreationDate,2026-05-31T11:06:23+10:00*%
%TF.ProjectId,travel-router,74726176-656c-42d7-926f-757465722e6b,rev?*%
%TF.SameCoordinates,Original*%
%TF.FileFunction,Soldermask,Bot*%
%TF.FilePolarity,Negative*%
%FSLAX46Y46*%
G04 Gerber Fmt 4.6, Leading zero omitted, Abs format (unit mm)*
G04 Created by KiCad (PCBNEW 10.0.3) date 2026-05-31 11:06:23*
%MOMM*%
%LPD*%
G01*
G04 APERTURE LIST*
G04 Aperture macros list*
%AMRoundRect*
0 Rectangle with rounded corners*
0 $1 Rounding radius*
0 $2 $3 $4 $5 $6 $7 $8 $9 X,Y pos of 4 corners*
0 Add a 4 corners polygon primitive as box body*
4,1,4,$2,$3,$4,$5,$6,$7,$8,$9,$2,$3,0*
0 Add four circle primitives for the rounded corners*
1,1,$1+$1,$2,$3*
1,1,$1+$1,$4,$5*
1,1,$1+$1,$6,$7*
1,1,$1+$1,$8,$9*
0 Add four rect primitives between the rounded corners*
20,1,$1+$1,$2,$3,$4,$5,0*
20,1,$1+$1,$4,$5,$6,$7,0*
20,1,$1+$1,$6,$7,$8,$9,0*
20,1,$1+$1,$8,$9,$2,$3,0*%
G04 Aperture macros list end*
%ADD10C,3.200000*%
%ADD11R,1.700000X1.700000*%
%ADD12C,1.700000*%
%ADD13RoundRect,0.250000X-0.500000X0.500000X-0.500000X-0.500000X0.500000X-0.500000X0.500000X0.500000X0*%
%ADD14C,1.500000*%
%ADD15C,3.000000*%
%ADD16C,0.650000*%
%ADD17O,1.000000X2.100000*%
%ADD18O,1.000000X1.600000*%
%ADD19C,2.000000*%
%ADD20RoundRect,0.250500X-0.499500X-0.499500X0.499500X-0.499500X0.499500X0.499500X-0.499500X0.499500X0*%
%ADD21C,2.500000*%
%ADD22C,6.100000*%
G04 APERTURE END LIST*
D10*
%TO.C,H4*%
X183700000Y-143300000D03*
%TD*%
D11*
%TO.C,J2*%
X167885000Y-71565000D03*
D12*
X170425000Y-71565000D03*
X167885000Y-74105000D03*
X170425000Y-74105000D03*
X167885000Y-76645000D03*
X170425000Y-76645000D03*
X167885000Y-79185000D03*
X170425000Y-79185000D03*
X167885000Y-81725000D03*
X170425000Y-81725000D03*
%TD*%
D13*
%TO.C,J8*%
X102780000Y-69700000D03*
D14*
X102780000Y-72200000D03*
X102780000Y-74200000D03*
X102780000Y-76700000D03*
X100160000Y-69700000D03*
X100160000Y-72200000D03*
X100160000Y-74200000D03*
X100160000Y-76700000D03*
D15*
X103130000Y-66630000D03*
X97450000Y-66630000D03*
X103130000Y-79770000D03*
X97450000Y-79770000D03*
%TD*%
D16*
%TO.C,J1*%
X147610000Y-141300000D03*
X153390000Y-141300000D03*
D17*
X146180000Y-140770000D03*
D18*
X146180000Y-144950000D03*
D17*
X154820000Y-140770000D03*
D18*
X154820000Y-144950000D03*
%TD*%
D19*
%TO.C,SW1*%
X167500000Y-56000000D03*
X161000000Y-56000000D03*
X167500000Y-51500000D03*
X161000000Y-51500000D03*
%TD*%
D10*
%TO.C,H2*%
X183250000Y-52750000D03*
%TD*%
D19*
%TO.C,U12*%
X113150000Y-56575000D03*
X113150000Y-71075000D03*
X109850000Y-63825000D03*
%TD*%
D10*
%TO.C,U7*%
X101910000Y-136860000D03*
X113340000Y-136860000D03*
D20*
X101910000Y-127970000D03*
D14*
X103180000Y-130510000D03*
X104450000Y-127970000D03*
X105720000Y-130510000D03*
X106990000Y-127970000D03*
X108260000Y-130510000D03*
X109530000Y-127970000D03*
X110800000Y-130510000D03*
X112070000Y-127970000D03*
X113340000Y-130510000D03*
X101910000Y-133030000D03*
X104450000Y-134300000D03*
X110800000Y-134300000D03*
X113340000Y-133030000D03*
X100995000Y-140920000D03*
X103535000Y-140920000D03*
X111715000Y-140920000D03*
X114255000Y-140920000D03*
D21*
X99750000Y-133810000D03*
X115500000Y-133810000D03*
%TD*%
D22*
%TO.C,Module1*%
X155040000Y-99800000D03*
X155040000Y-51800000D03*
X122040000Y-99800000D03*
X122040000Y-51800000D03*
%TD*%
D10*
%TO.C,H3*%
X93000000Y-143250000D03*
%TD*%
%TO.C,H1*%
X93000000Y-52750000D03*
%TD*%
%TO.C,U3*%
X121840000Y-136860000D03*
X133270000Y-136860000D03*
D20*
X121840000Y-127970000D03*
D14*
X123110000Y-130510000D03*
X124380000Y-127970000D03*
X125650000Y-130510000D03*
X126920000Y-127970000D03*
X128190000Y-130510000D03*
X129460000Y-127970000D03*
X130730000Y-130510000D03*
X132000000Y-127970000D03*
X133270000Y-130510000D03*
X121840000Y-133030000D03*
X124380000Y-134300000D03*
X130730000Y-134300000D03*
X133270000Y-133030000D03*
X120925000Y-140920000D03*
X123465000Y-140920000D03*
X131645000Y-140920000D03*
X134185000Y-140920000D03*
D21*
X119680000Y-133810000D03*
X135430000Y-133810000D03*
%TD*%
M02*
