%TF.GenerationSoftware,KiCad,Pcbnew,10.0.3*%
%TF.CreationDate,2026-06-21T11:29:54+10:00*%
%TF.ProjectId,travel-router,74726176-656c-42d7-926f-757465722e6b,rev?*%
%TF.SameCoordinates,Original*%
%TF.FileFunction,Copper,L4,Bot*%
%TF.FilePolarity,Positive*%
%FSLAX46Y46*%
G04 Gerber Fmt 4.6, Leading zero omitted, Abs format (unit mm)*
G04 Created by KiCad (PCBNEW 10.0.3) date 2026-06-21 11:29:54*
%MOMM*%
%LPD*%
G01*
G04 APERTURE LIST*
G04 Aperture macros list*
%AMRoundRect*
0 Rectangle with rounded corners*
0 $1 Rounding radius*
0 $2 $3 $4 $5 $6 $7 $8 $9 X,Y pos of 4 corners*
0 Add a 4 corners polygon primitive as box body*
4,1,4,$2,$3,$4,$5,$6,$7,$8,$9,$2,$3,0*
0 Add four circle primitives for the rounded corners*
1,1,$1+$1,$2,$3*
1,1,$1+$1,$4,$5*
1,1,$1+$1,$6,$7*
1,1,$1+$1,$8,$9*
0 Add four rect primitives between the rounded corners*
20,1,$1+$1,$2,$3,$4,$5,0*
20,1,$1+$1,$4,$5,$6,$7,0*
20,1,$1+$1,$6,$7,$8,$9,0*
20,1,$1+$1,$8,$9,$2,$3,0*%
G04 Aperture macros list end*
%TA.AperFunction,ComponentPad*%
%ADD10RoundRect,0.250000X-0.500000X-0.500000X0.500000X-0.500000X0.500000X0.500000X-0.500000X0.500000X0*%
%TD*%
%TA.AperFunction,ComponentPad*%
%ADD11C,1.500000*%
%TD*%
%TA.AperFunction,ComponentPad*%
%ADD12C,3.000000*%
%TD*%
%TA.AperFunction,ComponentPad*%
%ADD13R,1.700000X1.700000*%
%TD*%
%TA.AperFunction,ComponentPad*%
%ADD14C,1.700000*%
%TD*%
%TA.AperFunction,ComponentPad*%
%ADD15C,2.000000*%
%TD*%
%TA.AperFunction,ComponentPad*%
%ADD16RoundRect,0.250500X-0.499500X-0.499500X0.499500X-0.499500X0.499500X0.499500X-0.499500X0.499500X0*%
%TD*%
%TA.AperFunction,ComponentPad*%
%ADD17C,2.500000*%
%TD*%
%TA.AperFunction,ComponentPad*%
%ADD18O,1.000000X2.100000*%
%TD*%
%TA.AperFunction,ComponentPad*%
%ADD19O,1.000000X1.600000*%
%TD*%
%TA.AperFunction,ViaPad*%
%ADD20C,0.600000*%
%TD*%
%TA.AperFunction,ViaPad*%
%ADD21C,0.450000*%
%TD*%
%TA.AperFunction,ViaPad*%
%ADD22C,0.400000*%
%TD*%
%TA.AperFunction,ViaPad*%
%ADD23C,1.200000*%
%TD*%
%TA.AperFunction,ViaPad*%
%ADD24C,1.600000*%
%TD*%
%TA.AperFunction,ViaPad*%
%ADD25C,0.800000*%
%TD*%
%TA.AperFunction,Conductor*%
%ADD26C,0.200000*%
%TD*%
%TA.AperFunction,Conductor*%
%ADD27C,0.153200*%
%TD*%
%TA.AperFunction,Conductor*%
%ADD28C,0.132600*%
%TD*%
%TA.AperFunction,Conductor*%
%ADD29C,0.121200*%
%TD*%
G04 APERTURE END LIST*
D10*
%TO.P,J2,1,VBUS1_1*%
%TO.N,/CM5_HighSpeed/VBUS*%
X142795000Y-111745000D03*
D11*
%TO.P,J2,2,D1-_2*%
%TO.N,/CM5_HighSpeed/USB3-1-D-*%
X145295000Y-111745000D03*
%TO.P,J2,3,D1+_3*%
%TO.N,/CM5_HighSpeed/USB3-1-D+*%
X147295000Y-111745000D03*
%TO.P,J2,4,GND1_4*%
%TO.N,GND*%
X149795000Y-111745000D03*
%TO.P,J2,5,VBUS2_5*%
%TO.N,/CM5_HighSpeed/VBUS*%
X142795000Y-114365000D03*
%TO.P,J2,6,D2-_6*%
%TO.N,/CM5_HighSpeed/USB3-2-D-*%
X145295000Y-114365000D03*
%TO.P,J2,7,D2+_7*%
%TO.N,/CM5_HighSpeed/USB3-2-D+*%
X147295000Y-114365000D03*
%TO.P,J2,8,GND2_8*%
%TO.N,GND*%
X149795000Y-114365000D03*
D12*
%TO.P,J2,SH,Shield_SH*%
X139725000Y-111395000D03*
X139725000Y-117075000D03*
X152865000Y-111395000D03*
X152865000Y-117075000D03*
%TD*%
D13*
%TO.P,J4,1,Pin_1_1*%
%TO.N,/CM5_GPIO/PWR_BUT*%
X95475000Y-65700000D03*
D14*
%TO.P,J4,2,Pin_2_2*%
%TO.N,GND*%
X92935000Y-65700000D03*
%TD*%
D15*
%TO.P,U4,21,EH_21*%
%TO.N,GND*%
X113150000Y-56575000D03*
%TO.P,U4,22,EH_22*%
X113150000Y-71075000D03*
%TO.P,U4,23,EH_23*%
X109850000Y-63825000D03*
%TD*%
D16*
%TO.P,U12,1,TRD0+_1*%
%TO.N,/CM5_PCIe/TRD0+*%
X101695000Y-107850000D03*
D11*
%TO.P,U12,2,TRD0-_2*%
%TO.N,/CM5_PCIe/TRD0-*%
X102965000Y-110390000D03*
%TO.P,U12,3,TRD1+_3*%
%TO.N,/CM5_PCIe/TRD1+*%
X104235000Y-107850000D03*
%TO.P,U12,4,CT_4*%
%TO.N,Net-(C20-Pad1)*%
X105505000Y-110390000D03*
%TO.P,U12,5,CT_5*%
X106775000Y-107850000D03*
%TO.P,U12,6,TRD1-_6*%
%TO.N,/CM5_PCIe/TRD1-*%
X108045000Y-110390000D03*
%TO.P,U12,7,TRD2+_7*%
%TO.N,/CM5_PCIe/TRD2+*%
X109315000Y-107850000D03*
%TO.P,U12,8,TRD2-_8*%
%TO.N,/CM5_PCIe/TRD2-*%
X110585000Y-110390000D03*
%TO.P,U12,9,TRD3+_9*%
%TO.N,/CM5_PCIe/TRD3+*%
X111855000Y-107850000D03*
%TO.P,U12,10,TRD3-_10*%
%TO.N,/CM5_PCIe/TRD3-*%
X113125000Y-110390000D03*
%TO.P,U12,11,VC1_11*%
%TO.N,unconnected-(U12-VC1-Pad11)*%
X101695000Y-112910000D03*
%TO.P,U12,12,VC2_12*%
%TO.N,unconnected-(U12-VC2-Pad12)*%
X104235000Y-114180000D03*
%TO.P,U12,13,VC3_13*%
%TO.N,unconnected-(U12-VC3-Pad13)*%
X110585000Y-114180000D03*
%TO.P,U12,14,VC4_14*%
%TO.N,unconnected-(U12-VC4-Pad14)*%
X113125000Y-112910000D03*
%TO.P,U12,15,LEDY_A_15*%
%TO.N,/+3.3v*%
X100780000Y-120800000D03*
%TO.P,U12,16,LEDY_K_16*%
%TO.N,/CM5_PCIe/ETH_LEDY*%
X103320000Y-120800000D03*
%TO.P,U12,17,LEDG_A_17*%
%TO.N,/+3.3v*%
X111500000Y-120800000D03*
%TO.P,U12,18,LEDG_K_18*%
%TO.N,/CM5_PCIe/ETH_LEDG*%
X114040000Y-120800000D03*
D17*
%TO.P,U12,19,SHIELD_19*%
%TO.N,GND*%
X99535000Y-113690000D03*
%TO.P,U12,20,SHIELD_20*%
X115285000Y-113690000D03*
%TD*%
D18*
%TO.P,J1,SH,SHIELD_SH*%
%TO.N,GND*%
X107020000Y-54930000D03*
D19*
X107020000Y-50750000D03*
D18*
X98380000Y-54930000D03*
D19*
X98380000Y-50750000D03*
%TD*%
D16*
%TO.P,U8,1,TRD0+_1*%
%TO.N,/CM5_GPIO/TRD0+*%
X122195000Y-107850000D03*
D11*
%TO.P,U8,2,TRD0-_2*%
%TO.N,/CM5_GPIO/TRD0-*%
X123465000Y-110390000D03*
%TO.P,U8,3,TRD1+_3*%
%TO.N,/CM5_GPIO/TRD1+*%
X124735000Y-107850000D03*
%TO.P,U8,4,CT_4*%
%TO.N,Net-(C9-Pad1)*%
X126005000Y-110390000D03*
%TO.P,U8,5,CT_5*%
X127275000Y-107850000D03*
%TO.P,U8,6,TRD1-_6*%
%TO.N,/CM5_GPIO/TRD1-*%
X128545000Y-110390000D03*
%TO.P,U8,7,TRD2+_7*%
%TO.N,/CM5_GPIO/TRD2+*%
X129815000Y-107850000D03*
%TO.P,U8,8,TRD2-_8*%
%TO.N,/CM5_GPIO/TRD2-*%
X131085000Y-110390000D03*
%TO.P,U8,9,TRD3+_9*%
%TO.N,/CM5_GPIO/TRD3+*%
X132355000Y-107850000D03*
%TO.P,U8,10,TRD3-_10*%
%TO.N,/CM5_GPIO/TRD3-*%
X133625000Y-110390000D03*
%TO.P,U8,11,VC1_11*%
%TO.N,unconnected-(U8-VC1-Pad11)*%
X122195000Y-112910000D03*
%TO.P,U8,12,VC2_12*%
%TO.N,unconnected-(U8-VC2-Pad12)*%
X124735000Y-114180000D03*
%TO.P,U8,13,VC3_13*%
%TO.N,unconnected-(U8-VC3-Pad13)*%
X131085000Y-114180000D03*
%TO.P,U8,14,VC4_14*%
%TO.N,unconnected-(U8-VC4-Pad14)*%
X133625000Y-112910000D03*
%TO.P,U8,15,LEDY_A_15*%
%TO.N,/+3.3v*%
X121280000Y-120800000D03*
%TO.P,U8,16,LEDY_K_16*%
%TO.N,/CM5_GPIO/ETH_LEDY*%
X123820000Y-120800000D03*
%TO.P,U8,17,LEDG_A_17*%
%TO.N,/+3.3v*%
X132000000Y-120800000D03*
%TO.P,U8,18,LEDG_K_18*%
%TO.N,/CM5_GPIO/ETH_LEDG*%
X134540000Y-120800000D03*
D17*
%TO.P,U8,19,SHIELD_19*%
%TO.N,GND*%
X120035000Y-113690000D03*
%TO.P,U8,20,SHIELD_20*%
X135785000Y-113690000D03*
%TD*%
D20*
%TO.N,GND*%
X152010000Y-80480000D03*
X128300000Y-124900000D03*
X105039994Y-100589994D03*
X119230000Y-77178200D03*
X127100000Y-82500000D03*
X134495000Y-67050000D03*
X119190000Y-73500000D03*
X153200000Y-73100000D03*
X114175000Y-66535000D03*
X102285000Y-93680000D03*
X119228809Y-69957600D03*
D21*
X116200000Y-81090000D03*
D20*
X102485000Y-96905000D03*
X133320000Y-73300000D03*
X93900000Y-117600000D03*
X137520000Y-67025000D03*
X119281650Y-78253800D03*
X148927500Y-113497500D03*
X151200000Y-105600000D03*
X125950000Y-67700000D03*
D21*
X113890000Y-81280000D03*
D20*
X107240000Y-103140000D03*
X131100000Y-49000000D03*
X152500000Y-63500000D03*
X157971446Y-72271446D03*
X148000000Y-66600000D03*
X92800000Y-96200000D03*
X162300000Y-76200000D03*
X136095000Y-69675000D03*
X132420000Y-71125000D03*
X137770000Y-71775000D03*
X155900000Y-56400000D03*
X136845000Y-74450000D03*
X153000000Y-77100000D03*
X151140000Y-93640000D03*
X95500000Y-107200000D03*
X153000000Y-70300000D03*
X107345000Y-61900000D03*
D22*
X109050000Y-99880000D03*
D20*
X145070000Y-95870000D03*
X153010000Y-82070000D03*
X153200000Y-68900000D03*
X116000000Y-94500000D03*
X137745000Y-70925000D03*
X103800000Y-103750000D03*
D21*
X115670000Y-87010000D03*
D20*
X160100000Y-118400000D03*
X114175000Y-68035000D03*
X138670000Y-68450000D03*
X157925862Y-81264206D03*
X107900000Y-62400000D03*
X134870000Y-74750000D03*
X137620000Y-68400000D03*
X132645000Y-72200000D03*
X137770000Y-70100000D03*
X135200000Y-57800000D03*
X134095000Y-74775000D03*
D21*
X114119769Y-86641199D03*
D20*
X145900000Y-73900000D03*
X102985000Y-100380000D03*
X119311034Y-81946200D03*
X157700000Y-83400000D03*
X157800000Y-71500000D03*
X152200000Y-108800000D03*
D22*
X124600000Y-103780000D03*
D20*
X120690000Y-79460000D03*
X157900000Y-78200000D03*
X114175000Y-62035000D03*
X157900000Y-69100000D03*
X97135000Y-96505000D03*
X135620000Y-74675000D03*
X101400000Y-57400000D03*
X133895000Y-69125000D03*
X108500000Y-57700000D03*
X99635000Y-100330000D03*
X150692500Y-113467500D03*
D21*
X116080000Y-86440000D03*
D20*
X92800000Y-59400000D03*
X129000000Y-52900000D03*
X157900000Y-70300000D03*
X120800000Y-80700000D03*
D21*
X117000000Y-70025000D03*
D20*
X111300000Y-106400000D03*
X137820000Y-74400000D03*
X137745000Y-73525000D03*
X105785000Y-91080000D03*
D21*
X121300000Y-69100000D03*
D20*
X142964447Y-51125103D03*
D22*
X132105000Y-103780000D03*
D20*
X123830000Y-72310000D03*
X134022173Y-73345796D03*
X110700000Y-86500000D03*
X146500000Y-59400000D03*
X136695000Y-73625000D03*
X132695000Y-73000000D03*
X133070000Y-69025000D03*
X165100000Y-99800000D03*
X106200000Y-59400000D03*
X133995000Y-70150000D03*
X144540000Y-86950000D03*
X123830002Y-82400000D03*
X132700000Y-91800000D03*
X136920000Y-69900000D03*
D21*
X116250000Y-85680000D03*
X113600000Y-81800000D03*
D20*
X127100000Y-113600000D03*
X124200000Y-77100000D03*
X138695000Y-69825000D03*
X104585000Y-92180000D03*
X161100000Y-62500000D03*
D21*
X114300000Y-87200000D03*
D20*
X119280000Y-71100000D03*
X134095000Y-71500000D03*
X107130000Y-96000000D03*
X135895000Y-68475000D03*
X111410000Y-98055000D03*
X137770000Y-72725000D03*
X153070000Y-83090000D03*
X123762873Y-71178200D03*
X147000000Y-121000000D03*
X134070000Y-74025000D03*
X114175000Y-65035000D03*
X135295000Y-69350000D03*
X134095000Y-72450000D03*
X153100000Y-71500000D03*
D21*
X114400000Y-82700000D03*
D20*
X136645000Y-67025000D03*
X164600000Y-57500000D03*
X165600000Y-112500000D03*
X152885424Y-79100000D03*
X121500000Y-63900000D03*
X133920000Y-67900000D03*
X146800000Y-105600000D03*
X158000000Y-74700000D03*
X114150000Y-63535000D03*
D21*
X114400000Y-80920000D03*
X113800000Y-82400000D03*
D20*
X98535000Y-96155000D03*
X135645000Y-73625000D03*
X154500000Y-109700000D03*
X136820000Y-68225000D03*
D21*
X115670133Y-81032763D03*
X115700000Y-85470000D03*
D20*
X123762873Y-69821800D03*
X134045000Y-70875000D03*
X153200000Y-75100001D03*
X135620000Y-67050000D03*
X139220000Y-69200000D03*
X148140000Y-104360000D03*
X157900000Y-76700000D03*
X132395000Y-69750000D03*
X119180000Y-72300000D03*
%TO.N,/+3.3v*%
X154700000Y-66250000D03*
X103885000Y-92880000D03*
X111060000Y-96600000D03*
X101085000Y-100580000D03*
X153175000Y-66875000D03*
X106600000Y-89600000D03*
X152800000Y-67725000D03*
%TO.N,/CM5_PCIe/+1.0v*%
X105685000Y-91880000D03*
D22*
X104706268Y-94014928D03*
D20*
X106300000Y-100600000D03*
D22*
X109056832Y-97900000D03*
X103910000Y-97180000D03*
D20*
%TO.N,/CM5_GPIO/VBAT*%
X151900000Y-68300000D03*
X99850000Y-66950000D03*
%TO.N,/CM5_HighSpeed/USB3-1-D-*%
X133784479Y-105185521D03*
X126793359Y-72622087D03*
%TO.N,/CM5_HighSpeed/USB3-1-D+*%
X134385521Y-104584479D03*
X126793359Y-73472087D03*
%TO.N,/CM5_HighSpeed/USB3-2-D-*%
X117109479Y-77049479D03*
X137787516Y-106600000D03*
%TO.N,/CM5_HighSpeed/USB3-2-D+*%
X117710521Y-77650521D03*
X137787516Y-105750000D03*
%TO.N,/VBUS*%
X156300000Y-65900000D03*
D23*
X152200000Y-103300000D03*
D24*
X98900000Y-57500000D03*
D25*
X107375000Y-70100000D03*
D20*
X163141054Y-70766054D03*
X113100000Y-50200000D03*
D24*
X106595000Y-57775000D03*
D20*
%TO.N,/CM5_GPIO/LED_nPWR*%
X151600000Y-62100000D03*
X156000000Y-64100000D03*
%TO.N,/CM5_GPIO/PWR_BUT*%
X153300000Y-65200000D03*
%TO.N,/CM5_HighSpeed/VBUS_EN*%
X124710000Y-81690000D03*
X145370000Y-102300000D03*
D21*
%TO.N,/CM5_HighSpeed/HDMI0_CEC*%
X122186824Y-73100000D03*
D20*
X118870000Y-63970000D03*
%TO.N,/CM5_HighSpeed/HDMI0_HOTPLUG*%
X121700000Y-61800000D03*
D21*
X122325000Y-72425000D03*
%TO.N,/USB2_D-*%
X117900521Y-72699479D03*
X122050000Y-83300000D03*
%TO.N,/USB2_D+*%
X117299479Y-73300521D03*
X121350000Y-83300000D03*
D20*
%TO.N,Net-(C9-Pad1)*%
X127300000Y-105600000D03*
D22*
%TO.N,/CM5_PCIe/ETH_LEDY*%
X102271177Y-94900000D03*
%TO.N,/CM5_PCIe/ETH_LEDG*%
X104285000Y-94500000D03*
D21*
%TO.N,/CM5_HighSpeed/PCIe_TX+*%
X115465000Y-81743257D03*
X115465000Y-86302453D03*
%TO.N,/CM5_HighSpeed/PCIe_TX-*%
X114615000Y-86302453D03*
X114615000Y-81743257D03*
D20*
%TO.N,/CM5_HighSpeed/PCIe_nRST*%
X108009512Y-92320000D03*
X116785000Y-90780000D03*
%TO.N,/CM5_GPIO/ETH_LEDG*%
X161275000Y-82500000D03*
%TO.N,/CM5_GPIO/FAN_TACHO*%
X161700000Y-69250000D03*
X153385424Y-80300001D03*
%TO.N,/CM5_GPIO/ETH_LEDY*%
X160600000Y-80400000D03*
%TO.N,/CM5_GPIO/SYNC_OUT*%
X155100000Y-80400000D03*
X159840000Y-84600000D03*
%TO.N,/CM5_GPIO/FAN_PWM*%
X160600000Y-74625000D03*
X161700000Y-72750000D03*
%TD*%
%TO.N,/CM5_GPIO/ETH_LEDY*%
D26*
X160600000Y-80400000D02*
X160600000Y-88857107D01*
X160600000Y-88857107D02*
X143103553Y-106353553D01*
%TO.N,/CM5_GPIO/ETH_LEDG*%
X161275000Y-82500000D02*
X161275000Y-88825000D01*
X161275000Y-88825000D02*
X141425000Y-108675000D01*
X141425000Y-108675000D02*
X141425000Y-112970836D01*
X141425000Y-112970836D02*
X134540000Y-119855836D01*
X134540000Y-119855836D02*
X134540000Y-120800000D01*
%TO.N,/CM5_GPIO/PWR_BUT*%
X153300000Y-65200000D02*
X149600000Y-65200000D01*
X145400000Y-61000000D02*
X106900000Y-61000000D01*
X149600000Y-65200000D02*
X145400000Y-61000000D01*
X106900000Y-61000000D02*
X102200000Y-65700000D01*
X102200000Y-65700000D02*
X95475000Y-65700000D01*
%TO.N,/CM5_PCIe/+1.0v*%
X109056832Y-97900000D02*
X108005000Y-97900000D01*
X103785000Y-94292893D02*
X103785000Y-94707107D01*
X103910000Y-94970686D02*
X103910000Y-98210000D01*
X104706268Y-94014928D02*
X105685000Y-93036196D01*
X105685000Y-93036196D02*
X105685000Y-91880000D01*
X103885000Y-94807107D02*
X103885000Y-94945685D01*
X104077893Y-94000000D02*
X103785000Y-94292893D01*
X103785000Y-94707107D02*
X103885000Y-94807107D01*
X104691340Y-94000000D02*
X104077893Y-94000000D01*
X103885000Y-94945685D02*
X103910000Y-94970686D01*
X104785000Y-94093660D02*
X104706268Y-94014928D01*
X103910000Y-98210000D02*
X106300000Y-100600000D01*
X104706268Y-94014928D02*
X104691340Y-94000000D01*
X108005000Y-97900000D02*
X104785000Y-94680000D01*
X104785000Y-94680000D02*
X104785000Y-94093660D01*
%TO.N,/CM5_GPIO/VBAT*%
X147100000Y-68300000D02*
X140100000Y-61300000D01*
X110000000Y-61300000D02*
X104350000Y-66950000D01*
X104350000Y-66950000D02*
X99850000Y-66950000D01*
X140100000Y-61300000D02*
X110000000Y-61300000D01*
X151900000Y-68300000D02*
X147100000Y-68300000D01*
%TO.N,/CM5_HighSpeed/USB3-1-D-*%
D27*
X122921810Y-93993506D02*
X132531600Y-103603296D01*
X132531600Y-103616706D02*
X133784479Y-104869585D01*
X122908400Y-93993506D02*
X122921810Y-93993506D01*
X126569959Y-72845487D02*
X125909407Y-72845487D01*
X126793359Y-72622087D02*
X126569959Y-72845487D01*
X132531600Y-103603296D02*
X132531600Y-103616706D01*
X133784479Y-104869585D02*
X133784479Y-105185521D01*
X122908400Y-75846494D02*
X122908400Y-93993506D01*
X125909407Y-72845487D02*
X122908400Y-75846494D01*
%TO.N,/CM5_HighSpeed/USB3-1-D+*%
X126569959Y-73248687D02*
X126076419Y-73248687D01*
X126793359Y-73472087D02*
X126569959Y-73248687D01*
X123311600Y-76013506D02*
X123311600Y-93826494D01*
X123326990Y-93839084D02*
X134072385Y-104584479D01*
X123319705Y-93818390D02*
X123326990Y-93825675D01*
X126076419Y-73248687D02*
X123311600Y-76013506D01*
X123326990Y-93825675D02*
X123326990Y-93839084D01*
X134072385Y-104584479D02*
X134385521Y-104584479D01*
%TO.N,/CM5_HighSpeed/USB3-2-D-*%
X116828400Y-77646494D02*
X117109479Y-77365415D01*
X117109479Y-77365415D02*
X117109479Y-77049479D01*
X116828400Y-89883506D02*
X116828400Y-77646494D01*
X133321494Y-106376600D02*
X116828400Y-89883506D01*
X137787516Y-106600000D02*
X137564116Y-106376600D01*
X137564116Y-106376600D02*
X133321494Y-106376600D01*
%TO.N,/CM5_HighSpeed/USB3-2-D+*%
X137787516Y-105750000D02*
X137564116Y-105973400D01*
X133488506Y-105973400D02*
X117231600Y-89716494D01*
X117394585Y-77650521D02*
X117710521Y-77650521D01*
X137564116Y-105973400D02*
X133488506Y-105973400D01*
X117231600Y-89716494D02*
X117231600Y-77813506D01*
X117231600Y-77813506D02*
X117394585Y-77650521D01*
%TO.N,/CM5_GPIO/LED_nPWR*%
D26*
X154000000Y-62100000D02*
X156000000Y-64100000D01*
X151600000Y-62100000D02*
X154000000Y-62100000D01*
%TO.N,/CM5_HighSpeed/VBUS_EN*%
X145320000Y-102300000D02*
X145370000Y-102300000D01*
X124710000Y-81690000D02*
X145320000Y-102300000D01*
%TO.N,/CM5_HighSpeed/HDMI0_CEC*%
X118870000Y-63970000D02*
X121800000Y-66900000D01*
X121800000Y-66900000D02*
X121800000Y-72713176D01*
X121800000Y-72713176D02*
X122186824Y-73100000D01*
%TO.N,/CM5_HighSpeed/HDMI0_HOTPLUG*%
X122325000Y-62425000D02*
X121700000Y-61800000D01*
X122325000Y-72425000D02*
X122325000Y-62425000D01*
%TO.N,/USB2_D-*%
D28*
X118806852Y-73966300D02*
X118836840Y-73966300D01*
X117900521Y-72699479D02*
X117900521Y-73029981D01*
X117900521Y-73029981D02*
X118533700Y-73663160D01*
X118533700Y-73693148D02*
X118806852Y-73966300D01*
X118836840Y-73966300D02*
X121891301Y-77020761D01*
X118533700Y-73663160D02*
X118533700Y-73693148D01*
X121891301Y-77020761D02*
X121891301Y-83141301D01*
X121891301Y-83141301D02*
X122050000Y-83300000D01*
%TO.N,/USB2_D+*%
X117299479Y-73300521D02*
X117629981Y-73300521D01*
X121508699Y-83141301D02*
X121350000Y-83300000D01*
X117629981Y-73300521D02*
X121508699Y-77179239D01*
X121508699Y-77179239D02*
X121508699Y-83141301D01*
%TO.N,Net-(C9-Pad1)*%
D26*
X127275000Y-105625000D02*
X127300000Y-105600000D01*
X126005000Y-110390000D02*
X127275000Y-109120000D01*
X127275000Y-107850000D02*
X127275000Y-105625000D01*
X127275000Y-109120000D02*
X127275000Y-107850000D01*
%TO.N,Net-(C20-Pad1)*%
X106775000Y-107850000D02*
X106775000Y-109120000D01*
X106775000Y-109120000D02*
X105505000Y-110390000D01*
%TO.N,/CM5_PCIe/ETH_LEDY*%
X100745000Y-110616497D02*
X102745000Y-112616497D01*
X101885000Y-95280000D02*
X101885000Y-101045000D01*
X104070000Y-115499925D02*
X104070000Y-120050000D01*
X104070000Y-120050000D02*
X103320000Y-120800000D01*
X102271177Y-94900000D02*
X102265000Y-94900000D01*
X101885000Y-101045000D02*
X100745000Y-102185000D01*
X102745000Y-112616497D02*
X102745000Y-114174925D01*
X100745000Y-102185000D02*
X100745000Y-110616497D01*
X102265000Y-94900000D02*
X101885000Y-95280000D01*
X102745000Y-114174925D02*
X104070000Y-115499925D01*
%TO.N,/CM5_PCIe/ETH_LEDG*%
X109500000Y-110360075D02*
X108265000Y-109125075D01*
X104285000Y-94500000D02*
X104285000Y-94780000D01*
X114040000Y-120800000D02*
X109500000Y-116260000D01*
X108265000Y-98760000D02*
X108265000Y-109125075D01*
X104285000Y-94780000D02*
X108265000Y-98760000D01*
X109500000Y-116260000D02*
X109500000Y-110360075D01*
%TO.N,/CM5_HighSpeed/PCIe_TX+*%
D29*
X115465000Y-86302453D02*
X115225601Y-86063054D01*
X115225601Y-86063054D02*
X115225601Y-81982656D01*
X115225601Y-81982656D02*
X115465000Y-81743257D01*
%TO.N,/CM5_HighSpeed/PCIe_TX-*%
X114854399Y-81982656D02*
X114615000Y-81743257D01*
X114615000Y-86302453D02*
X114854399Y-86063054D01*
X114854399Y-86063054D02*
X114854399Y-81982656D01*
%TO.N,/CM5_HighSpeed/PCIe_nRST*%
D26*
X115245000Y-92320000D02*
X116785000Y-90780000D01*
X108009512Y-92320000D02*
X115245000Y-92320000D01*
%TO.N,/CM5_GPIO/FAN_TACHO*%
X153385424Y-80300001D02*
X153385424Y-77564576D01*
X153385424Y-77564576D02*
X161700000Y-69250000D01*
%TO.N,/CM5_GPIO/ETH_LEDY*%
X142357106Y-107100000D02*
X143103553Y-106353553D01*
X132675000Y-109996497D02*
X135571497Y-107100000D01*
X132675000Y-109996497D02*
X132675000Y-110783503D01*
X123820000Y-120800000D02*
X123820000Y-119638503D01*
X123820000Y-119638503D02*
X132675000Y-110783503D01*
X143081586Y-106375521D02*
X143103553Y-106353553D01*
X135571497Y-107100000D02*
X142357106Y-107100000D01*
%TO.N,/CM5_GPIO/SYNC_OUT*%
X155800000Y-84600000D02*
X155100000Y-83900000D01*
X155100000Y-83900000D02*
X155100000Y-80400000D01*
X159840000Y-84600000D02*
X155800000Y-84600000D01*
%TO.N,/CM5_GPIO/FAN_PWM*%
X160600000Y-73850000D02*
X161700000Y-72750000D01*
X160600000Y-74625000D02*
X160600000Y-73850000D01*
%TD*%
%TA.AperFunction,Conductor*%
%TO.N,GND*%
G36*
X103126307Y-94816963D02*
G01*
X103140530Y-94818168D01*
X103157455Y-94831188D01*
X103176880Y-94840059D01*
X103184597Y-94852067D01*
X103195910Y-94860770D01*
X103212417Y-94891966D01*
X103214132Y-94896757D01*
X103225423Y-94938892D01*
X103229840Y-94946542D01*
X103235426Y-94956218D01*
X103235427Y-94956219D01*
X103284573Y-95041343D01*
X103296961Y-95071249D01*
X103304797Y-95100493D01*
X103305273Y-95102269D01*
X103309500Y-95134370D01*
X103309500Y-96780230D01*
X103291253Y-96842369D01*
X103292095Y-96842819D01*
X103289935Y-96846859D01*
X103289815Y-96847269D01*
X103289278Y-96848087D01*
X103289223Y-96848190D01*
X103236421Y-96975667D01*
X103236418Y-96975677D01*
X103209500Y-97111004D01*
X103209500Y-97111007D01*
X103209500Y-97248993D01*
X103209500Y-97248995D01*
X103209499Y-97248995D01*
X103236418Y-97384322D01*
X103236421Y-97384332D01*
X103289222Y-97511806D01*
X103292094Y-97517178D01*
X103290792Y-97517874D01*
X103309480Y-97577554D01*
X103309500Y-97579769D01*
X103309500Y-98123330D01*
X103309499Y-98123348D01*
X103309499Y-98289054D01*
X103309498Y-98289054D01*
X103350423Y-98441785D01*
X103379358Y-98491900D01*
X103379359Y-98491904D01*
X103379360Y-98491904D01*
X103426515Y-98573581D01*
X103429479Y-98578714D01*
X103429481Y-98578717D01*
X103548349Y-98697585D01*
X103548355Y-98697590D01*
X105465425Y-100614660D01*
X105498910Y-100675983D01*
X105499361Y-100678149D01*
X105530261Y-100833491D01*
X105530264Y-100833501D01*
X105590602Y-100979172D01*
X105590609Y-100979185D01*
X105678210Y-101110288D01*
X105678213Y-101110292D01*
X105789707Y-101221786D01*
X105789711Y-101221789D01*
X105920814Y-101309390D01*
X105920827Y-101309397D01*
X106049405Y-101362655D01*
X106066503Y-101369737D01*
X106221153Y-101400499D01*
X106221156Y-101400500D01*
X106221158Y-101400500D01*
X106378844Y-101400500D01*
X106378845Y-101400499D01*
X106533497Y-101369737D01*
X106679179Y-101309394D01*
X106810289Y-101221789D01*
X106921789Y-101110289D01*
X107009394Y-100979179D01*
X107069737Y-100833497D01*
X107100500Y-100678842D01*
X107100500Y-100521158D01*
X107100500Y-100521155D01*
X107100499Y-100521153D01*
X107069738Y-100366510D01*
X107069737Y-100366503D01*
X107061451Y-100346498D01*
X107009397Y-100220827D01*
X107009390Y-100220814D01*
X106921789Y-100089711D01*
X106921786Y-100089707D01*
X106810292Y-99978213D01*
X106810288Y-99978210D01*
X106679185Y-99890609D01*
X106679172Y-99890602D01*
X106533501Y-99830264D01*
X106533491Y-99830261D01*
X106378149Y-99799361D01*
X106316238Y-99766976D01*
X106314660Y-99765425D01*
X104546819Y-97997584D01*
X104513334Y-97936261D01*
X104510500Y-97909903D01*
X104510500Y-97579769D01*
X104528746Y-97517627D01*
X104527906Y-97517178D01*
X104530064Y-97513140D01*
X104530185Y-97512730D01*
X104530721Y-97511910D01*
X104530771Y-97511816D01*
X104530775Y-97511811D01*
X104583580Y-97384328D01*
X104598485Y-97309397D01*
X104610500Y-97248995D01*
X104610500Y-97111004D01*
X104583581Y-96975677D01*
X104583580Y-96975676D01*
X104583580Y-96975672D01*
X104537367Y-96864103D01*
X104530776Y-96848190D01*
X104527905Y-96842819D01*
X104529205Y-96842123D01*
X104510520Y-96782438D01*
X104510500Y-96780230D01*
X104510500Y-96154097D01*
X104530185Y-96087058D01*
X104582989Y-96041303D01*
X104652147Y-96031359D01*
X104715703Y-96060384D01*
X104722181Y-96066416D01*
X107628181Y-98972416D01*
X107661666Y-99033739D01*
X107664500Y-99060097D01*
X107664500Y-106707192D01*
X107644815Y-106774231D01*
X107592011Y-106819986D01*
X107522853Y-106829930D01*
X107467615Y-106807510D01*
X107430408Y-106780478D01*
X107430407Y-106780477D01*
X107430405Y-106780476D01*
X107359684Y-106744442D01*
X107255029Y-106691117D01*
X107067826Y-106630290D01*
X106873422Y-106599500D01*
X106873417Y-106599500D01*
X106676583Y-106599500D01*
X106676578Y-106599500D01*
X106482173Y-106630290D01*
X106294970Y-106691117D01*
X106119594Y-106780476D01*
X106082386Y-106807510D01*
X105960354Y-106896172D01*
X105960352Y-106896174D01*
X105960351Y-106896174D01*
X105821174Y-107035351D01*
X105821174Y-107035352D01*
X105821172Y-107035354D01*
X105785262Y-107084780D01*
X105705476Y-107194594D01*
X105615485Y-107371213D01*
X105567511Y-107422009D01*
X105499690Y-107438804D01*
X105433555Y-107416267D01*
X105394515Y-107371213D01*
X105367397Y-107317992D01*
X105304524Y-107194595D01*
X105188828Y-107035354D01*
X105049646Y-106896172D01*
X104890405Y-106780476D01*
X104884998Y-106777721D01*
X104715029Y-106691117D01*
X104527826Y-106630290D01*
X104333422Y-106599500D01*
X104333417Y-106599500D01*
X104136583Y-106599500D01*
X104136578Y-106599500D01*
X103942173Y-106630290D01*
X103754970Y-106691117D01*
X103579594Y-106780476D01*
X103542386Y-106807510D01*
X103420354Y-106896172D01*
X103420352Y-106896174D01*
X103420351Y-106896174D01*
X103281174Y-107035351D01*
X103281174Y-107035352D01*
X103281172Y-107035354D01*
X103245262Y-107084780D01*
X103165474Y-107194597D01*
X103160009Y-107205323D01*
X103112034Y-107256117D01*
X103044212Y-107272911D01*
X102978078Y-107250372D01*
X102934628Y-107195656D01*
X102931820Y-107188029D01*
X102919413Y-107150586D01*
X102879771Y-107030953D01*
X102787607Y-106881532D01*
X102663468Y-106757393D01*
X102514047Y-106665229D01*
X102347399Y-106610008D01*
X102244553Y-106599500D01*
X102244546Y-106599500D01*
X101469500Y-106599500D01*
X101402461Y-106579815D01*
X101356706Y-106527011D01*
X101345500Y-106475500D01*
X101345500Y-102485096D01*
X101365185Y-102418057D01*
X101381815Y-102397419D01*
X102243506Y-101535727D01*
X102243511Y-101535724D01*
X102253714Y-101525520D01*
X102253716Y-101525520D01*
X102365520Y-101413716D01*
X102444577Y-101276784D01*
X102485500Y-101124057D01*
X102485500Y-95652293D01*
X102505185Y-95585254D01*
X102557989Y-95539499D01*
X102562017Y-95537745D01*
X102602988Y-95520775D01*
X102717719Y-95444114D01*
X102815291Y-95346542D01*
X102891952Y-95231811D01*
X102944757Y-95104328D01*
X102971677Y-94968993D01*
X102971677Y-94933772D01*
X102975698Y-94920076D01*
X102974867Y-94905827D01*
X102985346Y-94887220D01*
X102991362Y-94866733D01*
X103002148Y-94857386D01*
X103009153Y-94844949D01*
X103028028Y-94834961D01*
X103044166Y-94820978D01*
X103058294Y-94818946D01*
X103070910Y-94812271D01*
X103092187Y-94814073D01*
X103113324Y-94811034D01*
X103126307Y-94816963D01*
G37*
%TD.AperFunction*%
%TA.AperFunction,Conductor*%
G36*
X149366349Y-111922553D02*
G01*
X149426909Y-112027446D01*
X149512554Y-112113091D01*
X149617447Y-112173651D01*
X149698249Y-112195302D01*
X149104873Y-112788677D01*
X149104873Y-112788678D01*
X149139858Y-112814096D01*
X149315162Y-112903418D01*
X149418728Y-112937069D01*
X149476403Y-112976507D01*
X149503601Y-113040866D01*
X149491686Y-113109712D01*
X149444442Y-113161188D01*
X149418728Y-113172931D01*
X149315159Y-113206582D01*
X149139863Y-113295899D01*
X149139859Y-113295902D01*
X149104873Y-113321320D01*
X149104872Y-113321320D01*
X149698250Y-113914697D01*
X149617447Y-113936349D01*
X149512554Y-113996909D01*
X149426909Y-114082554D01*
X149366349Y-114187447D01*
X149344697Y-114268250D01*
X148751320Y-113674872D01*
X148751320Y-113674873D01*
X148725902Y-113709859D01*
X148655765Y-113847511D01*
X148607790Y-113898307D01*
X148539969Y-113915102D01*
X148473834Y-113892564D01*
X148434795Y-113847510D01*
X148364525Y-113709596D01*
X148339296Y-113674872D01*
X148248828Y-113550354D01*
X148109646Y-113411172D01*
X147950405Y-113295476D01*
X147934504Y-113287374D01*
X147775029Y-113206117D01*
X147693802Y-113179725D01*
X147672891Y-113172930D01*
X147615217Y-113133493D01*
X147588019Y-113069134D01*
X147599934Y-113000288D01*
X147647178Y-112948812D01*
X147672890Y-112937069D01*
X147775025Y-112903884D01*
X147950405Y-112814524D01*
X148109646Y-112698828D01*
X148248828Y-112559646D01*
X148364524Y-112400405D01*
X148434796Y-112262486D01*
X148482769Y-112211692D01*
X148550589Y-112194896D01*
X148616725Y-112217433D01*
X148655765Y-112262487D01*
X148725905Y-112400145D01*
X148751319Y-112435125D01*
X148751320Y-112435125D01*
X149344697Y-111841748D01*
X149366349Y-111922553D01*
G37*
%TD.AperFunction*%
%TA.AperFunction,Conductor*%
G36*
X124017014Y-82179319D02*
G01*
X124030347Y-82177403D01*
X124050490Y-82186602D01*
X124072127Y-82191309D01*
X124089852Y-82204577D01*
X124093903Y-82206428D01*
X124100381Y-82212460D01*
X124199707Y-82311786D01*
X124199711Y-82311789D01*
X124330814Y-82399390D01*
X124330827Y-82399397D01*
X124476498Y-82459735D01*
X124476503Y-82459737D01*
X124541147Y-82472595D01*
X124631849Y-82490638D01*
X124693760Y-82523023D01*
X124695339Y-82524574D01*
X144547841Y-102377077D01*
X144581326Y-102438400D01*
X144581777Y-102440566D01*
X144600261Y-102533491D01*
X144600264Y-102533501D01*
X144660602Y-102679172D01*
X144660609Y-102679185D01*
X144748210Y-102810288D01*
X144748213Y-102810292D01*
X144859707Y-102921786D01*
X144859711Y-102921789D01*
X144990814Y-103009390D01*
X144990827Y-103009397D01*
X145078230Y-103045599D01*
X145136503Y-103069737D01*
X145243971Y-103091114D01*
X145305879Y-103123497D01*
X145340453Y-103184213D01*
X145336714Y-103253982D01*
X145307458Y-103300411D01*
X142734829Y-105873039D01*
X142734826Y-105873042D01*
X142668127Y-105939744D01*
X142144690Y-106463181D01*
X142083367Y-106496666D01*
X142057009Y-106499500D01*
X138685472Y-106499500D01*
X138618433Y-106479815D01*
X138572678Y-106427011D01*
X138563855Y-106399691D01*
X138557254Y-106366510D01*
X138557253Y-106366503D01*
X138497586Y-106222452D01*
X138490117Y-106152983D01*
X138497586Y-106127548D01*
X138557251Y-105983501D01*
X138557253Y-105983497D01*
X138588016Y-105828842D01*
X138588016Y-105671158D01*
X138588016Y-105671155D01*
X138588015Y-105671153D01*
X138557254Y-105516510D01*
X138557253Y-105516503D01*
X138499310Y-105376615D01*
X138496913Y-105370827D01*
X138496906Y-105370814D01*
X138409305Y-105239711D01*
X138409302Y-105239707D01*
X138297808Y-105128213D01*
X138297804Y-105128210D01*
X138166701Y-105040609D01*
X138166688Y-105040602D01*
X138021017Y-104980264D01*
X138021005Y-104980261D01*
X137866361Y-104949500D01*
X137866358Y-104949500D01*
X137708674Y-104949500D01*
X137708671Y-104949500D01*
X137554026Y-104980261D01*
X137554014Y-104980264D01*
X137408343Y-105040602D01*
X137408330Y-105040609D01*
X137277227Y-105128210D01*
X137277223Y-105128213D01*
X137165726Y-105239710D01*
X137097920Y-105341191D01*
X137044308Y-105385996D01*
X136994818Y-105396300D01*
X135005141Y-105396300D01*
X134938102Y-105376615D01*
X134892347Y-105323811D01*
X134882403Y-105254653D01*
X134911428Y-105191097D01*
X134917460Y-105184619D01*
X135007307Y-105094771D01*
X135007310Y-105094768D01*
X135094915Y-104963658D01*
X135155258Y-104817976D01*
X135186021Y-104663321D01*
X135186021Y-104505637D01*
X135186021Y-104505634D01*
X135186020Y-104505632D01*
X135165108Y-104400500D01*
X135155258Y-104350982D01*
X135142372Y-104319871D01*
X135094918Y-104205306D01*
X135094911Y-104205293D01*
X135007310Y-104074190D01*
X135007307Y-104074186D01*
X134895813Y-103962692D01*
X134895809Y-103962689D01*
X134764706Y-103875088D01*
X134764693Y-103875081D01*
X134619022Y-103814743D01*
X134619010Y-103814740D01*
X134464366Y-103783979D01*
X134464363Y-103783979D01*
X134306679Y-103783979D01*
X134306674Y-103783979D01*
X134189309Y-103807324D01*
X134119717Y-103801097D01*
X134077437Y-103773388D01*
X123925019Y-93620970D01*
X123891534Y-93559647D01*
X123888700Y-93533289D01*
X123888700Y-82300141D01*
X123894938Y-82278895D01*
X123896518Y-82256807D01*
X123904590Y-82246023D01*
X123908385Y-82233102D01*
X123925118Y-82218602D01*
X123938390Y-82200874D01*
X123951010Y-82196166D01*
X123961189Y-82187347D01*
X123983106Y-82184195D01*
X124003854Y-82176457D01*
X124017014Y-82179319D01*
G37*
%TD.AperFunction*%
%TA.AperFunction,Conductor*%
G36*
X116218802Y-82197162D02*
G01*
X116249520Y-82259917D01*
X116251300Y-82280849D01*
X116251300Y-85764860D01*
X116231615Y-85831899D01*
X116178811Y-85877654D01*
X116109653Y-85887598D01*
X116046097Y-85858573D01*
X116031448Y-85843526D01*
X116028532Y-85839973D01*
X115927482Y-85738923D01*
X115927478Y-85738920D01*
X115841810Y-85681678D01*
X115797005Y-85628066D01*
X115786701Y-85578576D01*
X115786701Y-82467133D01*
X115806386Y-82400094D01*
X115841809Y-82364031D01*
X115927479Y-82306789D01*
X116028532Y-82205736D01*
X116028534Y-82205732D01*
X116031443Y-82202189D01*
X116089187Y-82162852D01*
X116159032Y-82160978D01*
X116218802Y-82197162D01*
G37*
%TD.AperFunction*%
%TA.AperFunction,Conductor*%
G36*
X145166942Y-61620185D02*
G01*
X145187584Y-61636819D01*
X149115139Y-65564374D01*
X149115149Y-65564385D01*
X149119479Y-65568715D01*
X149119480Y-65568716D01*
X149231284Y-65680520D01*
X149282847Y-65710289D01*
X149318095Y-65730639D01*
X149318097Y-65730641D01*
X149356151Y-65752611D01*
X149368215Y-65759577D01*
X149520943Y-65800501D01*
X149520946Y-65800501D01*
X149686653Y-65800501D01*
X149686669Y-65800500D01*
X152720234Y-65800500D01*
X152738377Y-65805827D01*
X152757287Y-65806165D01*
X152785504Y-65819665D01*
X152787273Y-65820185D01*
X152789125Y-65821398D01*
X152916803Y-65906710D01*
X152961608Y-65960322D01*
X152970315Y-66029647D01*
X152940161Y-66092675D01*
X152895365Y-66124373D01*
X152795824Y-66165604D01*
X152795814Y-66165609D01*
X152664711Y-66253210D01*
X152664707Y-66253213D01*
X152553213Y-66364707D01*
X152553210Y-66364711D01*
X152465609Y-66495814D01*
X152465602Y-66495827D01*
X152405264Y-66641498D01*
X152405261Y-66641510D01*
X152374500Y-66796153D01*
X152374500Y-66953841D01*
X152374614Y-66954415D01*
X152374586Y-66954721D01*
X152375097Y-66959905D01*
X152374114Y-66960001D01*
X152368388Y-67024006D01*
X152325526Y-67079184D01*
X152321891Y-67081708D01*
X152289709Y-67103212D01*
X152289704Y-67103217D01*
X152178213Y-67214707D01*
X152178210Y-67214711D01*
X152090609Y-67345814D01*
X152090602Y-67345827D01*
X152058657Y-67422952D01*
X152014816Y-67477356D01*
X151948522Y-67499421D01*
X151944096Y-67499500D01*
X151821155Y-67499500D01*
X151666510Y-67530261D01*
X151666498Y-67530264D01*
X151520827Y-67590602D01*
X151520814Y-67590609D01*
X151389125Y-67678602D01*
X151322447Y-67699480D01*
X151320234Y-67699500D01*
X147400097Y-67699500D01*
X147333058Y-67679815D01*
X147312416Y-67663181D01*
X141461416Y-61812181D01*
X141427931Y-61750858D01*
X141432915Y-61681166D01*
X141474787Y-61625233D01*
X141540251Y-61600816D01*
X141549097Y-61600500D01*
X145099903Y-61600500D01*
X145166942Y-61620185D01*
G37*
%TD.AperFunction*%
%TA.AperFunction,Conductor*%
G36*
X108617941Y-61620185D02*
G01*
X108663696Y-61672989D01*
X108673640Y-61742147D01*
X108644615Y-61805703D01*
X108638583Y-61812181D01*
X104137584Y-66313181D01*
X104076261Y-66346666D01*
X104049903Y-66349500D01*
X102699099Y-66349500D01*
X102677855Y-66343262D01*
X102655768Y-66341683D01*
X102644982Y-66333609D01*
X102632060Y-66329815D01*
X102617562Y-66313083D01*
X102599834Y-66299813D01*
X102595125Y-66287190D01*
X102586305Y-66277011D01*
X102583153Y-66255095D01*
X102575415Y-66234349D01*
X102578278Y-66221185D01*
X102576361Y-66207853D01*
X102585558Y-66187712D01*
X102590265Y-66166076D01*
X102603536Y-66148346D01*
X102605386Y-66144297D01*
X102611416Y-66137821D01*
X102611417Y-66137819D01*
X102624863Y-66124373D01*
X102680520Y-66068716D01*
X102680521Y-66068713D01*
X107112417Y-61636819D01*
X107173740Y-61603334D01*
X107200098Y-61600500D01*
X108550902Y-61600500D01*
X108617941Y-61620185D01*
G37*
%TD.AperFunction*%
%TA.AperFunction,Conductor*%
G36*
X165303736Y-48400726D02*
G01*
X165593796Y-48418271D01*
X165608659Y-48420076D01*
X165890797Y-48471780D01*
X165905334Y-48475363D01*
X166179182Y-48560698D01*
X166193163Y-48566000D01*
X166454734Y-48683724D01*
X166467987Y-48690680D01*
X166713458Y-48839071D01*
X166725776Y-48847573D01*
X166891314Y-48977264D01*
X166951573Y-49024474D01*
X166962781Y-49034404D01*
X167165595Y-49237218D01*
X167175525Y-49248426D01*
X167293884Y-49399500D01*
X167352422Y-49474217D01*
X167360928Y-49486541D01*
X167509319Y-49732012D01*
X167516277Y-49745269D01*
X167633994Y-50006823D01*
X167639304Y-50020825D01*
X167724635Y-50294664D01*
X167728219Y-50309202D01*
X167779923Y-50591340D01*
X167781728Y-50606205D01*
X167799274Y-50896263D01*
X167799500Y-50903750D01*
X167799500Y-124896249D01*
X167799274Y-124903736D01*
X167781728Y-125193794D01*
X167779923Y-125208659D01*
X167728219Y-125490797D01*
X167724635Y-125505335D01*
X167639304Y-125779174D01*
X167633994Y-125793176D01*
X167516277Y-126054730D01*
X167509319Y-126067987D01*
X167360928Y-126313458D01*
X167352422Y-126325782D01*
X167175525Y-126551573D01*
X167165595Y-126562781D01*
X166962781Y-126765595D01*
X166951573Y-126775525D01*
X166725782Y-126952422D01*
X166713458Y-126960928D01*
X166467987Y-127109319D01*
X166454730Y-127116277D01*
X166193176Y-127233994D01*
X166179174Y-127239304D01*
X165905335Y-127324635D01*
X165890797Y-127328219D01*
X165608659Y-127379923D01*
X165593794Y-127381728D01*
X165303736Y-127399274D01*
X165296249Y-127399500D01*
X91303751Y-127399500D01*
X91296264Y-127399274D01*
X91006205Y-127381728D01*
X90991340Y-127379923D01*
X90709202Y-127328219D01*
X90694664Y-127324635D01*
X90420825Y-127239304D01*
X90406827Y-127233995D01*
X90254096Y-127165256D01*
X90145269Y-127116277D01*
X90132012Y-127109319D01*
X89886541Y-126960928D01*
X89874217Y-126952422D01*
X89648426Y-126775525D01*
X89637218Y-126765595D01*
X89434404Y-126562781D01*
X89424474Y-126551573D01*
X89247573Y-126325776D01*
X89239071Y-126313458D01*
X89090680Y-126067987D01*
X89083722Y-126054730D01*
X88966000Y-125793163D01*
X88960698Y-125779182D01*
X88875363Y-125505334D01*
X88871780Y-125490797D01*
X88820076Y-125208659D01*
X88818271Y-125193794D01*
X88800726Y-124903736D01*
X88800500Y-124896249D01*
X88800500Y-122778711D01*
X91449500Y-122778711D01*
X91449500Y-123021288D01*
X91481161Y-123261785D01*
X91543947Y-123496104D01*
X91636773Y-123720205D01*
X91636776Y-123720212D01*
X91758064Y-123930289D01*
X91758066Y-123930292D01*
X91758067Y-123930293D01*
X91905733Y-124122736D01*
X91905739Y-124122743D01*
X92077256Y-124294260D01*
X92077262Y-124294265D01*
X92269711Y-124441936D01*
X92479788Y-124563224D01*
X92703900Y-124656054D01*
X92938211Y-124718838D01*
X93118586Y-124742584D01*
X93178711Y-124750500D01*
X93178712Y-124750500D01*
X93421289Y-124750500D01*
X93469388Y-124744167D01*
X93661789Y-124718838D01*
X93896100Y-124656054D01*
X94120212Y-124563224D01*
X94330289Y-124441936D01*
X94522738Y-124294265D01*
X94694265Y-124122738D01*
X94841936Y-123930289D01*
X94963224Y-123720212D01*
X95056054Y-123496100D01*
X95118838Y-123261789D01*
X95150500Y-123021288D01*
X95150500Y-122778712D01*
X95150500Y-122778711D01*
X161449500Y-122778711D01*
X161449500Y-123021288D01*
X161481161Y-123261785D01*
X161543947Y-123496104D01*
X161636773Y-123720205D01*
X161636776Y-123720212D01*
X161758064Y-123930289D01*
X161758066Y-123930292D01*
X161758067Y-123930293D01*
X161905733Y-124122736D01*
X161905739Y-124122743D01*
X162077256Y-124294260D01*
X162077262Y-124294265D01*
X162269711Y-124441936D01*
X162479788Y-124563224D01*
X162703900Y-124656054D01*
X162938211Y-124718838D01*
X163118586Y-124742584D01*
X163178711Y-124750500D01*
X163178712Y-124750500D01*
X163421289Y-124750500D01*
X163469388Y-124744167D01*
X163661789Y-124718838D01*
X163896100Y-124656054D01*
X164120212Y-124563224D01*
X164330289Y-124441936D01*
X164522738Y-124294265D01*
X164694265Y-124122738D01*
X164841936Y-123930289D01*
X164963224Y-123720212D01*
X165056054Y-123496100D01*
X165118838Y-123261789D01*
X165150500Y-123021288D01*
X165150500Y-122778712D01*
X165118838Y-122538211D01*
X165056054Y-122303900D01*
X164963224Y-122079788D01*
X164841936Y-121869711D01*
X164694265Y-121677262D01*
X164694260Y-121677256D01*
X164522743Y-121505739D01*
X164522736Y-121505733D01*
X164330293Y-121358067D01*
X164330292Y-121358066D01*
X164330289Y-121358064D01*
X164120212Y-121236776D01*
X164058454Y-121211195D01*
X163896104Y-121143947D01*
X163661785Y-121081161D01*
X163421289Y-121049500D01*
X163421288Y-121049500D01*
X163178712Y-121049500D01*
X163178711Y-121049500D01*
X162938214Y-121081161D01*
X162703895Y-121143947D01*
X162479794Y-121236773D01*
X162479785Y-121236777D01*
X162269706Y-121358067D01*
X162077263Y-121505733D01*
X162077256Y-121505739D01*
X161905739Y-121677256D01*
X161905733Y-121677263D01*
X161758067Y-121869706D01*
X161636777Y-122079785D01*
X161636773Y-122079794D01*
X161543947Y-122303895D01*
X161481161Y-122538214D01*
X161449500Y-122778711D01*
X95150500Y-122778711D01*
X95118838Y-122538211D01*
X95056054Y-122303900D01*
X94963224Y-122079788D01*
X94841936Y-121869711D01*
X94694265Y-121677262D01*
X94694260Y-121677256D01*
X94522743Y-121505739D01*
X94522736Y-121505733D01*
X94330293Y-121358067D01*
X94330292Y-121358066D01*
X94330289Y-121358064D01*
X94120212Y-121236776D01*
X94058454Y-121211195D01*
X93896104Y-121143947D01*
X93661785Y-121081161D01*
X93421289Y-121049500D01*
X93421288Y-121049500D01*
X93178712Y-121049500D01*
X93178711Y-121049500D01*
X92938214Y-121081161D01*
X92703895Y-121143947D01*
X92479794Y-121236773D01*
X92479785Y-121236777D01*
X92269706Y-121358067D01*
X92077263Y-121505733D01*
X92077256Y-121505739D01*
X91905739Y-121677256D01*
X91905733Y-121677263D01*
X91758067Y-121869706D01*
X91636777Y-122079785D01*
X91636773Y-122079794D01*
X91543947Y-122303895D01*
X91481161Y-122538214D01*
X91449500Y-122778711D01*
X88800500Y-122778711D01*
X88800500Y-113575305D01*
X97785000Y-113575305D01*
X97785000Y-113804694D01*
X97785001Y-113804710D01*
X97814942Y-114032137D01*
X97874318Y-114253730D01*
X97962102Y-114465659D01*
X97962106Y-114465669D01*
X98076799Y-114664324D01*
X98076805Y-114664331D01*
X98133381Y-114738064D01*
X98780884Y-114090560D01*
X98781740Y-114092626D01*
X98874762Y-114231844D01*
X98993156Y-114350238D01*
X99132374Y-114443260D01*
X99134437Y-114444114D01*
X98486934Y-115091617D01*
X98486934Y-115091618D01*
X98560666Y-115148194D01*
X98759330Y-115262893D01*
X98759340Y-115262897D01*
X98971269Y-115350681D01*
X99192862Y-115410057D01*
X99420289Y-115439998D01*
X99420306Y-115440000D01*
X99649694Y-115440000D01*
X99649710Y-115439998D01*
X99877137Y-115410057D01*
X100098727Y-115350682D01*
X100154681Y-115327505D01*
X100224151Y-115320036D01*
X100286630Y-115351310D01*
X100322283Y-115411399D01*
X100319790Y-115481224D01*
X100300511Y-115517552D01*
X100153067Y-115709706D01*
X100031777Y-115919785D01*
X100031773Y-115919794D01*
X99938947Y-116143895D01*
X99876161Y-116378214D01*
X99844500Y-116618711D01*
X99844500Y-116861288D01*
X99876161Y-117101785D01*
X99938947Y-117336104D01*
X99942339Y-117344292D01*
X100031776Y-117560212D01*
X100153064Y-117770289D01*
X100153066Y-117770292D01*
X100153067Y-117770293D01*
X100300733Y-117962736D01*
X100300739Y-117962743D01*
X100472256Y-118134260D01*
X100472263Y-118134266D01*
X100542963Y-118188516D01*
X100664711Y-118281936D01*
X100874788Y-118403224D01*
X101098900Y-118496054D01*
X101333211Y-118558838D01*
X101513586Y-118582584D01*
X101573711Y-118590500D01*
X101573712Y-118590500D01*
X101816289Y-118590500D01*
X101864388Y-118584167D01*
X102056789Y-118558838D01*
X102291100Y-118496054D01*
X102515212Y-118403224D01*
X102725289Y-118281936D01*
X102917738Y-118134265D01*
X103089265Y-117962738D01*
X103236936Y-117770289D01*
X103238113Y-117768249D01*
X103238623Y-117767762D01*
X103239185Y-117766923D01*
X103239373Y-117767048D01*
X103288677Y-117720035D01*
X103357284Y-117706810D01*
X103422149Y-117732777D01*
X103462679Y-117789690D01*
X103469500Y-117830249D01*
X103469500Y-119425500D01*
X103449815Y-119492539D01*
X103397011Y-119538294D01*
X103345500Y-119549500D01*
X103221578Y-119549500D01*
X103027173Y-119580290D01*
X102839970Y-119641117D01*
X102664594Y-119730476D01*
X102588188Y-119785989D01*
X102505354Y-119846172D01*
X102505352Y-119846174D01*
X102505351Y-119846174D01*
X102366174Y-119985351D01*
X102366174Y-119985352D01*
X102366172Y-119985354D01*
X102316485Y-120053741D01*
X102250476Y-120144594D01*
X102160485Y-120321213D01*
X102112511Y-120372009D01*
X102044690Y-120388804D01*
X101978555Y-120366267D01*
X101939515Y-120321213D01*
X101849523Y-120144594D01*
X101838233Y-120129055D01*
X101733828Y-119985354D01*
X101594646Y-119846172D01*
X101435405Y-119730476D01*
X101399646Y-119712256D01*
X101260029Y-119641117D01*
X101072826Y-119580290D01*
X100878422Y-119549500D01*
X100878417Y-119549500D01*
X100681583Y-119549500D01*
X100681578Y-119549500D01*
X100487173Y-119580290D01*
X100299970Y-119641117D01*
X100124594Y-119730476D01*
X100048188Y-119785989D01*
X99965354Y-119846172D01*
X99965352Y-119846174D01*
X99965351Y-119846174D01*
X99826174Y-119985351D01*
X99826174Y-119985352D01*
X99826172Y-119985354D01*
X99776485Y-120053741D01*
X99710476Y-120144594D01*
X99621117Y-120319970D01*
X99560290Y-120507173D01*
X99529500Y-120701577D01*
X99529500Y-120898422D01*
X99560290Y-121092826D01*
X99621117Y-121280029D01*
X99660880Y-121358067D01*
X99710476Y-121455405D01*
X99826172Y-121614646D01*
X99965354Y-121753828D01*
X100124595Y-121869524D01*
X100207455Y-121911743D01*
X100299970Y-121958882D01*
X100299972Y-121958882D01*
X100299975Y-121958884D01*
X100400317Y-121991487D01*
X100487173Y-122019709D01*
X100681578Y-122050500D01*
X100681583Y-122050500D01*
X100878422Y-122050500D01*
X101072826Y-122019709D01*
X101260025Y-121958884D01*
X101435405Y-121869524D01*
X101594646Y-121753828D01*
X101733828Y-121614646D01*
X101849524Y-121455405D01*
X101899120Y-121358067D01*
X101939515Y-121278787D01*
X101987489Y-121227990D01*
X102055310Y-121211195D01*
X102121445Y-121233732D01*
X102160485Y-121278787D01*
X102250474Y-121455403D01*
X102285234Y-121503246D01*
X102366172Y-121614646D01*
X102505354Y-121753828D01*
X102664595Y-121869524D01*
X102747455Y-121911743D01*
X102839970Y-121958882D01*
X102839972Y-121958882D01*
X102839975Y-121958884D01*
X102940317Y-121991487D01*
X103027173Y-122019709D01*
X103221578Y-122050500D01*
X103221583Y-122050500D01*
X103418422Y-122050500D01*
X103612826Y-122019709D01*
X103800025Y-121958884D01*
X103975405Y-121869524D01*
X104134646Y-121753828D01*
X104273828Y-121614646D01*
X104389524Y-121455405D01*
X104478884Y-121280025D01*
X104539709Y-121092826D01*
X104546571Y-121049500D01*
X104570500Y-120898422D01*
X104570500Y-120701577D01*
X104552586Y-120588483D01*
X104539709Y-120507174D01*
X104539707Y-120507167D01*
X104539433Y-120506023D01*
X104539455Y-120505572D01*
X104538947Y-120502362D01*
X104539621Y-120502255D01*
X104542924Y-120436241D01*
X104552620Y-120415078D01*
X104567790Y-120388804D01*
X104607528Y-120319975D01*
X104629577Y-120281785D01*
X104670500Y-120129057D01*
X104670500Y-119970943D01*
X104670500Y-115578985D01*
X104670501Y-115578982D01*
X104670501Y-115437556D01*
X104690186Y-115370517D01*
X104690212Y-115370494D01*
X104738206Y-115327072D01*
X104890405Y-115249524D01*
X105049646Y-115133828D01*
X105188828Y-114994646D01*
X105304524Y-114835405D01*
X105393884Y-114660025D01*
X105454709Y-114472826D01*
X105474125Y-114350238D01*
X105485500Y-114278422D01*
X105485500Y-114081577D01*
X105454709Y-113887173D01*
X105401900Y-113724646D01*
X105393884Y-113699975D01*
X105393882Y-113699972D01*
X105393882Y-113699970D01*
X105330354Y-113575289D01*
X105304524Y-113524595D01*
X105188828Y-113365354D01*
X105049646Y-113226172D01*
X104890405Y-113110476D01*
X104888906Y-113109712D01*
X104715029Y-113021117D01*
X104527826Y-112960290D01*
X104333422Y-112929500D01*
X104333417Y-112929500D01*
X104136583Y-112929500D01*
X104136578Y-112929500D01*
X103942173Y-112960290D01*
X103754970Y-113021117D01*
X103579591Y-113110478D01*
X103542385Y-113137510D01*
X103476579Y-113160990D01*
X103408525Y-113145165D01*
X103359830Y-113095059D01*
X103345500Y-113037192D01*
X103345500Y-112537442D01*
X103345500Y-112537440D01*
X103333075Y-112491069D01*
X103304577Y-112384712D01*
X103258031Y-112304092D01*
X103225520Y-112247781D01*
X103113716Y-112135977D01*
X103113715Y-112135976D01*
X103109385Y-112131646D01*
X103109374Y-112131636D01*
X102829919Y-111852181D01*
X102796434Y-111790858D01*
X102801418Y-111721166D01*
X102843290Y-111665233D01*
X102908754Y-111640816D01*
X102917600Y-111640500D01*
X103063422Y-111640500D01*
X103257826Y-111609709D01*
X103271371Y-111605308D01*
X103445025Y-111548884D01*
X103620405Y-111459524D01*
X103779646Y-111343828D01*
X103918828Y-111204646D01*
X104034524Y-111045405D01*
X104055626Y-111003990D01*
X104124515Y-110868787D01*
X104172489Y-110817990D01*
X104240310Y-110801195D01*
X104306445Y-110823732D01*
X104345485Y-110868787D01*
X104435474Y-111045403D01*
X104442354Y-111054872D01*
X104551172Y-111204646D01*
X104690354Y-111343828D01*
X104849595Y-111459524D01*
X104897819Y-111484095D01*
X105024970Y-111548882D01*
X105024972Y-111548882D01*
X105024975Y-111548884D01*
X105125317Y-111581487D01*
X105212173Y-111609709D01*
X105406578Y-111640500D01*
X105406583Y-111640500D01*
X105603422Y-111640500D01*
X105797826Y-111609709D01*
X105811371Y-111605308D01*
X105985025Y-111548884D01*
X106160405Y-111459524D01*
X106319646Y-111343828D01*
X106458828Y-111204646D01*
X106574524Y-111045405D01*
X106595626Y-111003990D01*
X106664515Y-110868787D01*
X106712489Y-110817990D01*
X106780310Y-110801195D01*
X106846445Y-110823732D01*
X106885485Y-110868787D01*
X106975474Y-111045403D01*
X106982354Y-111054872D01*
X107091172Y-111204646D01*
X107230354Y-111343828D01*
X107389595Y-111459524D01*
X107437819Y-111484095D01*
X107564970Y-111548882D01*
X107564972Y-111548882D01*
X107564975Y-111548884D01*
X107665317Y-111581487D01*
X107752173Y-111609709D01*
X107946578Y-111640500D01*
X107946583Y-111640500D01*
X108143422Y-111640500D01*
X108337826Y-111609709D01*
X108351371Y-111605308D01*
X108525025Y-111548884D01*
X108700405Y-111459524D01*
X108702604Y-111457925D01*
X108703585Y-111457575D01*
X108704561Y-111456978D01*
X108704686Y-111457182D01*
X108768407Y-111434439D01*
X108836463Y-111450257D01*
X108885163Y-111500357D01*
X108899500Y-111558236D01*
X108899500Y-116173330D01*
X108899499Y-116173348D01*
X108899499Y-116339054D01*
X108899498Y-116339054D01*
X108940423Y-116491785D01*
X108969358Y-116541900D01*
X108969359Y-116541904D01*
X108969360Y-116541904D01*
X109019479Y-116628714D01*
X109019481Y-116628717D01*
X109138349Y-116747585D01*
X109138355Y-116747590D01*
X111734742Y-119343977D01*
X111768227Y-119405300D01*
X111763243Y-119474992D01*
X111721371Y-119530925D01*
X111655907Y-119555342D01*
X111627664Y-119554131D01*
X111598424Y-119549500D01*
X111598417Y-119549500D01*
X111401583Y-119549500D01*
X111401578Y-119549500D01*
X111207173Y-119580290D01*
X111019970Y-119641117D01*
X110844594Y-119730476D01*
X110768188Y-119785989D01*
X110685354Y-119846172D01*
X110685352Y-119846174D01*
X110685351Y-119846174D01*
X110546174Y-119985351D01*
X110546174Y-119985352D01*
X110546172Y-119985354D01*
X110496485Y-120053741D01*
X110430476Y-120144594D01*
X110341117Y-120319970D01*
X110280290Y-120507173D01*
X110249500Y-120701577D01*
X110249500Y-120898422D01*
X110280290Y-121092826D01*
X110341117Y-121280029D01*
X110380880Y-121358067D01*
X110430476Y-121455405D01*
X110546172Y-121614646D01*
X110685354Y-121753828D01*
X110844595Y-121869524D01*
X110927455Y-121911743D01*
X111019970Y-121958882D01*
X111019972Y-121958882D01*
X111019975Y-121958884D01*
X111120317Y-121991487D01*
X111207173Y-122019709D01*
X111401578Y-122050500D01*
X111401583Y-122050500D01*
X111598422Y-122050500D01*
X111792826Y-122019709D01*
X111980025Y-121958884D01*
X112155405Y-121869524D01*
X112314646Y-121753828D01*
X112453828Y-121614646D01*
X112569524Y-121455405D01*
X112619120Y-121358067D01*
X112659515Y-121278787D01*
X112707489Y-121227990D01*
X112775310Y-121211195D01*
X112841445Y-121233732D01*
X112880485Y-121278787D01*
X112970474Y-121455403D01*
X113005234Y-121503246D01*
X113086172Y-121614646D01*
X113225354Y-121753828D01*
X113384595Y-121869524D01*
X113467455Y-121911743D01*
X113559970Y-121958882D01*
X113559972Y-121958882D01*
X113559975Y-121958884D01*
X113660317Y-121991487D01*
X113747173Y-122019709D01*
X113941578Y-122050500D01*
X113941583Y-122050500D01*
X114138422Y-122050500D01*
X114332826Y-122019709D01*
X114520025Y-121958884D01*
X114695405Y-121869524D01*
X114854646Y-121753828D01*
X114993828Y-121614646D01*
X115109524Y-121455405D01*
X115198884Y-121280025D01*
X115259709Y-121092826D01*
X115266571Y-121049500D01*
X115290500Y-120898422D01*
X115290500Y-120701577D01*
X115259709Y-120507173D01*
X115198882Y-120319970D01*
X115109523Y-120144594D01*
X115098233Y-120129055D01*
X114993828Y-119985354D01*
X114854646Y-119846172D01*
X114695405Y-119730476D01*
X114659646Y-119712256D01*
X114520029Y-119641117D01*
X114332826Y-119580290D01*
X114138422Y-119549500D01*
X114138417Y-119549500D01*
X113941583Y-119549500D01*
X113941577Y-119549500D01*
X113742544Y-119581023D01*
X113673251Y-119572068D01*
X113635466Y-119546231D01*
X112888916Y-118799681D01*
X112855431Y-118738358D01*
X112860415Y-118668666D01*
X112902287Y-118612733D01*
X112967751Y-118588316D01*
X112992781Y-118589060D01*
X113003712Y-118590500D01*
X113003713Y-118590500D01*
X113246289Y-118590500D01*
X113294388Y-118584167D01*
X113486789Y-118558838D01*
X113721100Y-118496054D01*
X113945212Y-118403224D01*
X114155289Y-118281936D01*
X114347738Y-118134265D01*
X114519265Y-117962738D01*
X114666936Y-117770289D01*
X114788224Y-117560212D01*
X114881054Y-117336100D01*
X114943838Y-117101789D01*
X114975500Y-116861288D01*
X114975500Y-116618712D01*
X114943838Y-116378211D01*
X114881054Y-116143900D01*
X114788224Y-115919788D01*
X114666936Y-115709711D01*
X114594262Y-115615000D01*
X114519488Y-115517552D01*
X114494294Y-115452383D01*
X114508332Y-115383938D01*
X114557146Y-115333949D01*
X114625238Y-115318285D01*
X114665317Y-115327505D01*
X114721269Y-115350681D01*
X114942862Y-115410057D01*
X115170289Y-115439998D01*
X115170306Y-115440000D01*
X115399694Y-115440000D01*
X115399710Y-115439998D01*
X115627137Y-115410057D01*
X115848730Y-115350681D01*
X116060659Y-115262897D01*
X116060668Y-115262893D01*
X116259327Y-115148197D01*
X116259334Y-115148192D01*
X116333064Y-115091617D01*
X115685561Y-114444114D01*
X115687626Y-114443260D01*
X115826844Y-114350238D01*
X115945238Y-114231844D01*
X116038260Y-114092626D01*
X116039114Y-114090561D01*
X116686617Y-114738064D01*
X116743192Y-114664334D01*
X116743197Y-114664327D01*
X116857893Y-114465668D01*
X116857897Y-114465659D01*
X116945681Y-114253730D01*
X117005057Y-114032137D01*
X117034998Y-113804710D01*
X117035000Y-113804694D01*
X117035000Y-113575305D01*
X118285000Y-113575305D01*
X118285000Y-113804694D01*
X118285001Y-113804710D01*
X118314942Y-114032137D01*
X118374318Y-114253730D01*
X118462102Y-114465659D01*
X118462106Y-114465669D01*
X118576799Y-114664324D01*
X118576805Y-114664331D01*
X118633381Y-114738064D01*
X119280884Y-114090560D01*
X119281740Y-114092626D01*
X119374762Y-114231844D01*
X119493156Y-114350238D01*
X119632374Y-114443260D01*
X119634437Y-114444114D01*
X118986934Y-115091617D01*
X118986934Y-115091618D01*
X119060666Y-115148194D01*
X119259330Y-115262893D01*
X119259340Y-115262897D01*
X119471269Y-115350681D01*
X119692862Y-115410057D01*
X119920289Y-115439998D01*
X119920306Y-115440000D01*
X120149694Y-115440000D01*
X120149710Y-115439998D01*
X120377137Y-115410057D01*
X120598727Y-115350682D01*
X120654681Y-115327505D01*
X120724151Y-115320036D01*
X120786630Y-115351310D01*
X120822283Y-115411399D01*
X120819790Y-115481224D01*
X120800511Y-115517552D01*
X120653067Y-115709706D01*
X120531777Y-115919785D01*
X120531773Y-115919794D01*
X120438947Y-116143895D01*
X120376161Y-116378214D01*
X120344500Y-116618711D01*
X120344500Y-116861288D01*
X120376161Y-117101785D01*
X120438947Y-117336104D01*
X120442339Y-117344292D01*
X120531776Y-117560212D01*
X120653064Y-117770289D01*
X120653066Y-117770292D01*
X120653067Y-117770293D01*
X120800733Y-117962736D01*
X120800739Y-117962743D01*
X120972256Y-118134260D01*
X120972263Y-118134266D01*
X121042963Y-118188516D01*
X121164711Y-118281936D01*
X121374788Y-118403224D01*
X121598900Y-118496054D01*
X121833211Y-118558838D01*
X122013586Y-118582584D01*
X122073711Y-118590500D01*
X122073712Y-118590500D01*
X122316289Y-118590500D01*
X122364388Y-118584167D01*
X122556789Y-118558838D01*
X122791100Y-118496054D01*
X123015212Y-118403224D01*
X123225289Y-118281936D01*
X123417738Y-118134265D01*
X123589265Y-117962738D01*
X123736936Y-117770289D01*
X123858224Y-117560212D01*
X123951054Y-117336100D01*
X124013838Y-117101789D01*
X124045500Y-116861288D01*
X124045500Y-116618712D01*
X124013838Y-116378211D01*
X123951054Y-116143900D01*
X123858224Y-115919788D01*
X123736936Y-115709711D01*
X123589265Y-115517262D01*
X123589260Y-115517256D01*
X123417743Y-115345739D01*
X123417736Y-115345733D01*
X123225293Y-115198067D01*
X123225292Y-115198066D01*
X123225289Y-115198064D01*
X123015212Y-115076776D01*
X123015205Y-115076773D01*
X122791104Y-114983947D01*
X122556785Y-114921161D01*
X122316289Y-114889500D01*
X122316288Y-114889500D01*
X122073712Y-114889500D01*
X122073711Y-114889500D01*
X121833214Y-114921161D01*
X121598899Y-114983946D01*
X121511977Y-115019950D01*
X121442507Y-115027418D01*
X121380028Y-114996142D01*
X121344376Y-114936053D01*
X121346871Y-114866228D01*
X121366149Y-114829901D01*
X121493193Y-114664334D01*
X121607893Y-114465668D01*
X121607897Y-114465659D01*
X121695681Y-114253730D01*
X121708970Y-114204137D01*
X121745335Y-114144477D01*
X121808182Y-114113948D01*
X121867060Y-114118299D01*
X121902174Y-114129709D01*
X121995417Y-114144477D01*
X122096578Y-114160500D01*
X122096583Y-114160500D01*
X122293422Y-114160500D01*
X122487826Y-114129709D01*
X122536333Y-114113948D01*
X122635960Y-114081577D01*
X123484500Y-114081577D01*
X123484500Y-114278422D01*
X123515290Y-114472826D01*
X123576117Y-114660029D01*
X123644201Y-114793651D01*
X123665476Y-114835405D01*
X123781172Y-114994646D01*
X123920354Y-115133828D01*
X124079595Y-115249524D01*
X124127118Y-115273738D01*
X124254970Y-115338882D01*
X124254972Y-115338882D01*
X124254975Y-115338884D01*
X124316141Y-115358758D01*
X124442173Y-115399709D01*
X124636578Y-115430500D01*
X124636583Y-115430500D01*
X124833422Y-115430500D01*
X125027826Y-115399709D01*
X125041371Y-115395308D01*
X125215025Y-115338884D01*
X125390405Y-115249524D01*
X125549646Y-115133828D01*
X125688828Y-114994646D01*
X125804524Y-114835405D01*
X125893884Y-114660025D01*
X125954709Y-114472826D01*
X125974125Y-114350238D01*
X125985500Y-114278422D01*
X125985500Y-114081577D01*
X125954709Y-113887173D01*
X125901900Y-113724646D01*
X125893884Y-113699975D01*
X125893882Y-113699972D01*
X125893882Y-113699970D01*
X125830354Y-113575289D01*
X125804524Y-113524595D01*
X125688828Y-113365354D01*
X125549646Y-113226172D01*
X125390405Y-113110476D01*
X125388906Y-113109712D01*
X125215029Y-113021117D01*
X125027826Y-112960290D01*
X124833422Y-112929500D01*
X124833417Y-112929500D01*
X124636583Y-112929500D01*
X124636578Y-112929500D01*
X124442173Y-112960290D01*
X124254970Y-113021117D01*
X124079594Y-113110476D01*
X123988741Y-113176485D01*
X123920354Y-113226172D01*
X123920352Y-113226174D01*
X123920351Y-113226174D01*
X123781174Y-113365351D01*
X123781174Y-113365352D01*
X123781172Y-113365354D01*
X123759634Y-113394999D01*
X123665476Y-113524594D01*
X123576117Y-113699970D01*
X123515290Y-113887173D01*
X123484500Y-114081577D01*
X122635960Y-114081577D01*
X122675025Y-114068884D01*
X122850405Y-113979524D01*
X123009646Y-113863828D01*
X123148828Y-113724646D01*
X123264524Y-113565405D01*
X123353884Y-113390025D01*
X123414709Y-113202826D01*
X123423822Y-113145291D01*
X123445500Y-113008422D01*
X123445500Y-112811577D01*
X123414709Y-112617173D01*
X123382057Y-112516683D01*
X123353884Y-112429975D01*
X123353882Y-112429972D01*
X123353882Y-112429970D01*
X123285116Y-112295009D01*
X123264524Y-112254595D01*
X123148828Y-112095354D01*
X123009646Y-111956172D01*
X122850405Y-111840476D01*
X122839858Y-111835102D01*
X122675029Y-111751117D01*
X122487826Y-111690290D01*
X122293422Y-111659500D01*
X122293417Y-111659500D01*
X122096583Y-111659500D01*
X122096578Y-111659500D01*
X121902173Y-111690290D01*
X121714970Y-111751117D01*
X121539594Y-111840476D01*
X121448741Y-111906485D01*
X121380354Y-111956172D01*
X121380352Y-111956174D01*
X121380351Y-111956174D01*
X121241174Y-112095351D01*
X121241167Y-112095360D01*
X121168444Y-112195453D01*
X121113114Y-112238119D01*
X121043501Y-112244097D01*
X121006127Y-112229954D01*
X120810669Y-112117106D01*
X120810659Y-112117102D01*
X120598730Y-112029318D01*
X120377137Y-111969942D01*
X120149710Y-111940001D01*
X120149694Y-111940000D01*
X119920306Y-111940000D01*
X119920289Y-111940001D01*
X119692862Y-111969942D01*
X119471269Y-112029318D01*
X119259340Y-112117102D01*
X119259330Y-112117106D01*
X119060673Y-112231801D01*
X119060659Y-112231810D01*
X118986934Y-112288380D01*
X118986934Y-112288381D01*
X119634438Y-112935885D01*
X119632374Y-112936740D01*
X119493156Y-113029762D01*
X119374762Y-113148156D01*
X119281740Y-113287374D01*
X119280884Y-113289438D01*
X118633380Y-112641934D01*
X118576810Y-112715659D01*
X118576801Y-112715673D01*
X118462106Y-112914330D01*
X118462102Y-112914340D01*
X118374318Y-113126269D01*
X118314942Y-113347862D01*
X118285001Y-113575289D01*
X118285000Y-113575305D01*
X117035000Y-113575305D01*
X117034998Y-113575289D01*
X117005057Y-113347862D01*
X116945681Y-113126269D01*
X116857897Y-112914340D01*
X116857893Y-112914330D01*
X116743194Y-112715666D01*
X116686618Y-112641934D01*
X116686617Y-112641934D01*
X116039114Y-113289437D01*
X116038260Y-113287374D01*
X115945238Y-113148156D01*
X115826844Y-113029762D01*
X115687626Y-112936740D01*
X115685560Y-112935884D01*
X116333064Y-112288381D01*
X116333064Y-112288380D01*
X116259331Y-112231805D01*
X116259324Y-112231799D01*
X116060669Y-112117106D01*
X116060659Y-112117102D01*
X115848730Y-112029318D01*
X115627137Y-111969942D01*
X115399710Y-111940001D01*
X115399694Y-111940000D01*
X115170306Y-111940000D01*
X115170289Y-111940001D01*
X114942862Y-111969942D01*
X114721269Y-112029318D01*
X114509340Y-112117102D01*
X114509330Y-112117106D01*
X114313872Y-112229954D01*
X114245971Y-112246427D01*
X114179945Y-112223574D01*
X114151556Y-112195455D01*
X114078828Y-112095354D01*
X113939646Y-111956172D01*
X113780405Y-111840476D01*
X113711878Y-111805560D01*
X113623413Y-111760485D01*
X113572617Y-111712511D01*
X113555822Y-111644690D01*
X113578359Y-111578555D01*
X113623413Y-111539515D01*
X113649753Y-111526094D01*
X113780405Y-111459524D01*
X113939646Y-111343828D01*
X114078828Y-111204646D01*
X114194524Y-111045405D01*
X114283884Y-110870025D01*
X114344709Y-110682826D01*
X114350569Y-110645825D01*
X114375500Y-110488422D01*
X114375500Y-110291577D01*
X114344709Y-110097173D01*
X114283882Y-109909970D01*
X114194523Y-109734594D01*
X114078828Y-109575354D01*
X113939646Y-109436172D01*
X113780405Y-109320476D01*
X113764125Y-109312181D01*
X113605029Y-109231117D01*
X113417826Y-109170290D01*
X113223422Y-109139500D01*
X113223417Y-109139500D01*
X113026583Y-109139500D01*
X113026578Y-109139500D01*
X112832173Y-109170290D01*
X112644970Y-109231117D01*
X112469594Y-109320476D01*
X112426502Y-109351785D01*
X112310354Y-109436172D01*
X112310352Y-109436174D01*
X112310351Y-109436174D01*
X112171174Y-109575351D01*
X112171174Y-109575352D01*
X112171172Y-109575354D01*
X112121485Y-109643741D01*
X112055476Y-109734594D01*
X111965485Y-109911213D01*
X111917511Y-109962009D01*
X111849690Y-109978804D01*
X111783555Y-109956267D01*
X111744515Y-109911213D01*
X111654523Y-109734594D01*
X111538828Y-109575354D01*
X111399646Y-109436172D01*
X111240405Y-109320476D01*
X111224125Y-109312181D01*
X111065029Y-109231117D01*
X110877826Y-109170290D01*
X110683422Y-109139500D01*
X110683417Y-109139500D01*
X110486583Y-109139500D01*
X110486578Y-109139500D01*
X110292173Y-109170290D01*
X110104970Y-109231117D01*
X109929594Y-109320476D01*
X109770355Y-109436171D01*
X109685524Y-109521002D01*
X109624200Y-109554486D01*
X109554509Y-109549502D01*
X109510162Y-109521001D01*
X109418381Y-109429220D01*
X109301340Y-109312180D01*
X109267856Y-109250858D01*
X109272840Y-109181167D01*
X109314711Y-109125233D01*
X109380176Y-109100816D01*
X109389022Y-109100500D01*
X109413422Y-109100500D01*
X109607826Y-109069709D01*
X109795025Y-109008884D01*
X109970405Y-108919524D01*
X110129646Y-108803828D01*
X110268828Y-108664646D01*
X110384524Y-108505405D01*
X110393617Y-108487559D01*
X110474515Y-108328787D01*
X110522489Y-108277990D01*
X110590310Y-108261195D01*
X110656445Y-108283732D01*
X110695485Y-108328787D01*
X110785474Y-108505403D01*
X110820234Y-108553246D01*
X110901172Y-108664646D01*
X111040354Y-108803828D01*
X111199595Y-108919524D01*
X111270314Y-108955557D01*
X111374970Y-109008882D01*
X111374972Y-109008882D01*
X111374975Y-109008884D01*
X111454647Y-109034771D01*
X111562173Y-109069709D01*
X111756578Y-109100500D01*
X111756583Y-109100500D01*
X111953422Y-109100500D01*
X112147826Y-109069709D01*
X112335025Y-109008884D01*
X112510405Y-108919524D01*
X112669646Y-108803828D01*
X112808828Y-108664646D01*
X112924524Y-108505405D01*
X113013884Y-108330025D01*
X113074709Y-108142826D01*
X113105500Y-107948422D01*
X113105500Y-107751577D01*
X113074709Y-107557173D01*
X113013882Y-107369970D01*
X112955871Y-107256117D01*
X112924524Y-107194595D01*
X112808828Y-107035354D01*
X112669646Y-106896172D01*
X112510405Y-106780476D01*
X112504998Y-106777721D01*
X112335029Y-106691117D01*
X112147826Y-106630290D01*
X111953422Y-106599500D01*
X111953417Y-106599500D01*
X111756583Y-106599500D01*
X111756578Y-106599500D01*
X111562173Y-106630290D01*
X111374970Y-106691117D01*
X111199594Y-106780476D01*
X111162386Y-106807510D01*
X111040354Y-106896172D01*
X111040352Y-106896174D01*
X111040351Y-106896174D01*
X110901174Y-107035351D01*
X110901174Y-107035352D01*
X110901172Y-107035354D01*
X110865262Y-107084780D01*
X110785476Y-107194594D01*
X110695485Y-107371213D01*
X110647511Y-107422009D01*
X110579690Y-107438804D01*
X110513555Y-107416267D01*
X110474515Y-107371213D01*
X110447397Y-107317992D01*
X110384524Y-107194595D01*
X110268828Y-107035354D01*
X110129646Y-106896172D01*
X109970405Y-106780476D01*
X109964998Y-106777721D01*
X109795029Y-106691117D01*
X109607826Y-106630290D01*
X109413422Y-106599500D01*
X109413417Y-106599500D01*
X109216583Y-106599500D01*
X109216578Y-106599500D01*
X109022167Y-106630291D01*
X109018433Y-106631188D01*
X108948651Y-106627690D01*
X108891838Y-106587019D01*
X108866032Y-106522090D01*
X108865500Y-106510611D01*
X108865500Y-98849058D01*
X108865500Y-98839059D01*
X108865501Y-98839057D01*
X108865501Y-98724499D01*
X108885186Y-98657460D01*
X108937990Y-98611705D01*
X108938003Y-98611703D01*
X108989501Y-98600500D01*
X109125827Y-98600500D01*
X109216873Y-98582389D01*
X109261160Y-98573580D01*
X109388643Y-98520775D01*
X109503374Y-98444114D01*
X109600946Y-98346542D01*
X109677607Y-98231811D01*
X109730412Y-98104328D01*
X109739221Y-98060041D01*
X109757332Y-97968995D01*
X109757332Y-97831004D01*
X109730413Y-97695677D01*
X109730412Y-97695676D01*
X109730412Y-97695672D01*
X109682404Y-97579769D01*
X109677610Y-97568195D01*
X109677603Y-97568182D01*
X109600946Y-97453458D01*
X109600943Y-97453454D01*
X109503377Y-97355888D01*
X109503373Y-97355885D01*
X109388649Y-97279228D01*
X109388636Y-97279221D01*
X109261164Y-97226421D01*
X109261154Y-97226418D01*
X109125827Y-97199500D01*
X109125825Y-97199500D01*
X108987839Y-97199500D01*
X108987837Y-97199500D01*
X108852509Y-97226418D01*
X108852499Y-97226421D01*
X108725022Y-97279223D01*
X108719651Y-97282095D01*
X108718955Y-97280794D01*
X108659270Y-97299480D01*
X108657062Y-97299500D01*
X108305098Y-97299500D01*
X108238059Y-97279815D01*
X108217417Y-97263181D01*
X107475389Y-96521153D01*
X110259500Y-96521153D01*
X110259500Y-96678846D01*
X110290261Y-96833489D01*
X110290264Y-96833501D01*
X110350602Y-96979172D01*
X110350609Y-96979185D01*
X110438210Y-97110288D01*
X110438213Y-97110292D01*
X110549707Y-97221786D01*
X110549711Y-97221789D01*
X110680814Y-97309390D01*
X110680827Y-97309397D01*
X110793061Y-97355885D01*
X110826503Y-97369737D01*
X110981153Y-97400499D01*
X110981156Y-97400500D01*
X110981158Y-97400500D01*
X111138844Y-97400500D01*
X111138845Y-97400499D01*
X111293497Y-97369737D01*
X111439179Y-97309394D01*
X111570289Y-97221789D01*
X111681789Y-97110289D01*
X111769394Y-96979179D01*
X111829737Y-96833497D01*
X111860500Y-96678842D01*
X111860500Y-96521158D01*
X111860500Y-96521155D01*
X111860499Y-96521153D01*
X111829738Y-96366510D01*
X111829737Y-96366503D01*
X111829735Y-96366498D01*
X111769397Y-96220827D01*
X111769390Y-96220814D01*
X111681789Y-96089711D01*
X111681786Y-96089707D01*
X111570292Y-95978213D01*
X111570288Y-95978210D01*
X111439185Y-95890609D01*
X111439172Y-95890602D01*
X111293501Y-95830264D01*
X111293489Y-95830261D01*
X111138845Y-95799500D01*
X111138842Y-95799500D01*
X110981158Y-95799500D01*
X110981155Y-95799500D01*
X110826510Y-95830261D01*
X110826498Y-95830264D01*
X110680827Y-95890602D01*
X110680814Y-95890609D01*
X110549711Y-95978210D01*
X110549707Y-95978213D01*
X110438213Y-96089707D01*
X110438210Y-96089711D01*
X110350609Y-96220814D01*
X110350602Y-96220827D01*
X110290264Y-96366498D01*
X110290261Y-96366510D01*
X110259500Y-96521153D01*
X107475389Y-96521153D01*
X105421819Y-94467583D01*
X105407115Y-94440655D01*
X105390523Y-94414837D01*
X105389631Y-94408636D01*
X105388334Y-94406260D01*
X105385500Y-94379902D01*
X105385500Y-94236292D01*
X105405185Y-94169253D01*
X105421819Y-94148611D01*
X105646255Y-93924175D01*
X106053713Y-93516717D01*
X106053716Y-93516716D01*
X106165520Y-93404912D01*
X106215639Y-93318100D01*
X106244577Y-93267981D01*
X106285500Y-93115253D01*
X106285500Y-92957139D01*
X106285500Y-92459765D01*
X106305185Y-92392726D01*
X106306398Y-92390874D01*
X106394390Y-92259185D01*
X106394397Y-92259173D01*
X106401861Y-92241153D01*
X107209012Y-92241153D01*
X107209012Y-92398846D01*
X107239773Y-92553489D01*
X107239776Y-92553501D01*
X107300114Y-92699172D01*
X107300121Y-92699185D01*
X107387722Y-92830288D01*
X107387725Y-92830292D01*
X107499219Y-92941786D01*
X107499223Y-92941789D01*
X107630326Y-93029390D01*
X107630339Y-93029397D01*
X107776010Y-93089735D01*
X107776015Y-93089737D01*
X107895424Y-93113489D01*
X107930665Y-93120499D01*
X107930668Y-93120500D01*
X107930670Y-93120500D01*
X108088356Y-93120500D01*
X108088357Y-93120499D01*
X108243009Y-93089737D01*
X108388691Y-93029394D01*
X108420314Y-93008264D01*
X108520387Y-92941398D01*
X108587065Y-92920520D01*
X108589278Y-92920500D01*
X115158331Y-92920500D01*
X115158347Y-92920501D01*
X115165943Y-92920501D01*
X115324054Y-92920501D01*
X115324057Y-92920501D01*
X115476785Y-92879577D01*
X115526904Y-92850639D01*
X115613716Y-92800520D01*
X115725520Y-92688716D01*
X115725520Y-92688714D01*
X115735728Y-92678507D01*
X115735729Y-92678504D01*
X116799662Y-91614572D01*
X116860983Y-91581089D01*
X116863150Y-91580638D01*
X116921085Y-91569113D01*
X117018497Y-91549737D01*
X117136592Y-91500821D01*
X117164172Y-91489397D01*
X117164172Y-91489396D01*
X117164179Y-91489394D01*
X117295289Y-91401789D01*
X117325234Y-91371843D01*
X117386555Y-91338359D01*
X117456247Y-91343343D01*
X117500596Y-91371844D01*
X122720162Y-96591410D01*
X122753647Y-96652733D01*
X122748663Y-96722425D01*
X122706791Y-96778358D01*
X122641327Y-96802775D01*
X122604889Y-96799982D01*
X122551786Y-96787861D01*
X122551768Y-96787858D01*
X122211318Y-96749500D01*
X122211312Y-96749500D01*
X121868688Y-96749500D01*
X121868681Y-96749500D01*
X121528231Y-96787858D01*
X121528217Y-96787861D01*
X121194183Y-96864102D01*
X121194181Y-96864103D01*
X120870783Y-96977264D01*
X120562092Y-97125922D01*
X120271983Y-97308210D01*
X120004107Y-97521833D01*
X119761833Y-97764107D01*
X119548210Y-98031983D01*
X119365922Y-98322092D01*
X119217264Y-98630783D01*
X119104103Y-98954181D01*
X119104102Y-98954183D01*
X119027861Y-99288217D01*
X119027858Y-99288231D01*
X118989500Y-99628681D01*
X118989500Y-99971318D01*
X119027858Y-100311768D01*
X119027860Y-100311780D01*
X119027861Y-100311783D01*
X119040351Y-100366503D01*
X119104102Y-100645816D01*
X119104103Y-100645818D01*
X119217264Y-100969216D01*
X119365922Y-101277907D01*
X119365924Y-101277910D01*
X119548211Y-101568018D01*
X119761834Y-101835893D01*
X120004107Y-102078166D01*
X120271982Y-102291789D01*
X120562090Y-102474076D01*
X120870785Y-102622736D01*
X121194183Y-102735897D01*
X121528217Y-102812139D01*
X121528226Y-102812140D01*
X121528231Y-102812141D01*
X121755197Y-102837713D01*
X121868682Y-102850499D01*
X121868685Y-102850500D01*
X121868688Y-102850500D01*
X122211315Y-102850500D01*
X122211316Y-102850499D01*
X122385311Y-102830895D01*
X122551768Y-102812141D01*
X122551771Y-102812140D01*
X122551783Y-102812139D01*
X122885817Y-102735897D01*
X123209215Y-102622736D01*
X123517910Y-102474076D01*
X123808018Y-102291789D01*
X124075893Y-102078166D01*
X124318166Y-101835893D01*
X124531789Y-101568018D01*
X124714076Y-101277910D01*
X124862736Y-100969215D01*
X124975897Y-100645817D01*
X125052139Y-100311783D01*
X125064641Y-100200827D01*
X125089722Y-99978213D01*
X125090500Y-99971312D01*
X125090500Y-99628688D01*
X125052139Y-99288217D01*
X125040018Y-99235112D01*
X125044291Y-99165374D01*
X125085590Y-99109016D01*
X125150802Y-99083933D01*
X125219222Y-99098087D01*
X125248590Y-99119839D01*
X132516570Y-106387819D01*
X132550055Y-106449142D01*
X132545071Y-106518834D01*
X132503199Y-106574767D01*
X132437735Y-106599184D01*
X132428889Y-106599500D01*
X132256578Y-106599500D01*
X132062173Y-106630290D01*
X131874970Y-106691117D01*
X131699594Y-106780476D01*
X131662386Y-106807510D01*
X131540354Y-106896172D01*
X131540352Y-106896174D01*
X131540351Y-106896174D01*
X131401174Y-107035351D01*
X131401174Y-107035352D01*
X131401172Y-107035354D01*
X131365262Y-107084780D01*
X131285476Y-107194594D01*
X131195485Y-107371213D01*
X131147511Y-107422009D01*
X131079690Y-107438804D01*
X131013555Y-107416267D01*
X130974515Y-107371213D01*
X130947397Y-107317992D01*
X130884524Y-107194595D01*
X130768828Y-107035354D01*
X130629646Y-106896172D01*
X130470405Y-106780476D01*
X130464998Y-106777721D01*
X130295029Y-106691117D01*
X130107826Y-106630290D01*
X129913422Y-106599500D01*
X129913417Y-106599500D01*
X129716583Y-106599500D01*
X129716578Y-106599500D01*
X129522173Y-106630290D01*
X129334970Y-106691117D01*
X129159594Y-106780476D01*
X129122386Y-106807510D01*
X129000354Y-106896172D01*
X129000352Y-106896174D01*
X129000351Y-106896174D01*
X128861174Y-107035351D01*
X128861174Y-107035352D01*
X128861172Y-107035354D01*
X128825262Y-107084780D01*
X128745476Y-107194594D01*
X128655485Y-107371213D01*
X128607511Y-107422009D01*
X128539690Y-107438804D01*
X128473555Y-107416267D01*
X128434515Y-107371213D01*
X128407397Y-107317992D01*
X128344524Y-107194595D01*
X128228828Y-107035354D01*
X128089646Y-106896172D01*
X128041989Y-106861547D01*
X127926614Y-106777721D01*
X127883949Y-106722390D01*
X127875500Y-106677403D01*
X127875500Y-106207940D01*
X127895185Y-106140901D01*
X127911822Y-106120256D01*
X127921787Y-106110291D01*
X127921789Y-106110289D01*
X128009394Y-105979179D01*
X128069737Y-105833497D01*
X128100500Y-105678842D01*
X128100500Y-105521158D01*
X128100500Y-105521155D01*
X128100499Y-105521153D01*
X128070596Y-105370821D01*
X128069737Y-105366503D01*
X128023408Y-105254653D01*
X128009397Y-105220827D01*
X128009390Y-105220814D01*
X127921789Y-105089711D01*
X127921786Y-105089707D01*
X127810292Y-104978213D01*
X127810288Y-104978210D01*
X127679185Y-104890609D01*
X127679172Y-104890602D01*
X127533501Y-104830264D01*
X127533489Y-104830261D01*
X127378845Y-104799500D01*
X127378842Y-104799500D01*
X127221158Y-104799500D01*
X127221155Y-104799500D01*
X127066510Y-104830261D01*
X127066498Y-104830264D01*
X126920827Y-104890602D01*
X126920814Y-104890609D01*
X126789711Y-104978210D01*
X126789707Y-104978213D01*
X126678213Y-105089707D01*
X126678210Y-105089711D01*
X126590609Y-105220814D01*
X126590602Y-105220827D01*
X126530264Y-105366498D01*
X126530261Y-105366510D01*
X126499500Y-105521153D01*
X126499500Y-105678846D01*
X126530261Y-105833489D01*
X126530264Y-105833501D01*
X126590602Y-105979172D01*
X126590609Y-105979184D01*
X126653602Y-106073459D01*
X126674480Y-106140136D01*
X126674500Y-106142350D01*
X126674500Y-106677403D01*
X126654815Y-106744442D01*
X126623386Y-106777721D01*
X126460352Y-106896173D01*
X126321174Y-107035351D01*
X126321174Y-107035352D01*
X126321172Y-107035354D01*
X126285262Y-107084780D01*
X126205476Y-107194594D01*
X126115485Y-107371213D01*
X126067511Y-107422009D01*
X125999690Y-107438804D01*
X125933555Y-107416267D01*
X125894515Y-107371213D01*
X125867397Y-107317992D01*
X125804524Y-107194595D01*
X125688828Y-107035354D01*
X125549646Y-106896172D01*
X125390405Y-106780476D01*
X125384998Y-106777721D01*
X125215029Y-106691117D01*
X125027826Y-106630290D01*
X124833422Y-106599500D01*
X124833417Y-106599500D01*
X124636583Y-106599500D01*
X124636578Y-106599500D01*
X124442173Y-106630290D01*
X124254970Y-106691117D01*
X124079594Y-106780476D01*
X124042386Y-106807510D01*
X123920354Y-106896172D01*
X123920352Y-106896174D01*
X123920351Y-106896174D01*
X123781174Y-107035351D01*
X123781174Y-107035352D01*
X123781172Y-107035354D01*
X123745262Y-107084780D01*
X123665474Y-107194597D01*
X123660009Y-107205323D01*
X123612034Y-107256117D01*
X123544212Y-107272911D01*
X123478078Y-107250372D01*
X123434628Y-107195656D01*
X123431820Y-107188029D01*
X123419413Y-107150586D01*
X123379771Y-107030953D01*
X123287607Y-106881532D01*
X123163468Y-106757393D01*
X123014047Y-106665229D01*
X122847399Y-106610008D01*
X122744553Y-106599500D01*
X122744546Y-106599500D01*
X121645454Y-106599500D01*
X121645446Y-106599500D01*
X121542600Y-106610008D01*
X121375955Y-106665228D01*
X121375950Y-106665230D01*
X121226530Y-106757394D01*
X121102394Y-106881530D01*
X121010230Y-107030950D01*
X121010228Y-107030955D01*
X120955008Y-107197600D01*
X120944500Y-107300446D01*
X120944500Y-108399553D01*
X120948961Y-108443210D01*
X120955008Y-108502399D01*
X121010229Y-108669047D01*
X121102393Y-108818468D01*
X121226532Y-108942607D01*
X121375953Y-109034771D01*
X121542601Y-109089992D01*
X121645454Y-109100500D01*
X121645459Y-109100500D01*
X122730733Y-109100500D01*
X122797772Y-109120185D01*
X122843527Y-109172989D01*
X122853471Y-109242147D01*
X122824446Y-109305703D01*
X122803619Y-109324817D01*
X122650354Y-109436172D01*
X122650352Y-109436174D01*
X122650351Y-109436174D01*
X122511174Y-109575351D01*
X122511174Y-109575352D01*
X122511172Y-109575354D01*
X122461485Y-109643741D01*
X122395476Y-109734594D01*
X122306117Y-109909970D01*
X122245290Y-110097173D01*
X122214500Y-110291577D01*
X122214500Y-110488422D01*
X122245290Y-110682826D01*
X122306117Y-110870029D01*
X122374374Y-111003990D01*
X122395476Y-111045405D01*
X122511172Y-111204646D01*
X122650354Y-111343828D01*
X122809595Y-111459524D01*
X122857819Y-111484095D01*
X122984970Y-111548882D01*
X122984972Y-111548882D01*
X122984975Y-111548884D01*
X123085317Y-111581487D01*
X123172173Y-111609709D01*
X123366578Y-111640500D01*
X123366583Y-111640500D01*
X123563422Y-111640500D01*
X123757826Y-111609709D01*
X123771371Y-111605308D01*
X123945025Y-111548884D01*
X124120405Y-111459524D01*
X124279646Y-111343828D01*
X124418828Y-111204646D01*
X124534524Y-111045405D01*
X124555626Y-111003990D01*
X124624515Y-110868787D01*
X124672489Y-110817990D01*
X124740310Y-110801195D01*
X124806445Y-110823732D01*
X124845485Y-110868787D01*
X124935474Y-111045403D01*
X124942354Y-111054872D01*
X125051172Y-111204646D01*
X125190354Y-111343828D01*
X125349595Y-111459524D01*
X125397819Y-111484095D01*
X125524970Y-111548882D01*
X125524972Y-111548882D01*
X125524975Y-111548884D01*
X125625317Y-111581487D01*
X125712173Y-111609709D01*
X125906578Y-111640500D01*
X125906583Y-111640500D01*
X126103422Y-111640500D01*
X126297826Y-111609709D01*
X126311371Y-111605308D01*
X126485025Y-111548884D01*
X126660405Y-111459524D01*
X126819646Y-111343828D01*
X126958828Y-111204646D01*
X127074524Y-111045405D01*
X127095626Y-111003990D01*
X127164515Y-110868787D01*
X127212489Y-110817990D01*
X127280310Y-110801195D01*
X127346445Y-110823732D01*
X127385485Y-110868787D01*
X127475474Y-111045403D01*
X127482354Y-111054872D01*
X127591172Y-111204646D01*
X127730354Y-111343828D01*
X127889595Y-111459524D01*
X127937819Y-111484095D01*
X128064970Y-111548882D01*
X128064972Y-111548882D01*
X128064975Y-111548884D01*
X128165317Y-111581487D01*
X128252173Y-111609709D01*
X128446578Y-111640500D01*
X128446583Y-111640500D01*
X128643422Y-111640500D01*
X128837826Y-111609709D01*
X128851371Y-111605308D01*
X129025025Y-111548884D01*
X129200405Y-111459524D01*
X129359646Y-111343828D01*
X129498828Y-111204646D01*
X129614524Y-111045405D01*
X129635626Y-111003990D01*
X129704515Y-110868787D01*
X129752489Y-110817990D01*
X129820310Y-110801195D01*
X129886445Y-110823732D01*
X129925485Y-110868787D01*
X130015474Y-111045403D01*
X130022354Y-111054872D01*
X130131172Y-111204646D01*
X130270354Y-111343828D01*
X130429595Y-111459524D01*
X130477819Y-111484095D01*
X130604970Y-111548882D01*
X130604972Y-111548882D01*
X130604975Y-111548884D01*
X130706466Y-111581860D01*
X130756254Y-111598038D01*
X130813929Y-111637476D01*
X130841127Y-111701835D01*
X130829212Y-111770681D01*
X130805616Y-111803650D01*
X127128043Y-115481224D01*
X123451286Y-119157981D01*
X123451284Y-119157983D01*
X123395382Y-119213884D01*
X123339481Y-119269785D01*
X123339480Y-119269787D01*
X123324197Y-119296259D01*
X123260423Y-119406718D01*
X123219499Y-119559446D01*
X123219499Y-119559448D01*
X123219499Y-119627404D01*
X123199814Y-119694443D01*
X123168385Y-119727722D01*
X123005352Y-119846173D01*
X122866174Y-119985351D01*
X122866174Y-119985352D01*
X122866172Y-119985354D01*
X122816485Y-120053741D01*
X122750476Y-120144594D01*
X122660485Y-120321213D01*
X122612511Y-120372009D01*
X122544690Y-120388804D01*
X122478555Y-120366267D01*
X122439515Y-120321213D01*
X122349523Y-120144594D01*
X122338233Y-120129055D01*
X122233828Y-119985354D01*
X122094646Y-119846172D01*
X121935405Y-119730476D01*
X121899646Y-119712256D01*
X121760029Y-119641117D01*
X121572826Y-119580290D01*
X121378422Y-119549500D01*
X121378417Y-119549500D01*
X121181583Y-119549500D01*
X121181578Y-119549500D01*
X120987173Y-119580290D01*
X120799970Y-119641117D01*
X120624594Y-119730476D01*
X120548188Y-119785989D01*
X120465354Y-119846172D01*
X120465352Y-119846174D01*
X120465351Y-119846174D01*
X120326174Y-119985351D01*
X120326174Y-119985352D01*
X120326172Y-119985354D01*
X120276485Y-120053741D01*
X120210476Y-120144594D01*
X120121117Y-120319970D01*
X120060290Y-120507173D01*
X120029500Y-120701577D01*
X120029500Y-120898422D01*
X120060290Y-121092826D01*
X120121117Y-121280029D01*
X120160880Y-121358067D01*
X120210476Y-121455405D01*
X120326172Y-121614646D01*
X120465354Y-121753828D01*
X120624595Y-121869524D01*
X120707455Y-121911743D01*
X120799970Y-121958882D01*
X120799972Y-121958882D01*
X120799975Y-121958884D01*
X120900317Y-121991487D01*
X120987173Y-122019709D01*
X121181578Y-122050500D01*
X121181583Y-122050500D01*
X121378422Y-122050500D01*
X121572826Y-122019709D01*
X121760025Y-121958884D01*
X121935405Y-121869524D01*
X122094646Y-121753828D01*
X122233828Y-121614646D01*
X122349524Y-121455405D01*
X122399120Y-121358067D01*
X122439515Y-121278787D01*
X122487489Y-121227990D01*
X122555310Y-121211195D01*
X122621445Y-121233732D01*
X122660485Y-121278787D01*
X122750474Y-121455403D01*
X122785234Y-121503246D01*
X122866172Y-121614646D01*
X123005354Y-121753828D01*
X123164595Y-121869524D01*
X123247455Y-121911743D01*
X123339970Y-121958882D01*
X123339972Y-121958882D01*
X123339975Y-121958884D01*
X123440317Y-121991487D01*
X123527173Y-122019709D01*
X123721578Y-122050500D01*
X123721583Y-122050500D01*
X123918422Y-122050500D01*
X124112826Y-122019709D01*
X124300025Y-121958884D01*
X124475405Y-121869524D01*
X124634646Y-121753828D01*
X124773828Y-121614646D01*
X124889524Y-121455405D01*
X124978884Y-121280025D01*
X125039709Y-121092826D01*
X125046571Y-121049500D01*
X125070500Y-120898422D01*
X125070500Y-120701577D01*
X125039709Y-120507173D01*
X124978882Y-120319970D01*
X124889523Y-120144594D01*
X124878233Y-120129055D01*
X124773828Y-119985354D01*
X124635786Y-119847312D01*
X124602301Y-119785989D01*
X124607285Y-119716297D01*
X124635784Y-119671952D01*
X129714760Y-114592976D01*
X129776081Y-114559493D01*
X129845773Y-114564477D01*
X129901706Y-114606349D01*
X129920369Y-114642339D01*
X129926115Y-114660025D01*
X129994201Y-114793651D01*
X130015476Y-114835405D01*
X130131172Y-114994646D01*
X130270354Y-115133828D01*
X130429595Y-115249524D01*
X130477118Y-115273738D01*
X130604970Y-115338882D01*
X130604972Y-115338882D01*
X130604975Y-115338884D01*
X130666141Y-115358758D01*
X130792173Y-115399709D01*
X130986578Y-115430500D01*
X130986583Y-115430500D01*
X131183422Y-115430500D01*
X131377826Y-115399709D01*
X131391371Y-115395308D01*
X131565025Y-115338884D01*
X131740405Y-115249524D01*
X131899646Y-115133828D01*
X132038828Y-114994646D01*
X132154524Y-114835405D01*
X132243884Y-114660025D01*
X132304709Y-114472826D01*
X132324125Y-114350238D01*
X132335500Y-114278422D01*
X132335500Y-114081577D01*
X132304709Y-113887173D01*
X132251900Y-113724646D01*
X132243884Y-113699975D01*
X132243882Y-113699972D01*
X132243882Y-113699970D01*
X132180354Y-113575289D01*
X132154524Y-113524595D01*
X132038828Y-113365354D01*
X131899646Y-113226172D01*
X131740405Y-113110476D01*
X131738906Y-113109712D01*
X131565025Y-113021115D01*
X131547339Y-113015369D01*
X131489664Y-112975931D01*
X131462467Y-112911572D01*
X131474383Y-112842726D01*
X131497975Y-112809761D01*
X132825481Y-111482255D01*
X132886802Y-111448772D01*
X132956494Y-111453756D01*
X132969455Y-111459453D01*
X133126586Y-111539515D01*
X133177382Y-111587489D01*
X133194177Y-111655310D01*
X133171640Y-111721445D01*
X133126586Y-111760485D01*
X132969594Y-111840476D01*
X132878741Y-111906485D01*
X132810354Y-111956172D01*
X132810352Y-111956174D01*
X132810351Y-111956174D01*
X132671174Y-112095351D01*
X132671174Y-112095352D01*
X132671172Y-112095354D01*
X132635701Y-112144175D01*
X132555476Y-112254594D01*
X132466117Y-112429970D01*
X132405290Y-112617173D01*
X132374500Y-112811577D01*
X132374500Y-113008422D01*
X132405290Y-113202826D01*
X132466117Y-113390029D01*
X132506808Y-113469889D01*
X132555476Y-113565405D01*
X132671172Y-113724646D01*
X132810354Y-113863828D01*
X132969595Y-113979524D01*
X133032246Y-114011446D01*
X133144970Y-114068882D01*
X133144972Y-114068882D01*
X133144975Y-114068884D01*
X133228023Y-114095868D01*
X133332173Y-114129709D01*
X133526578Y-114160500D01*
X133526583Y-114160500D01*
X133723422Y-114160500D01*
X133831422Y-114143393D01*
X133917826Y-114129709D01*
X133952936Y-114118300D01*
X134022775Y-114116304D01*
X134082609Y-114152384D01*
X134111028Y-114204135D01*
X134124316Y-114253722D01*
X134212099Y-114465654D01*
X134212106Y-114465668D01*
X134326809Y-114664338D01*
X134453850Y-114829902D01*
X134479044Y-114895071D01*
X134465006Y-114963516D01*
X134416191Y-115013505D01*
X134348100Y-115029169D01*
X134308022Y-115019949D01*
X134221107Y-114983948D01*
X134156651Y-114966677D01*
X133986789Y-114921162D01*
X133986788Y-114921161D01*
X133986785Y-114921161D01*
X133746289Y-114889500D01*
X133746288Y-114889500D01*
X133503712Y-114889500D01*
X133503711Y-114889500D01*
X133263214Y-114921161D01*
X133028895Y-114983947D01*
X132804794Y-115076773D01*
X132804785Y-115076777D01*
X132631065Y-115177075D01*
X132604082Y-115192654D01*
X132594706Y-115198067D01*
X132402263Y-115345733D01*
X132402256Y-115345739D01*
X132230739Y-115517256D01*
X132230733Y-115517263D01*
X132083067Y-115709706D01*
X131961777Y-115919785D01*
X131961773Y-115919794D01*
X131868947Y-116143895D01*
X131806161Y-116378214D01*
X131774500Y-116618711D01*
X131774500Y-116861288D01*
X131806161Y-117101785D01*
X131868947Y-117336104D01*
X131872339Y-117344292D01*
X131961776Y-117560212D01*
X132083064Y-117770289D01*
X132083066Y-117770292D01*
X132083067Y-117770293D01*
X132230733Y-117962736D01*
X132230739Y-117962743D01*
X132402256Y-118134260D01*
X132402263Y-118134266D01*
X132472963Y-118188516D01*
X132594711Y-118281936D01*
X132804788Y-118403224D01*
X133028900Y-118496054D01*
X133263211Y-118558838D01*
X133443586Y-118582584D01*
X133503711Y-118590500D01*
X133503712Y-118590500D01*
X133746289Y-118590500D01*
X133794388Y-118584167D01*
X133986789Y-118558838D01*
X134221100Y-118496054D01*
X134445212Y-118403224D01*
X134655289Y-118281936D01*
X134847738Y-118134265D01*
X135019265Y-117962738D01*
X135166936Y-117770289D01*
X135288224Y-117560212D01*
X135381054Y-117336100D01*
X135443838Y-117101789D01*
X135475500Y-116861288D01*
X135475500Y-116618712D01*
X135443838Y-116378211D01*
X135381054Y-116143900D01*
X135288224Y-115919788D01*
X135166936Y-115709711D01*
X135094262Y-115615000D01*
X135019488Y-115517552D01*
X134994294Y-115452383D01*
X135008332Y-115383938D01*
X135057146Y-115333949D01*
X135125238Y-115318285D01*
X135165317Y-115327505D01*
X135221269Y-115350681D01*
X135442862Y-115410057D01*
X135670289Y-115439998D01*
X135670306Y-115440000D01*
X135899694Y-115440000D01*
X135899710Y-115439998D01*
X136127137Y-115410057D01*
X136348730Y-115350681D01*
X136560659Y-115262897D01*
X136560668Y-115262893D01*
X136759327Y-115148197D01*
X136759334Y-115148192D01*
X136833064Y-115091617D01*
X136185561Y-114444114D01*
X136187626Y-114443260D01*
X136326844Y-114350238D01*
X136445238Y-114231844D01*
X136538260Y-114092626D01*
X136539114Y-114090561D01*
X137186617Y-114738064D01*
X137243192Y-114664334D01*
X137243197Y-114664327D01*
X137357893Y-114465668D01*
X137357897Y-114465659D01*
X137445681Y-114253730D01*
X137505057Y-114032137D01*
X137534998Y-113804710D01*
X137535000Y-113804694D01*
X137535000Y-113575305D01*
X137534998Y-113575289D01*
X137505057Y-113347862D01*
X137445681Y-113126269D01*
X137357897Y-112914340D01*
X137357893Y-112914330D01*
X137243194Y-112715666D01*
X137186618Y-112641934D01*
X137186617Y-112641934D01*
X136539114Y-113289437D01*
X136538260Y-113287374D01*
X136445238Y-113148156D01*
X136326844Y-113029762D01*
X136187626Y-112936740D01*
X136185560Y-112935884D01*
X136833064Y-112288381D01*
X136833064Y-112288380D01*
X136759331Y-112231805D01*
X136759324Y-112231799D01*
X136560669Y-112117106D01*
X136560659Y-112117102D01*
X136348730Y-112029318D01*
X136127137Y-111969942D01*
X135899710Y-111940001D01*
X135899694Y-111940000D01*
X135670306Y-111940000D01*
X135670289Y-111940001D01*
X135442862Y-111969942D01*
X135221269Y-112029318D01*
X135009340Y-112117102D01*
X135009330Y-112117106D01*
X134813872Y-112229954D01*
X134745971Y-112246427D01*
X134679945Y-112223574D01*
X134651556Y-112195455D01*
X134578828Y-112095354D01*
X134439646Y-111956172D01*
X134280405Y-111840476D01*
X134211878Y-111805560D01*
X134123413Y-111760485D01*
X134072617Y-111712511D01*
X134055822Y-111644690D01*
X134078359Y-111578555D01*
X134123413Y-111539515D01*
X134149753Y-111526094D01*
X134280405Y-111459524D01*
X134439646Y-111343828D01*
X134578828Y-111204646D01*
X134694524Y-111045405D01*
X134783884Y-110870025D01*
X134844709Y-110682826D01*
X134850569Y-110645825D01*
X134875500Y-110488422D01*
X134875500Y-110291577D01*
X134844709Y-110097173D01*
X134783882Y-109909970D01*
X134694523Y-109734594D01*
X134578828Y-109575354D01*
X134439646Y-109436172D01*
X134430080Y-109429222D01*
X134351439Y-109372084D01*
X134308773Y-109316754D01*
X134302795Y-109247140D01*
X134335402Y-109185346D01*
X134336570Y-109184160D01*
X135783913Y-107736819D01*
X135845236Y-107703334D01*
X135871594Y-107700500D01*
X141250903Y-107700500D01*
X141317942Y-107720185D01*
X141363697Y-107772989D01*
X141373641Y-107842147D01*
X141344616Y-107905703D01*
X141338589Y-107912174D01*
X141107938Y-108142826D01*
X141056286Y-108194478D01*
X140944481Y-108306282D01*
X140944479Y-108306285D01*
X140894361Y-108393094D01*
X140894359Y-108393096D01*
X140865425Y-108443209D01*
X140865424Y-108443210D01*
X140865423Y-108443215D01*
X140824499Y-108595943D01*
X140824499Y-108595945D01*
X140824499Y-108764046D01*
X140824500Y-108764059D01*
X140824500Y-109505621D01*
X140804815Y-109572660D01*
X140752011Y-109618415D01*
X140682853Y-109628359D01*
X140638501Y-109613009D01*
X140611477Y-109597407D01*
X140611471Y-109597404D01*
X140369255Y-109497075D01*
X140116020Y-109429222D01*
X140116009Y-109429220D01*
X139856094Y-109395000D01*
X139593905Y-109395000D01*
X139333990Y-109429220D01*
X139333979Y-109429222D01*
X139080744Y-109497075D01*
X138838528Y-109597404D01*
X138838517Y-109597409D01*
X138611471Y-109728496D01*
X138498633Y-109815079D01*
X138498633Y-109815080D01*
X139106466Y-110422913D01*
X138975825Y-110517829D01*
X138847829Y-110645825D01*
X138752913Y-110776466D01*
X138145080Y-110168633D01*
X138145079Y-110168633D01*
X138058496Y-110281471D01*
X137927409Y-110508517D01*
X137927404Y-110508528D01*
X137827075Y-110750744D01*
X137759222Y-111003979D01*
X137759220Y-111003990D01*
X137725000Y-111263905D01*
X137725000Y-111526094D01*
X137759220Y-111786009D01*
X137759222Y-111786020D01*
X137827075Y-112039255D01*
X137927404Y-112281471D01*
X137927409Y-112281482D01*
X138058488Y-112508516D01*
X138058494Y-112508524D01*
X138145080Y-112621365D01*
X138752912Y-112013532D01*
X138847829Y-112144175D01*
X138975825Y-112272171D01*
X139106465Y-112367085D01*
X138498633Y-112974917D01*
X138498633Y-112974918D01*
X138611475Y-113061505D01*
X138611483Y-113061511D01*
X138838517Y-113192590D01*
X138838528Y-113192595D01*
X139080744Y-113292924D01*
X139333979Y-113360777D01*
X139333990Y-113360779D01*
X139593905Y-113394999D01*
X139593920Y-113395000D01*
X139852238Y-113395000D01*
X139919277Y-113414685D01*
X139965032Y-113467489D01*
X139974976Y-113536647D01*
X139945951Y-113600203D01*
X139939919Y-113606681D01*
X134059481Y-119487118D01*
X134059479Y-119487121D01*
X134019735Y-119555960D01*
X134019731Y-119555967D01*
X134017723Y-119559446D01*
X133980423Y-119624051D01*
X133973670Y-119649250D01*
X133968246Y-119660236D01*
X133952536Y-119677293D01*
X133940466Y-119697094D01*
X133923522Y-119708798D01*
X133920914Y-119711631D01*
X133918515Y-119712256D01*
X133913361Y-119715818D01*
X133884596Y-119730475D01*
X133884592Y-119730478D01*
X133725357Y-119846169D01*
X133725351Y-119846174D01*
X133586174Y-119985351D01*
X133586174Y-119985352D01*
X133586172Y-119985354D01*
X133536485Y-120053741D01*
X133470476Y-120144594D01*
X133380485Y-120321213D01*
X133332511Y-120372009D01*
X133264690Y-120388804D01*
X133198555Y-120366267D01*
X133159515Y-120321213D01*
X133069523Y-120144594D01*
X133058233Y-120129055D01*
X132953828Y-119985354D01*
X132814646Y-119846172D01*
X132655405Y-119730476D01*
X132619646Y-119712256D01*
X132480029Y-119641117D01*
X132292826Y-119580290D01*
X132098422Y-119549500D01*
X132098417Y-119549500D01*
X131901583Y-119549500D01*
X131901578Y-119549500D01*
X131707173Y-119580290D01*
X131519970Y-119641117D01*
X131344594Y-119730476D01*
X131268188Y-119785989D01*
X131185354Y-119846172D01*
X131185352Y-119846174D01*
X131185351Y-119846174D01*
X131046174Y-119985351D01*
X131046174Y-119985352D01*
X131046172Y-119985354D01*
X130996485Y-120053741D01*
X130930476Y-120144594D01*
X130841117Y-120319970D01*
X130780290Y-120507173D01*
X130749500Y-120701577D01*
X130749500Y-120898422D01*
X130780290Y-121092826D01*
X130841117Y-121280029D01*
X130880880Y-121358067D01*
X130930476Y-121455405D01*
X131046172Y-121614646D01*
X131185354Y-121753828D01*
X131344595Y-121869524D01*
X131427455Y-121911743D01*
X131519970Y-121958882D01*
X131519972Y-121958882D01*
X131519975Y-121958884D01*
X131620317Y-121991487D01*
X131707173Y-122019709D01*
X131901578Y-122050500D01*
X131901583Y-122050500D01*
X132098422Y-122050500D01*
X132292826Y-122019709D01*
X132480025Y-121958884D01*
X132655405Y-121869524D01*
X132814646Y-121753828D01*
X132953828Y-121614646D01*
X133069524Y-121455405D01*
X133119120Y-121358067D01*
X133159515Y-121278787D01*
X133207489Y-121227990D01*
X133275310Y-121211195D01*
X133341445Y-121233732D01*
X133380485Y-121278787D01*
X133470474Y-121455403D01*
X133505234Y-121503246D01*
X133586172Y-121614646D01*
X133725354Y-121753828D01*
X133884595Y-121869524D01*
X133967455Y-121911743D01*
X134059970Y-121958882D01*
X134059972Y-121958882D01*
X134059975Y-121958884D01*
X134160317Y-121991487D01*
X134247173Y-122019709D01*
X134441578Y-122050500D01*
X134441583Y-122050500D01*
X134638422Y-122050500D01*
X134832826Y-122019709D01*
X135020025Y-121958884D01*
X135195405Y-121869524D01*
X135354646Y-121753828D01*
X135493828Y-121614646D01*
X135609524Y-121455405D01*
X135698884Y-121280025D01*
X135759709Y-121092826D01*
X135766571Y-121049500D01*
X135790500Y-120898422D01*
X135790500Y-120701577D01*
X135759709Y-120507173D01*
X135698882Y-120319970D01*
X135609523Y-120144594D01*
X135598233Y-120129055D01*
X135493828Y-119985354D01*
X135464452Y-119955978D01*
X135430967Y-119894655D01*
X135435951Y-119824963D01*
X135464448Y-119780621D01*
X137611546Y-117633523D01*
X137672865Y-117600041D01*
X137742557Y-117605025D01*
X137798490Y-117646897D01*
X137818997Y-117689110D01*
X137827075Y-117719256D01*
X137927404Y-117961471D01*
X137927409Y-117961482D01*
X138058488Y-118188516D01*
X138058494Y-118188524D01*
X138145080Y-118301365D01*
X138752912Y-117693532D01*
X138847829Y-117824175D01*
X138975825Y-117952171D01*
X139106465Y-118047086D01*
X138498633Y-118654917D01*
X138498633Y-118654918D01*
X138611475Y-118741505D01*
X138611483Y-118741511D01*
X138838517Y-118872590D01*
X138838528Y-118872595D01*
X139080744Y-118972924D01*
X139333979Y-119040777D01*
X139333990Y-119040779D01*
X139593905Y-119074999D01*
X139593920Y-119075000D01*
X139856080Y-119075000D01*
X139856094Y-119074999D01*
X140116009Y-119040779D01*
X140116020Y-119040777D01*
X140369255Y-118972924D01*
X140611471Y-118872595D01*
X140611482Y-118872590D01*
X140838516Y-118741511D01*
X140838534Y-118741499D01*
X140951365Y-118654919D01*
X140951365Y-118654917D01*
X140343534Y-118047086D01*
X140474175Y-117952171D01*
X140602171Y-117824175D01*
X140697086Y-117693534D01*
X141304917Y-118301365D01*
X141304919Y-118301365D01*
X141391499Y-118188534D01*
X141391511Y-118188516D01*
X141522590Y-117961482D01*
X141522595Y-117961471D01*
X141622924Y-117719255D01*
X141690777Y-117466020D01*
X141690779Y-117466009D01*
X141724999Y-117206094D01*
X141725000Y-117206080D01*
X141725000Y-116943919D01*
X141724999Y-116943905D01*
X150865000Y-116943905D01*
X150865000Y-117206094D01*
X150899220Y-117466009D01*
X150899222Y-117466020D01*
X150967075Y-117719255D01*
X151067404Y-117961471D01*
X151067409Y-117961482D01*
X151198488Y-118188516D01*
X151198494Y-118188524D01*
X151285080Y-118301365D01*
X151892912Y-117693532D01*
X151987829Y-117824175D01*
X152115825Y-117952171D01*
X152246465Y-118047086D01*
X151638633Y-118654917D01*
X151638633Y-118654918D01*
X151751475Y-118741505D01*
X151751483Y-118741511D01*
X151978517Y-118872590D01*
X151978528Y-118872595D01*
X152220744Y-118972924D01*
X152473979Y-119040777D01*
X152473990Y-119040779D01*
X152733905Y-119074999D01*
X152733920Y-119075000D01*
X152996080Y-119075000D01*
X152996094Y-119074999D01*
X153256009Y-119040779D01*
X153256020Y-119040777D01*
X153509255Y-118972924D01*
X153751471Y-118872595D01*
X153751482Y-118872590D01*
X153978516Y-118741511D01*
X153978534Y-118741499D01*
X154091365Y-118654919D01*
X154091365Y-118654917D01*
X153483534Y-118047086D01*
X153614175Y-117952171D01*
X153742171Y-117824175D01*
X153837086Y-117693534D01*
X154444917Y-118301365D01*
X154444919Y-118301365D01*
X154531499Y-118188534D01*
X154531511Y-118188516D01*
X154662590Y-117961482D01*
X154662595Y-117961471D01*
X154762924Y-117719255D01*
X154830777Y-117466020D01*
X154830779Y-117466009D01*
X154864999Y-117206094D01*
X154865000Y-117206080D01*
X154865000Y-116943919D01*
X154864999Y-116943905D01*
X154830779Y-116683990D01*
X154830777Y-116683979D01*
X154762924Y-116430744D01*
X154662595Y-116188528D01*
X154662590Y-116188517D01*
X154531511Y-115961483D01*
X154531505Y-115961475D01*
X154444918Y-115848633D01*
X154444917Y-115848633D01*
X153837085Y-116456465D01*
X153742171Y-116325825D01*
X153614175Y-116197829D01*
X153483532Y-116102912D01*
X154091365Y-115495080D01*
X153978524Y-115408494D01*
X153978516Y-115408488D01*
X153751482Y-115277409D01*
X153751471Y-115277404D01*
X153509255Y-115177075D01*
X153256020Y-115109222D01*
X153256009Y-115109220D01*
X152996094Y-115075000D01*
X152733905Y-115075000D01*
X152473990Y-115109220D01*
X152473979Y-115109222D01*
X152220744Y-115177075D01*
X151978528Y-115277404D01*
X151978517Y-115277409D01*
X151751471Y-115408496D01*
X151638633Y-115495079D01*
X151638633Y-115495080D01*
X152246466Y-116102913D01*
X152115825Y-116197829D01*
X151987829Y-116325825D01*
X151892913Y-116456466D01*
X151285080Y-115848633D01*
X151285079Y-115848633D01*
X151198496Y-115961471D01*
X151067409Y-116188517D01*
X151067404Y-116188528D01*
X150967075Y-116430744D01*
X150899222Y-116683979D01*
X150899220Y-116683990D01*
X150865000Y-116943905D01*
X141724999Y-116943905D01*
X141690779Y-116683990D01*
X141690777Y-116683979D01*
X141622924Y-116430744D01*
X141522595Y-116188528D01*
X141522590Y-116188517D01*
X141391511Y-115961483D01*
X141391505Y-115961475D01*
X141304918Y-115848633D01*
X141304917Y-115848633D01*
X140697085Y-116456465D01*
X140602171Y-116325825D01*
X140474175Y-116197829D01*
X140343532Y-116102912D01*
X140951365Y-115495080D01*
X140838524Y-115408494D01*
X140838516Y-115408488D01*
X140611482Y-115277409D01*
X140611471Y-115277404D01*
X140369256Y-115177075D01*
X140339110Y-115168997D01*
X140279451Y-115132630D01*
X140248923Y-115069782D01*
X140257220Y-115000407D01*
X140283521Y-114961548D01*
X141403751Y-113841318D01*
X141465070Y-113807836D01*
X141534762Y-113812820D01*
X141590695Y-113854692D01*
X141615112Y-113920156D01*
X141609359Y-113967320D01*
X141575291Y-114072169D01*
X141575291Y-114072172D01*
X141544500Y-114266577D01*
X141544500Y-114463422D01*
X141575290Y-114657826D01*
X141636117Y-114845029D01*
X141721960Y-115013505D01*
X141725476Y-115020405D01*
X141841172Y-115179646D01*
X141980354Y-115318828D01*
X142139595Y-115434524D01*
X142222455Y-115476743D01*
X142314970Y-115523882D01*
X142314972Y-115523882D01*
X142314975Y-115523884D01*
X142415317Y-115556487D01*
X142502173Y-115584709D01*
X142696578Y-115615500D01*
X142696583Y-115615500D01*
X142893422Y-115615500D01*
X143087826Y-115584709D01*
X143089328Y-115584221D01*
X143275025Y-115523884D01*
X143450405Y-115434524D01*
X143609646Y-115318828D01*
X143748828Y-115179646D01*
X143864524Y-115020405D01*
X143934515Y-114883038D01*
X143982489Y-114832243D01*
X144050310Y-114815448D01*
X144116445Y-114837985D01*
X144155484Y-114883038D01*
X144225476Y-115020405D01*
X144341172Y-115179646D01*
X144480354Y-115318828D01*
X144639595Y-115434524D01*
X144722455Y-115476743D01*
X144814970Y-115523882D01*
X144814972Y-115523882D01*
X144814975Y-115523884D01*
X144915317Y-115556487D01*
X145002173Y-115584709D01*
X145196578Y-115615500D01*
X145196583Y-115615500D01*
X145393422Y-115615500D01*
X145587826Y-115584709D01*
X145589328Y-115584221D01*
X145775025Y-115523884D01*
X145950405Y-115434524D01*
X146109646Y-115318828D01*
X146207319Y-115221155D01*
X146268642Y-115187670D01*
X146338334Y-115192654D01*
X146382681Y-115221155D01*
X146480354Y-115318828D01*
X146639595Y-115434524D01*
X146722455Y-115476743D01*
X146814970Y-115523882D01*
X146814972Y-115523882D01*
X146814975Y-115523884D01*
X146915317Y-115556487D01*
X147002173Y-115584709D01*
X147196578Y-115615500D01*
X147196583Y-115615500D01*
X147393422Y-115615500D01*
X147587826Y-115584709D01*
X147589328Y-115584221D01*
X147775025Y-115523884D01*
X147950405Y-115434524D01*
X148109646Y-115318828D01*
X148248828Y-115179646D01*
X148364524Y-115020405D01*
X148434796Y-114882486D01*
X148482769Y-114831692D01*
X148550589Y-114814896D01*
X148616725Y-114837433D01*
X148655765Y-114882487D01*
X148725905Y-115020145D01*
X148751319Y-115055125D01*
X148751320Y-115055125D01*
X149344697Y-114461748D01*
X149366349Y-114542553D01*
X149426909Y-114647446D01*
X149512554Y-114733091D01*
X149617447Y-114793651D01*
X149698249Y-114815302D01*
X149104873Y-115408677D01*
X149104873Y-115408678D01*
X149139858Y-115434096D01*
X149315164Y-115523418D01*
X149502294Y-115584221D01*
X149696618Y-115615000D01*
X149893382Y-115615000D01*
X150087705Y-115584221D01*
X150274838Y-115523417D01*
X150450140Y-115434097D01*
X150485125Y-115408678D01*
X150485126Y-115408678D01*
X149891750Y-114815302D01*
X149972553Y-114793651D01*
X150077446Y-114733091D01*
X150163091Y-114647446D01*
X150223651Y-114542553D01*
X150245302Y-114461750D01*
X150838678Y-115055126D01*
X150838678Y-115055125D01*
X150864095Y-115020143D01*
X150953418Y-114844835D01*
X151014221Y-114657705D01*
X151045000Y-114463382D01*
X151045000Y-114266617D01*
X151014221Y-114072294D01*
X150953418Y-113885164D01*
X150864096Y-113709858D01*
X150838678Y-113674873D01*
X150838677Y-113674873D01*
X150245302Y-114268249D01*
X150223651Y-114187447D01*
X150163091Y-114082554D01*
X150077446Y-113996909D01*
X149972553Y-113936349D01*
X149891749Y-113914697D01*
X150485125Y-113321320D01*
X150485125Y-113321319D01*
X150450145Y-113295905D01*
X150274835Y-113206581D01*
X150171272Y-113172931D01*
X150113596Y-113133493D01*
X150086398Y-113069135D01*
X150098313Y-113000288D01*
X150145557Y-112948813D01*
X150171272Y-112937069D01*
X150274838Y-112903417D01*
X150445465Y-112816480D01*
X150450140Y-112814097D01*
X150485125Y-112788678D01*
X150485126Y-112788678D01*
X149891750Y-112195302D01*
X149972553Y-112173651D01*
X150077446Y-112113091D01*
X150163091Y-112027446D01*
X150223651Y-111922553D01*
X150245302Y-111841750D01*
X150838678Y-112435126D01*
X150838678Y-112435125D01*
X150864095Y-112400143D01*
X150887842Y-112353536D01*
X150935815Y-112302739D01*
X151003636Y-112285943D01*
X151069771Y-112308479D01*
X151105715Y-112347829D01*
X151198488Y-112508516D01*
X151198494Y-112508524D01*
X151285080Y-112621365D01*
X151892912Y-112013532D01*
X151987829Y-112144175D01*
X152115825Y-112272171D01*
X152246465Y-112367086D01*
X151638633Y-112974917D01*
X151638633Y-112974918D01*
X151751475Y-113061505D01*
X151751483Y-113061511D01*
X151978517Y-113192590D01*
X151978528Y-113192595D01*
X152220744Y-113292924D01*
X152473979Y-113360777D01*
X152473990Y-113360779D01*
X152733905Y-113394999D01*
X152733920Y-113395000D01*
X152996080Y-113395000D01*
X152996094Y-113394999D01*
X153256009Y-113360779D01*
X153256020Y-113360777D01*
X153509255Y-113292924D01*
X153751471Y-113192595D01*
X153751482Y-113192590D01*
X153978516Y-113061511D01*
X153978534Y-113061499D01*
X154091365Y-112974919D01*
X154091365Y-112974917D01*
X153483534Y-112367086D01*
X153614175Y-112272171D01*
X153742171Y-112144175D01*
X153837086Y-112013534D01*
X154444917Y-112621365D01*
X154444919Y-112621365D01*
X154531499Y-112508534D01*
X154531511Y-112508516D01*
X154662590Y-112281482D01*
X154662595Y-112281471D01*
X154762924Y-112039255D01*
X154830777Y-111786020D01*
X154830779Y-111786009D01*
X154864999Y-111526094D01*
X154865000Y-111526080D01*
X154865000Y-111263919D01*
X154864999Y-111263905D01*
X154830779Y-111003990D01*
X154830777Y-111003979D01*
X154762924Y-110750744D01*
X154662595Y-110508528D01*
X154662590Y-110508517D01*
X154531511Y-110281483D01*
X154531505Y-110281475D01*
X154444918Y-110168633D01*
X154444917Y-110168633D01*
X153837085Y-110776465D01*
X153742171Y-110645825D01*
X153614175Y-110517829D01*
X153483532Y-110422912D01*
X154091365Y-109815080D01*
X153978524Y-109728494D01*
X153978516Y-109728488D01*
X153751482Y-109597409D01*
X153751471Y-109597404D01*
X153509255Y-109497075D01*
X153256020Y-109429222D01*
X153256009Y-109429220D01*
X152996094Y-109395000D01*
X152733905Y-109395000D01*
X152473990Y-109429220D01*
X152473979Y-109429222D01*
X152220744Y-109497075D01*
X151978528Y-109597404D01*
X151978517Y-109597409D01*
X151751471Y-109728496D01*
X151638633Y-109815079D01*
X151638633Y-109815080D01*
X152246466Y-110422913D01*
X152115825Y-110517829D01*
X151987829Y-110645825D01*
X151892913Y-110776466D01*
X151285080Y-110168633D01*
X151285079Y-110168633D01*
X151198496Y-110281471D01*
X151067409Y-110508517D01*
X151067404Y-110508528D01*
X150967076Y-110750741D01*
X150913656Y-110950107D01*
X150913304Y-110964836D01*
X150874135Y-111022695D01*
X150868401Y-111025149D01*
X150245302Y-111648249D01*
X150223651Y-111567447D01*
X150163091Y-111462554D01*
X150077446Y-111376909D01*
X149972553Y-111316349D01*
X149891749Y-111294697D01*
X150485125Y-110701320D01*
X150485125Y-110701319D01*
X150450145Y-110675905D01*
X150274835Y-110586581D01*
X150087705Y-110525778D01*
X149893382Y-110495000D01*
X149696618Y-110495000D01*
X149502294Y-110525778D01*
X149315161Y-110586582D01*
X149139863Y-110675899D01*
X149139859Y-110675902D01*
X149104873Y-110701320D01*
X149104872Y-110701320D01*
X149698250Y-111294697D01*
X149617447Y-111316349D01*
X149512554Y-111376909D01*
X149426909Y-111462554D01*
X149366349Y-111567447D01*
X149344697Y-111648250D01*
X148751320Y-111054872D01*
X148751320Y-111054873D01*
X148725902Y-111089859D01*
X148655765Y-111227511D01*
X148607790Y-111278307D01*
X148539969Y-111295102D01*
X148473834Y-111272564D01*
X148434795Y-111227510D01*
X148364525Y-111089596D01*
X148332416Y-111045403D01*
X148248828Y-110930354D01*
X148109646Y-110791172D01*
X147950405Y-110675476D01*
X147904896Y-110652288D01*
X147775029Y-110586117D01*
X147587826Y-110525290D01*
X147393422Y-110494500D01*
X147393417Y-110494500D01*
X147196583Y-110494500D01*
X147196578Y-110494500D01*
X147002173Y-110525290D01*
X146814970Y-110586117D01*
X146639594Y-110675476D01*
X146548741Y-110741485D01*
X146480354Y-110791172D01*
X146480352Y-110791174D01*
X146480351Y-110791174D01*
X146382681Y-110888845D01*
X146321358Y-110922330D01*
X146251666Y-110917346D01*
X146207319Y-110888845D01*
X146109648Y-110791174D01*
X146109646Y-110791172D01*
X145950405Y-110675476D01*
X145904896Y-110652288D01*
X145775029Y-110586117D01*
X145587826Y-110525290D01*
X145393422Y-110494500D01*
X145393417Y-110494500D01*
X145196583Y-110494500D01*
X145196578Y-110494500D01*
X145002173Y-110525290D01*
X144814970Y-110586117D01*
X144639594Y-110675476D01*
X144548741Y-110741485D01*
X144480354Y-110791172D01*
X144480352Y-110791174D01*
X144480351Y-110791174D01*
X144341174Y-110930351D01*
X144341167Y-110930360D01*
X144236089Y-111074985D01*
X144180759Y-111117651D01*
X144111146Y-111123629D01*
X144049351Y-111091023D01*
X144018066Y-111041103D01*
X144005764Y-111003979D01*
X143979814Y-110925666D01*
X143887712Y-110776344D01*
X143763656Y-110652288D01*
X143656375Y-110586117D01*
X143614336Y-110560187D01*
X143614331Y-110560185D01*
X143584180Y-110550194D01*
X143447797Y-110505001D01*
X143447795Y-110505000D01*
X143345010Y-110494500D01*
X142244998Y-110494500D01*
X142244980Y-110494501D01*
X142162101Y-110502968D01*
X142093408Y-110490198D01*
X142042524Y-110442317D01*
X142025500Y-110379610D01*
X142025500Y-108975096D01*
X142045185Y-108908057D01*
X142061814Y-108887420D01*
X147735844Y-103213389D01*
X151099500Y-103213389D01*
X151099500Y-103386611D01*
X151126598Y-103557701D01*
X151180127Y-103722445D01*
X151258768Y-103876788D01*
X151360586Y-104016928D01*
X151483072Y-104139414D01*
X151623212Y-104241232D01*
X151777555Y-104319873D01*
X151942299Y-104373402D01*
X152113389Y-104400500D01*
X152113390Y-104400500D01*
X152286610Y-104400500D01*
X152286611Y-104400500D01*
X152457701Y-104373402D01*
X152622445Y-104319873D01*
X152776788Y-104241232D01*
X152916928Y-104139414D01*
X153039414Y-104016928D01*
X153141232Y-103876788D01*
X153219873Y-103722445D01*
X153273402Y-103557701D01*
X153300500Y-103386611D01*
X153300500Y-103213389D01*
X153273402Y-103042299D01*
X153219873Y-102877555D01*
X153141232Y-102723212D01*
X153039414Y-102583072D01*
X152916928Y-102460586D01*
X152776788Y-102358768D01*
X152622445Y-102280127D01*
X152457701Y-102226598D01*
X152457699Y-102226597D01*
X152457698Y-102226597D01*
X152326271Y-102205781D01*
X152286611Y-102199500D01*
X152113389Y-102199500D01*
X152073728Y-102205781D01*
X151942302Y-102226597D01*
X151777552Y-102280128D01*
X151623211Y-102358768D01*
X151570019Y-102397415D01*
X151483072Y-102460586D01*
X151483070Y-102460588D01*
X151483069Y-102460588D01*
X151360588Y-102583069D01*
X151360588Y-102583070D01*
X151360586Y-102583072D01*
X151316859Y-102643256D01*
X151258768Y-102723211D01*
X151180128Y-102877552D01*
X151126597Y-103042302D01*
X151117380Y-103100500D01*
X151099500Y-103213389D01*
X147735844Y-103213389D01*
X151832007Y-99117226D01*
X151893328Y-99083743D01*
X151963020Y-99088727D01*
X152018953Y-99130599D01*
X152043370Y-99196063D01*
X152040577Y-99232500D01*
X152027862Y-99288208D01*
X152027858Y-99288231D01*
X151989500Y-99628681D01*
X151989500Y-99971318D01*
X152027858Y-100311768D01*
X152027860Y-100311780D01*
X152027861Y-100311783D01*
X152040351Y-100366503D01*
X152104102Y-100645816D01*
X152104103Y-100645818D01*
X152217264Y-100969216D01*
X152365922Y-101277907D01*
X152365924Y-101277910D01*
X152548211Y-101568018D01*
X152761834Y-101835893D01*
X153004107Y-102078166D01*
X153271982Y-102291789D01*
X153562090Y-102474076D01*
X153870785Y-102622736D01*
X154194183Y-102735897D01*
X154528217Y-102812139D01*
X154528226Y-102812140D01*
X154528231Y-102812141D01*
X154755197Y-102837713D01*
X154868682Y-102850499D01*
X154868685Y-102850500D01*
X154868688Y-102850500D01*
X155211315Y-102850500D01*
X155211316Y-102850499D01*
X155385311Y-102830895D01*
X155551768Y-102812141D01*
X155551771Y-102812140D01*
X155551783Y-102812139D01*
X155885817Y-102735897D01*
X156209215Y-102622736D01*
X156517910Y-102474076D01*
X156808018Y-102291789D01*
X157075893Y-102078166D01*
X157318166Y-101835893D01*
X157531789Y-101568018D01*
X157714076Y-101277910D01*
X157862736Y-100969215D01*
X157975897Y-100645817D01*
X158052139Y-100311783D01*
X158064641Y-100200827D01*
X158089722Y-99978213D01*
X158090500Y-99971312D01*
X158090500Y-99628688D01*
X158052139Y-99288217D01*
X157975897Y-98954183D01*
X157862736Y-98630785D01*
X157725853Y-98346545D01*
X157714077Y-98322092D01*
X157693318Y-98289054D01*
X157531789Y-98031982D01*
X157318166Y-97764107D01*
X157075893Y-97521834D01*
X157070927Y-97517874D01*
X156923745Y-97400500D01*
X156808018Y-97308211D01*
X156517910Y-97125924D01*
X156517907Y-97125922D01*
X156209216Y-96977264D01*
X155885818Y-96864103D01*
X155885816Y-96864102D01*
X155617125Y-96802775D01*
X155551783Y-96787861D01*
X155551780Y-96787860D01*
X155551768Y-96787858D01*
X155211318Y-96749500D01*
X155211312Y-96749500D01*
X154868688Y-96749500D01*
X154868681Y-96749500D01*
X154528231Y-96787858D01*
X154528208Y-96787862D01*
X154472500Y-96800577D01*
X154402761Y-96796303D01*
X154346404Y-96755004D01*
X154321321Y-96689792D01*
X154335477Y-96621371D01*
X154357225Y-96592008D01*
X159182701Y-91766533D01*
X162974499Y-91766533D01*
X163000458Y-91897030D01*
X163000461Y-91897040D01*
X163051376Y-92019961D01*
X163051386Y-92019979D01*
X163125301Y-92130601D01*
X163125307Y-92130609D01*
X163219390Y-92224692D01*
X163219398Y-92224698D01*
X163330020Y-92298613D01*
X163330023Y-92298614D01*
X163330031Y-92298620D01*
X163452964Y-92349540D01*
X163452968Y-92349540D01*
X163452969Y-92349541D01*
X163583466Y-92375500D01*
X163583469Y-92375500D01*
X163716533Y-92375500D01*
X163804325Y-92358035D01*
X163847036Y-92349540D01*
X163969969Y-92298620D01*
X164080606Y-92224695D01*
X164174695Y-92130606D01*
X164248620Y-92019969D01*
X164299540Y-91897036D01*
X164316911Y-91809711D01*
X164325500Y-91766533D01*
X164325500Y-91633466D01*
X164299541Y-91502969D01*
X164299540Y-91502968D01*
X164299540Y-91502964D01*
X164298652Y-91500821D01*
X164248623Y-91380038D01*
X164248622Y-91380037D01*
X164248620Y-91380031D01*
X164243150Y-91371845D01*
X164174698Y-91269398D01*
X164174692Y-91269390D01*
X164080609Y-91175307D01*
X164080601Y-91175301D01*
X163969979Y-91101386D01*
X163969972Y-91101382D01*
X163969969Y-91101380D01*
X163969965Y-91101378D01*
X163969961Y-91101376D01*
X163847040Y-91050461D01*
X163847030Y-91050458D01*
X163716533Y-91024500D01*
X163716531Y-91024500D01*
X163583469Y-91024500D01*
X163583467Y-91024500D01*
X163452969Y-91050458D01*
X163452959Y-91050461D01*
X163330038Y-91101376D01*
X163330020Y-91101386D01*
X163219398Y-91175301D01*
X163219390Y-91175307D01*
X163125307Y-91269390D01*
X163125301Y-91269398D01*
X163051386Y-91380020D01*
X163051376Y-91380038D01*
X163000461Y-91502959D01*
X163000458Y-91502969D01*
X162974500Y-91633466D01*
X162974500Y-91633469D01*
X162974500Y-91766531D01*
X162974500Y-91766533D01*
X162974499Y-91766533D01*
X159182701Y-91766533D01*
X161633506Y-89315728D01*
X161633511Y-89315724D01*
X161643714Y-89305520D01*
X161643716Y-89305520D01*
X161755520Y-89193716D01*
X161816040Y-89088891D01*
X161834577Y-89056785D01*
X161875500Y-88904058D01*
X161875500Y-88766533D01*
X162974499Y-88766533D01*
X163000458Y-88897030D01*
X163000461Y-88897040D01*
X163051376Y-89019961D01*
X163051386Y-89019979D01*
X163125301Y-89130601D01*
X163125307Y-89130609D01*
X163219390Y-89224692D01*
X163219398Y-89224698D01*
X163330020Y-89298613D01*
X163330023Y-89298614D01*
X163330031Y-89298620D01*
X163330037Y-89298622D01*
X163330038Y-89298623D01*
X163371324Y-89315724D01*
X163452964Y-89349540D01*
X163452968Y-89349540D01*
X163452969Y-89349541D01*
X163583466Y-89375500D01*
X163583469Y-89375500D01*
X163716533Y-89375500D01*
X163804325Y-89358035D01*
X163847036Y-89349540D01*
X163969969Y-89298620D01*
X164080606Y-89224695D01*
X164174695Y-89130606D01*
X164248620Y-89019969D01*
X164299540Y-88897036D01*
X164312822Y-88830264D01*
X164325500Y-88766533D01*
X164325500Y-88633466D01*
X164299541Y-88502969D01*
X164299540Y-88502968D01*
X164299540Y-88502964D01*
X164248620Y-88380031D01*
X164174695Y-88269394D01*
X164174692Y-88269390D01*
X164080609Y-88175307D01*
X164080601Y-88175301D01*
X163969979Y-88101386D01*
X163969972Y-88101382D01*
X163969969Y-88101380D01*
X163969965Y-88101378D01*
X163969961Y-88101376D01*
X163847040Y-88050461D01*
X163847030Y-88050458D01*
X163716533Y-88024500D01*
X163716531Y-88024500D01*
X163583469Y-88024500D01*
X163583467Y-88024500D01*
X163452969Y-88050458D01*
X163452959Y-88050461D01*
X163330038Y-88101376D01*
X163330020Y-88101386D01*
X163219398Y-88175301D01*
X163219390Y-88175307D01*
X163125307Y-88269390D01*
X163125301Y-88269398D01*
X163051386Y-88380020D01*
X163051376Y-88380038D01*
X163000461Y-88502959D01*
X163000458Y-88502969D01*
X162974500Y-88633466D01*
X162974500Y-88633469D01*
X162974500Y-88766531D01*
X162974500Y-88766533D01*
X162974499Y-88766533D01*
X161875500Y-88766533D01*
X161875500Y-88745943D01*
X161875500Y-83079765D01*
X161895185Y-83012726D01*
X161896398Y-83010874D01*
X161984390Y-82879185D01*
X161984390Y-82879184D01*
X161984394Y-82879179D01*
X162044737Y-82733497D01*
X162075500Y-82578842D01*
X162075500Y-82421158D01*
X162075500Y-82421155D01*
X162075499Y-82421153D01*
X162070352Y-82395278D01*
X162044737Y-82266503D01*
X162022352Y-82212460D01*
X161984397Y-82120827D01*
X161984390Y-82120814D01*
X161896789Y-81989711D01*
X161896786Y-81989707D01*
X161785292Y-81878213D01*
X161785288Y-81878210D01*
X161654185Y-81790609D01*
X161654172Y-81790602D01*
X161508501Y-81730264D01*
X161508489Y-81730261D01*
X161353845Y-81699500D01*
X161353842Y-81699500D01*
X161324500Y-81699500D01*
X161257461Y-81679815D01*
X161211706Y-81627011D01*
X161200500Y-81575500D01*
X161200500Y-80979765D01*
X161220185Y-80912726D01*
X161221398Y-80910874D01*
X161309390Y-80779185D01*
X161309390Y-80779184D01*
X161309394Y-80779179D01*
X161369737Y-80633497D01*
X161400500Y-80478842D01*
X161400500Y-80321158D01*
X161400500Y-80321155D01*
X161400499Y-80321153D01*
X161369738Y-80166510D01*
X161369737Y-80166503D01*
X161369735Y-80166498D01*
X161309397Y-80020827D01*
X161309390Y-80020814D01*
X161221789Y-79889711D01*
X161221786Y-79889707D01*
X161110292Y-79778213D01*
X161110288Y-79778210D01*
X160979185Y-79690609D01*
X160979172Y-79690602D01*
X160833501Y-79630264D01*
X160833489Y-79630261D01*
X160678845Y-79599500D01*
X160678842Y-79599500D01*
X160521158Y-79599500D01*
X160521155Y-79599500D01*
X160366510Y-79630261D01*
X160366498Y-79630264D01*
X160220827Y-79690602D01*
X160220814Y-79690609D01*
X160089711Y-79778210D01*
X160089707Y-79778213D01*
X159978213Y-79889707D01*
X159978210Y-79889711D01*
X159890609Y-80020814D01*
X159890602Y-80020827D01*
X159830264Y-80166498D01*
X159830261Y-80166510D01*
X159799500Y-80321153D01*
X159799500Y-80478846D01*
X159830261Y-80633489D01*
X159830264Y-80633501D01*
X159890602Y-80779172D01*
X159890609Y-80779185D01*
X159978602Y-80910874D01*
X159999480Y-80977551D01*
X159999500Y-80979765D01*
X159999500Y-83675500D01*
X159979815Y-83742539D01*
X159927011Y-83788294D01*
X159875500Y-83799500D01*
X159761155Y-83799500D01*
X159606510Y-83830261D01*
X159606498Y-83830264D01*
X159460827Y-83890602D01*
X159460814Y-83890609D01*
X159329125Y-83978602D01*
X159262447Y-83999480D01*
X159260234Y-83999500D01*
X156100097Y-83999500D01*
X156033058Y-83979815D01*
X156012416Y-83963181D01*
X155736819Y-83687584D01*
X155703334Y-83626261D01*
X155700500Y-83599903D01*
X155700500Y-80979765D01*
X155720185Y-80912726D01*
X155721398Y-80910874D01*
X155809390Y-80779185D01*
X155809390Y-80779184D01*
X155809394Y-80779179D01*
X155869737Y-80633497D01*
X155900500Y-80478842D01*
X155900500Y-80321158D01*
X155900500Y-80321155D01*
X155900499Y-80321153D01*
X155869738Y-80166510D01*
X155869737Y-80166503D01*
X155869735Y-80166498D01*
X155809397Y-80020827D01*
X155809390Y-80020814D01*
X155721789Y-79889711D01*
X155721786Y-79889707D01*
X155610292Y-79778213D01*
X155610288Y-79778210D01*
X155479185Y-79690609D01*
X155479172Y-79690602D01*
X155333501Y-79630264D01*
X155333489Y-79630261D01*
X155178845Y-79599500D01*
X155178842Y-79599500D01*
X155021158Y-79599500D01*
X155021155Y-79599500D01*
X154866510Y-79630261D01*
X154866498Y-79630264D01*
X154720827Y-79690602D01*
X154720814Y-79690609D01*
X154589711Y-79778210D01*
X154589707Y-79778213D01*
X154478213Y-79889707D01*
X154478210Y-79889711D01*
X154390609Y-80020814D01*
X154390604Y-80020824D01*
X154377983Y-80051295D01*
X154334142Y-80105698D01*
X154267848Y-80127763D01*
X154200148Y-80110484D01*
X154152538Y-80059346D01*
X154148861Y-80051294D01*
X154094821Y-79920828D01*
X154094814Y-79920815D01*
X154006822Y-79789126D01*
X153985944Y-79722448D01*
X153985924Y-79720235D01*
X153985924Y-77864673D01*
X154005609Y-77797634D01*
X154022243Y-77776992D01*
X157253082Y-74546153D01*
X159799500Y-74546153D01*
X159799500Y-74703846D01*
X159830261Y-74858489D01*
X159830264Y-74858501D01*
X159890602Y-75004172D01*
X159890609Y-75004185D01*
X159978210Y-75135288D01*
X159978213Y-75135292D01*
X160089707Y-75246786D01*
X160089711Y-75246789D01*
X160220814Y-75334390D01*
X160220827Y-75334397D01*
X160342264Y-75384697D01*
X160366503Y-75394737D01*
X160521153Y-75425499D01*
X160521156Y-75425500D01*
X160521158Y-75425500D01*
X160678844Y-75425500D01*
X160678845Y-75425499D01*
X160833497Y-75394737D01*
X160979179Y-75334394D01*
X161110289Y-75246789D01*
X161221789Y-75135289D01*
X161309394Y-75004179D01*
X161369737Y-74858497D01*
X161400500Y-74703842D01*
X161400500Y-74546158D01*
X161400500Y-74546155D01*
X161400499Y-74546153D01*
X161369738Y-74391510D01*
X161369737Y-74391503D01*
X161320481Y-74272587D01*
X161309397Y-74245827D01*
X161309393Y-74245820D01*
X161266403Y-74181481D01*
X161263398Y-74176983D01*
X161242521Y-74110308D01*
X161261005Y-74042928D01*
X161278815Y-74020418D01*
X161714662Y-73584572D01*
X161775983Y-73551089D01*
X161778150Y-73550638D01*
X161836085Y-73539113D01*
X161933497Y-73519737D01*
X162079179Y-73459394D01*
X162210289Y-73371789D01*
X162321789Y-73260289D01*
X162409394Y-73129179D01*
X162469737Y-72983497D01*
X162500500Y-72828842D01*
X162500500Y-72671158D01*
X162500500Y-72671155D01*
X162500499Y-72671153D01*
X162497802Y-72657595D01*
X162469737Y-72516503D01*
X162459231Y-72491139D01*
X162409397Y-72370827D01*
X162409390Y-72370814D01*
X162321789Y-72239711D01*
X162321786Y-72239707D01*
X162210292Y-72128213D01*
X162210288Y-72128210D01*
X162079185Y-72040609D01*
X162079172Y-72040602D01*
X161933501Y-71980264D01*
X161933489Y-71980261D01*
X161778845Y-71949500D01*
X161778842Y-71949500D01*
X161621158Y-71949500D01*
X161621155Y-71949500D01*
X161466510Y-71980261D01*
X161466498Y-71980264D01*
X161320827Y-72040602D01*
X161320814Y-72040609D01*
X161189711Y-72128210D01*
X161189707Y-72128213D01*
X161078213Y-72239707D01*
X161078210Y-72239711D01*
X160990609Y-72370814D01*
X160990602Y-72370827D01*
X160930264Y-72516498D01*
X160930261Y-72516508D01*
X160899361Y-72671850D01*
X160866976Y-72733761D01*
X160865425Y-72735339D01*
X160119481Y-73481282D01*
X160119480Y-73481284D01*
X160072603Y-73562479D01*
X160069361Y-73568094D01*
X160069359Y-73568096D01*
X160040425Y-73618209D01*
X160040424Y-73618210D01*
X160028281Y-73663529D01*
X159999499Y-73770943D01*
X159999499Y-73770945D01*
X159999499Y-73939046D01*
X159999500Y-73939059D01*
X159999500Y-74045234D01*
X159979815Y-74112273D01*
X159978602Y-74114125D01*
X159890609Y-74245814D01*
X159890602Y-74245827D01*
X159830264Y-74391498D01*
X159830261Y-74391510D01*
X159799500Y-74546153D01*
X157253082Y-74546153D01*
X157346850Y-74452385D01*
X159261170Y-72538065D01*
X161112027Y-70687207D01*
X162340554Y-70687207D01*
X162340554Y-70844900D01*
X162371315Y-70999543D01*
X162371318Y-70999555D01*
X162431656Y-71145226D01*
X162431663Y-71145239D01*
X162519264Y-71276342D01*
X162519267Y-71276346D01*
X162630761Y-71387840D01*
X162630765Y-71387843D01*
X162761868Y-71475444D01*
X162761881Y-71475451D01*
X162907552Y-71535789D01*
X162907557Y-71535791D01*
X163062207Y-71566553D01*
X163062210Y-71566554D01*
X163062212Y-71566554D01*
X163219898Y-71566554D01*
X163219899Y-71566553D01*
X163374551Y-71535791D01*
X163520233Y-71475448D01*
X163651343Y-71387843D01*
X163762843Y-71276343D01*
X163850448Y-71145233D01*
X163853022Y-71139020D01*
X163910789Y-70999555D01*
X163910791Y-70999551D01*
X163941554Y-70844896D01*
X163941554Y-70687212D01*
X163941554Y-70687209D01*
X163941553Y-70687207D01*
X163910791Y-70532557D01*
X163896878Y-70498968D01*
X163850451Y-70386881D01*
X163850444Y-70386868D01*
X163762843Y-70255765D01*
X163762840Y-70255761D01*
X163651346Y-70144267D01*
X163651342Y-70144264D01*
X163520239Y-70056663D01*
X163520226Y-70056656D01*
X163374555Y-69996318D01*
X163374543Y-69996315D01*
X163219899Y-69965554D01*
X163219896Y-69965554D01*
X163062212Y-69965554D01*
X163062209Y-69965554D01*
X162907564Y-69996315D01*
X162907552Y-69996318D01*
X162761881Y-70056656D01*
X162761868Y-70056663D01*
X162630765Y-70144264D01*
X162630761Y-70144267D01*
X162519267Y-70255761D01*
X162519264Y-70255765D01*
X162431663Y-70386868D01*
X162431656Y-70386881D01*
X162371318Y-70532552D01*
X162371315Y-70532564D01*
X162340554Y-70687207D01*
X161112027Y-70687207D01*
X161714662Y-70084572D01*
X161775983Y-70051089D01*
X161778150Y-70050638D01*
X161836085Y-70039113D01*
X161933497Y-70019737D01*
X162079179Y-69959394D01*
X162210289Y-69871789D01*
X162321789Y-69760289D01*
X162409394Y-69629179D01*
X162469737Y-69483497D01*
X162500500Y-69328842D01*
X162500500Y-69171158D01*
X162500500Y-69171155D01*
X162500499Y-69171153D01*
X162480326Y-69069737D01*
X162469737Y-69016503D01*
X162466791Y-69009390D01*
X162409397Y-68870827D01*
X162409390Y-68870814D01*
X162321789Y-68739711D01*
X162321786Y-68739707D01*
X162210292Y-68628213D01*
X162210288Y-68628210D01*
X162079185Y-68540609D01*
X162079172Y-68540602D01*
X161933501Y-68480264D01*
X161933489Y-68480261D01*
X161778845Y-68449500D01*
X161778842Y-68449500D01*
X161621158Y-68449500D01*
X161621155Y-68449500D01*
X161466510Y-68480261D01*
X161466498Y-68480264D01*
X161320827Y-68540602D01*
X161320814Y-68540609D01*
X161189711Y-68628210D01*
X161189707Y-68628213D01*
X161078213Y-68739707D01*
X161078210Y-68739711D01*
X160990609Y-68870814D01*
X160990602Y-68870827D01*
X160930264Y-69016498D01*
X160930261Y-69016508D01*
X160899361Y-69171850D01*
X160866976Y-69233761D01*
X160865425Y-69235339D01*
X152904905Y-77195858D01*
X152904901Y-77195863D01*
X152879870Y-77239221D01*
X152879869Y-77239223D01*
X152825847Y-77332791D01*
X152784923Y-77485519D01*
X152784923Y-77485521D01*
X152784923Y-77653622D01*
X152784924Y-77653635D01*
X152784924Y-79720235D01*
X152765239Y-79787274D01*
X152764026Y-79789126D01*
X152676033Y-79920815D01*
X152676026Y-79920828D01*
X152615688Y-80066499D01*
X152615685Y-80066511D01*
X152584924Y-80221154D01*
X152584924Y-80378847D01*
X152615685Y-80533490D01*
X152615688Y-80533502D01*
X152676026Y-80679173D01*
X152676033Y-80679186D01*
X152763634Y-80810289D01*
X152763637Y-80810293D01*
X152875131Y-80921787D01*
X152875135Y-80921790D01*
X153006238Y-81009391D01*
X153006251Y-81009398D01*
X153148238Y-81068210D01*
X153151927Y-81069738D01*
X153305702Y-81100326D01*
X153306577Y-81100500D01*
X153306580Y-81100501D01*
X153306582Y-81100501D01*
X153464268Y-81100501D01*
X153464269Y-81100500D01*
X153618921Y-81069738D01*
X153764603Y-81009395D01*
X153895713Y-80921790D01*
X154007213Y-80810290D01*
X154094818Y-80679180D01*
X154107440Y-80648705D01*
X154151278Y-80594304D01*
X154217571Y-80572237D01*
X154285271Y-80589514D01*
X154332883Y-80640650D01*
X154336562Y-80648705D01*
X154390604Y-80779176D01*
X154390609Y-80779185D01*
X154478602Y-80910874D01*
X154499480Y-80977551D01*
X154499500Y-80979765D01*
X154499500Y-83813330D01*
X154499499Y-83813348D01*
X154499499Y-83979054D01*
X154499498Y-83979054D01*
X154540423Y-84131785D01*
X154569358Y-84181900D01*
X154569359Y-84181904D01*
X154569360Y-84181904D01*
X154619479Y-84268714D01*
X154619481Y-84268717D01*
X154738349Y-84387585D01*
X154738355Y-84387590D01*
X155315139Y-84964374D01*
X155315149Y-84964385D01*
X155319479Y-84968715D01*
X155319480Y-84968716D01*
X155431284Y-85080520D01*
X155431286Y-85080521D01*
X155431290Y-85080524D01*
X155568209Y-85159573D01*
X155568216Y-85159577D01*
X155680019Y-85189534D01*
X155720942Y-85200500D01*
X155720943Y-85200500D01*
X159260234Y-85200500D01*
X159327273Y-85220185D01*
X159329125Y-85221398D01*
X159460814Y-85309390D01*
X159460827Y-85309397D01*
X159606498Y-85369735D01*
X159606503Y-85369737D01*
X159761153Y-85400499D01*
X159761156Y-85400500D01*
X159875500Y-85400500D01*
X159942539Y-85420185D01*
X159988294Y-85472989D01*
X159999500Y-85524500D01*
X159999500Y-88557008D01*
X159979815Y-88624047D01*
X159963181Y-88644689D01*
X146370411Y-102237458D01*
X146309088Y-102270943D01*
X146239396Y-102265959D01*
X146183463Y-102224087D01*
X146161114Y-102173973D01*
X146139737Y-102066503D01*
X146092812Y-101953215D01*
X146079397Y-101920827D01*
X146079390Y-101920814D01*
X145991789Y-101789711D01*
X145991786Y-101789707D01*
X145880292Y-101678213D01*
X145880288Y-101678210D01*
X145749185Y-101590609D01*
X145749172Y-101590602D01*
X145603501Y-101530264D01*
X145603489Y-101530261D01*
X145448845Y-101499500D01*
X145448842Y-101499500D01*
X145420098Y-101499500D01*
X145353059Y-101479815D01*
X145332417Y-101463181D01*
X125544573Y-81675337D01*
X125511088Y-81614014D01*
X125510637Y-81611847D01*
X125479738Y-81456510D01*
X125479737Y-81456503D01*
X125456166Y-81399597D01*
X125419397Y-81310827D01*
X125419390Y-81310814D01*
X125331789Y-81179711D01*
X125331786Y-81179707D01*
X125220292Y-81068213D01*
X125220288Y-81068210D01*
X125089185Y-80980609D01*
X125089172Y-80980602D01*
X124943501Y-80920264D01*
X124943489Y-80920261D01*
X124788845Y-80889500D01*
X124788842Y-80889500D01*
X124631158Y-80889500D01*
X124631155Y-80889500D01*
X124476510Y-80920261D01*
X124476498Y-80920264D01*
X124330827Y-80980602D01*
X124330814Y-80980609D01*
X124199711Y-81068210D01*
X124199707Y-81068213D01*
X124100381Y-81167540D01*
X124039058Y-81201025D01*
X123969366Y-81196041D01*
X123913433Y-81154169D01*
X123889016Y-81088705D01*
X123888700Y-81079859D01*
X123888700Y-76303910D01*
X123908385Y-76236871D01*
X123925019Y-76216229D01*
X124894462Y-75246786D01*
X126077541Y-74063706D01*
X126138862Y-74030223D01*
X126208554Y-74035207D01*
X126252901Y-74063708D01*
X126283066Y-74093873D01*
X126283070Y-74093876D01*
X126414173Y-74181477D01*
X126414186Y-74181484D01*
X126559857Y-74241822D01*
X126559862Y-74241824D01*
X126714512Y-74272586D01*
X126714515Y-74272587D01*
X126714517Y-74272587D01*
X126872203Y-74272587D01*
X126872204Y-74272586D01*
X127026856Y-74241824D01*
X127172538Y-74181481D01*
X127303648Y-74093876D01*
X127415148Y-73982376D01*
X127502753Y-73851266D01*
X127563096Y-73705584D01*
X127593859Y-73550929D01*
X127593859Y-73393245D01*
X127593859Y-73393242D01*
X127593858Y-73393240D01*
X127589628Y-73371976D01*
X127563096Y-73238590D01*
X127544501Y-73193697D01*
X127503429Y-73094539D01*
X127495960Y-73025070D01*
X127503429Y-72999635D01*
X127549885Y-72887479D01*
X127563096Y-72855584D01*
X127593859Y-72700929D01*
X127593859Y-72543245D01*
X127593859Y-72543242D01*
X127593858Y-72543240D01*
X127563097Y-72388597D01*
X127563096Y-72388590D01*
X127561066Y-72383689D01*
X127502756Y-72242914D01*
X127502749Y-72242901D01*
X127415148Y-72111798D01*
X127415145Y-72111794D01*
X127303651Y-72000300D01*
X127303647Y-72000297D01*
X127172544Y-71912696D01*
X127172531Y-71912689D01*
X127026860Y-71852351D01*
X127026848Y-71852348D01*
X126872204Y-71821587D01*
X126872201Y-71821587D01*
X126714517Y-71821587D01*
X126714514Y-71821587D01*
X126559869Y-71852348D01*
X126559857Y-71852351D01*
X126414186Y-71912689D01*
X126414173Y-71912696D01*
X126283070Y-72000297D01*
X126283066Y-72000300D01*
X126171569Y-72111797D01*
X126103763Y-72213278D01*
X126050151Y-72258083D01*
X126000661Y-72268387D01*
X125833430Y-72268387D01*
X125760042Y-72288050D01*
X125760042Y-72288051D01*
X125686654Y-72307715D01*
X125686652Y-72307715D01*
X125686652Y-72307716D01*
X125623011Y-72344460D01*
X125623010Y-72344460D01*
X125555062Y-72383689D01*
X125555057Y-72383693D01*
X122446607Y-75492143D01*
X122446605Y-75492146D01*
X122412215Y-75551711D01*
X122412214Y-75551710D01*
X122370627Y-75623741D01*
X122370628Y-75623742D01*
X122331300Y-75770517D01*
X122331300Y-76359822D01*
X122311615Y-76426861D01*
X122258811Y-76472616D01*
X122189653Y-76482560D01*
X122126097Y-76453535D01*
X122119619Y-76447503D01*
X119184865Y-73512749D01*
X119184863Y-73512747D01*
X119184860Y-73512745D01*
X119184856Y-73512742D01*
X119128044Y-73479941D01*
X119102364Y-73460236D01*
X119039761Y-73397633D01*
X119020055Y-73371952D01*
X119019961Y-73371789D01*
X118987253Y-73315137D01*
X118881723Y-73209607D01*
X118642530Y-72970414D01*
X118609045Y-72909091D01*
X118608594Y-72858543D01*
X118626021Y-72770934D01*
X118626021Y-72628024D01*
X118626021Y-72628021D01*
X118598141Y-72487864D01*
X118598140Y-72487860D01*
X118598140Y-72487859D01*
X118543450Y-72355826D01*
X118543449Y-72355825D01*
X118543446Y-72355819D01*
X118464053Y-72237000D01*
X118464050Y-72236996D01*
X118363003Y-72135949D01*
X118362999Y-72135946D01*
X118244180Y-72056553D01*
X118244171Y-72056548D01*
X118112141Y-72001860D01*
X118112135Y-72001858D01*
X117971978Y-71973979D01*
X117971976Y-71973979D01*
X117829066Y-71973979D01*
X117829064Y-71973979D01*
X117688906Y-72001858D01*
X117688900Y-72001860D01*
X117556870Y-72056548D01*
X117556861Y-72056553D01*
X117438042Y-72135946D01*
X117438038Y-72135949D01*
X117336991Y-72236996D01*
X117336988Y-72237000D01*
X117257595Y-72355819D01*
X117257590Y-72355828D01*
X117202901Y-72487860D01*
X117199978Y-72502556D01*
X117167591Y-72564466D01*
X117106874Y-72599038D01*
X117102556Y-72599978D01*
X117087860Y-72602901D01*
X116955828Y-72657590D01*
X116955819Y-72657595D01*
X116837000Y-72736988D01*
X116836996Y-72736991D01*
X116735949Y-72838038D01*
X116735946Y-72838042D01*
X116656553Y-72956861D01*
X116656548Y-72956870D01*
X116601860Y-73088900D01*
X116601858Y-73088906D01*
X116573979Y-73229063D01*
X116573979Y-73229066D01*
X116573979Y-73371976D01*
X116573979Y-73371978D01*
X116573978Y-73371978D01*
X116601858Y-73512135D01*
X116601860Y-73512141D01*
X116656548Y-73644171D01*
X116656553Y-73644180D01*
X116735946Y-73762999D01*
X116735949Y-73763003D01*
X116836996Y-73864050D01*
X116837000Y-73864053D01*
X116955819Y-73943446D01*
X116955825Y-73943449D01*
X116955826Y-73943450D01*
X117087859Y-73998140D01*
X117087863Y-73998140D01*
X117087864Y-73998141D01*
X117228021Y-74026021D01*
X117228024Y-74026021D01*
X117370935Y-74026021D01*
X117388325Y-74022561D01*
X117458542Y-74008594D01*
X117528132Y-74014821D01*
X117570414Y-74042530D01*
X120905580Y-77377696D01*
X120939065Y-77439019D01*
X120941899Y-77465377D01*
X120941899Y-82633854D01*
X120922214Y-82700893D01*
X120891697Y-82731961D01*
X120892227Y-82732606D01*
X120887515Y-82736472D01*
X120786470Y-82837517D01*
X120786467Y-82837521D01*
X120707074Y-82956340D01*
X120707069Y-82956349D01*
X120652381Y-83088379D01*
X120652379Y-83088385D01*
X120624500Y-83228542D01*
X120624500Y-83228545D01*
X120624500Y-83371455D01*
X120624500Y-83371457D01*
X120624499Y-83371457D01*
X120652379Y-83511614D01*
X120652381Y-83511620D01*
X120707069Y-83643650D01*
X120707074Y-83643659D01*
X120786467Y-83762478D01*
X120786470Y-83762482D01*
X120887517Y-83863529D01*
X120887521Y-83863532D01*
X121006340Y-83942925D01*
X121006349Y-83942930D01*
X121036258Y-83955318D01*
X121138380Y-83997619D01*
X121138384Y-83997619D01*
X121138385Y-83997620D01*
X121278542Y-84025500D01*
X121278545Y-84025500D01*
X121421457Y-84025500D01*
X121515751Y-84006742D01*
X121561620Y-83997619D01*
X121652549Y-83959954D01*
X121722016Y-83952486D01*
X121747447Y-83959953D01*
X121838380Y-83997619D01*
X121838384Y-83997619D01*
X121838385Y-83997620D01*
X121978542Y-84025500D01*
X121978545Y-84025500D01*
X122121456Y-84025500D01*
X122140133Y-84021784D01*
X122183108Y-84013236D01*
X122252699Y-84019463D01*
X122307877Y-84062325D01*
X122331122Y-84128214D01*
X122331300Y-84134853D01*
X122331300Y-93700690D01*
X122311615Y-93767729D01*
X122258811Y-93813484D01*
X122189653Y-93823428D01*
X122126097Y-93794403D01*
X122119619Y-93788371D01*
X117845019Y-89513771D01*
X117811534Y-89452448D01*
X117808700Y-89426090D01*
X117808700Y-78548938D01*
X117828385Y-78481899D01*
X117881189Y-78436144D01*
X117908505Y-78427321D01*
X117944018Y-78420258D01*
X118089700Y-78359915D01*
X118220810Y-78272310D01*
X118332310Y-78160810D01*
X118419915Y-78029700D01*
X118480258Y-77884018D01*
X118511021Y-77729363D01*
X118511021Y-77571679D01*
X118511021Y-77571676D01*
X118511020Y-77571674D01*
X118493883Y-77485521D01*
X118480258Y-77417024D01*
X118422933Y-77278628D01*
X118419918Y-77271348D01*
X118419911Y-77271335D01*
X118332310Y-77140232D01*
X118332307Y-77140228D01*
X118220813Y-77028734D01*
X118220809Y-77028731D01*
X118089706Y-76941130D01*
X118089693Y-76941123D01*
X117945649Y-76881459D01*
X117891245Y-76837618D01*
X117878540Y-76814350D01*
X117818876Y-76670306D01*
X117818869Y-76670293D01*
X117731268Y-76539190D01*
X117731265Y-76539186D01*
X117619771Y-76427692D01*
X117619767Y-76427689D01*
X117488664Y-76340088D01*
X117488651Y-76340081D01*
X117342980Y-76279743D01*
X117342968Y-76279740D01*
X117188324Y-76248979D01*
X117188321Y-76248979D01*
X117030637Y-76248979D01*
X117030634Y-76248979D01*
X116875989Y-76279740D01*
X116875977Y-76279743D01*
X116730306Y-76340081D01*
X116730293Y-76340088D01*
X116599190Y-76427689D01*
X116599186Y-76427692D01*
X116487692Y-76539186D01*
X116487689Y-76539190D01*
X116400088Y-76670293D01*
X116400081Y-76670306D01*
X116339743Y-76815977D01*
X116339740Y-76815989D01*
X116308979Y-76970632D01*
X116308979Y-77128325D01*
X116338876Y-77278628D01*
X116332649Y-77348220D01*
X116324646Y-77364819D01*
X116290629Y-77423737D01*
X116279801Y-77464149D01*
X116251300Y-77570517D01*
X116251300Y-81205664D01*
X116231615Y-81272703D01*
X116178811Y-81318458D01*
X116109653Y-81328402D01*
X116046097Y-81299377D01*
X116031448Y-81284330D01*
X116028532Y-81280777D01*
X115927482Y-81179727D01*
X115927478Y-81179724D01*
X115808659Y-81100331D01*
X115808650Y-81100326D01*
X115676620Y-81045638D01*
X115676614Y-81045636D01*
X115536457Y-81017757D01*
X115536455Y-81017757D01*
X115393545Y-81017757D01*
X115393543Y-81017757D01*
X115253385Y-81045636D01*
X115253379Y-81045638D01*
X115121344Y-81100328D01*
X115121343Y-81100329D01*
X115108887Y-81108652D01*
X115042209Y-81129528D01*
X114974830Y-81111041D01*
X114971113Y-81108652D01*
X114958656Y-81100329D01*
X114958655Y-81100328D01*
X114826620Y-81045638D01*
X114826614Y-81045636D01*
X114686457Y-81017757D01*
X114686455Y-81017757D01*
X114543545Y-81017757D01*
X114543543Y-81017757D01*
X114403385Y-81045636D01*
X114403379Y-81045638D01*
X114271349Y-81100326D01*
X114271340Y-81100331D01*
X114152521Y-81179724D01*
X114152517Y-81179727D01*
X114051470Y-81280774D01*
X114051467Y-81280778D01*
X113972074Y-81399597D01*
X113972069Y-81399606D01*
X113917381Y-81531636D01*
X113917379Y-81531642D01*
X113889500Y-81671799D01*
X113889500Y-81671802D01*
X113889500Y-81814712D01*
X113889500Y-81814714D01*
X113889499Y-81814714D01*
X113917379Y-81954871D01*
X113917381Y-81954877D01*
X113972069Y-82086907D01*
X113972074Y-82086916D01*
X114051467Y-82205735D01*
X114051470Y-82205739D01*
X114152518Y-82306787D01*
X114152521Y-82306789D01*
X114238190Y-82364031D01*
X114282995Y-82417643D01*
X114293299Y-82467133D01*
X114293299Y-85578576D01*
X114273614Y-85645615D01*
X114238190Y-85681678D01*
X114152521Y-85738920D01*
X114152517Y-85738923D01*
X114051470Y-85839970D01*
X114051467Y-85839974D01*
X113972074Y-85958793D01*
X113972069Y-85958802D01*
X113917381Y-86090832D01*
X113917379Y-86090838D01*
X113889500Y-86230995D01*
X113889500Y-86230998D01*
X113889500Y-86373908D01*
X113889500Y-86373910D01*
X113889499Y-86373910D01*
X113917379Y-86514067D01*
X113917381Y-86514073D01*
X113972069Y-86646103D01*
X113972074Y-86646112D01*
X114051467Y-86764931D01*
X114051470Y-86764935D01*
X114152517Y-86865982D01*
X114152521Y-86865985D01*
X114271340Y-86945378D01*
X114271346Y-86945381D01*
X114271347Y-86945382D01*
X114403380Y-87000072D01*
X114403384Y-87000072D01*
X114403385Y-87000073D01*
X114543542Y-87027953D01*
X114543545Y-87027953D01*
X114686457Y-87027953D01*
X114780751Y-87009195D01*
X114826620Y-87000072D01*
X114958653Y-86945382D01*
X114971109Y-86937059D01*
X115037783Y-86916180D01*
X115105163Y-86934662D01*
X115108852Y-86937033D01*
X115121347Y-86945382D01*
X115253380Y-87000072D01*
X115253384Y-87000072D01*
X115253385Y-87000073D01*
X115393542Y-87027953D01*
X115393545Y-87027953D01*
X115536457Y-87027953D01*
X115630751Y-87009195D01*
X115676620Y-87000072D01*
X115808653Y-86945382D01*
X115927479Y-86865985D01*
X116028532Y-86764932D01*
X116028534Y-86764928D01*
X116031443Y-86761385D01*
X116089187Y-86722048D01*
X116159032Y-86720174D01*
X116218802Y-86756358D01*
X116249520Y-86819113D01*
X116251300Y-86840045D01*
X116251300Y-89807529D01*
X116251300Y-89959483D01*
X116256579Y-89979185D01*
X116279714Y-90065527D01*
X116278051Y-90135377D01*
X116247620Y-90185301D01*
X116163213Y-90269707D01*
X116163210Y-90269711D01*
X116075609Y-90400814D01*
X116075602Y-90400827D01*
X116015264Y-90546498D01*
X116015261Y-90546508D01*
X115984361Y-90701850D01*
X115951976Y-90763761D01*
X115950425Y-90765339D01*
X115032584Y-91683181D01*
X114971261Y-91716666D01*
X114944903Y-91719500D01*
X108589278Y-91719500D01*
X108522239Y-91699815D01*
X108520387Y-91698602D01*
X108388697Y-91610609D01*
X108388684Y-91610602D01*
X108243013Y-91550264D01*
X108243001Y-91550261D01*
X108088357Y-91519500D01*
X108088354Y-91519500D01*
X107930670Y-91519500D01*
X107930667Y-91519500D01*
X107776022Y-91550261D01*
X107776010Y-91550264D01*
X107630339Y-91610602D01*
X107630326Y-91610609D01*
X107499223Y-91698210D01*
X107499219Y-91698213D01*
X107387725Y-91809707D01*
X107387722Y-91809711D01*
X107300121Y-91940814D01*
X107300114Y-91940827D01*
X107239776Y-92086498D01*
X107239773Y-92086510D01*
X107209012Y-92241153D01*
X106401861Y-92241153D01*
X106424037Y-92187614D01*
X106424037Y-92187613D01*
X106454737Y-92113497D01*
X106485500Y-91958842D01*
X106485500Y-91801158D01*
X106485500Y-91801155D01*
X106485499Y-91801153D01*
X106465022Y-91698210D01*
X106454737Y-91646503D01*
X106441512Y-91614574D01*
X106394397Y-91500827D01*
X106394390Y-91500814D01*
X106306789Y-91369711D01*
X106306786Y-91369707D01*
X106195292Y-91258213D01*
X106195288Y-91258210D01*
X106064185Y-91170609D01*
X106064172Y-91170602D01*
X105918501Y-91110264D01*
X105918489Y-91110261D01*
X105763845Y-91079500D01*
X105763842Y-91079500D01*
X105606158Y-91079500D01*
X105606155Y-91079500D01*
X105451510Y-91110261D01*
X105451498Y-91110264D01*
X105305827Y-91170602D01*
X105305814Y-91170609D01*
X105174711Y-91258210D01*
X105174707Y-91258213D01*
X105063213Y-91369707D01*
X105063210Y-91369711D01*
X104975609Y-91500814D01*
X104975602Y-91500827D01*
X104915264Y-91646498D01*
X104915261Y-91646510D01*
X104884500Y-91801153D01*
X104884500Y-91958846D01*
X104915261Y-92113489D01*
X104915264Y-92113501D01*
X104975602Y-92259172D01*
X104975609Y-92259185D01*
X105063602Y-92390874D01*
X105084480Y-92457551D01*
X105084500Y-92459765D01*
X105084500Y-92736098D01*
X105075855Y-92765538D01*
X105069332Y-92795525D01*
X105065577Y-92800540D01*
X105064815Y-92803137D01*
X105048181Y-92823779D01*
X104897181Y-92974779D01*
X104835858Y-93008264D01*
X104766166Y-93003280D01*
X104710233Y-92961408D01*
X104685816Y-92895944D01*
X104685500Y-92887098D01*
X104685500Y-92801155D01*
X104685499Y-92801153D01*
X104685373Y-92800519D01*
X104654737Y-92646503D01*
X104616210Y-92553489D01*
X104594397Y-92500827D01*
X104594390Y-92500814D01*
X104506789Y-92369711D01*
X104506786Y-92369707D01*
X104395292Y-92258213D01*
X104395288Y-92258210D01*
X104264185Y-92170609D01*
X104264172Y-92170602D01*
X104118501Y-92110264D01*
X104118489Y-92110261D01*
X103963845Y-92079500D01*
X103963842Y-92079500D01*
X103806158Y-92079500D01*
X103806155Y-92079500D01*
X103651510Y-92110261D01*
X103651498Y-92110264D01*
X103505827Y-92170602D01*
X103505814Y-92170609D01*
X103374711Y-92258210D01*
X103374707Y-92258213D01*
X103263213Y-92369707D01*
X103263210Y-92369711D01*
X103175609Y-92500814D01*
X103175602Y-92500827D01*
X103115264Y-92646498D01*
X103115261Y-92646510D01*
X103084500Y-92801153D01*
X103084500Y-92958846D01*
X103115261Y-93113489D01*
X103115264Y-93113501D01*
X103175602Y-93259172D01*
X103175609Y-93259185D01*
X103263210Y-93390288D01*
X103263213Y-93390292D01*
X103374707Y-93501786D01*
X103374711Y-93501789D01*
X103460183Y-93558900D01*
X103473692Y-93575065D01*
X103490559Y-93587691D01*
X103495648Y-93601336D01*
X103504988Y-93612512D01*
X103507613Y-93633415D01*
X103514976Y-93653155D01*
X103511880Y-93667387D01*
X103513695Y-93681837D01*
X103504603Y-93700840D01*
X103500125Y-93721428D01*
X103485241Y-93741310D01*
X103483541Y-93744865D01*
X103478974Y-93749683D01*
X103416286Y-93812371D01*
X103416285Y-93812371D01*
X103416284Y-93812372D01*
X103304481Y-93924175D01*
X103304479Y-93924178D01*
X103254361Y-94010987D01*
X103254359Y-94010989D01*
X103225425Y-94061102D01*
X103225424Y-94061103D01*
X103225423Y-94061108D01*
X103184499Y-94213836D01*
X103184499Y-94213838D01*
X103184499Y-94381939D01*
X103184500Y-94381952D01*
X103184500Y-94620437D01*
X103184499Y-94620455D01*
X103184499Y-94651070D01*
X103164814Y-94718109D01*
X103112010Y-94763864D01*
X103042852Y-94773808D01*
X102979296Y-94744783D01*
X102945938Y-94698523D01*
X102891953Y-94568191D01*
X102891948Y-94568182D01*
X102815291Y-94453458D01*
X102815288Y-94453454D01*
X102717722Y-94355888D01*
X102717718Y-94355885D01*
X102602994Y-94279228D01*
X102602981Y-94279221D01*
X102475509Y-94226421D01*
X102475499Y-94226418D01*
X102340172Y-94199500D01*
X102340170Y-94199500D01*
X102202184Y-94199500D01*
X102202182Y-94199500D01*
X102066854Y-94226418D01*
X102066844Y-94226421D01*
X101939372Y-94279221D01*
X101939359Y-94279228D01*
X101824635Y-94355885D01*
X101824631Y-94355888D01*
X101727065Y-94453454D01*
X101727062Y-94453458D01*
X101650405Y-94568182D01*
X101650398Y-94568195D01*
X101597594Y-94695676D01*
X101596814Y-94698250D01*
X101595891Y-94699789D01*
X101595266Y-94701299D01*
X101595041Y-94701206D01*
X101589390Y-94710634D01*
X101586990Y-94721670D01*
X101565839Y-94749924D01*
X101516287Y-94799477D01*
X101516286Y-94799478D01*
X101404481Y-94911282D01*
X101404480Y-94911284D01*
X101371162Y-94968993D01*
X101335089Y-95031471D01*
X101329391Y-95041343D01*
X101325423Y-95048215D01*
X101284499Y-95200943D01*
X101284499Y-95200945D01*
X101284499Y-95369046D01*
X101284500Y-95369059D01*
X101284500Y-99655500D01*
X101264815Y-99722539D01*
X101212011Y-99768294D01*
X101160500Y-99779500D01*
X101006155Y-99779500D01*
X100851510Y-99810261D01*
X100851498Y-99810264D01*
X100705827Y-99870602D01*
X100705814Y-99870609D01*
X100574711Y-99958210D01*
X100574707Y-99958213D01*
X100463213Y-100069707D01*
X100463210Y-100069711D01*
X100375609Y-100200814D01*
X100375602Y-100200827D01*
X100315264Y-100346498D01*
X100315261Y-100346510D01*
X100284500Y-100501153D01*
X100284500Y-100658846D01*
X100315261Y-100813489D01*
X100315264Y-100813501D01*
X100375602Y-100959172D01*
X100375609Y-100959185D01*
X100463210Y-101090288D01*
X100463213Y-101090292D01*
X100574707Y-101201786D01*
X100574711Y-101201789D01*
X100631473Y-101239717D01*
X100676278Y-101293330D01*
X100684985Y-101362655D01*
X100654830Y-101425682D01*
X100650263Y-101430500D01*
X100376286Y-101704478D01*
X100264481Y-101816282D01*
X100264480Y-101816284D01*
X100224616Y-101885331D01*
X100185423Y-101953215D01*
X100144499Y-102105943D01*
X100144499Y-102105945D01*
X100144499Y-102274046D01*
X100144500Y-102274059D01*
X100144500Y-110529827D01*
X100144499Y-110529845D01*
X100144499Y-110695551D01*
X100144498Y-110695551D01*
X100144499Y-110695554D01*
X100185423Y-110848282D01*
X100185424Y-110848284D01*
X100185423Y-110848284D01*
X100198262Y-110870520D01*
X100198263Y-110870522D01*
X100264475Y-110985206D01*
X100264481Y-110985214D01*
X100383349Y-111104082D01*
X100383355Y-111104087D01*
X100983355Y-111704087D01*
X101016840Y-111765410D01*
X101011856Y-111835102D01*
X100969984Y-111891035D01*
X100968560Y-111892085D01*
X100880360Y-111956167D01*
X100880351Y-111956174D01*
X100741174Y-112095351D01*
X100741167Y-112095360D01*
X100668444Y-112195453D01*
X100613114Y-112238119D01*
X100543501Y-112244097D01*
X100506127Y-112229954D01*
X100310669Y-112117106D01*
X100310659Y-112117102D01*
X100098730Y-112029318D01*
X99877137Y-111969942D01*
X99649710Y-111940001D01*
X99649694Y-111940000D01*
X99420306Y-111940000D01*
X99420289Y-111940001D01*
X99192862Y-111969942D01*
X98971269Y-112029318D01*
X98759340Y-112117102D01*
X98759330Y-112117106D01*
X98560673Y-112231801D01*
X98560659Y-112231810D01*
X98486934Y-112288380D01*
X98486934Y-112288381D01*
X99134438Y-112935885D01*
X99132374Y-112936740D01*
X98993156Y-113029762D01*
X98874762Y-113148156D01*
X98781740Y-113287374D01*
X98780884Y-113289438D01*
X98133380Y-112641934D01*
X98076810Y-112715659D01*
X98076801Y-112715673D01*
X97962106Y-112914330D01*
X97962102Y-112914340D01*
X97874318Y-113126269D01*
X97814942Y-113347862D01*
X97785001Y-113575289D01*
X97785000Y-113575305D01*
X88800500Y-113575305D01*
X88800500Y-89521153D01*
X105799500Y-89521153D01*
X105799500Y-89678846D01*
X105830261Y-89833489D01*
X105830264Y-89833501D01*
X105890602Y-89979172D01*
X105890609Y-89979185D01*
X105978210Y-90110288D01*
X105978213Y-90110292D01*
X106089707Y-90221786D01*
X106089711Y-90221789D01*
X106220814Y-90309390D01*
X106220827Y-90309397D01*
X106366498Y-90369735D01*
X106366503Y-90369737D01*
X106521153Y-90400499D01*
X106521156Y-90400500D01*
X106521158Y-90400500D01*
X106678844Y-90400500D01*
X106678845Y-90400499D01*
X106833497Y-90369737D01*
X106979179Y-90309394D01*
X107110289Y-90221789D01*
X107221789Y-90110289D01*
X107309394Y-89979179D01*
X107369737Y-89833497D01*
X107400500Y-89678842D01*
X107400500Y-89521158D01*
X107400500Y-89521155D01*
X107400499Y-89521153D01*
X107391806Y-89477452D01*
X107369737Y-89366503D01*
X107344477Y-89305520D01*
X107309397Y-89220827D01*
X107309390Y-89220814D01*
X107221789Y-89089711D01*
X107221786Y-89089707D01*
X107110292Y-88978213D01*
X107110288Y-88978210D01*
X106979185Y-88890609D01*
X106979172Y-88890602D01*
X106833501Y-88830264D01*
X106833489Y-88830261D01*
X106678845Y-88799500D01*
X106678842Y-88799500D01*
X106521158Y-88799500D01*
X106521155Y-88799500D01*
X106366510Y-88830261D01*
X106366498Y-88830264D01*
X106220827Y-88890602D01*
X106220814Y-88890609D01*
X106089711Y-88978210D01*
X106089707Y-88978213D01*
X105978213Y-89089707D01*
X105978210Y-89089711D01*
X105890609Y-89220814D01*
X105890602Y-89220827D01*
X105830264Y-89366498D01*
X105830261Y-89366510D01*
X105799500Y-89521153D01*
X88800500Y-89521153D01*
X88800500Y-70011304D01*
X106474500Y-70011304D01*
X106474500Y-70188695D01*
X106509103Y-70362658D01*
X106509106Y-70362667D01*
X106576983Y-70526540D01*
X106576990Y-70526553D01*
X106675535Y-70674034D01*
X106675538Y-70674038D01*
X106800961Y-70799461D01*
X106800965Y-70799464D01*
X106948446Y-70898009D01*
X106948459Y-70898016D01*
X107071363Y-70948923D01*
X107112334Y-70965894D01*
X107112336Y-70965894D01*
X107112341Y-70965896D01*
X107286304Y-71000499D01*
X107286307Y-71000500D01*
X107286309Y-71000500D01*
X107463693Y-71000500D01*
X107463694Y-71000499D01*
X107521682Y-70988964D01*
X107637658Y-70965896D01*
X107637661Y-70965894D01*
X107637666Y-70965894D01*
X107659266Y-70956947D01*
X111650000Y-70956947D01*
X111650000Y-71193052D01*
X111686934Y-71426247D01*
X111759897Y-71650802D01*
X111867087Y-71861174D01*
X111927338Y-71944104D01*
X111927340Y-71944105D01*
X112548949Y-71322496D01*
X112573968Y-71382896D01*
X112645104Y-71489358D01*
X112735642Y-71579896D01*
X112842104Y-71651032D01*
X112902503Y-71676049D01*
X112280893Y-72297658D01*
X112363828Y-72357914D01*
X112574197Y-72465102D01*
X112798752Y-72538065D01*
X112798751Y-72538065D01*
X113031948Y-72575000D01*
X113268052Y-72575000D01*
X113501247Y-72538065D01*
X113725802Y-72465102D01*
X113936163Y-72357918D01*
X113936169Y-72357914D01*
X114019104Y-72297658D01*
X114019105Y-72297658D01*
X113397496Y-71676050D01*
X113457896Y-71651032D01*
X113564358Y-71579896D01*
X113654896Y-71489358D01*
X113726032Y-71382896D01*
X113751049Y-71322496D01*
X114372658Y-71944105D01*
X114372658Y-71944104D01*
X114432914Y-71861169D01*
X114432918Y-71861163D01*
X114540102Y-71650802D01*
X114613065Y-71426247D01*
X114650000Y-71193052D01*
X114650000Y-70956947D01*
X114613065Y-70723752D01*
X114540102Y-70499197D01*
X114432914Y-70288828D01*
X114372658Y-70205894D01*
X114372658Y-70205893D01*
X113751049Y-70827502D01*
X113726032Y-70767104D01*
X113654896Y-70660642D01*
X113564358Y-70570104D01*
X113457896Y-70498968D01*
X113397496Y-70473949D01*
X114019105Y-69852340D01*
X114019104Y-69852338D01*
X113936174Y-69792087D01*
X113725802Y-69684897D01*
X113501247Y-69611934D01*
X113501248Y-69611934D01*
X113268052Y-69575000D01*
X113031948Y-69575000D01*
X112798752Y-69611934D01*
X112574197Y-69684897D01*
X112363830Y-69792084D01*
X112280894Y-69852340D01*
X112902503Y-70473949D01*
X112842104Y-70498968D01*
X112735642Y-70570104D01*
X112645104Y-70660642D01*
X112573968Y-70767104D01*
X112548949Y-70827503D01*
X111927340Y-70205894D01*
X111867084Y-70288830D01*
X111759897Y-70499197D01*
X111686934Y-70723752D01*
X111650000Y-70956947D01*
X107659266Y-70956947D01*
X107801547Y-70898013D01*
X107820425Y-70885399D01*
X107874941Y-70848973D01*
X107911070Y-70824831D01*
X107949035Y-70799464D01*
X108074464Y-70674035D01*
X108173013Y-70526547D01*
X108240894Y-70362666D01*
X108255582Y-70288828D01*
X108275499Y-70188695D01*
X108275500Y-70188693D01*
X108275500Y-70011306D01*
X108275499Y-70011304D01*
X108258092Y-69923790D01*
X108243879Y-69852340D01*
X108240894Y-69837334D01*
X108208981Y-69760288D01*
X108173016Y-69673459D01*
X108173009Y-69673446D01*
X108074464Y-69525965D01*
X108074461Y-69525961D01*
X107949038Y-69400538D01*
X107949034Y-69400535D01*
X107801553Y-69301990D01*
X107801540Y-69301983D01*
X107637667Y-69234106D01*
X107637658Y-69234103D01*
X107463694Y-69199500D01*
X107463691Y-69199500D01*
X107286309Y-69199500D01*
X107286306Y-69199500D01*
X107112341Y-69234103D01*
X107112332Y-69234106D01*
X106948459Y-69301983D01*
X106948446Y-69301990D01*
X106800965Y-69400535D01*
X106800961Y-69400538D01*
X106675538Y-69525961D01*
X106675535Y-69525965D01*
X106576990Y-69673446D01*
X106576983Y-69673459D01*
X106509106Y-69837332D01*
X106509103Y-69837341D01*
X106474500Y-70011304D01*
X88800500Y-70011304D01*
X88800500Y-65593753D01*
X91585000Y-65593753D01*
X91585000Y-65806246D01*
X91618242Y-66016127D01*
X91618242Y-66016130D01*
X91683904Y-66218217D01*
X91780375Y-66407550D01*
X91819728Y-66461716D01*
X92452037Y-65829408D01*
X92469075Y-65892993D01*
X92534901Y-66007007D01*
X92627993Y-66100099D01*
X92742007Y-66165925D01*
X92805590Y-66182962D01*
X92173282Y-66815269D01*
X92173282Y-66815270D01*
X92227449Y-66854624D01*
X92416782Y-66951095D01*
X92618870Y-67016757D01*
X92828754Y-67050000D01*
X93041246Y-67050000D01*
X93251127Y-67016757D01*
X93251130Y-67016757D01*
X93453217Y-66951095D01*
X93642554Y-66854622D01*
X93696716Y-66815270D01*
X93696717Y-66815270D01*
X93064408Y-66182962D01*
X93127993Y-66165925D01*
X93242007Y-66100099D01*
X93335099Y-66007007D01*
X93400925Y-65892993D01*
X93417962Y-65829409D01*
X94088181Y-66499628D01*
X94121666Y-66560951D01*
X94124500Y-66587300D01*
X94124500Y-66597865D01*
X94124501Y-66597876D01*
X94130908Y-66657483D01*
X94181202Y-66792328D01*
X94181206Y-66792335D01*
X94267452Y-66907544D01*
X94267455Y-66907547D01*
X94382664Y-66993793D01*
X94382671Y-66993797D01*
X94517517Y-67044091D01*
X94517516Y-67044091D01*
X94524444Y-67044835D01*
X94577127Y-67050500D01*
X96372872Y-67050499D01*
X96432483Y-67044091D01*
X96567331Y-66993796D01*
X96682546Y-66907546D01*
X96768796Y-66792331D01*
X96819091Y-66657483D01*
X96825500Y-66597873D01*
X96825500Y-66424500D01*
X96845185Y-66357461D01*
X96897989Y-66311706D01*
X96949500Y-66300500D01*
X99089241Y-66300500D01*
X99156280Y-66320185D01*
X99202035Y-66372989D01*
X99211979Y-66442147D01*
X99192343Y-66493391D01*
X99140609Y-66570815D01*
X99140602Y-66570827D01*
X99080264Y-66716498D01*
X99080261Y-66716510D01*
X99049500Y-66871153D01*
X99049500Y-67028846D01*
X99080261Y-67183489D01*
X99080264Y-67183501D01*
X99140602Y-67329172D01*
X99140609Y-67329185D01*
X99228210Y-67460288D01*
X99228213Y-67460292D01*
X99339707Y-67571786D01*
X99339711Y-67571789D01*
X99470814Y-67659390D01*
X99470827Y-67659397D01*
X99567646Y-67699500D01*
X99616503Y-67719737D01*
X99771153Y-67750499D01*
X99771156Y-67750500D01*
X99771158Y-67750500D01*
X99928844Y-67750500D01*
X99928845Y-67750499D01*
X100083497Y-67719737D01*
X100229179Y-67659394D01*
X100258210Y-67639996D01*
X100360875Y-67571398D01*
X100427553Y-67550520D01*
X100429766Y-67550500D01*
X104263331Y-67550500D01*
X104263347Y-67550501D01*
X104270943Y-67550501D01*
X104429054Y-67550501D01*
X104429057Y-67550501D01*
X104581785Y-67509577D01*
X104631904Y-67480639D01*
X104718716Y-67430520D01*
X104830520Y-67318716D01*
X104830520Y-67318714D01*
X104840728Y-67308507D01*
X104840729Y-67308504D01*
X108158254Y-63990980D01*
X108219575Y-63957497D01*
X108289267Y-63962481D01*
X108345200Y-64004353D01*
X108368406Y-64059265D01*
X108386934Y-64176247D01*
X108459897Y-64400802D01*
X108567087Y-64611174D01*
X108627338Y-64694104D01*
X108627340Y-64694105D01*
X109248949Y-64072495D01*
X109273968Y-64132896D01*
X109345104Y-64239358D01*
X109435642Y-64329896D01*
X109542104Y-64401032D01*
X109602503Y-64426049D01*
X108980893Y-65047658D01*
X109063828Y-65107914D01*
X109274197Y-65215102D01*
X109498752Y-65288065D01*
X109498751Y-65288065D01*
X109731948Y-65325000D01*
X109968052Y-65325000D01*
X110201247Y-65288065D01*
X110425802Y-65215102D01*
X110636163Y-65107918D01*
X110636169Y-65107914D01*
X110719104Y-65047658D01*
X110719105Y-65047658D01*
X110097496Y-64426050D01*
X110157896Y-64401032D01*
X110264358Y-64329896D01*
X110354896Y-64239358D01*
X110426032Y-64132896D01*
X110451049Y-64072496D01*
X111072658Y-64694105D01*
X111072658Y-64694104D01*
X111132914Y-64611169D01*
X111132918Y-64611163D01*
X111240102Y-64400802D01*
X111313065Y-64176247D01*
X111350000Y-63943052D01*
X111350000Y-63706947D01*
X111313065Y-63473752D01*
X111240102Y-63249197D01*
X111132914Y-63038828D01*
X111072658Y-62955894D01*
X111072658Y-62955893D01*
X110451049Y-63577502D01*
X110426032Y-63517104D01*
X110354896Y-63410642D01*
X110264358Y-63320104D01*
X110157896Y-63248968D01*
X110097495Y-63223949D01*
X110719105Y-62602340D01*
X110719104Y-62602338D01*
X110636174Y-62542087D01*
X110425802Y-62434897D01*
X110201247Y-62361934D01*
X110084266Y-62343406D01*
X110021131Y-62313477D01*
X109984200Y-62254165D01*
X109985198Y-62184303D01*
X110015981Y-62133254D01*
X110212417Y-61936819D01*
X110273740Y-61903334D01*
X110300098Y-61900500D01*
X120802044Y-61900500D01*
X120869083Y-61920185D01*
X120914838Y-61972989D01*
X120923661Y-62000309D01*
X120930261Y-62033489D01*
X120930264Y-62033501D01*
X120990602Y-62179172D01*
X120990609Y-62179185D01*
X121078210Y-62310288D01*
X121078213Y-62310292D01*
X121189707Y-62421786D01*
X121189711Y-62421789D01*
X121320814Y-62509390D01*
X121320827Y-62509397D01*
X121399749Y-62542087D01*
X121466503Y-62569737D01*
X121531147Y-62582595D01*
X121621849Y-62600638D01*
X121638605Y-62609402D01*
X121657085Y-62613423D01*
X121682123Y-62632167D01*
X121683760Y-62633023D01*
X121685339Y-62634574D01*
X121688181Y-62637416D01*
X121721666Y-62698739D01*
X121724500Y-62725097D01*
X121724500Y-65675902D01*
X121704815Y-65742941D01*
X121652011Y-65788696D01*
X121582853Y-65798640D01*
X121519297Y-65769615D01*
X121512819Y-65763583D01*
X119704573Y-63955337D01*
X119671088Y-63894014D01*
X119670637Y-63891847D01*
X119657340Y-63824999D01*
X119639737Y-63736503D01*
X119633241Y-63720821D01*
X119579397Y-63590827D01*
X119579390Y-63590814D01*
X119491789Y-63459711D01*
X119491786Y-63459707D01*
X119380292Y-63348213D01*
X119380288Y-63348210D01*
X119249185Y-63260609D01*
X119249172Y-63260602D01*
X119103501Y-63200264D01*
X119103489Y-63200261D01*
X118948845Y-63169500D01*
X118948842Y-63169500D01*
X118791158Y-63169500D01*
X118791155Y-63169500D01*
X118636510Y-63200261D01*
X118636498Y-63200264D01*
X118490827Y-63260602D01*
X118490814Y-63260609D01*
X118359711Y-63348210D01*
X118359707Y-63348213D01*
X118248213Y-63459707D01*
X118248210Y-63459711D01*
X118160609Y-63590814D01*
X118160602Y-63590827D01*
X118100264Y-63736498D01*
X118100261Y-63736510D01*
X118069500Y-63891153D01*
X118069500Y-64048846D01*
X118100261Y-64203489D01*
X118100264Y-64203501D01*
X118160602Y-64349172D01*
X118160609Y-64349185D01*
X118248210Y-64480288D01*
X118248213Y-64480292D01*
X118359707Y-64591786D01*
X118359711Y-64591789D01*
X118490814Y-64679390D01*
X118490827Y-64679397D01*
X118593165Y-64721786D01*
X118636503Y-64739737D01*
X118701147Y-64752595D01*
X118791849Y-64770638D01*
X118853760Y-64803023D01*
X118855339Y-64804574D01*
X121163181Y-67112416D01*
X121196666Y-67173739D01*
X121199500Y-67200097D01*
X121199500Y-72626506D01*
X121199499Y-72626524D01*
X121199499Y-72792230D01*
X121199498Y-72792230D01*
X121231349Y-72911099D01*
X121240423Y-72944961D01*
X121258594Y-72976434D01*
X121258595Y-72976436D01*
X121258596Y-72976436D01*
X121319480Y-73081892D01*
X121431284Y-73193696D01*
X121431285Y-73193697D01*
X121447705Y-73210117D01*
X121447706Y-73210118D01*
X121447707Y-73210119D01*
X121454726Y-73222974D01*
X121481191Y-73271438D01*
X121481643Y-73273608D01*
X121489203Y-73311614D01*
X121489204Y-73311618D01*
X121543893Y-73443650D01*
X121543898Y-73443659D01*
X121623291Y-73562478D01*
X121623294Y-73562482D01*
X121724341Y-73663529D01*
X121724345Y-73663532D01*
X121843164Y-73742925D01*
X121843170Y-73742928D01*
X121843171Y-73742929D01*
X121975204Y-73797619D01*
X121975208Y-73797619D01*
X121975209Y-73797620D01*
X122115366Y-73825500D01*
X122115369Y-73825500D01*
X122258281Y-73825500D01*
X122352575Y-73806742D01*
X122398444Y-73797619D01*
X122530477Y-73742929D01*
X122649303Y-73663532D01*
X122750356Y-73562479D01*
X122829753Y-73443653D01*
X122884443Y-73311620D01*
X122894654Y-73260288D01*
X122912324Y-73171457D01*
X122912324Y-73028543D01*
X122895263Y-72942779D01*
X122901490Y-72873187D01*
X122913773Y-72849701D01*
X122967929Y-72768653D01*
X123022619Y-72636620D01*
X123041193Y-72543245D01*
X123050500Y-72496457D01*
X123050500Y-72353542D01*
X123022620Y-72213385D01*
X123022619Y-72213384D01*
X123022619Y-72213380D01*
X122967929Y-72081347D01*
X122946396Y-72049121D01*
X122925520Y-71982444D01*
X122925500Y-71980232D01*
X122925500Y-62345942D01*
X122921706Y-62331784D01*
X122921705Y-62331781D01*
X122914534Y-62305019D01*
X122884576Y-62193214D01*
X122884575Y-62193213D01*
X122876280Y-62178846D01*
X122822964Y-62086499D01*
X122806492Y-62018599D01*
X122829345Y-61952573D01*
X122884266Y-61909382D01*
X122930352Y-61900500D01*
X139799903Y-61900500D01*
X139866942Y-61920185D01*
X139887584Y-61936819D01*
X146615139Y-68664374D01*
X146615149Y-68664385D01*
X146619479Y-68668715D01*
X146619480Y-68668716D01*
X146731284Y-68780520D01*
X146782845Y-68810288D01*
X146818095Y-68830639D01*
X146818097Y-68830641D01*
X146856151Y-68852611D01*
X146868215Y-68859577D01*
X147020943Y-68900501D01*
X147020946Y-68900501D01*
X147186653Y-68900501D01*
X147186669Y-68900500D01*
X151320234Y-68900500D01*
X151387273Y-68920185D01*
X151389125Y-68921398D01*
X151520814Y-69009390D01*
X151520827Y-69009397D01*
X151666498Y-69069735D01*
X151666503Y-69069737D01*
X151821153Y-69100499D01*
X151821156Y-69100500D01*
X151821158Y-69100500D01*
X151978844Y-69100500D01*
X151978845Y-69100499D01*
X152133497Y-69069737D01*
X152279179Y-69009394D01*
X152410289Y-68921789D01*
X152521789Y-68810289D01*
X152609394Y-68679179D01*
X152615522Y-68664385D01*
X152641343Y-68602048D01*
X152685184Y-68547644D01*
X152751478Y-68525579D01*
X152755904Y-68525500D01*
X152878844Y-68525500D01*
X152878845Y-68525499D01*
X153033497Y-68494737D01*
X153179179Y-68434394D01*
X153310289Y-68346789D01*
X153421789Y-68235289D01*
X153509394Y-68104179D01*
X153569737Y-67958497D01*
X153600500Y-67803842D01*
X153600500Y-67646158D01*
X153600385Y-67645579D01*
X153600412Y-67645269D01*
X153599903Y-67640093D01*
X153600884Y-67639996D01*
X153606614Y-67575988D01*
X153649477Y-67520812D01*
X153653083Y-67518307D01*
X153685289Y-67496789D01*
X153796789Y-67385289D01*
X153884394Y-67254179D01*
X153944737Y-67108497D01*
X153975500Y-66953842D01*
X153975500Y-66953835D01*
X153976097Y-66947782D01*
X153978130Y-66947982D01*
X153995185Y-66889902D01*
X154047989Y-66844147D01*
X154117147Y-66834203D01*
X154180703Y-66863228D01*
X154187181Y-66869260D01*
X154189707Y-66871786D01*
X154189711Y-66871789D01*
X154320814Y-66959390D01*
X154320827Y-66959397D01*
X154466498Y-67019735D01*
X154466503Y-67019737D01*
X154588938Y-67044091D01*
X154621153Y-67050499D01*
X154621156Y-67050500D01*
X154621158Y-67050500D01*
X154778844Y-67050500D01*
X154778845Y-67050499D01*
X154933497Y-67019737D01*
X155077714Y-66960001D01*
X155079172Y-66959397D01*
X155079172Y-66959396D01*
X155079179Y-66959394D01*
X155210289Y-66871789D01*
X155321789Y-66760289D01*
X155409394Y-66629179D01*
X155469737Y-66483497D01*
X155471211Y-66476085D01*
X155503590Y-66414174D01*
X155564303Y-66379596D01*
X155634073Y-66383330D01*
X155680510Y-66412589D01*
X155789707Y-66521786D01*
X155789711Y-66521789D01*
X155920814Y-66609390D01*
X155920827Y-66609397D01*
X156036919Y-66657483D01*
X156066503Y-66669737D01*
X156221153Y-66700499D01*
X156221156Y-66700500D01*
X156221158Y-66700500D01*
X156378844Y-66700500D01*
X156378845Y-66700499D01*
X156533497Y-66669737D01*
X156679179Y-66609394D01*
X156810289Y-66521789D01*
X156921789Y-66410289D01*
X157009394Y-66279179D01*
X157069737Y-66133497D01*
X157100500Y-65978842D01*
X157100500Y-65821158D01*
X157100500Y-65821155D01*
X157100499Y-65821153D01*
X157090247Y-65769615D01*
X157069737Y-65666503D01*
X157053876Y-65628210D01*
X157009397Y-65520827D01*
X157009390Y-65520814D01*
X156921789Y-65389711D01*
X156921786Y-65389707D01*
X156810292Y-65278213D01*
X156810288Y-65278210D01*
X156679185Y-65190609D01*
X156679172Y-65190602D01*
X156533501Y-65130264D01*
X156533489Y-65130261D01*
X156378845Y-65099500D01*
X156378842Y-65099500D01*
X156302190Y-65099500D01*
X156235151Y-65079815D01*
X156189396Y-65027011D01*
X156179452Y-64957853D01*
X156208477Y-64894297D01*
X156254738Y-64860939D01*
X156379172Y-64809397D01*
X156379172Y-64809396D01*
X156379179Y-64809394D01*
X156510289Y-64721789D01*
X156621789Y-64610289D01*
X156709394Y-64479179D01*
X156711121Y-64475011D01*
X156729655Y-64430264D01*
X156769737Y-64333497D01*
X156800500Y-64178842D01*
X156800500Y-64021158D01*
X156800500Y-64021155D01*
X156800499Y-64021153D01*
X156797157Y-64004353D01*
X156769737Y-63866503D01*
X156769735Y-63866498D01*
X156709397Y-63720827D01*
X156709390Y-63720814D01*
X156621789Y-63589711D01*
X156621786Y-63589707D01*
X156510292Y-63478213D01*
X156510288Y-63478210D01*
X156379185Y-63390609D01*
X156379172Y-63390602D01*
X156233501Y-63330264D01*
X156233491Y-63330261D01*
X156078149Y-63299361D01*
X156016238Y-63266976D01*
X156014660Y-63265425D01*
X154487590Y-61738355D01*
X154487588Y-61738352D01*
X154368717Y-61619481D01*
X154368716Y-61619480D01*
X154264960Y-61559577D01*
X154264959Y-61559576D01*
X154231783Y-61540422D01*
X154175881Y-61525443D01*
X154079057Y-61499499D01*
X153920943Y-61499499D01*
X153913347Y-61499499D01*
X153913331Y-61499500D01*
X152179766Y-61499500D01*
X152112727Y-61479815D01*
X152110875Y-61478602D01*
X151979185Y-61390609D01*
X151979172Y-61390602D01*
X151833501Y-61330264D01*
X151833489Y-61330261D01*
X151678845Y-61299500D01*
X151678842Y-61299500D01*
X151521158Y-61299500D01*
X151521155Y-61299500D01*
X151366510Y-61330261D01*
X151366498Y-61330264D01*
X151220827Y-61390602D01*
X151220814Y-61390609D01*
X151089711Y-61478210D01*
X151089707Y-61478213D01*
X150978213Y-61589707D01*
X150978210Y-61589711D01*
X150890609Y-61720814D01*
X150890602Y-61720827D01*
X150830264Y-61866498D01*
X150830261Y-61866510D01*
X150799500Y-62021153D01*
X150799500Y-62178846D01*
X150830261Y-62333489D01*
X150830264Y-62333501D01*
X150890602Y-62479172D01*
X150890609Y-62479185D01*
X150978210Y-62610288D01*
X150978213Y-62610292D01*
X151089707Y-62721786D01*
X151089711Y-62721789D01*
X151220814Y-62809390D01*
X151220827Y-62809397D01*
X151366498Y-62869735D01*
X151366503Y-62869737D01*
X151521153Y-62900499D01*
X151521156Y-62900500D01*
X151521158Y-62900500D01*
X151678844Y-62900500D01*
X151678845Y-62900499D01*
X151833497Y-62869737D01*
X151979179Y-62809394D01*
X151979185Y-62809390D01*
X152110875Y-62721398D01*
X152177553Y-62700520D01*
X152179766Y-62700500D01*
X153699903Y-62700500D01*
X153766942Y-62720185D01*
X153787584Y-62736819D01*
X155165425Y-64114660D01*
X155198910Y-64175983D01*
X155199361Y-64178149D01*
X155230261Y-64333491D01*
X155230264Y-64333501D01*
X155290602Y-64479172D01*
X155290609Y-64479185D01*
X155378210Y-64610288D01*
X155378213Y-64610292D01*
X155489707Y-64721786D01*
X155489711Y-64721789D01*
X155620814Y-64809390D01*
X155620827Y-64809397D01*
X155766498Y-64869735D01*
X155766503Y-64869737D01*
X155921153Y-64900499D01*
X155921156Y-64900500D01*
X155997810Y-64900500D01*
X156064849Y-64920185D01*
X156110604Y-64972989D01*
X156120548Y-65042147D01*
X156091523Y-65105703D01*
X156045262Y-65139061D01*
X155920827Y-65190602D01*
X155920814Y-65190609D01*
X155789711Y-65278210D01*
X155789707Y-65278213D01*
X155678213Y-65389707D01*
X155678210Y-65389711D01*
X155590609Y-65520814D01*
X155590602Y-65520827D01*
X155530264Y-65666498D01*
X155530261Y-65666507D01*
X155528787Y-65673922D01*
X155496401Y-65735832D01*
X155435685Y-65770406D01*
X155365916Y-65766665D01*
X155319489Y-65737410D01*
X155210292Y-65628213D01*
X155210288Y-65628210D01*
X155079185Y-65540609D01*
X155079172Y-65540602D01*
X154933501Y-65480264D01*
X154933489Y-65480261D01*
X154778845Y-65449500D01*
X154778842Y-65449500D01*
X154621158Y-65449500D01*
X154621155Y-65449500D01*
X154466510Y-65480261D01*
X154466498Y-65480264D01*
X154320827Y-65540602D01*
X154320814Y-65540609D01*
X154252190Y-65586463D01*
X154185512Y-65607341D01*
X154118132Y-65588856D01*
X154071442Y-65536877D01*
X154060266Y-65467907D01*
X154068739Y-65435907D01*
X154069735Y-65433501D01*
X154069737Y-65433497D01*
X154100500Y-65278842D01*
X154100500Y-65121158D01*
X154100500Y-65121155D01*
X154100499Y-65121153D01*
X154092276Y-65079815D01*
X154069737Y-64966503D01*
X154042398Y-64900500D01*
X154009397Y-64820827D01*
X154009390Y-64820814D01*
X153921789Y-64689711D01*
X153921786Y-64689707D01*
X153810292Y-64578213D01*
X153810288Y-64578210D01*
X153679185Y-64490609D01*
X153679172Y-64490602D01*
X153533501Y-64430264D01*
X153533489Y-64430261D01*
X153378845Y-64399500D01*
X153378842Y-64399500D01*
X153221158Y-64399500D01*
X153221155Y-64399500D01*
X153066510Y-64430261D01*
X153066498Y-64430264D01*
X152920827Y-64490602D01*
X152920814Y-64490609D01*
X152789125Y-64578602D01*
X152722447Y-64599480D01*
X152720234Y-64599500D01*
X149900097Y-64599500D01*
X149833058Y-64579815D01*
X149812416Y-64563181D01*
X145887590Y-60638355D01*
X145887588Y-60638352D01*
X145768717Y-60519481D01*
X145768716Y-60519480D01*
X145681904Y-60469360D01*
X145681904Y-60469359D01*
X145681900Y-60469358D01*
X145631785Y-60440423D01*
X145479057Y-60399499D01*
X145320943Y-60399499D01*
X145313347Y-60399499D01*
X145313331Y-60399500D01*
X106986670Y-60399500D01*
X106986654Y-60399499D01*
X106979058Y-60399499D01*
X106820943Y-60399499D01*
X106744579Y-60419961D01*
X106668214Y-60440423D01*
X106668209Y-60440426D01*
X106531290Y-60519475D01*
X106531282Y-60519481D01*
X101987584Y-65063181D01*
X101926261Y-65096666D01*
X101899903Y-65099500D01*
X96949499Y-65099500D01*
X96882460Y-65079815D01*
X96836705Y-65027011D01*
X96825499Y-64975500D01*
X96825499Y-64802129D01*
X96825498Y-64802123D01*
X96825497Y-64802116D01*
X96819091Y-64742517D01*
X96818053Y-64739735D01*
X96768797Y-64607671D01*
X96768793Y-64607664D01*
X96682547Y-64492455D01*
X96682544Y-64492452D01*
X96567335Y-64406206D01*
X96567328Y-64406202D01*
X96432482Y-64355908D01*
X96432483Y-64355908D01*
X96372883Y-64349501D01*
X96372881Y-64349500D01*
X96372873Y-64349500D01*
X96372864Y-64349500D01*
X94577129Y-64349500D01*
X94577123Y-64349501D01*
X94517516Y-64355908D01*
X94382671Y-64406202D01*
X94382664Y-64406206D01*
X94267455Y-64492452D01*
X94267452Y-64492455D01*
X94181206Y-64607664D01*
X94181202Y-64607671D01*
X94130908Y-64742517D01*
X94124501Y-64802116D01*
X94124501Y-64802123D01*
X94124500Y-64802135D01*
X94124500Y-64812690D01*
X94104815Y-64879729D01*
X94088181Y-64900371D01*
X93417962Y-65570590D01*
X93400925Y-65507007D01*
X93335099Y-65392993D01*
X93242007Y-65299901D01*
X93127993Y-65234075D01*
X93064409Y-65217037D01*
X93696716Y-64584728D01*
X93642550Y-64545375D01*
X93453217Y-64448904D01*
X93251129Y-64383242D01*
X93041246Y-64350000D01*
X92828754Y-64350000D01*
X92618872Y-64383242D01*
X92618869Y-64383242D01*
X92416782Y-64448904D01*
X92227439Y-64545380D01*
X92173282Y-64584727D01*
X92173282Y-64584728D01*
X92805591Y-65217037D01*
X92742007Y-65234075D01*
X92627993Y-65299901D01*
X92534901Y-65392993D01*
X92469075Y-65507007D01*
X92452037Y-65570591D01*
X91819728Y-64938282D01*
X91819727Y-64938282D01*
X91780380Y-64992439D01*
X91683904Y-65181782D01*
X91618242Y-65383869D01*
X91618242Y-65383872D01*
X91585000Y-65593753D01*
X88800500Y-65593753D01*
X88800500Y-52778711D01*
X91449500Y-52778711D01*
X91449500Y-53021288D01*
X91481161Y-53261785D01*
X91543947Y-53496104D01*
X91573735Y-53568018D01*
X91636776Y-53720212D01*
X91758064Y-53930289D01*
X91758066Y-53930292D01*
X91758067Y-53930293D01*
X91905733Y-54122736D01*
X91905739Y-54122743D01*
X92077256Y-54294260D01*
X92077262Y-54294265D01*
X92269711Y-54441936D01*
X92479788Y-54563224D01*
X92703900Y-54656054D01*
X92938211Y-54718838D01*
X93114147Y-54742000D01*
X93178711Y-54750500D01*
X93178712Y-54750500D01*
X93421289Y-54750500D01*
X93485853Y-54742000D01*
X93661789Y-54718838D01*
X93896100Y-54656054D01*
X94120212Y-54563224D01*
X94330289Y-54441936D01*
X94522738Y-54294265D01*
X94535499Y-54281504D01*
X97380000Y-54281504D01*
X97380000Y-54680000D01*
X98080000Y-54680000D01*
X98080000Y-55180000D01*
X97380000Y-55180000D01*
X97380000Y-55578495D01*
X97418427Y-55771681D01*
X97418430Y-55771693D01*
X97493807Y-55953671D01*
X97493814Y-55953684D01*
X97603248Y-56117462D01*
X97603251Y-56117466D01*
X97742533Y-56256748D01*
X97742537Y-56256751D01*
X97906315Y-56366185D01*
X97906319Y-56366187D01*
X97938730Y-56379612D01*
X97993133Y-56423453D01*
X98015199Y-56489747D01*
X97997920Y-56557446D01*
X97978960Y-56581855D01*
X97908027Y-56652788D01*
X97787715Y-56818386D01*
X97694781Y-57000776D01*
X97631522Y-57195465D01*
X97599500Y-57397648D01*
X97599500Y-57602351D01*
X97631522Y-57804534D01*
X97694781Y-57999223D01*
X97787715Y-58181613D01*
X97908028Y-58347213D01*
X98052786Y-58491971D01*
X98207749Y-58604556D01*
X98218390Y-58612287D01*
X98334607Y-58671503D01*
X98400776Y-58705218D01*
X98400778Y-58705218D01*
X98400781Y-58705220D01*
X98505137Y-58739127D01*
X98595465Y-58768477D01*
X98696557Y-58784488D01*
X98797648Y-58800500D01*
X98797649Y-58800500D01*
X99002351Y-58800500D01*
X99002352Y-58800500D01*
X99204534Y-58768477D01*
X99399219Y-58705220D01*
X99581610Y-58612287D01*
X99674590Y-58544732D01*
X99747213Y-58491971D01*
X99747215Y-58491968D01*
X99747219Y-58491966D01*
X99891966Y-58347219D01*
X99891968Y-58347215D01*
X99891971Y-58347213D01*
X99945003Y-58274219D01*
X100012287Y-58181610D01*
X100105220Y-57999219D01*
X100168477Y-57804534D01*
X100200500Y-57602352D01*
X100200500Y-57397648D01*
X100168477Y-57195466D01*
X100105220Y-57000781D01*
X100105218Y-57000778D01*
X100105218Y-57000776D01*
X100045154Y-56882896D01*
X100012287Y-56818390D01*
X99986595Y-56783028D01*
X99891971Y-56652786D01*
X99747213Y-56508028D01*
X99581613Y-56387715D01*
X99581612Y-56387714D01*
X99581610Y-56387713D01*
X99505577Y-56348972D01*
X99399223Y-56294781D01*
X99258447Y-56249040D01*
X99200772Y-56209602D01*
X99173574Y-56145243D01*
X99185489Y-56076397D01*
X99193664Y-56062217D01*
X99266188Y-55953678D01*
X99266192Y-55953671D01*
X99341569Y-55771693D01*
X99341572Y-55771681D01*
X99379999Y-55578495D01*
X99380000Y-55578492D01*
X99380000Y-55180000D01*
X98680000Y-55180000D01*
X98680000Y-54680000D01*
X99235536Y-54680000D01*
X99302575Y-54699685D01*
X99342923Y-54742000D01*
X99349482Y-54753361D01*
X99349484Y-54753364D01*
X99349485Y-54753365D01*
X99456635Y-54860515D01*
X99587865Y-54936281D01*
X99734234Y-54975500D01*
X99734236Y-54975500D01*
X99885764Y-54975500D01*
X99885766Y-54975500D01*
X100032135Y-54936281D01*
X100163365Y-54860515D01*
X100270515Y-54753365D01*
X100346281Y-54622135D01*
X100385500Y-54475766D01*
X100385500Y-54324234D01*
X105014500Y-54324234D01*
X105014500Y-54475765D01*
X105053719Y-54622136D01*
X105091602Y-54687750D01*
X105129485Y-54753365D01*
X105236635Y-54860515D01*
X105367865Y-54936281D01*
X105514234Y-54975500D01*
X105514236Y-54975500D01*
X105665764Y-54975500D01*
X105665766Y-54975500D01*
X105812135Y-54936281D01*
X105943365Y-54860515D01*
X106050515Y-54753365D01*
X106057077Y-54742000D01*
X106107644Y-54693784D01*
X106164464Y-54680000D01*
X106720000Y-54680000D01*
X106720000Y-55180000D01*
X106020000Y-55180000D01*
X106020000Y-55578495D01*
X106058427Y-55771681D01*
X106058430Y-55771693D01*
X106133807Y-55953671D01*
X106133814Y-55953684D01*
X106243248Y-56117462D01*
X106243251Y-56117466D01*
X106382534Y-56256749D01*
X106403650Y-56270858D01*
X106448456Y-56324470D01*
X106457163Y-56393795D01*
X106427009Y-56456823D01*
X106367566Y-56493543D01*
X106354160Y-56496434D01*
X106290463Y-56506523D01*
X106095776Y-56569781D01*
X105913386Y-56662715D01*
X105747786Y-56783028D01*
X105603028Y-56927786D01*
X105482715Y-57093386D01*
X105389781Y-57275776D01*
X105326522Y-57470465D01*
X105294500Y-57672648D01*
X105294500Y-57877351D01*
X105326522Y-58079534D01*
X105389781Y-58274223D01*
X105482715Y-58456613D01*
X105603028Y-58622213D01*
X105747786Y-58766971D01*
X105902749Y-58879556D01*
X105913390Y-58887287D01*
X106029607Y-58946503D01*
X106095776Y-58980218D01*
X106095778Y-58980218D01*
X106095781Y-58980220D01*
X106200137Y-59014127D01*
X106290465Y-59043477D01*
X106391557Y-59059488D01*
X106492648Y-59075500D01*
X106492649Y-59075500D01*
X106697351Y-59075500D01*
X106697352Y-59075500D01*
X106899534Y-59043477D01*
X107094219Y-58980220D01*
X107276610Y-58887287D01*
X107396063Y-58800500D01*
X107442213Y-58766971D01*
X107442215Y-58766968D01*
X107442219Y-58766966D01*
X107586966Y-58622219D01*
X107586968Y-58622215D01*
X107586971Y-58622213D01*
X107639732Y-58549590D01*
X107707287Y-58456610D01*
X107800220Y-58274219D01*
X107863477Y-58079534D01*
X107895500Y-57877352D01*
X107895500Y-57672648D01*
X107863477Y-57470466D01*
X107854911Y-57444104D01*
X107800218Y-57275776D01*
X107736657Y-57151032D01*
X107707287Y-57093390D01*
X107697483Y-57079896D01*
X107586971Y-56927786D01*
X107442219Y-56783034D01*
X107318368Y-56693052D01*
X107276610Y-56662713D01*
X107276606Y-56662711D01*
X107273976Y-56660800D01*
X107231310Y-56605470D01*
X107225331Y-56535857D01*
X107257936Y-56474061D01*
X107286033Y-56456947D01*
X111650000Y-56456947D01*
X111650000Y-56693052D01*
X111686934Y-56926247D01*
X111759897Y-57150802D01*
X111867087Y-57361174D01*
X111927338Y-57444104D01*
X111927340Y-57444105D01*
X112548949Y-56822496D01*
X112573968Y-56882896D01*
X112645104Y-56989358D01*
X112735642Y-57079896D01*
X112842104Y-57151032D01*
X112902503Y-57176049D01*
X112280893Y-57797658D01*
X112363828Y-57857914D01*
X112574197Y-57965102D01*
X112798752Y-58038065D01*
X112798751Y-58038065D01*
X113031948Y-58075000D01*
X113268052Y-58075000D01*
X113501247Y-58038065D01*
X113725802Y-57965102D01*
X113936163Y-57857918D01*
X113936169Y-57857914D01*
X114019104Y-57797658D01*
X114019105Y-57797658D01*
X113397496Y-57176050D01*
X113457896Y-57151032D01*
X113564358Y-57079896D01*
X113654896Y-56989358D01*
X113726032Y-56882896D01*
X113751049Y-56822496D01*
X114372658Y-57444105D01*
X114372658Y-57444104D01*
X114432914Y-57361169D01*
X114432918Y-57361163D01*
X114540102Y-57150802D01*
X114613065Y-56926247D01*
X114650000Y-56693052D01*
X114650000Y-56456947D01*
X114613065Y-56223752D01*
X114540102Y-55999197D01*
X114432914Y-55788828D01*
X114372658Y-55705894D01*
X114372658Y-55705893D01*
X113751049Y-56327502D01*
X113726032Y-56267104D01*
X113654896Y-56160642D01*
X113564358Y-56070104D01*
X113457896Y-55998968D01*
X113397496Y-55973949D01*
X114019105Y-55352340D01*
X114019104Y-55352338D01*
X113936174Y-55292087D01*
X113725802Y-55184897D01*
X113501247Y-55111934D01*
X113501248Y-55111934D01*
X113268052Y-55075000D01*
X113031948Y-55075000D01*
X112798752Y-55111934D01*
X112574197Y-55184897D01*
X112363830Y-55292084D01*
X112280894Y-55352340D01*
X112902503Y-55973949D01*
X112842104Y-55998968D01*
X112735642Y-56070104D01*
X112645104Y-56160642D01*
X112573968Y-56267104D01*
X112548949Y-56327503D01*
X111927340Y-55705894D01*
X111867084Y-55788830D01*
X111759897Y-55999197D01*
X111686934Y-56223752D01*
X111650000Y-56456947D01*
X107286033Y-56456947D01*
X107306341Y-56444577D01*
X107306062Y-56443902D01*
X107310399Y-56442105D01*
X107310868Y-56441820D01*
X107311691Y-56441570D01*
X107493671Y-56366192D01*
X107493678Y-56366188D01*
X107519443Y-56348973D01*
X107519444Y-56348972D01*
X107657462Y-56256751D01*
X107657466Y-56256748D01*
X107796748Y-56117466D01*
X107796751Y-56117462D01*
X107906185Y-55953684D01*
X107906192Y-55953671D01*
X107981569Y-55771693D01*
X107981572Y-55771681D01*
X108019999Y-55578495D01*
X108020000Y-55578492D01*
X108020000Y-55180000D01*
X107320000Y-55180000D01*
X107320000Y-54680000D01*
X108020000Y-54680000D01*
X108020000Y-54281508D01*
X108019999Y-54281504D01*
X107981572Y-54088318D01*
X107981569Y-54088306D01*
X107906192Y-53906328D01*
X107906185Y-53906315D01*
X107796751Y-53742537D01*
X107796748Y-53742533D01*
X107657466Y-53603251D01*
X107657462Y-53603248D01*
X107493684Y-53493814D01*
X107493671Y-53493807D01*
X107311691Y-53418429D01*
X107311683Y-53418427D01*
X107270000Y-53410135D01*
X107270000Y-54213011D01*
X107260060Y-54195795D01*
X107204205Y-54139940D01*
X107135796Y-54100444D01*
X107059496Y-54080000D01*
X106980504Y-54080000D01*
X106904204Y-54100444D01*
X106835795Y-54139940D01*
X106779940Y-54195795D01*
X106770000Y-54213011D01*
X106770000Y-53410136D01*
X106769999Y-53410135D01*
X106728316Y-53418427D01*
X106728308Y-53418429D01*
X106546328Y-53493807D01*
X106546315Y-53493814D01*
X106382537Y-53603248D01*
X106382533Y-53603251D01*
X106243248Y-53742536D01*
X106130427Y-53911387D01*
X106129003Y-53910435D01*
X106085742Y-53954451D01*
X106017600Y-53969892D01*
X105951927Y-53946041D01*
X105949907Y-53944306D01*
X105949811Y-53944432D01*
X105943367Y-53939487D01*
X105943365Y-53939485D01*
X105877750Y-53901602D01*
X105812136Y-53863719D01*
X105738950Y-53844109D01*
X105665766Y-53824500D01*
X105514234Y-53824500D01*
X105367863Y-53863719D01*
X105236635Y-53939485D01*
X105236632Y-53939487D01*
X105129487Y-54046632D01*
X105129485Y-54046635D01*
X105053719Y-54177863D01*
X105014500Y-54324234D01*
X100385500Y-54324234D01*
X100346281Y-54177865D01*
X100270515Y-54046635D01*
X100163365Y-53939485D01*
X100097750Y-53901602D01*
X100032136Y-53863719D01*
X99958950Y-53844109D01*
X99885766Y-53824500D01*
X99734234Y-53824500D01*
X99587863Y-53863719D01*
X99456635Y-53939485D01*
X99450189Y-53944432D01*
X99448099Y-53941709D01*
X99400217Y-53967466D01*
X99330558Y-53962043D01*
X99274888Y-53919821D01*
X99269299Y-53910976D01*
X99156751Y-53742537D01*
X99156748Y-53742533D01*
X99017466Y-53603251D01*
X99017462Y-53603248D01*
X98853684Y-53493814D01*
X98853671Y-53493807D01*
X98671691Y-53418429D01*
X98671683Y-53418427D01*
X98630000Y-53410135D01*
X98630000Y-54213011D01*
X98620060Y-54195795D01*
X98564205Y-54139940D01*
X98495796Y-54100444D01*
X98419496Y-54080000D01*
X98340504Y-54080000D01*
X98264204Y-54100444D01*
X98195795Y-54139940D01*
X98139940Y-54195795D01*
X98130000Y-54213011D01*
X98130000Y-53410136D01*
X98129999Y-53410135D01*
X98088316Y-53418427D01*
X98088308Y-53418429D01*
X97906328Y-53493807D01*
X97906315Y-53493814D01*
X97742537Y-53603248D01*
X97742533Y-53603251D01*
X97603251Y-53742533D01*
X97603248Y-53742537D01*
X97493814Y-53906315D01*
X97493807Y-53906328D01*
X97418430Y-54088306D01*
X97418427Y-54088318D01*
X97380000Y-54281504D01*
X94535499Y-54281504D01*
X94552799Y-54264204D01*
X94629268Y-54187736D01*
X94694260Y-54122743D01*
X94694265Y-54122738D01*
X94841936Y-53930289D01*
X94963224Y-53720212D01*
X95056054Y-53496100D01*
X95118838Y-53261789D01*
X95150500Y-53021288D01*
X95150500Y-52778712D01*
X95118838Y-52538211D01*
X95056054Y-52303900D01*
X94963224Y-52079788D01*
X94841936Y-51869711D01*
X94694265Y-51677262D01*
X94694260Y-51677256D01*
X94522743Y-51505739D01*
X94522736Y-51505733D01*
X94330293Y-51358067D01*
X94330292Y-51358066D01*
X94330289Y-51358064D01*
X94120212Y-51236776D01*
X94114005Y-51234205D01*
X93896104Y-51143947D01*
X93778944Y-51112554D01*
X93661789Y-51081162D01*
X93661788Y-51081161D01*
X93661785Y-51081161D01*
X93588982Y-51071577D01*
X93421289Y-51049500D01*
X93421288Y-51049500D01*
X93178712Y-51049500D01*
X93178711Y-51049500D01*
X92938214Y-51081161D01*
X92703895Y-51143947D01*
X92479794Y-51236773D01*
X92479785Y-51236777D01*
X92269706Y-51358067D01*
X92077263Y-51505733D01*
X92077256Y-51505739D01*
X91905739Y-51677256D01*
X91905733Y-51677263D01*
X91758067Y-51869706D01*
X91636777Y-52079785D01*
X91636773Y-52079794D01*
X91543947Y-52303895D01*
X91481161Y-52538214D01*
X91449500Y-52778711D01*
X88800500Y-52778711D01*
X88800500Y-50903750D01*
X88800726Y-50896263D01*
X88816784Y-50630785D01*
X88818271Y-50606201D01*
X88820076Y-50591340D01*
X88864028Y-50351504D01*
X97380000Y-50351504D01*
X97380000Y-50500000D01*
X98080000Y-50500000D01*
X98080000Y-51000000D01*
X97380000Y-51000000D01*
X97380000Y-51148495D01*
X97418427Y-51341681D01*
X97418430Y-51341693D01*
X97493807Y-51523671D01*
X97493814Y-51523684D01*
X97603248Y-51687462D01*
X97603251Y-51687466D01*
X97742533Y-51826748D01*
X97742537Y-51826751D01*
X97906315Y-51936185D01*
X97906328Y-51936192D01*
X98088308Y-52011569D01*
X98130000Y-52019862D01*
X98130000Y-51216988D01*
X98139940Y-51234205D01*
X98195795Y-51290060D01*
X98264204Y-51329556D01*
X98340504Y-51350000D01*
X98419496Y-51350000D01*
X98495796Y-51329556D01*
X98564205Y-51290060D01*
X98620060Y-51234205D01*
X98630000Y-51216988D01*
X98630000Y-52019862D01*
X98671690Y-52011569D01*
X98671692Y-52011569D01*
X98853671Y-51936192D01*
X98853684Y-51936185D01*
X99017462Y-51826751D01*
X99017466Y-51826748D01*
X99156748Y-51687466D01*
X99156751Y-51687462D01*
X99266185Y-51523684D01*
X99266192Y-51523671D01*
X99341569Y-51341693D01*
X99341572Y-51341681D01*
X99379999Y-51148495D01*
X99380000Y-51148492D01*
X99380000Y-51000000D01*
X98680000Y-51000000D01*
X98680000Y-50500000D01*
X99380000Y-50500000D01*
X99380000Y-50351508D01*
X99379999Y-50351504D01*
X106020000Y-50351504D01*
X106020000Y-50500000D01*
X106720000Y-50500000D01*
X106720000Y-51000000D01*
X106020000Y-51000000D01*
X106020000Y-51148495D01*
X106058427Y-51341681D01*
X106058430Y-51341693D01*
X106133807Y-51523671D01*
X106133814Y-51523684D01*
X106243248Y-51687462D01*
X106243251Y-51687466D01*
X106382533Y-51826748D01*
X106382537Y-51826751D01*
X106546315Y-51936185D01*
X106546328Y-51936192D01*
X106728308Y-52011569D01*
X106770000Y-52019862D01*
X106770000Y-51216988D01*
X106779940Y-51234205D01*
X106835795Y-51290060D01*
X106904204Y-51329556D01*
X106980504Y-51350000D01*
X107059496Y-51350000D01*
X107135796Y-51329556D01*
X107204205Y-51290060D01*
X107260060Y-51234205D01*
X107270000Y-51216988D01*
X107270000Y-52019862D01*
X107311690Y-52011569D01*
X107311692Y-52011569D01*
X107493671Y-51936192D01*
X107493684Y-51936185D01*
X107657462Y-51826751D01*
X107657466Y-51826748D01*
X107796748Y-51687466D01*
X107796751Y-51687462D01*
X107836028Y-51628681D01*
X118989500Y-51628681D01*
X118989500Y-51971318D01*
X119027858Y-52311768D01*
X119027861Y-52311782D01*
X119104102Y-52645816D01*
X119104103Y-52645818D01*
X119217264Y-52969216D01*
X119365922Y-53277907D01*
X119365924Y-53277910D01*
X119548211Y-53568018D01*
X119761834Y-53835893D01*
X120004107Y-54078166D01*
X120271982Y-54291789D01*
X120562090Y-54474076D01*
X120870785Y-54622736D01*
X121194183Y-54735897D01*
X121528217Y-54812139D01*
X121528226Y-54812140D01*
X121528231Y-54812141D01*
X121755197Y-54837713D01*
X121868682Y-54850499D01*
X121868685Y-54850500D01*
X121868688Y-54850500D01*
X122211315Y-54850500D01*
X122211316Y-54850499D01*
X122385311Y-54830895D01*
X122551768Y-54812141D01*
X122551771Y-54812140D01*
X122551783Y-54812139D01*
X122885817Y-54735897D01*
X123209215Y-54622736D01*
X123517910Y-54474076D01*
X123808018Y-54291789D01*
X124075893Y-54078166D01*
X124318166Y-53835893D01*
X124531789Y-53568018D01*
X124714076Y-53277910D01*
X124862736Y-52969215D01*
X124975897Y-52645817D01*
X125052139Y-52311783D01*
X125090500Y-51971312D01*
X125090500Y-51628688D01*
X125090499Y-51628681D01*
X151989500Y-51628681D01*
X151989500Y-51971318D01*
X152027858Y-52311768D01*
X152027861Y-52311782D01*
X152104102Y-52645816D01*
X152104103Y-52645818D01*
X152217264Y-52969216D01*
X152365922Y-53277907D01*
X152365924Y-53277910D01*
X152548211Y-53568018D01*
X152761834Y-53835893D01*
X153004107Y-54078166D01*
X153271982Y-54291789D01*
X153562090Y-54474076D01*
X153870785Y-54622736D01*
X154194183Y-54735897D01*
X154528217Y-54812139D01*
X154528226Y-54812140D01*
X154528231Y-54812141D01*
X154755197Y-54837713D01*
X154868682Y-54850499D01*
X154868685Y-54850500D01*
X154868688Y-54850500D01*
X155211315Y-54850500D01*
X155211316Y-54850499D01*
X155385311Y-54830895D01*
X155551768Y-54812141D01*
X155551771Y-54812140D01*
X155551783Y-54812139D01*
X155885817Y-54735897D01*
X156209215Y-54622736D01*
X156517910Y-54474076D01*
X156808018Y-54291789D01*
X157075893Y-54078166D01*
X157318166Y-53835893D01*
X157531789Y-53568018D01*
X157714076Y-53277910D01*
X157862736Y-52969215D01*
X157929396Y-52778711D01*
X161449500Y-52778711D01*
X161449500Y-53021288D01*
X161481161Y-53261785D01*
X161543947Y-53496104D01*
X161573735Y-53568018D01*
X161636776Y-53720212D01*
X161758064Y-53930289D01*
X161758066Y-53930292D01*
X161758067Y-53930293D01*
X161905733Y-54122736D01*
X161905739Y-54122743D01*
X162077256Y-54294260D01*
X162077262Y-54294265D01*
X162269711Y-54441936D01*
X162479788Y-54563224D01*
X162703900Y-54656054D01*
X162938211Y-54718838D01*
X163114147Y-54742000D01*
X163178711Y-54750500D01*
X163178712Y-54750500D01*
X163421289Y-54750500D01*
X163485853Y-54742000D01*
X163661789Y-54718838D01*
X163896100Y-54656054D01*
X164120212Y-54563224D01*
X164330289Y-54441936D01*
X164522738Y-54294265D01*
X164694265Y-54122738D01*
X164841936Y-53930289D01*
X164963224Y-53720212D01*
X165056054Y-53496100D01*
X165118838Y-53261789D01*
X165150500Y-53021288D01*
X165150500Y-52778712D01*
X165118838Y-52538211D01*
X165056054Y-52303900D01*
X164963224Y-52079788D01*
X164841936Y-51869711D01*
X164694265Y-51677262D01*
X164694260Y-51677256D01*
X164522743Y-51505739D01*
X164522736Y-51505733D01*
X164330293Y-51358067D01*
X164330292Y-51358066D01*
X164330289Y-51358064D01*
X164120212Y-51236776D01*
X164114005Y-51234205D01*
X163896104Y-51143947D01*
X163778944Y-51112554D01*
X163661789Y-51081162D01*
X163661788Y-51081161D01*
X163661785Y-51081161D01*
X163421289Y-51049500D01*
X163421288Y-51049500D01*
X163178712Y-51049500D01*
X163178711Y-51049500D01*
X162938214Y-51081161D01*
X162703895Y-51143947D01*
X162479794Y-51236773D01*
X162479785Y-51236777D01*
X162269706Y-51358067D01*
X162077263Y-51505733D01*
X162077256Y-51505739D01*
X161905739Y-51677256D01*
X161905733Y-51677263D01*
X161758067Y-51869706D01*
X161636777Y-52079785D01*
X161636773Y-52079794D01*
X161543947Y-52303895D01*
X161481161Y-52538214D01*
X161449500Y-52778711D01*
X157929396Y-52778711D01*
X157975897Y-52645817D01*
X158052139Y-52311783D01*
X158090500Y-51971312D01*
X158090500Y-51628688D01*
X158052139Y-51288217D01*
X157975897Y-50954183D01*
X157862736Y-50630785D01*
X157714076Y-50322090D01*
X157531789Y-50031982D01*
X157318166Y-49764107D01*
X157075893Y-49521834D01*
X157034004Y-49488429D01*
X156922491Y-49399500D01*
X156808018Y-49308211D01*
X156517910Y-49125924D01*
X156517907Y-49125922D01*
X156209216Y-48977264D01*
X155885818Y-48864103D01*
X155885816Y-48864102D01*
X155628024Y-48805262D01*
X155551783Y-48787861D01*
X155551780Y-48787860D01*
X155551768Y-48787858D01*
X155211318Y-48749500D01*
X155211312Y-48749500D01*
X154868688Y-48749500D01*
X154868681Y-48749500D01*
X154528231Y-48787858D01*
X154528217Y-48787861D01*
X154194183Y-48864102D01*
X154194181Y-48864103D01*
X153870783Y-48977264D01*
X153562092Y-49125922D01*
X153271983Y-49308210D01*
X153004107Y-49521833D01*
X152761833Y-49764107D01*
X152548210Y-50031983D01*
X152365922Y-50322092D01*
X152217264Y-50630783D01*
X152104103Y-50954181D01*
X152104102Y-50954183D01*
X152027861Y-51288217D01*
X152027858Y-51288231D01*
X151989500Y-51628681D01*
X125090499Y-51628681D01*
X125052139Y-51288217D01*
X124975897Y-50954183D01*
X124862736Y-50630785D01*
X124714076Y-50322090D01*
X124531789Y-50031982D01*
X124318166Y-49764107D01*
X124075893Y-49521834D01*
X124034004Y-49488429D01*
X123922491Y-49399500D01*
X123808018Y-49308211D01*
X123517910Y-49125924D01*
X123517907Y-49125922D01*
X123209216Y-48977264D01*
X122885818Y-48864103D01*
X122885816Y-48864102D01*
X122628024Y-48805262D01*
X122551783Y-48787861D01*
X122551780Y-48787860D01*
X122551768Y-48787858D01*
X122211318Y-48749500D01*
X122211312Y-48749500D01*
X121868688Y-48749500D01*
X121868681Y-48749500D01*
X121528231Y-48787858D01*
X121528217Y-48787861D01*
X121194183Y-48864102D01*
X121194181Y-48864103D01*
X120870783Y-48977264D01*
X120562092Y-49125922D01*
X120271983Y-49308210D01*
X120004107Y-49521833D01*
X119761833Y-49764107D01*
X119548210Y-50031983D01*
X119365922Y-50322092D01*
X119217264Y-50630783D01*
X119104103Y-50954181D01*
X119104102Y-50954183D01*
X119027861Y-51288217D01*
X119027858Y-51288231D01*
X118989500Y-51628681D01*
X107836028Y-51628681D01*
X107884380Y-51556318D01*
X107906185Y-51523683D01*
X107906192Y-51523671D01*
X107981569Y-51341693D01*
X107981572Y-51341681D01*
X108019999Y-51148495D01*
X108020000Y-51148492D01*
X108020000Y-51000000D01*
X107320000Y-51000000D01*
X107320000Y-50500000D01*
X108020000Y-50500000D01*
X108020000Y-50351508D01*
X108019999Y-50351504D01*
X107981572Y-50158318D01*
X107981568Y-50158304D01*
X107966180Y-50121153D01*
X112299500Y-50121153D01*
X112299500Y-50278846D01*
X112330261Y-50433489D01*
X112330264Y-50433501D01*
X112390602Y-50579172D01*
X112390609Y-50579185D01*
X112478210Y-50710288D01*
X112478213Y-50710292D01*
X112589707Y-50821786D01*
X112589711Y-50821789D01*
X112720814Y-50909390D01*
X112720827Y-50909397D01*
X112828947Y-50954181D01*
X112866503Y-50969737D01*
X113018644Y-51000000D01*
X113021153Y-51000499D01*
X113021156Y-51000500D01*
X113021158Y-51000500D01*
X113178844Y-51000500D01*
X113178845Y-51000499D01*
X113333497Y-50969737D01*
X113479179Y-50909394D01*
X113610289Y-50821789D01*
X113721789Y-50710289D01*
X113809394Y-50579179D01*
X113869737Y-50433497D01*
X113900500Y-50278842D01*
X113900500Y-50121158D01*
X113900500Y-50121155D01*
X113900499Y-50121153D01*
X113882762Y-50031983D01*
X113869737Y-49966503D01*
X113869735Y-49966498D01*
X113809397Y-49820827D01*
X113809390Y-49820814D01*
X113721789Y-49689711D01*
X113721786Y-49689707D01*
X113610292Y-49578213D01*
X113610288Y-49578210D01*
X113479185Y-49490609D01*
X113479172Y-49490602D01*
X113333501Y-49430264D01*
X113333489Y-49430261D01*
X113178845Y-49399500D01*
X113178842Y-49399500D01*
X113021158Y-49399500D01*
X113021155Y-49399500D01*
X112866510Y-49430261D01*
X112866498Y-49430264D01*
X112720827Y-49490602D01*
X112720814Y-49490609D01*
X112589711Y-49578210D01*
X112589707Y-49578213D01*
X112478213Y-49689707D01*
X112478210Y-49689711D01*
X112390609Y-49820814D01*
X112390602Y-49820827D01*
X112330264Y-49966498D01*
X112330261Y-49966510D01*
X112299500Y-50121153D01*
X107966180Y-50121153D01*
X107906192Y-49976328D01*
X107906185Y-49976315D01*
X107796751Y-49812537D01*
X107796748Y-49812533D01*
X107657466Y-49673251D01*
X107657462Y-49673248D01*
X107493684Y-49563814D01*
X107493671Y-49563807D01*
X107311691Y-49488429D01*
X107311683Y-49488427D01*
X107270000Y-49480135D01*
X107270000Y-50283011D01*
X107260060Y-50265795D01*
X107204205Y-50209940D01*
X107135796Y-50170444D01*
X107059496Y-50150000D01*
X106980504Y-50150000D01*
X106904204Y-50170444D01*
X106835795Y-50209940D01*
X106779940Y-50265795D01*
X106770000Y-50283011D01*
X106770000Y-49480136D01*
X106769999Y-49480135D01*
X106728316Y-49488427D01*
X106728308Y-49488429D01*
X106546328Y-49563807D01*
X106546315Y-49563814D01*
X106382537Y-49673248D01*
X106382533Y-49673251D01*
X106243251Y-49812533D01*
X106243248Y-49812537D01*
X106133814Y-49976315D01*
X106133807Y-49976328D01*
X106058430Y-50158306D01*
X106058427Y-50158318D01*
X106020000Y-50351504D01*
X99379999Y-50351504D01*
X99341572Y-50158318D01*
X99341569Y-50158306D01*
X99266192Y-49976328D01*
X99266185Y-49976315D01*
X99156751Y-49812537D01*
X99156748Y-49812533D01*
X99017466Y-49673251D01*
X99017462Y-49673248D01*
X98853684Y-49563814D01*
X98853671Y-49563807D01*
X98671691Y-49488429D01*
X98671683Y-49488427D01*
X98630000Y-49480135D01*
X98630000Y-50283011D01*
X98620060Y-50265795D01*
X98564205Y-50209940D01*
X98495796Y-50170444D01*
X98419496Y-50150000D01*
X98340504Y-50150000D01*
X98264204Y-50170444D01*
X98195795Y-50209940D01*
X98139940Y-50265795D01*
X98130000Y-50283011D01*
X98130000Y-49480136D01*
X98129999Y-49480135D01*
X98088316Y-49488427D01*
X98088308Y-49488429D01*
X97906328Y-49563807D01*
X97906315Y-49563814D01*
X97742537Y-49673248D01*
X97742533Y-49673251D01*
X97603251Y-49812533D01*
X97603248Y-49812537D01*
X97493814Y-49976315D01*
X97493807Y-49976328D01*
X97418430Y-50158306D01*
X97418427Y-50158318D01*
X97380000Y-50351504D01*
X88864028Y-50351504D01*
X88871781Y-50309198D01*
X88875364Y-50294664D01*
X88880294Y-50278844D01*
X88960699Y-50020812D01*
X88965997Y-50006842D01*
X89083727Y-49745258D01*
X89090680Y-49732012D01*
X89183656Y-49578210D01*
X89239075Y-49486534D01*
X89247567Y-49474230D01*
X89424481Y-49248417D01*
X89434396Y-49237226D01*
X89637226Y-49034396D01*
X89648417Y-49024481D01*
X89874230Y-48847567D01*
X89886534Y-48839075D01*
X90132012Y-48690680D01*
X90145258Y-48683727D01*
X90406842Y-48565997D01*
X90420812Y-48560699D01*
X90694668Y-48475362D01*
X90709198Y-48471780D01*
X90991344Y-48420075D01*
X91006201Y-48418271D01*
X91296264Y-48400726D01*
X91303751Y-48400500D01*
X91365892Y-48400500D01*
X165234108Y-48400500D01*
X165296249Y-48400500D01*
X165303736Y-48400726D01*
G37*
%TD.AperFunction*%
%TD*%
M02*
