M48
; DRILL file KiCad 10.0.3 date 2026-05-31T11:06:25
; FORMAT={-:-/ absolute / metric / decimal}
; #@! TF.CreationDate,2026-05-31T11:06:25+10:00
; #@! TF.GenerationSoftware,Kicad,Pcbnew,10.0.3
; #@! TF.FileFunction,Plated,1,4,PTH
FMAT,2
METRIC
; #@! TA.AperFunction,Plated,PTH,ViaDrill
T1C0.200
; #@! TA.AperFunction,Plated,PTH,ViaDrill
T2C0.250
; #@! TA.AperFunction,Plated,PTH,ViaDrill
T3C0.300
; #@! TA.AperFunction,Plated,PTH,ViaDrill
T4C0.400
; #@! TA.AperFunction,Plated,PTH,ComponentDrill
T5C0.600
; #@! TA.AperFunction,Plated,PTH,ViaDrill
T6C0.800
; #@! TA.AperFunction,Plated,PTH,ComponentDrill
T7C0.900
; #@! TA.AperFunction,Plated,PTH,ComponentDrill
T8C0.920
; #@! TA.AperFunction,Plated,PTH,ComponentDrill
T9C1.000
; #@! TA.AperFunction,Plated,PTH,ComponentDrill
T10C1.020
; #@! TA.AperFunction,Plated,PTH,ComponentDrill
T11C1.100
; #@! TA.AperFunction,Plated,PTH,ComponentDrill
T12C1.300
; #@! TA.AperFunction,Plated,PTH,ComponentDrill
T13C1.700
; #@! TA.AperFunction,Plated,PTH,ComponentDrill
T14C2.300
%
G90
G05
T1
X102.486Y-115.02
X104.125Y-117.3
X104.47Y-123.875
X104.5Y-114.62
X104.921Y-114.135
X109.265Y-120.0
X109.265Y-124.062
X109.272Y-118.02
X114.95Y-79.875
X115.075Y-78.9
X115.65Y-78.625
X115.8Y-81.225
X116.3Y-78.65
X116.575Y-81.1
X117.0Y-70.025
X117.5Y-71.6
X117.575Y-79.625
X117.725Y-72.075
X118.325Y-71.925
X119.025Y-71.6
X121.3Y-69.1
X122.187Y-73.1
X122.325Y-72.425
X124.245Y-123.9
X131.75Y-123.9
X154.0Y-135.9
T2
X105.683Y-120.442
T3
X97.35Y-116.625
X98.75Y-116.275
X99.85Y-120.45
X100.4Y-78.275
X101.025Y-78.8
X101.3Y-120.7
X101.4Y-76.7
X101.4Y-77.95
X101.925Y-77.55
X102.5Y-113.8
X102.7Y-117.025
X103.2Y-120.5
X104.05Y-77.5
X104.1Y-113.0
X104.15Y-76.4
X104.8Y-112.3
X105.3Y-77.775
X105.7Y-78.925
X105.9Y-112.0
X106.0Y-111.2
X106.545Y-120.51
X106.625Y-74.475
X106.7Y-122.975
X106.9Y-125.6
X106.962Y-78.1
X107.345Y-116.12
X107.425Y-124.4
X108.2Y-110.5
X108.225Y-112.44
X109.925Y-109.35
X110.55Y-108.35
X111.1Y-109.65
X111.2Y-110.8
X111.25Y-108.95
X111.275Y-116.72
X111.625Y-118.175
X112.675Y-76.125
X114.475Y-110.475
X115.325Y-110.475
X115.948Y-79.599
X116.549Y-80.2
X117.0Y-110.9
X118.1Y-63.2
X118.141Y-70.119
X118.141Y-70.969
X118.9Y-72.3
X118.974Y-77.332
X119.0Y-73.5
X121.275Y-70.119
X121.275Y-70.969
X121.5Y-63.9
X121.5Y-80.4
X121.7Y-61.8
X124.2Y-71.1
X124.2Y-72.3
X124.2Y-77.1
X124.4Y-69.9
X126.3Y-85.7
X127.7Y-125.4
X136.05Y-96.825
X136.7Y-97.475
X136.75Y-96.4
X137.05Y-95.575
X137.45Y-97.25
X137.775Y-96.35
X137.8Y-98.65
X138.025Y-97.75
X138.55Y-99.35
X138.575Y-98.45
X139.025Y-97.525
X139.275Y-99.05
X139.3Y-98.125
X139.5Y-116.525
X139.525Y-117.9
X139.725Y-100.525
X139.75Y-118.975
X139.8Y-119.775
X139.85Y-99.65
X140.175Y-115.8
X140.425Y-101.625
X140.425Y-120.075
X140.65Y-100.6
X140.7Y-99.5
X141.0Y-115.9
X141.025Y-114.675
X141.075Y-100.05
X141.1Y-116.925
X141.127Y-120.121
X141.15Y-117.65
X141.175Y-120.8
X141.2Y-118.275
X141.2Y-119.225
X141.2Y-121.55
X141.325Y-103.05
X141.44Y-101.25
X141.6Y-113.825
X141.75Y-100.2
X141.975Y-121.525
X142.0Y-101.8
X142.15Y-103.225
X142.4Y-116.125
X142.525Y-102.425
X142.725Y-113.825
X142.725Y-121.45
X142.75Y-120.4
X142.875Y-101.475
X143.0Y-115.25
X143.2Y-116.45
X143.25Y-102.925
X143.325Y-104.6
X143.425Y-101.95
X143.75Y-113.8
X143.8Y-103.475
X143.8Y-120.4
X143.925Y-115.0
X143.95Y-121.225
X144.025Y-116.675
X144.425Y-104.675
X144.625Y-113.8
X144.725Y-115.175
X144.85Y-117.7
X144.85Y-120.3
X144.875Y-116.875
X144.875Y-118.55
X144.875Y-119.5
X144.925Y-121.175
X145.0Y-102.925
X145.05Y-103.7
X145.775Y-115.225
X145.8Y-116.6
X146.325Y-115.975
X149.25Y-138.25
X149.9Y-85.7
X150.175Y-82.425
X150.9Y-82.45
X152.15Y-81.975
X152.225Y-84.675
X152.5Y-63.5
X152.875Y-83.725
X152.9Y-80.3
X153.167Y-67.728
X153.4Y-133.6
X153.651Y-83.651
X153.75Y-85.3
X154.55Y-85.3
X155.1Y-80.4
X155.625Y-78.7
X155.8Y-80.0
X156.3Y-65.9
X156.3Y-85.1
X156.6Y-84.2
X157.7Y-83.4
X157.926Y-81.264
X158.075Y-64.3
X159.4Y-75.9
X159.4Y-83.25
X160.075Y-82.8
X160.6Y-70.1
X160.6Y-80.1
X161.3Y-80.7
X162.5Y-65.8
X163.3Y-63.0
X163.4Y-66.8
X165.75Y-74.08
X165.8Y-71.53
X166.575Y-65.575
X182.1Y-61.5
X182.2Y-59.5
T4
X107.375Y-70.1
T6
X146.625Y-137.975
X154.175Y-137.85
T7
X101.91Y-127.97
X101.91Y-133.03
X103.18Y-130.51
X104.45Y-127.97
X104.45Y-134.3
X105.72Y-130.51
X106.99Y-127.97
X108.26Y-130.51
X109.53Y-127.97
X110.8Y-130.51
X110.8Y-134.3
X112.07Y-127.97
X113.34Y-130.51
X113.34Y-133.03
X121.84Y-127.97
X121.84Y-133.03
X123.11Y-130.51
X124.38Y-127.97
X124.38Y-134.3
X125.65Y-130.51
X126.92Y-127.97
X128.19Y-130.51
X129.46Y-127.97
X130.73Y-130.51
X130.73Y-134.3
X132.0Y-127.97
X133.27Y-130.51
X133.27Y-133.03
T8
X100.16Y-69.7
X100.16Y-72.2
X100.16Y-74.2
X100.16Y-76.7
X102.78Y-69.7
X102.78Y-72.2
X102.78Y-74.2
X102.78Y-76.7
T9
X167.885Y-71.565
X167.885Y-74.105
X167.885Y-76.645
X167.885Y-79.185
X167.885Y-81.725
X170.425Y-71.565
X170.425Y-74.105
X170.425Y-76.645
X170.425Y-79.185
X170.425Y-81.725
T10
X100.995Y-140.92
X103.535Y-140.92
X111.715Y-140.92
X114.255Y-140.92
X120.925Y-140.92
X123.465Y-140.92
X131.645Y-140.92
X134.185Y-140.92
T11
X161.0Y-51.5
X161.0Y-56.0
X167.5Y-51.5
X167.5Y-56.0
T12
X109.85Y-63.825
X113.15Y-56.575
X113.15Y-71.075
T13
X99.75Y-133.81
X115.5Y-133.81
X119.68Y-133.81
X135.43Y-133.81
T14
X97.45Y-66.63
X97.45Y-79.77
X103.13Y-66.63
X103.13Y-79.77
T5
G00X146.18Y-140.22
M15
G01X146.18Y-141.32
M16
G05
G00X146.18Y-144.65
M15
G01X146.18Y-145.25
M16
G05
G00X154.82Y-140.22
M15
G01X154.82Y-141.32
M16
G05
G00X154.82Y-144.65
M15
G01X154.82Y-145.25
M16
G05
M30
