%TF.GenerationSoftware,KiCad,Pcbnew,10.0.3*%
%TF.CreationDate,2026-05-31T11:06:23+10:00*%
%TF.ProjectId,travel-router,74726176-656c-42d7-926f-757465722e6b,rev?*%
%TF.SameCoordinates,Original*%
%TF.FileFunction,Legend,Top*%
%TF.FilePolarity,Positive*%
%FSLAX46Y46*%
G04 Gerber Fmt 4.6, Leading zero omitted, Abs format (unit mm)*
G04 Created by KiCad (PCBNEW 10.0.3) date 2026-05-31 11:06:23*
%MOMM*%
%LPD*%
G01*
G04 APERTURE LIST*
%ADD10C,0.100000*%
%ADD11C,0.150000*%
%ADD12C,0.120000*%
%ADD13C,0.250000*%
%ADD14C,0.200000*%
%ADD15C,0.060000*%
G04 APERTURE END LIST*
D10*
X187372419Y-57996115D02*
X186372419Y-57996115D01*
X186372419Y-57996115D02*
X186372419Y-57615163D01*
X186372419Y-57615163D02*
X186420038Y-57519925D01*
X186420038Y-57519925D02*
X186467657Y-57472306D01*
X186467657Y-57472306D02*
X186562895Y-57424687D01*
X186562895Y-57424687D02*
X186705752Y-57424687D01*
X186705752Y-57424687D02*
X186800990Y-57472306D01*
X186800990Y-57472306D02*
X186848609Y-57519925D01*
X186848609Y-57519925D02*
X186896228Y-57615163D01*
X186896228Y-57615163D02*
X186896228Y-57996115D01*
X186372419Y-57091353D02*
X187372419Y-56853258D01*
X187372419Y-56853258D02*
X186658133Y-56662782D01*
X186658133Y-56662782D02*
X187372419Y-56472306D01*
X187372419Y-56472306D02*
X186372419Y-56234211D01*
X187372419Y-55281830D02*
X186896228Y-55615163D01*
X187372419Y-55853258D02*
X186372419Y-55853258D01*
X186372419Y-55853258D02*
X186372419Y-55472306D01*
X186372419Y-55472306D02*
X186420038Y-55377068D01*
X186420038Y-55377068D02*
X186467657Y-55329449D01*
X186467657Y-55329449D02*
X186562895Y-55281830D01*
X186562895Y-55281830D02*
X186705752Y-55281830D01*
X186705752Y-55281830D02*
X186800990Y-55329449D01*
X186800990Y-55329449D02*
X186848609Y-55377068D01*
X186848609Y-55377068D02*
X186896228Y-55472306D01*
X186896228Y-55472306D02*
X186896228Y-55853258D01*
X187086704Y-64943734D02*
X187086704Y-64467544D01*
X187372419Y-65038972D02*
X186372419Y-64705639D01*
X186372419Y-64705639D02*
X187372419Y-64372306D01*
X187277180Y-63467544D02*
X187324800Y-63515163D01*
X187324800Y-63515163D02*
X187372419Y-63658020D01*
X187372419Y-63658020D02*
X187372419Y-63753258D01*
X187372419Y-63753258D02*
X187324800Y-63896115D01*
X187324800Y-63896115D02*
X187229561Y-63991353D01*
X187229561Y-63991353D02*
X187134323Y-64038972D01*
X187134323Y-64038972D02*
X186943847Y-64086591D01*
X186943847Y-64086591D02*
X186800990Y-64086591D01*
X186800990Y-64086591D02*
X186610514Y-64038972D01*
X186610514Y-64038972D02*
X186515276Y-63991353D01*
X186515276Y-63991353D02*
X186420038Y-63896115D01*
X186420038Y-63896115D02*
X186372419Y-63753258D01*
X186372419Y-63753258D02*
X186372419Y-63658020D01*
X186372419Y-63658020D02*
X186420038Y-63515163D01*
X186420038Y-63515163D02*
X186467657Y-63467544D01*
X186372419Y-63181829D02*
X186372419Y-62610401D01*
X187372419Y-62896115D02*
X186372419Y-62896115D01*
D11*
X175231009Y-111460714D02*
X175278628Y-111317857D01*
X175278628Y-111317857D02*
X175326247Y-111270238D01*
X175326247Y-111270238D02*
X175421485Y-111222619D01*
X175421485Y-111222619D02*
X175564342Y-111222619D01*
X175564342Y-111222619D02*
X175659580Y-111270238D01*
X175659580Y-111270238D02*
X175707200Y-111317857D01*
X175707200Y-111317857D02*
X175754819Y-111413095D01*
X175754819Y-111413095D02*
X175754819Y-111794047D01*
X175754819Y-111794047D02*
X174754819Y-111794047D01*
X174754819Y-111794047D02*
X174754819Y-111460714D01*
X174754819Y-111460714D02*
X174802438Y-111365476D01*
X174802438Y-111365476D02*
X174850057Y-111317857D01*
X174850057Y-111317857D02*
X174945295Y-111270238D01*
X174945295Y-111270238D02*
X175040533Y-111270238D01*
X175040533Y-111270238D02*
X175135771Y-111317857D01*
X175135771Y-111317857D02*
X175183390Y-111365476D01*
X175183390Y-111365476D02*
X175231009Y-111460714D01*
X175231009Y-111460714D02*
X175231009Y-111794047D01*
X174754819Y-110936904D02*
X174754819Y-110365476D01*
X175754819Y-110651190D02*
X174754819Y-110651190D01*
X175754819Y-109508333D02*
X175754819Y-110079761D01*
X175754819Y-109794047D02*
X174754819Y-109794047D01*
X174754819Y-109794047D02*
X174897676Y-109889285D01*
X174897676Y-109889285D02*
X174992914Y-109984523D01*
X174992914Y-109984523D02*
X175040533Y-110079761D01*
X107884580Y-70441666D02*
X107932200Y-70489285D01*
X107932200Y-70489285D02*
X107979819Y-70632142D01*
X107979819Y-70632142D02*
X107979819Y-70727380D01*
X107979819Y-70727380D02*
X107932200Y-70870237D01*
X107932200Y-70870237D02*
X107836961Y-70965475D01*
X107836961Y-70965475D02*
X107741723Y-71013094D01*
X107741723Y-71013094D02*
X107551247Y-71060713D01*
X107551247Y-71060713D02*
X107408390Y-71060713D01*
X107408390Y-71060713D02*
X107217914Y-71013094D01*
X107217914Y-71013094D02*
X107122676Y-70965475D01*
X107122676Y-70965475D02*
X107027438Y-70870237D01*
X107027438Y-70870237D02*
X106979819Y-70727380D01*
X106979819Y-70727380D02*
X106979819Y-70632142D01*
X106979819Y-70632142D02*
X107027438Y-70489285D01*
X107027438Y-70489285D02*
X107075057Y-70441666D01*
X107313152Y-69584523D02*
X107979819Y-69584523D01*
X106932200Y-69822618D02*
X107646485Y-70060713D01*
X107646485Y-70060713D02*
X107646485Y-69441666D01*
X104904819Y-69911904D02*
X105714342Y-69911904D01*
X105714342Y-69911904D02*
X105809580Y-69864285D01*
X105809580Y-69864285D02*
X105857200Y-69816666D01*
X105857200Y-69816666D02*
X105904819Y-69721428D01*
X105904819Y-69721428D02*
X105904819Y-69530952D01*
X105904819Y-69530952D02*
X105857200Y-69435714D01*
X105857200Y-69435714D02*
X105809580Y-69388095D01*
X105809580Y-69388095D02*
X105714342Y-69340476D01*
X105714342Y-69340476D02*
X104904819Y-69340476D01*
X105904819Y-68340476D02*
X105904819Y-68911904D01*
X105904819Y-68626190D02*
X104904819Y-68626190D01*
X104904819Y-68626190D02*
X105047676Y-68721428D01*
X105047676Y-68721428D02*
X105142914Y-68816666D01*
X105142914Y-68816666D02*
X105190533Y-68911904D01*
X110895833Y-77959580D02*
X110848214Y-78007200D01*
X110848214Y-78007200D02*
X110705357Y-78054819D01*
X110705357Y-78054819D02*
X110610119Y-78054819D01*
X110610119Y-78054819D02*
X110467262Y-78007200D01*
X110467262Y-78007200D02*
X110372024Y-77911961D01*
X110372024Y-77911961D02*
X110324405Y-77816723D01*
X110324405Y-77816723D02*
X110276786Y-77626247D01*
X110276786Y-77626247D02*
X110276786Y-77483390D01*
X110276786Y-77483390D02*
X110324405Y-77292914D01*
X110324405Y-77292914D02*
X110372024Y-77197676D01*
X110372024Y-77197676D02*
X110467262Y-77102438D01*
X110467262Y-77102438D02*
X110610119Y-77054819D01*
X110610119Y-77054819D02*
X110705357Y-77054819D01*
X110705357Y-77054819D02*
X110848214Y-77102438D01*
X110848214Y-77102438D02*
X110895833Y-77150057D01*
X111229167Y-77054819D02*
X111895833Y-77054819D01*
X111895833Y-77054819D02*
X111467262Y-78054819D01*
X107478333Y-110504819D02*
X107145000Y-110028628D01*
X106906905Y-110504819D02*
X106906905Y-109504819D01*
X106906905Y-109504819D02*
X107287857Y-109504819D01*
X107287857Y-109504819D02*
X107383095Y-109552438D01*
X107383095Y-109552438D02*
X107430714Y-109600057D01*
X107430714Y-109600057D02*
X107478333Y-109695295D01*
X107478333Y-109695295D02*
X107478333Y-109838152D01*
X107478333Y-109838152D02*
X107430714Y-109933390D01*
X107430714Y-109933390D02*
X107383095Y-109981009D01*
X107383095Y-109981009D02*
X107287857Y-110028628D01*
X107287857Y-110028628D02*
X106906905Y-110028628D01*
X107811667Y-109504819D02*
X108478333Y-109504819D01*
X108478333Y-109504819D02*
X108049762Y-110504819D01*
X183683333Y-63079819D02*
X183350000Y-62603628D01*
X183111905Y-63079819D02*
X183111905Y-62079819D01*
X183111905Y-62079819D02*
X183492857Y-62079819D01*
X183492857Y-62079819D02*
X183588095Y-62127438D01*
X183588095Y-62127438D02*
X183635714Y-62175057D01*
X183635714Y-62175057D02*
X183683333Y-62270295D01*
X183683333Y-62270295D02*
X183683333Y-62413152D01*
X183683333Y-62413152D02*
X183635714Y-62508390D01*
X183635714Y-62508390D02*
X183588095Y-62556009D01*
X183588095Y-62556009D02*
X183492857Y-62603628D01*
X183492857Y-62603628D02*
X183111905Y-62603628D01*
X184016667Y-62079819D02*
X184635714Y-62079819D01*
X184635714Y-62079819D02*
X184302381Y-62460771D01*
X184302381Y-62460771D02*
X184445238Y-62460771D01*
X184445238Y-62460771D02*
X184540476Y-62508390D01*
X184540476Y-62508390D02*
X184588095Y-62556009D01*
X184588095Y-62556009D02*
X184635714Y-62651247D01*
X184635714Y-62651247D02*
X184635714Y-62889342D01*
X184635714Y-62889342D02*
X184588095Y-62984580D01*
X184588095Y-62984580D02*
X184540476Y-63032200D01*
X184540476Y-63032200D02*
X184445238Y-63079819D01*
X184445238Y-63079819D02*
X184159524Y-63079819D01*
X184159524Y-63079819D02*
X184064286Y-63032200D01*
X184064286Y-63032200D02*
X184016667Y-62984580D01*
X183808333Y-58929819D02*
X183475000Y-58453628D01*
X183236905Y-58929819D02*
X183236905Y-57929819D01*
X183236905Y-57929819D02*
X183617857Y-57929819D01*
X183617857Y-57929819D02*
X183713095Y-57977438D01*
X183713095Y-57977438D02*
X183760714Y-58025057D01*
X183760714Y-58025057D02*
X183808333Y-58120295D01*
X183808333Y-58120295D02*
X183808333Y-58263152D01*
X183808333Y-58263152D02*
X183760714Y-58358390D01*
X183760714Y-58358390D02*
X183713095Y-58406009D01*
X183713095Y-58406009D02*
X183617857Y-58453628D01*
X183617857Y-58453628D02*
X183236905Y-58453628D01*
X184189286Y-58025057D02*
X184236905Y-57977438D01*
X184236905Y-57977438D02*
X184332143Y-57929819D01*
X184332143Y-57929819D02*
X184570238Y-57929819D01*
X184570238Y-57929819D02*
X184665476Y-57977438D01*
X184665476Y-57977438D02*
X184713095Y-58025057D01*
X184713095Y-58025057D02*
X184760714Y-58120295D01*
X184760714Y-58120295D02*
X184760714Y-58215533D01*
X184760714Y-58215533D02*
X184713095Y-58358390D01*
X184713095Y-58358390D02*
X184141667Y-58929819D01*
X184141667Y-58929819D02*
X184760714Y-58929819D01*
X162916667Y-58407200D02*
X163059524Y-58454819D01*
X163059524Y-58454819D02*
X163297619Y-58454819D01*
X163297619Y-58454819D02*
X163392857Y-58407200D01*
X163392857Y-58407200D02*
X163440476Y-58359580D01*
X163440476Y-58359580D02*
X163488095Y-58264342D01*
X163488095Y-58264342D02*
X163488095Y-58169104D01*
X163488095Y-58169104D02*
X163440476Y-58073866D01*
X163440476Y-58073866D02*
X163392857Y-58026247D01*
X163392857Y-58026247D02*
X163297619Y-57978628D01*
X163297619Y-57978628D02*
X163107143Y-57931009D01*
X163107143Y-57931009D02*
X163011905Y-57883390D01*
X163011905Y-57883390D02*
X162964286Y-57835771D01*
X162964286Y-57835771D02*
X162916667Y-57740533D01*
X162916667Y-57740533D02*
X162916667Y-57645295D01*
X162916667Y-57645295D02*
X162964286Y-57550057D01*
X162964286Y-57550057D02*
X163011905Y-57502438D01*
X163011905Y-57502438D02*
X163107143Y-57454819D01*
X163107143Y-57454819D02*
X163345238Y-57454819D01*
X163345238Y-57454819D02*
X163488095Y-57502438D01*
X163821429Y-57454819D02*
X164059524Y-58454819D01*
X164059524Y-58454819D02*
X164250000Y-57740533D01*
X164250000Y-57740533D02*
X164440476Y-58454819D01*
X164440476Y-58454819D02*
X164678572Y-57454819D01*
X165583333Y-58454819D02*
X165011905Y-58454819D01*
X165297619Y-58454819D02*
X165297619Y-57454819D01*
X165297619Y-57454819D02*
X165202381Y-57597676D01*
X165202381Y-57597676D02*
X165107143Y-57692914D01*
X165107143Y-57692914D02*
X165011905Y-57740533D01*
X147249580Y-137616666D02*
X147297200Y-137664285D01*
X147297200Y-137664285D02*
X147344819Y-137807142D01*
X147344819Y-137807142D02*
X147344819Y-137902380D01*
X147344819Y-137902380D02*
X147297200Y-138045237D01*
X147297200Y-138045237D02*
X147201961Y-138140475D01*
X147201961Y-138140475D02*
X147106723Y-138188094D01*
X147106723Y-138188094D02*
X146916247Y-138235713D01*
X146916247Y-138235713D02*
X146773390Y-138235713D01*
X146773390Y-138235713D02*
X146582914Y-138188094D01*
X146582914Y-138188094D02*
X146487676Y-138140475D01*
X146487676Y-138140475D02*
X146392438Y-138045237D01*
X146392438Y-138045237D02*
X146344819Y-137902380D01*
X146344819Y-137902380D02*
X146344819Y-137807142D01*
X146344819Y-137807142D02*
X146392438Y-137664285D01*
X146392438Y-137664285D02*
X146440057Y-137616666D01*
X146440057Y-137235713D02*
X146392438Y-137188094D01*
X146392438Y-137188094D02*
X146344819Y-137092856D01*
X146344819Y-137092856D02*
X146344819Y-136854761D01*
X146344819Y-136854761D02*
X146392438Y-136759523D01*
X146392438Y-136759523D02*
X146440057Y-136711904D01*
X146440057Y-136711904D02*
X146535295Y-136664285D01*
X146535295Y-136664285D02*
X146630533Y-136664285D01*
X146630533Y-136664285D02*
X146773390Y-136711904D01*
X146773390Y-136711904D02*
X147344819Y-137283332D01*
X147344819Y-137283332D02*
X147344819Y-136664285D01*
X105536905Y-72479819D02*
X105536905Y-73289342D01*
X105536905Y-73289342D02*
X105584524Y-73384580D01*
X105584524Y-73384580D02*
X105632143Y-73432200D01*
X105632143Y-73432200D02*
X105727381Y-73479819D01*
X105727381Y-73479819D02*
X105917857Y-73479819D01*
X105917857Y-73479819D02*
X106013095Y-73432200D01*
X106013095Y-73432200D02*
X106060714Y-73384580D01*
X106060714Y-73384580D02*
X106108333Y-73289342D01*
X106108333Y-73289342D02*
X106108333Y-72479819D01*
X107108333Y-73479819D02*
X106536905Y-73479819D01*
X106822619Y-73479819D02*
X106822619Y-72479819D01*
X106822619Y-72479819D02*
X106727381Y-72622676D01*
X106727381Y-72622676D02*
X106632143Y-72717914D01*
X106632143Y-72717914D02*
X106536905Y-72765533D01*
X107727381Y-72479819D02*
X107822619Y-72479819D01*
X107822619Y-72479819D02*
X107917857Y-72527438D01*
X107917857Y-72527438D02*
X107965476Y-72575057D01*
X107965476Y-72575057D02*
X108013095Y-72670295D01*
X108013095Y-72670295D02*
X108060714Y-72860771D01*
X108060714Y-72860771D02*
X108060714Y-73098866D01*
X108060714Y-73098866D02*
X108013095Y-73289342D01*
X108013095Y-73289342D02*
X107965476Y-73384580D01*
X107965476Y-73384580D02*
X107917857Y-73432200D01*
X107917857Y-73432200D02*
X107822619Y-73479819D01*
X107822619Y-73479819D02*
X107727381Y-73479819D01*
X107727381Y-73479819D02*
X107632143Y-73432200D01*
X107632143Y-73432200D02*
X107584524Y-73384580D01*
X107584524Y-73384580D02*
X107536905Y-73289342D01*
X107536905Y-73289342D02*
X107489286Y-73098866D01*
X107489286Y-73098866D02*
X107489286Y-72860771D01*
X107489286Y-72860771D02*
X107536905Y-72670295D01*
X107536905Y-72670295D02*
X107584524Y-72575057D01*
X107584524Y-72575057D02*
X107632143Y-72527438D01*
X107632143Y-72527438D02*
X107727381Y-72479819D01*
X106988095Y-78304819D02*
X106988095Y-79114342D01*
X106988095Y-79114342D02*
X107035714Y-79209580D01*
X107035714Y-79209580D02*
X107083333Y-79257200D01*
X107083333Y-79257200D02*
X107178571Y-79304819D01*
X107178571Y-79304819D02*
X107369047Y-79304819D01*
X107369047Y-79304819D02*
X107464285Y-79257200D01*
X107464285Y-79257200D02*
X107511904Y-79209580D01*
X107511904Y-79209580D02*
X107559523Y-79114342D01*
X107559523Y-79114342D02*
X107559523Y-78304819D01*
X107988095Y-78400057D02*
X108035714Y-78352438D01*
X108035714Y-78352438D02*
X108130952Y-78304819D01*
X108130952Y-78304819D02*
X108369047Y-78304819D01*
X108369047Y-78304819D02*
X108464285Y-78352438D01*
X108464285Y-78352438D02*
X108511904Y-78400057D01*
X108511904Y-78400057D02*
X108559523Y-78495295D01*
X108559523Y-78495295D02*
X108559523Y-78590533D01*
X108559523Y-78590533D02*
X108511904Y-78733390D01*
X108511904Y-78733390D02*
X107940476Y-79304819D01*
X107940476Y-79304819D02*
X108559523Y-79304819D01*
X118904819Y-65063094D02*
X119714342Y-65063094D01*
X119714342Y-65063094D02*
X119809580Y-65015475D01*
X119809580Y-65015475D02*
X119857200Y-64967856D01*
X119857200Y-64967856D02*
X119904819Y-64872618D01*
X119904819Y-64872618D02*
X119904819Y-64682142D01*
X119904819Y-64682142D02*
X119857200Y-64586904D01*
X119857200Y-64586904D02*
X119809580Y-64539285D01*
X119809580Y-64539285D02*
X119714342Y-64491666D01*
X119714342Y-64491666D02*
X118904819Y-64491666D01*
X119904819Y-63491666D02*
X119904819Y-64063094D01*
X119904819Y-63777380D02*
X118904819Y-63777380D01*
X118904819Y-63777380D02*
X119047676Y-63872618D01*
X119047676Y-63872618D02*
X119142914Y-63967856D01*
X119142914Y-63967856D02*
X119190533Y-64063094D01*
X119000057Y-63110713D02*
X118952438Y-63063094D01*
X118952438Y-63063094D02*
X118904819Y-62967856D01*
X118904819Y-62967856D02*
X118904819Y-62729761D01*
X118904819Y-62729761D02*
X118952438Y-62634523D01*
X118952438Y-62634523D02*
X119000057Y-62586904D01*
X119000057Y-62586904D02*
X119095295Y-62539285D01*
X119095295Y-62539285D02*
X119190533Y-62539285D01*
X119190533Y-62539285D02*
X119333390Y-62586904D01*
X119333390Y-62586904D02*
X119904819Y-63158332D01*
X119904819Y-63158332D02*
X119904819Y-62539285D01*
X111374819Y-125781904D02*
X112184342Y-125781904D01*
X112184342Y-125781904D02*
X112279580Y-125734285D01*
X112279580Y-125734285D02*
X112327200Y-125686666D01*
X112327200Y-125686666D02*
X112374819Y-125591428D01*
X112374819Y-125591428D02*
X112374819Y-125400952D01*
X112374819Y-125400952D02*
X112327200Y-125305714D01*
X112327200Y-125305714D02*
X112279580Y-125258095D01*
X112279580Y-125258095D02*
X112184342Y-125210476D01*
X112184342Y-125210476D02*
X111374819Y-125210476D01*
X112374819Y-124686666D02*
X112374819Y-124496190D01*
X112374819Y-124496190D02*
X112327200Y-124400952D01*
X112327200Y-124400952D02*
X112279580Y-124353333D01*
X112279580Y-124353333D02*
X112136723Y-124258095D01*
X112136723Y-124258095D02*
X111946247Y-124210476D01*
X111946247Y-124210476D02*
X111565295Y-124210476D01*
X111565295Y-124210476D02*
X111470057Y-124258095D01*
X111470057Y-124258095D02*
X111422438Y-124305714D01*
X111422438Y-124305714D02*
X111374819Y-124400952D01*
X111374819Y-124400952D02*
X111374819Y-124591428D01*
X111374819Y-124591428D02*
X111422438Y-124686666D01*
X111422438Y-124686666D02*
X111470057Y-124734285D01*
X111470057Y-124734285D02*
X111565295Y-124781904D01*
X111565295Y-124781904D02*
X111803390Y-124781904D01*
X111803390Y-124781904D02*
X111898628Y-124734285D01*
X111898628Y-124734285D02*
X111946247Y-124686666D01*
X111946247Y-124686666D02*
X111993866Y-124591428D01*
X111993866Y-124591428D02*
X111993866Y-124400952D01*
X111993866Y-124400952D02*
X111946247Y-124305714D01*
X111946247Y-124305714D02*
X111898628Y-124258095D01*
X111898628Y-124258095D02*
X111803390Y-124210476D01*
X108533333Y-87609580D02*
X108485714Y-87657200D01*
X108485714Y-87657200D02*
X108342857Y-87704819D01*
X108342857Y-87704819D02*
X108247619Y-87704819D01*
X108247619Y-87704819D02*
X108104762Y-87657200D01*
X108104762Y-87657200D02*
X108009524Y-87561961D01*
X108009524Y-87561961D02*
X107961905Y-87466723D01*
X107961905Y-87466723D02*
X107914286Y-87276247D01*
X107914286Y-87276247D02*
X107914286Y-87133390D01*
X107914286Y-87133390D02*
X107961905Y-86942914D01*
X107961905Y-86942914D02*
X108009524Y-86847676D01*
X108009524Y-86847676D02*
X108104762Y-86752438D01*
X108104762Y-86752438D02*
X108247619Y-86704819D01*
X108247619Y-86704819D02*
X108342857Y-86704819D01*
X108342857Y-86704819D02*
X108485714Y-86752438D01*
X108485714Y-86752438D02*
X108533333Y-86800057D01*
X109438095Y-86704819D02*
X108961905Y-86704819D01*
X108961905Y-86704819D02*
X108914286Y-87181009D01*
X108914286Y-87181009D02*
X108961905Y-87133390D01*
X108961905Y-87133390D02*
X109057143Y-87085771D01*
X109057143Y-87085771D02*
X109295238Y-87085771D01*
X109295238Y-87085771D02*
X109390476Y-87133390D01*
X109390476Y-87133390D02*
X109438095Y-87181009D01*
X109438095Y-87181009D02*
X109485714Y-87276247D01*
X109485714Y-87276247D02*
X109485714Y-87514342D01*
X109485714Y-87514342D02*
X109438095Y-87609580D01*
X109438095Y-87609580D02*
X109390476Y-87657200D01*
X109390476Y-87657200D02*
X109295238Y-87704819D01*
X109295238Y-87704819D02*
X109057143Y-87704819D01*
X109057143Y-87704819D02*
X108961905Y-87657200D01*
X108961905Y-87657200D02*
X108914286Y-87609580D01*
X137114819Y-59737142D02*
X136114819Y-59737142D01*
X136114819Y-59737142D02*
X136829104Y-59403809D01*
X136829104Y-59403809D02*
X136114819Y-59070476D01*
X136114819Y-59070476D02*
X137114819Y-59070476D01*
X137114819Y-58451428D02*
X137067200Y-58546666D01*
X137067200Y-58546666D02*
X137019580Y-58594285D01*
X137019580Y-58594285D02*
X136924342Y-58641904D01*
X136924342Y-58641904D02*
X136638628Y-58641904D01*
X136638628Y-58641904D02*
X136543390Y-58594285D01*
X136543390Y-58594285D02*
X136495771Y-58546666D01*
X136495771Y-58546666D02*
X136448152Y-58451428D01*
X136448152Y-58451428D02*
X136448152Y-58308571D01*
X136448152Y-58308571D02*
X136495771Y-58213333D01*
X136495771Y-58213333D02*
X136543390Y-58165714D01*
X136543390Y-58165714D02*
X136638628Y-58118095D01*
X136638628Y-58118095D02*
X136924342Y-58118095D01*
X136924342Y-58118095D02*
X137019580Y-58165714D01*
X137019580Y-58165714D02*
X137067200Y-58213333D01*
X137067200Y-58213333D02*
X137114819Y-58308571D01*
X137114819Y-58308571D02*
X137114819Y-58451428D01*
X137114819Y-57260952D02*
X136114819Y-57260952D01*
X137067200Y-57260952D02*
X137114819Y-57356190D01*
X137114819Y-57356190D02*
X137114819Y-57546666D01*
X137114819Y-57546666D02*
X137067200Y-57641904D01*
X137067200Y-57641904D02*
X137019580Y-57689523D01*
X137019580Y-57689523D02*
X136924342Y-57737142D01*
X136924342Y-57737142D02*
X136638628Y-57737142D01*
X136638628Y-57737142D02*
X136543390Y-57689523D01*
X136543390Y-57689523D02*
X136495771Y-57641904D01*
X136495771Y-57641904D02*
X136448152Y-57546666D01*
X136448152Y-57546666D02*
X136448152Y-57356190D01*
X136448152Y-57356190D02*
X136495771Y-57260952D01*
X136448152Y-56356190D02*
X137114819Y-56356190D01*
X136448152Y-56784761D02*
X136971961Y-56784761D01*
X136971961Y-56784761D02*
X137067200Y-56737142D01*
X137067200Y-56737142D02*
X137114819Y-56641904D01*
X137114819Y-56641904D02*
X137114819Y-56499047D01*
X137114819Y-56499047D02*
X137067200Y-56403809D01*
X137067200Y-56403809D02*
X137019580Y-56356190D01*
X137114819Y-55737142D02*
X137067200Y-55832380D01*
X137067200Y-55832380D02*
X136971961Y-55879999D01*
X136971961Y-55879999D02*
X136114819Y-55879999D01*
X137067200Y-54975237D02*
X137114819Y-55070475D01*
X137114819Y-55070475D02*
X137114819Y-55260951D01*
X137114819Y-55260951D02*
X137067200Y-55356189D01*
X137067200Y-55356189D02*
X136971961Y-55403808D01*
X136971961Y-55403808D02*
X136591009Y-55403808D01*
X136591009Y-55403808D02*
X136495771Y-55356189D01*
X136495771Y-55356189D02*
X136448152Y-55260951D01*
X136448152Y-55260951D02*
X136448152Y-55070475D01*
X136448152Y-55070475D02*
X136495771Y-54975237D01*
X136495771Y-54975237D02*
X136591009Y-54927618D01*
X136591009Y-54927618D02*
X136686247Y-54927618D01*
X136686247Y-54927618D02*
X136781485Y-55403808D01*
X137114819Y-53975237D02*
X137114819Y-54546665D01*
X137114819Y-54260951D02*
X136114819Y-54260951D01*
X136114819Y-54260951D02*
X136257676Y-54356189D01*
X136257676Y-54356189D02*
X136352914Y-54451427D01*
X136352914Y-54451427D02*
X136400533Y-54546665D01*
X109778333Y-112794819D02*
X109445000Y-112318628D01*
X109206905Y-112794819D02*
X109206905Y-111794819D01*
X109206905Y-111794819D02*
X109587857Y-111794819D01*
X109587857Y-111794819D02*
X109683095Y-111842438D01*
X109683095Y-111842438D02*
X109730714Y-111890057D01*
X109730714Y-111890057D02*
X109778333Y-111985295D01*
X109778333Y-111985295D02*
X109778333Y-112128152D01*
X109778333Y-112128152D02*
X109730714Y-112223390D01*
X109730714Y-112223390D02*
X109683095Y-112271009D01*
X109683095Y-112271009D02*
X109587857Y-112318628D01*
X109587857Y-112318628D02*
X109206905Y-112318628D01*
X110683095Y-111794819D02*
X110206905Y-111794819D01*
X110206905Y-111794819D02*
X110159286Y-112271009D01*
X110159286Y-112271009D02*
X110206905Y-112223390D01*
X110206905Y-112223390D02*
X110302143Y-112175771D01*
X110302143Y-112175771D02*
X110540238Y-112175771D01*
X110540238Y-112175771D02*
X110635476Y-112223390D01*
X110635476Y-112223390D02*
X110683095Y-112271009D01*
X110683095Y-112271009D02*
X110730714Y-112366247D01*
X110730714Y-112366247D02*
X110730714Y-112604342D01*
X110730714Y-112604342D02*
X110683095Y-112699580D01*
X110683095Y-112699580D02*
X110635476Y-112747200D01*
X110635476Y-112747200D02*
X110540238Y-112794819D01*
X110540238Y-112794819D02*
X110302143Y-112794819D01*
X110302143Y-112794819D02*
X110206905Y-112747200D01*
X110206905Y-112747200D02*
X110159286Y-112699580D01*
X152149580Y-137541666D02*
X152197200Y-137589285D01*
X152197200Y-137589285D02*
X152244819Y-137732142D01*
X152244819Y-137732142D02*
X152244819Y-137827380D01*
X152244819Y-137827380D02*
X152197200Y-137970237D01*
X152197200Y-137970237D02*
X152101961Y-138065475D01*
X152101961Y-138065475D02*
X152006723Y-138113094D01*
X152006723Y-138113094D02*
X151816247Y-138160713D01*
X151816247Y-138160713D02*
X151673390Y-138160713D01*
X151673390Y-138160713D02*
X151482914Y-138113094D01*
X151482914Y-138113094D02*
X151387676Y-138065475D01*
X151387676Y-138065475D02*
X151292438Y-137970237D01*
X151292438Y-137970237D02*
X151244819Y-137827380D01*
X151244819Y-137827380D02*
X151244819Y-137732142D01*
X151244819Y-137732142D02*
X151292438Y-137589285D01*
X151292438Y-137589285D02*
X151340057Y-137541666D01*
X152244819Y-136589285D02*
X152244819Y-137160713D01*
X152244819Y-136874999D02*
X151244819Y-136874999D01*
X151244819Y-136874999D02*
X151387676Y-136970237D01*
X151387676Y-136970237D02*
X151482914Y-137065475D01*
X151482914Y-137065475D02*
X151530533Y-137160713D01*
X121199819Y-125798614D02*
X122009342Y-125798614D01*
X122009342Y-125798614D02*
X122104580Y-125750995D01*
X122104580Y-125750995D02*
X122152200Y-125703376D01*
X122152200Y-125703376D02*
X122199819Y-125608138D01*
X122199819Y-125608138D02*
X122199819Y-125417662D01*
X122199819Y-125417662D02*
X122152200Y-125322424D01*
X122152200Y-125322424D02*
X122104580Y-125274805D01*
X122104580Y-125274805D02*
X122009342Y-125227186D01*
X122009342Y-125227186D02*
X121199819Y-125227186D01*
X121533152Y-124322424D02*
X122199819Y-124322424D01*
X121152200Y-124560519D02*
X121866485Y-124798614D01*
X121866485Y-124798614D02*
X121866485Y-124179567D01*
X147629819Y-136813094D02*
X148439342Y-136813094D01*
X148439342Y-136813094D02*
X148534580Y-136765475D01*
X148534580Y-136765475D02*
X148582200Y-136717856D01*
X148582200Y-136717856D02*
X148629819Y-136622618D01*
X148629819Y-136622618D02*
X148629819Y-136432142D01*
X148629819Y-136432142D02*
X148582200Y-136336904D01*
X148582200Y-136336904D02*
X148534580Y-136289285D01*
X148534580Y-136289285D02*
X148439342Y-136241666D01*
X148439342Y-136241666D02*
X147629819Y-136241666D01*
X148629819Y-135241666D02*
X148629819Y-135813094D01*
X148629819Y-135527380D02*
X147629819Y-135527380D01*
X147629819Y-135527380D02*
X147772676Y-135622618D01*
X147772676Y-135622618D02*
X147867914Y-135717856D01*
X147867914Y-135717856D02*
X147915533Y-135813094D01*
X148629819Y-134289285D02*
X148629819Y-134860713D01*
X148629819Y-134574999D02*
X147629819Y-134574999D01*
X147629819Y-134574999D02*
X147772676Y-134670237D01*
X147772676Y-134670237D02*
X147867914Y-134765475D01*
X147867914Y-134765475D02*
X147915533Y-134860713D01*
X105559580Y-77766666D02*
X105607200Y-77814285D01*
X105607200Y-77814285D02*
X105654819Y-77957142D01*
X105654819Y-77957142D02*
X105654819Y-78052380D01*
X105654819Y-78052380D02*
X105607200Y-78195237D01*
X105607200Y-78195237D02*
X105511961Y-78290475D01*
X105511961Y-78290475D02*
X105416723Y-78338094D01*
X105416723Y-78338094D02*
X105226247Y-78385713D01*
X105226247Y-78385713D02*
X105083390Y-78385713D01*
X105083390Y-78385713D02*
X104892914Y-78338094D01*
X104892914Y-78338094D02*
X104797676Y-78290475D01*
X104797676Y-78290475D02*
X104702438Y-78195237D01*
X104702438Y-78195237D02*
X104654819Y-78052380D01*
X104654819Y-78052380D02*
X104654819Y-77957142D01*
X104654819Y-77957142D02*
X104702438Y-77814285D01*
X104702438Y-77814285D02*
X104750057Y-77766666D01*
X105083390Y-77195237D02*
X105035771Y-77290475D01*
X105035771Y-77290475D02*
X104988152Y-77338094D01*
X104988152Y-77338094D02*
X104892914Y-77385713D01*
X104892914Y-77385713D02*
X104845295Y-77385713D01*
X104845295Y-77385713D02*
X104750057Y-77338094D01*
X104750057Y-77338094D02*
X104702438Y-77290475D01*
X104702438Y-77290475D02*
X104654819Y-77195237D01*
X104654819Y-77195237D02*
X104654819Y-77004761D01*
X104654819Y-77004761D02*
X104702438Y-76909523D01*
X104702438Y-76909523D02*
X104750057Y-76861904D01*
X104750057Y-76861904D02*
X104845295Y-76814285D01*
X104845295Y-76814285D02*
X104892914Y-76814285D01*
X104892914Y-76814285D02*
X104988152Y-76861904D01*
X104988152Y-76861904D02*
X105035771Y-76909523D01*
X105035771Y-76909523D02*
X105083390Y-77004761D01*
X105083390Y-77004761D02*
X105083390Y-77195237D01*
X105083390Y-77195237D02*
X105131009Y-77290475D01*
X105131009Y-77290475D02*
X105178628Y-77338094D01*
X105178628Y-77338094D02*
X105273866Y-77385713D01*
X105273866Y-77385713D02*
X105464342Y-77385713D01*
X105464342Y-77385713D02*
X105559580Y-77338094D01*
X105559580Y-77338094D02*
X105607200Y-77290475D01*
X105607200Y-77290475D02*
X105654819Y-77195237D01*
X105654819Y-77195237D02*
X105654819Y-77004761D01*
X105654819Y-77004761D02*
X105607200Y-76909523D01*
X105607200Y-76909523D02*
X105559580Y-76861904D01*
X105559580Y-76861904D02*
X105464342Y-76814285D01*
X105464342Y-76814285D02*
X105273866Y-76814285D01*
X105273866Y-76814285D02*
X105178628Y-76861904D01*
X105178628Y-76861904D02*
X105131009Y-76909523D01*
X105131009Y-76909523D02*
X105083390Y-77004761D01*
X128699819Y-125798614D02*
X129509342Y-125798614D01*
X129509342Y-125798614D02*
X129604580Y-125750995D01*
X129604580Y-125750995D02*
X129652200Y-125703376D01*
X129652200Y-125703376D02*
X129699819Y-125608138D01*
X129699819Y-125608138D02*
X129699819Y-125417662D01*
X129699819Y-125417662D02*
X129652200Y-125322424D01*
X129652200Y-125322424D02*
X129604580Y-125274805D01*
X129604580Y-125274805D02*
X129509342Y-125227186D01*
X129509342Y-125227186D02*
X128699819Y-125227186D01*
X128699819Y-124274805D02*
X128699819Y-124750995D01*
X128699819Y-124750995D02*
X129176009Y-124798614D01*
X129176009Y-124798614D02*
X129128390Y-124750995D01*
X129128390Y-124750995D02*
X129080771Y-124655757D01*
X129080771Y-124655757D02*
X129080771Y-124417662D01*
X129080771Y-124417662D02*
X129128390Y-124322424D01*
X129128390Y-124322424D02*
X129176009Y-124274805D01*
X129176009Y-124274805D02*
X129271247Y-124227186D01*
X129271247Y-124227186D02*
X129509342Y-124227186D01*
X129509342Y-124227186D02*
X129604580Y-124274805D01*
X129604580Y-124274805D02*
X129652200Y-124322424D01*
X129652200Y-124322424D02*
X129699819Y-124417662D01*
X129699819Y-124417662D02*
X129699819Y-124655757D01*
X129699819Y-124655757D02*
X129652200Y-124750995D01*
X129652200Y-124750995D02*
X129604580Y-124798614D01*
X101449819Y-125778614D02*
X102259342Y-125778614D01*
X102259342Y-125778614D02*
X102354580Y-125730995D01*
X102354580Y-125730995D02*
X102402200Y-125683376D01*
X102402200Y-125683376D02*
X102449819Y-125588138D01*
X102449819Y-125588138D02*
X102449819Y-125397662D01*
X102449819Y-125397662D02*
X102402200Y-125302424D01*
X102402200Y-125302424D02*
X102354580Y-125254805D01*
X102354580Y-125254805D02*
X102259342Y-125207186D01*
X102259342Y-125207186D02*
X101449819Y-125207186D01*
X101878390Y-124588138D02*
X101830771Y-124683376D01*
X101830771Y-124683376D02*
X101783152Y-124730995D01*
X101783152Y-124730995D02*
X101687914Y-124778614D01*
X101687914Y-124778614D02*
X101640295Y-124778614D01*
X101640295Y-124778614D02*
X101545057Y-124730995D01*
X101545057Y-124730995D02*
X101497438Y-124683376D01*
X101497438Y-124683376D02*
X101449819Y-124588138D01*
X101449819Y-124588138D02*
X101449819Y-124397662D01*
X101449819Y-124397662D02*
X101497438Y-124302424D01*
X101497438Y-124302424D02*
X101545057Y-124254805D01*
X101545057Y-124254805D02*
X101640295Y-124207186D01*
X101640295Y-124207186D02*
X101687914Y-124207186D01*
X101687914Y-124207186D02*
X101783152Y-124254805D01*
X101783152Y-124254805D02*
X101830771Y-124302424D01*
X101830771Y-124302424D02*
X101878390Y-124397662D01*
X101878390Y-124397662D02*
X101878390Y-124588138D01*
X101878390Y-124588138D02*
X101926009Y-124683376D01*
X101926009Y-124683376D02*
X101973628Y-124730995D01*
X101973628Y-124730995D02*
X102068866Y-124778614D01*
X102068866Y-124778614D02*
X102259342Y-124778614D01*
X102259342Y-124778614D02*
X102354580Y-124730995D01*
X102354580Y-124730995D02*
X102402200Y-124683376D01*
X102402200Y-124683376D02*
X102449819Y-124588138D01*
X102449819Y-124588138D02*
X102449819Y-124397662D01*
X102449819Y-124397662D02*
X102402200Y-124302424D01*
X102402200Y-124302424D02*
X102354580Y-124254805D01*
X102354580Y-124254805D02*
X102259342Y-124207186D01*
X102259342Y-124207186D02*
X102068866Y-124207186D01*
X102068866Y-124207186D02*
X101973628Y-124254805D01*
X101973628Y-124254805D02*
X101926009Y-124302424D01*
X101926009Y-124302424D02*
X101878390Y-124397662D01*
X110895833Y-74499580D02*
X110848214Y-74547200D01*
X110848214Y-74547200D02*
X110705357Y-74594819D01*
X110705357Y-74594819D02*
X110610119Y-74594819D01*
X110610119Y-74594819D02*
X110467262Y-74547200D01*
X110467262Y-74547200D02*
X110372024Y-74451961D01*
X110372024Y-74451961D02*
X110324405Y-74356723D01*
X110324405Y-74356723D02*
X110276786Y-74166247D01*
X110276786Y-74166247D02*
X110276786Y-74023390D01*
X110276786Y-74023390D02*
X110324405Y-73832914D01*
X110324405Y-73832914D02*
X110372024Y-73737676D01*
X110372024Y-73737676D02*
X110467262Y-73642438D01*
X110467262Y-73642438D02*
X110610119Y-73594819D01*
X110610119Y-73594819D02*
X110705357Y-73594819D01*
X110705357Y-73594819D02*
X110848214Y-73642438D01*
X110848214Y-73642438D02*
X110895833Y-73690057D01*
X111752976Y-73594819D02*
X111562500Y-73594819D01*
X111562500Y-73594819D02*
X111467262Y-73642438D01*
X111467262Y-73642438D02*
X111419643Y-73690057D01*
X111419643Y-73690057D02*
X111324405Y-73832914D01*
X111324405Y-73832914D02*
X111276786Y-74023390D01*
X111276786Y-74023390D02*
X111276786Y-74404342D01*
X111276786Y-74404342D02*
X111324405Y-74499580D01*
X111324405Y-74499580D02*
X111372024Y-74547200D01*
X111372024Y-74547200D02*
X111467262Y-74594819D01*
X111467262Y-74594819D02*
X111657738Y-74594819D01*
X111657738Y-74594819D02*
X111752976Y-74547200D01*
X111752976Y-74547200D02*
X111800595Y-74499580D01*
X111800595Y-74499580D02*
X111848214Y-74404342D01*
X111848214Y-74404342D02*
X111848214Y-74166247D01*
X111848214Y-74166247D02*
X111800595Y-74071009D01*
X111800595Y-74071009D02*
X111752976Y-74023390D01*
X111752976Y-74023390D02*
X111657738Y-73975771D01*
X111657738Y-73975771D02*
X111467262Y-73975771D01*
X111467262Y-73975771D02*
X111372024Y-74023390D01*
X111372024Y-74023390D02*
X111324405Y-74071009D01*
X111324405Y-74071009D02*
X111276786Y-74166247D01*
X169054819Y-64783333D02*
X169769104Y-64783333D01*
X169769104Y-64783333D02*
X169911961Y-64830952D01*
X169911961Y-64830952D02*
X170007200Y-64926190D01*
X170007200Y-64926190D02*
X170054819Y-65069047D01*
X170054819Y-65069047D02*
X170054819Y-65164285D01*
X169054819Y-63878571D02*
X169054819Y-64069047D01*
X169054819Y-64069047D02*
X169102438Y-64164285D01*
X169102438Y-64164285D02*
X169150057Y-64211904D01*
X169150057Y-64211904D02*
X169292914Y-64307142D01*
X169292914Y-64307142D02*
X169483390Y-64354761D01*
X169483390Y-64354761D02*
X169864342Y-64354761D01*
X169864342Y-64354761D02*
X169959580Y-64307142D01*
X169959580Y-64307142D02*
X170007200Y-64259523D01*
X170007200Y-64259523D02*
X170054819Y-64164285D01*
X170054819Y-64164285D02*
X170054819Y-63973809D01*
X170054819Y-63973809D02*
X170007200Y-63878571D01*
X170007200Y-63878571D02*
X169959580Y-63830952D01*
X169959580Y-63830952D02*
X169864342Y-63783333D01*
X169864342Y-63783333D02*
X169626247Y-63783333D01*
X169626247Y-63783333D02*
X169531009Y-63830952D01*
X169531009Y-63830952D02*
X169483390Y-63878571D01*
X169483390Y-63878571D02*
X169435771Y-63973809D01*
X169435771Y-63973809D02*
X169435771Y-64164285D01*
X169435771Y-64164285D02*
X169483390Y-64259523D01*
X169483390Y-64259523D02*
X169531009Y-64307142D01*
X169531009Y-64307142D02*
X169626247Y-64354761D01*
X113633333Y-76584819D02*
X113300000Y-76108628D01*
X113061905Y-76584819D02*
X113061905Y-75584819D01*
X113061905Y-75584819D02*
X113442857Y-75584819D01*
X113442857Y-75584819D02*
X113538095Y-75632438D01*
X113538095Y-75632438D02*
X113585714Y-75680057D01*
X113585714Y-75680057D02*
X113633333Y-75775295D01*
X113633333Y-75775295D02*
X113633333Y-75918152D01*
X113633333Y-75918152D02*
X113585714Y-76013390D01*
X113585714Y-76013390D02*
X113538095Y-76061009D01*
X113538095Y-76061009D02*
X113442857Y-76108628D01*
X113442857Y-76108628D02*
X113061905Y-76108628D01*
X114585714Y-76584819D02*
X114014286Y-76584819D01*
X114300000Y-76584819D02*
X114300000Y-75584819D01*
X114300000Y-75584819D02*
X114204762Y-75727676D01*
X114204762Y-75727676D02*
X114109524Y-75822914D01*
X114109524Y-75822914D02*
X114014286Y-75870533D01*
X99368809Y-115848628D02*
X99368809Y-116324819D01*
X99035476Y-115324819D02*
X99368809Y-115848628D01*
X99368809Y-115848628D02*
X99702142Y-115324819D01*
X100559285Y-116324819D02*
X99987857Y-116324819D01*
X100273571Y-116324819D02*
X100273571Y-115324819D01*
X100273571Y-115324819D02*
X100178333Y-115467676D01*
X100178333Y-115467676D02*
X100083095Y-115562914D01*
X100083095Y-115562914D02*
X99987857Y-115610533D01*
X99483095Y-112226819D02*
X100054523Y-112226819D01*
X99768809Y-113226819D02*
X99768809Y-112226819D01*
X100387857Y-113226819D02*
X100387857Y-112226819D01*
X100387857Y-112226819D02*
X100768809Y-112226819D01*
X100768809Y-112226819D02*
X100864047Y-112274438D01*
X100864047Y-112274438D02*
X100911666Y-112322057D01*
X100911666Y-112322057D02*
X100959285Y-112417295D01*
X100959285Y-112417295D02*
X100959285Y-112560152D01*
X100959285Y-112560152D02*
X100911666Y-112655390D01*
X100911666Y-112655390D02*
X100864047Y-112703009D01*
X100864047Y-112703009D02*
X100768809Y-112750628D01*
X100768809Y-112750628D02*
X100387857Y-112750628D01*
X101911666Y-113226819D02*
X101340238Y-113226819D01*
X101625952Y-113226819D02*
X101625952Y-112226819D01*
X101625952Y-112226819D02*
X101530714Y-112369676D01*
X101530714Y-112369676D02*
X101435476Y-112464914D01*
X101435476Y-112464914D02*
X101340238Y-112512533D01*
X109778333Y-109504819D02*
X109445000Y-109028628D01*
X109206905Y-109504819D02*
X109206905Y-108504819D01*
X109206905Y-108504819D02*
X109587857Y-108504819D01*
X109587857Y-108504819D02*
X109683095Y-108552438D01*
X109683095Y-108552438D02*
X109730714Y-108600057D01*
X109730714Y-108600057D02*
X109778333Y-108695295D01*
X109778333Y-108695295D02*
X109778333Y-108838152D01*
X109778333Y-108838152D02*
X109730714Y-108933390D01*
X109730714Y-108933390D02*
X109683095Y-108981009D01*
X109683095Y-108981009D02*
X109587857Y-109028628D01*
X109587857Y-109028628D02*
X109206905Y-109028628D01*
X110635476Y-108504819D02*
X110445000Y-108504819D01*
X110445000Y-108504819D02*
X110349762Y-108552438D01*
X110349762Y-108552438D02*
X110302143Y-108600057D01*
X110302143Y-108600057D02*
X110206905Y-108742914D01*
X110206905Y-108742914D02*
X110159286Y-108933390D01*
X110159286Y-108933390D02*
X110159286Y-109314342D01*
X110159286Y-109314342D02*
X110206905Y-109409580D01*
X110206905Y-109409580D02*
X110254524Y-109457200D01*
X110254524Y-109457200D02*
X110349762Y-109504819D01*
X110349762Y-109504819D02*
X110540238Y-109504819D01*
X110540238Y-109504819D02*
X110635476Y-109457200D01*
X110635476Y-109457200D02*
X110683095Y-109409580D01*
X110683095Y-109409580D02*
X110730714Y-109314342D01*
X110730714Y-109314342D02*
X110730714Y-109076247D01*
X110730714Y-109076247D02*
X110683095Y-108981009D01*
X110683095Y-108981009D02*
X110635476Y-108933390D01*
X110635476Y-108933390D02*
X110540238Y-108885771D01*
X110540238Y-108885771D02*
X110349762Y-108885771D01*
X110349762Y-108885771D02*
X110254524Y-108933390D01*
X110254524Y-108933390D02*
X110206905Y-108981009D01*
X110206905Y-108981009D02*
X110159286Y-109076247D01*
X106883333Y-64384580D02*
X106835714Y-64432200D01*
X106835714Y-64432200D02*
X106692857Y-64479819D01*
X106692857Y-64479819D02*
X106597619Y-64479819D01*
X106597619Y-64479819D02*
X106454762Y-64432200D01*
X106454762Y-64432200D02*
X106359524Y-64336961D01*
X106359524Y-64336961D02*
X106311905Y-64241723D01*
X106311905Y-64241723D02*
X106264286Y-64051247D01*
X106264286Y-64051247D02*
X106264286Y-63908390D01*
X106264286Y-63908390D02*
X106311905Y-63717914D01*
X106311905Y-63717914D02*
X106359524Y-63622676D01*
X106359524Y-63622676D02*
X106454762Y-63527438D01*
X106454762Y-63527438D02*
X106597619Y-63479819D01*
X106597619Y-63479819D02*
X106692857Y-63479819D01*
X106692857Y-63479819D02*
X106835714Y-63527438D01*
X106835714Y-63527438D02*
X106883333Y-63575057D01*
X107216667Y-63479819D02*
X107835714Y-63479819D01*
X107835714Y-63479819D02*
X107502381Y-63860771D01*
X107502381Y-63860771D02*
X107645238Y-63860771D01*
X107645238Y-63860771D02*
X107740476Y-63908390D01*
X107740476Y-63908390D02*
X107788095Y-63956009D01*
X107788095Y-63956009D02*
X107835714Y-64051247D01*
X107835714Y-64051247D02*
X107835714Y-64289342D01*
X107835714Y-64289342D02*
X107788095Y-64384580D01*
X107788095Y-64384580D02*
X107740476Y-64432200D01*
X107740476Y-64432200D02*
X107645238Y-64479819D01*
X107645238Y-64479819D02*
X107359524Y-64479819D01*
X107359524Y-64479819D02*
X107264286Y-64432200D01*
X107264286Y-64432200D02*
X107216667Y-64384580D01*
%TO.C,BT1*%
D12*
X178350000Y-136150000D02*
X173850000Y-136150000D01*
X178350000Y-113450000D02*
X178350000Y-136150000D01*
X178350000Y-113450000D02*
X173850000Y-113450000D01*
X173850000Y-139350000D02*
X172300000Y-139350000D01*
X173850000Y-136150000D02*
X173850000Y-139350000D01*
X173850000Y-113450000D02*
X173850000Y-110250000D01*
X173850000Y-110250000D02*
X172300000Y-110250000D01*
X166150000Y-139350000D02*
X167700000Y-139350000D01*
X166150000Y-136150000D02*
X166150000Y-139350000D01*
X166150000Y-113450000D02*
X166150000Y-110250000D01*
X166150000Y-110250000D02*
X167700000Y-110250000D01*
X165000000Y-111800000D02*
X163000000Y-111800000D01*
X164000000Y-112800000D02*
X164000000Y-110800000D01*
X163450000Y-113450000D02*
X166150000Y-113450000D01*
X161650000Y-136150000D02*
X166150000Y-136150000D01*
X161650000Y-136150000D02*
X161650000Y-115250000D01*
X161650000Y-115250000D02*
X163450000Y-113450000D01*
%TO.C,C4*%
X109085000Y-69872164D02*
X109085000Y-70087836D01*
X108365000Y-69872164D02*
X108365000Y-70087836D01*
%TO.C,U1*%
X106265000Y-69085000D02*
X106265000Y-68085000D01*
X108085000Y-69085000D02*
X106265000Y-69085000D01*
X108085000Y-69035000D02*
X108085000Y-69085000D01*
X108085000Y-67135000D02*
X108085000Y-67915000D01*
X106265000Y-66965000D02*
X106265000Y-65965000D01*
X106265000Y-65965000D02*
X108085000Y-65965000D01*
X108085000Y-65965000D02*
X108085000Y-66015000D01*
X108625000Y-67905000D02*
X108385000Y-67575000D01*
X108865000Y-67575000D01*
X108625000Y-67905000D01*
G36*
X108625000Y-67905000D02*
G01*
X108385000Y-67575000D01*
X108865000Y-67575000D01*
X108625000Y-67905000D01*
G37*
%TO.C,C7*%
X110954664Y-75940000D02*
X111170336Y-75940000D01*
X110954664Y-76660000D02*
X111170336Y-76660000D01*
%TO.C,C18*%
X102135000Y-118592164D02*
X102135000Y-118807836D01*
X102855000Y-118592164D02*
X102855000Y-118807836D01*
%TO.C,R7*%
X107491359Y-110840000D02*
X107798641Y-110840000D01*
X107491359Y-111600000D02*
X107798641Y-111600000D01*
%TO.C,C17*%
X96835000Y-118327836D02*
X96835000Y-118112164D01*
X97555000Y-118327836D02*
X97555000Y-118112164D01*
%TO.C,J2*%
X166505000Y-70185000D02*
X167885000Y-70185000D01*
X166505000Y-71565000D02*
X166505000Y-70185000D01*
X166505000Y-72835000D02*
X166505000Y-83105000D01*
X166505000Y-72835000D02*
X169155000Y-72835000D01*
X166505000Y-83105000D02*
X171805000Y-83105000D01*
X169155000Y-70185000D02*
X171805000Y-70185000D01*
X169155000Y-72835000D02*
X169155000Y-70185000D01*
X171805000Y-70185000D02*
X171805000Y-83105000D01*
%TO.C,J8*%
X87110000Y-65890000D02*
X87730000Y-65890000D01*
X87110000Y-80510000D02*
X87110000Y-65890000D01*
X87730000Y-65890000D02*
X87730000Y-66890000D01*
X87730000Y-66890000D02*
X95700000Y-66890000D01*
X87730000Y-79510000D02*
X87730000Y-80510000D01*
X87730000Y-80510000D02*
X87110000Y-80510000D01*
X95700000Y-79510000D02*
X87730000Y-79510000D01*
X99200000Y-66890000D02*
X101380000Y-66890000D01*
X99200000Y-79510000D02*
X101380000Y-79510000D01*
X104230000Y-68010000D02*
X104230000Y-78390000D01*
X104380000Y-70100000D02*
X104380000Y-69300000D01*
%TO.C,D2*%
D10*
X186950000Y-62590000D02*
G75*
G02*
X186850000Y-62590000I-50000J0D01*
G01*
X186850000Y-62590000D02*
G75*
G02*
X186950000Y-62590000I50000J0D01*
G01*
%TO.C,R3*%
D12*
X184003641Y-61120000D02*
X183696359Y-61120000D01*
X184003641Y-61880000D02*
X183696359Y-61880000D01*
%TO.C,J1*%
X145800000Y-142000000D02*
X145800000Y-144000000D01*
X145800000Y-145900000D02*
X145800000Y-147800000D01*
X145800000Y-147800000D02*
X155200000Y-147800000D01*
X155200000Y-142000000D02*
X155200000Y-144000000D01*
X155200000Y-145900000D02*
X155200000Y-147800000D01*
%TO.C,R2*%
X184103641Y-59120000D02*
X183796359Y-59120000D01*
X184103641Y-59880000D02*
X183796359Y-59880000D01*
%TO.C,SW1*%
X160750000Y-53000000D02*
X160750000Y-54500000D01*
X162000000Y-57000000D02*
X166500000Y-57000000D01*
X166500000Y-50500000D02*
X162000000Y-50500000D01*
X167750000Y-54500000D02*
X167750000Y-53000000D01*
%TO.C,C2*%
X147690000Y-137557836D02*
X147690000Y-137342164D01*
X148410000Y-137557836D02*
X148410000Y-137342164D01*
%TO.C,U10*%
X108685000Y-71615000D02*
X109685000Y-71615000D01*
X108685000Y-74435000D02*
X109475000Y-74435000D01*
X109805000Y-74435000D02*
X110085000Y-74435000D01*
X109805000Y-74715000D01*
X109805000Y-74435000D01*
G36*
X109805000Y-74715000D02*
G01*
X109805000Y-74435000D01*
X110085000Y-74435000D01*
X109805000Y-74715000D01*
G37*
%TO.C,U2*%
X106852500Y-74840000D02*
X108672500Y-74840000D01*
X106852500Y-74890000D02*
X106852500Y-74840000D01*
X106852500Y-77960000D02*
X106852500Y-77910000D01*
X108672500Y-74840000D02*
X108672500Y-74890000D01*
X108672500Y-77910000D02*
X108672500Y-77960000D01*
X108672500Y-77960000D02*
X106852500Y-77960000D01*
X106312500Y-74890000D02*
X106072500Y-74560000D01*
X106552500Y-74560000D01*
X106312500Y-74890000D01*
G36*
X106312500Y-74890000D02*
G01*
X106072500Y-74560000D01*
X106552500Y-74560000D01*
X106312500Y-74890000D01*
G37*
%TO.C,U12*%
D13*
X109450000Y-56325000D02*
X111940000Y-56325000D01*
X109450000Y-62665000D02*
X109450000Y-56325000D01*
X109450000Y-71325000D02*
X109450000Y-64985000D01*
X111940000Y-71325000D02*
X109450000Y-71325000D01*
X114360000Y-56325000D02*
X115500000Y-56325000D01*
X115500000Y-56325000D02*
X115500000Y-58945000D01*
X115500000Y-68705000D02*
X115500000Y-71325000D01*
X115500000Y-71325000D02*
X114360000Y-71325000D01*
D14*
X116020000Y-69215000D02*
G75*
G02*
X115820000Y-69215000I-100000J0D01*
G01*
X115820000Y-69215000D02*
G75*
G02*
X116020000Y-69215000I100000J0D01*
G01*
D15*
X116050000Y-71325000D02*
G75*
G02*
X115990000Y-71325000I-30000J0D01*
G01*
X115990000Y-71325000D02*
G75*
G02*
X116050000Y-71325000I30000J0D01*
G01*
%TO.C,U9*%
D12*
X107872500Y-124507500D02*
X107872500Y-125297500D01*
X110692500Y-124507500D02*
X110692500Y-125507500D01*
X107872500Y-125627500D02*
X107872500Y-125907500D01*
X107592500Y-125627500D01*
X107872500Y-125627500D01*
G36*
X107872500Y-125907500D02*
G01*
X107592500Y-125627500D01*
X107872500Y-125627500D01*
X107872500Y-125907500D01*
G37*
%TO.C,C5*%
X105290000Y-80554437D02*
X105290000Y-81840000D01*
X105290000Y-80554437D02*
X106354437Y-79490000D01*
X105290000Y-85245563D02*
X105290000Y-83960000D01*
X105290000Y-85245563D02*
X106354437Y-86310000D01*
X106354437Y-79490000D02*
X112110000Y-79490000D01*
X106354437Y-86310000D02*
X112110000Y-86310000D01*
X112110000Y-79490000D02*
X112110000Y-81840000D01*
X112110000Y-86310000D02*
X112110000Y-83960000D01*
%TO.C,U7*%
X99505000Y-126240000D02*
X99505000Y-132150000D01*
X99505000Y-126240000D02*
X115745000Y-126240000D01*
X99505000Y-135430000D02*
X99505000Y-147880000D01*
X99625000Y-147610000D02*
X99375000Y-147610000D01*
X99725000Y-147760000D02*
X99725000Y-148010000D01*
X115745000Y-126240000D02*
X115745000Y-132150000D01*
X115745000Y-135430000D02*
X115745000Y-147880000D01*
X115745000Y-147880000D02*
X99505000Y-147880000D01*
%TO.C,U6*%
D13*
X105345000Y-114120000D02*
X105615000Y-114120000D01*
X105345000Y-114390000D02*
X105345000Y-114120000D01*
X105345000Y-118120000D02*
X105345000Y-117850000D01*
X105615000Y-118120000D02*
X105345000Y-118120000D01*
X109075000Y-114120000D02*
X109345000Y-114120000D01*
X109345000Y-114120000D02*
X109345000Y-114390000D01*
X109345000Y-117850000D02*
X109345000Y-118120000D01*
X109345000Y-118120000D02*
X109075000Y-118120000D01*
X105535001Y-118430000D02*
X105535001Y-118430000D01*
X105535001Y-118430000D01*
X105535001Y-118430000D01*
X105535001Y-118430000D01*
X105535001Y-118430000D01*
X105535001Y-118430001D01*
X105535001Y-118430001D01*
X105535001Y-118430001D01*
X105535001Y-118430001D01*
X105535001Y-118430001D01*
X105535001Y-118430001D01*
X105535001Y-118430001D01*
X105535000Y-118430001D01*
X105535000Y-118430001D01*
X105535000Y-118430001D01*
X105535000Y-118430001D01*
X105535000Y-118430001D01*
X105535000Y-118430001D01*
X105535000Y-118430001D01*
X105535000Y-118430001D01*
X105535000Y-118430001D01*
X105535000Y-118430001D01*
X105535000Y-118430001D01*
X105535000Y-118430001D01*
X105534999Y-118430001D01*
X105534999Y-118430001D01*
X105534999Y-118430001D01*
X105534999Y-118430001D01*
X105534999Y-118430001D01*
X105534999Y-118430001D01*
X105534999Y-118430000D01*
X105534999Y-118430000D01*
X105534999Y-118430000D01*
X105534999Y-118430000D01*
X105534999Y-118430000D01*
X105534999Y-118430000D01*
X105534999Y-118430000D02*
X105534999Y-118430000D01*
X105534999Y-118430000D01*
X105534999Y-118430000D01*
X105534999Y-118430000D01*
X105534999Y-118430000D01*
X105534999Y-118430000D01*
X105534999Y-118429999D01*
X105534999Y-118429999D01*
X105534999Y-118429999D01*
X105534999Y-118429999D01*
X105534999Y-118429999D01*
X105535000Y-118429999D01*
X105535000Y-118429999D01*
X105535000Y-118429999D01*
X105535000Y-118429999D01*
X105535000Y-118429999D01*
X105535000Y-118429999D01*
X105535000Y-118429999D01*
X105535000Y-118429999D01*
X105535000Y-118429999D01*
X105535000Y-118429999D01*
X105535000Y-118429999D01*
X105535000Y-118429999D01*
X105535001Y-118429999D01*
X105535001Y-118429999D01*
X105535001Y-118429999D01*
X105535001Y-118429999D01*
X105535001Y-118429999D01*
X105535001Y-118429999D01*
X105535001Y-118430000D01*
X105535001Y-118430000D01*
X105535001Y-118430000D01*
X105535001Y-118430000D01*
X105535001Y-118430000D01*
X105535001Y-118430000D01*
X105535001Y-118430000D01*
D15*
X105375000Y-118120000D02*
G75*
G02*
X105315000Y-118120000I-30000J0D01*
G01*
X105315000Y-118120000D02*
G75*
G02*
X105375000Y-118120000I30000J0D01*
G01*
%TO.C,Module1*%
D12*
X118540000Y-51800000D02*
X118540000Y-99800000D01*
X120100000Y-61900000D02*
X120100000Y-62900000D01*
X120100000Y-84700000D02*
X120100000Y-83700000D01*
X122040000Y-103300000D02*
X155040000Y-103300000D01*
X122980000Y-61900000D02*
X120100000Y-61900000D01*
X122980000Y-61900000D02*
X122980000Y-62900000D01*
X122980000Y-84700000D02*
X120100000Y-84700000D01*
X122980000Y-84700000D02*
X122980000Y-83700000D01*
X154100000Y-61900000D02*
X154100000Y-62900000D01*
X154100000Y-84700000D02*
X154100000Y-83700000D01*
X155040000Y-48300000D02*
X122040000Y-48300000D01*
X156900000Y-61900000D02*
X154100000Y-61900000D01*
X156900000Y-61900000D02*
X156900000Y-62900000D01*
X156900000Y-84700000D02*
X154100000Y-84700000D01*
X156900000Y-84700000D02*
X156900000Y-83700000D01*
X158540000Y-99800000D02*
X158540000Y-51800000D01*
X118540000Y-51800000D02*
G75*
G02*
X122040000Y-48300000I3500000J0D01*
G01*
X122040000Y-103300000D02*
G75*
G02*
X118540000Y-99800000I0J3500000D01*
G01*
X155040000Y-48300000D02*
G75*
G02*
X158540000Y-51800000I1J-3499999D01*
G01*
X158540000Y-99800000D02*
G75*
G02*
X155040000Y-103300000I-3499999J-1D01*
G01*
%TO.C,R5*%
X110098641Y-110790000D02*
X109791359Y-110790000D01*
X110098641Y-111550000D02*
X109791359Y-111550000D01*
%TO.C,C1*%
X152590000Y-137482836D02*
X152590000Y-137267164D01*
X153310000Y-137482836D02*
X153310000Y-137267164D01*
%TO.C,C9*%
X127340000Y-124007836D02*
X127340000Y-123792164D01*
X128060000Y-124007836D02*
X128060000Y-123792164D01*
%TO.C,U4*%
X122835000Y-124555000D02*
X122835000Y-125345000D01*
X125655000Y-124555000D02*
X125655000Y-125555000D01*
X122835000Y-125675000D02*
X122835000Y-125955000D01*
X122555000Y-125675000D01*
X122835000Y-125675000D01*
G36*
X122835000Y-125955000D02*
G01*
X122555000Y-125675000D01*
X122835000Y-125675000D01*
X122835000Y-125955000D01*
G37*
%TO.C,U11*%
X148840000Y-134840000D02*
X149490000Y-134840000D01*
X148840000Y-136310000D02*
X148840000Y-134840000D01*
X150140000Y-136310000D02*
X149810000Y-136310000D01*
X150460000Y-134840000D02*
X151110000Y-134840000D01*
X151110000Y-134840000D02*
X151110000Y-136310000D01*
X149815000Y-136755000D02*
X150005000Y-136615000D01*
X150005000Y-136895000D01*
X149815000Y-136755000D01*
G36*
X150005000Y-136895000D02*
G01*
X149815000Y-136755000D01*
X150005000Y-136615000D01*
X150005000Y-136895000D01*
G37*
%TO.C,C8*%
X104840000Y-75692164D02*
X104840000Y-75907836D01*
X105560000Y-75692164D02*
X105560000Y-75907836D01*
%TO.C,U5*%
X130335000Y-124555000D02*
X130335000Y-125345000D01*
X133155000Y-124555000D02*
X133155000Y-125555000D01*
X130335000Y-125675000D02*
X130335000Y-125955000D01*
X130055000Y-125675000D01*
X130335000Y-125675000D01*
G36*
X130335000Y-125955000D02*
G01*
X130055000Y-125675000D01*
X130335000Y-125675000D01*
X130335000Y-125955000D01*
G37*
%TO.C,U3*%
X119435000Y-126240000D02*
X119435000Y-132150000D01*
X119435000Y-126240000D02*
X135675000Y-126240000D01*
X119435000Y-135430000D02*
X119435000Y-147880000D01*
X119555000Y-147610000D02*
X119305000Y-147610000D01*
X119655000Y-147760000D02*
X119655000Y-148010000D01*
X135675000Y-126240000D02*
X135675000Y-132150000D01*
X135675000Y-135430000D02*
X135675000Y-147880000D01*
X135675000Y-147880000D02*
X119435000Y-147880000D01*
%TO.C,U8*%
X103085000Y-124535000D02*
X103085000Y-125325000D01*
X105905000Y-124535000D02*
X105905000Y-125535000D01*
X103085000Y-125655000D02*
X103085000Y-125935000D01*
X102805000Y-125655000D01*
X103085000Y-125655000D01*
G36*
X103085000Y-125935000D02*
G01*
X102805000Y-125655000D01*
X103085000Y-125655000D01*
X103085000Y-125935000D01*
G37*
%TO.C,D1*%
D10*
X186950000Y-58310000D02*
G75*
G02*
X186850000Y-58310000I-50000J0D01*
G01*
X186850000Y-58310000D02*
G75*
G02*
X186950000Y-58310000I50000J0D01*
G01*
%TO.C,C6*%
D12*
X110954664Y-74940000D02*
X111170336Y-74940000D01*
X110954664Y-75660000D02*
X111170336Y-75660000D01*
%TO.C,J6*%
X165190000Y-61340000D02*
X165190000Y-62390000D01*
X165190000Y-62390000D02*
X164200000Y-62390000D01*
X165190000Y-67560000D02*
X165190000Y-66510000D01*
X166340000Y-61340000D02*
X165190000Y-61340000D01*
X166340000Y-67560000D02*
X165190000Y-67560000D01*
X168310000Y-62510000D02*
X168310000Y-66390000D01*
%TO.C,R1*%
X113646359Y-76920000D02*
X113953641Y-76920000D01*
X113646359Y-77680000D02*
X113953641Y-77680000D01*
%TO.C,Y1*%
X97785000Y-116610000D02*
X97785000Y-120030000D01*
X97785000Y-120030000D02*
X101905000Y-120030000D01*
%TO.C,C10*%
X106240000Y-124307836D02*
X106240000Y-124092164D01*
X106960000Y-124307836D02*
X106960000Y-124092164D01*
%TO.C,R4*%
X103070000Y-118171359D02*
X103070000Y-118478641D01*
X103830000Y-118171359D02*
X103830000Y-118478641D01*
%TO.C,TP1*%
X101445000Y-114220000D02*
G75*
G02*
X100045000Y-114220000I-700000J0D01*
G01*
X100045000Y-114220000D02*
G75*
G02*
X101445000Y-114220000I700000J0D01*
G01*
%TO.C,R6*%
X109791359Y-109840000D02*
X110098641Y-109840000D01*
X109791359Y-110600000D02*
X110098641Y-110600000D01*
%TO.C,C3*%
X107932836Y-65560000D02*
X107717164Y-65560000D01*
X107932836Y-64840000D02*
X107717164Y-64840000D01*
%TD*%
M02*
