M48
; DRILL file KiCad 10.0.3 date 2026-06-21T11:29:56
; FORMAT={-:-/ absolute / metric / decimal}
; #@! TF.CreationDate,2026-06-21T11:29:56+10:00
; #@! TF.GenerationSoftware,Kicad,Pcbnew,10.0.3
; #@! TF.FileFunction,Plated,1,4,PTH
FMAT,2
METRIC
; #@! TA.AperFunction,Plated,PTH,ViaDrill
T1C0.200
; #@! TA.AperFunction,Plated,PTH,ViaDrill
T2C0.250
; #@! TA.AperFunction,Plated,PTH,ViaDrill
T3C0.300
; #@! TA.AperFunction,Plated,PTH,ViaDrill
T4C0.400
; #@! TA.AperFunction,Plated,PTH,ComponentDrill
T5C0.600
; #@! TA.AperFunction,Plated,PTH,ViaDrill
T6C0.800
; #@! TA.AperFunction,Plated,PTH,ComponentDrill
T7C0.900
; #@! TA.AperFunction,Plated,PTH,ComponentDrill
T8C0.920
; #@! TA.AperFunction,Plated,PTH,ComponentDrill
T9C1.000
; #@! TA.AperFunction,Plated,PTH,ComponentDrill
T10C1.020
; #@! TA.AperFunction,Plated,PTH,ComponentDrill
T11C1.300
; #@! TA.AperFunction,Plated,PTH,ComponentDrill
T12C1.700
; #@! TA.AperFunction,Plated,PTH,ComponentDrill
T13C2.300
%
G90
G05
T1
X102.271Y-94.9
X103.91Y-97.18
X104.285Y-94.5
X104.706Y-94.015
X109.05Y-99.88
X109.057Y-97.9
X117.0Y-70.025
X121.3Y-69.1
X122.187Y-73.1
X122.325Y-72.425
X124.6Y-103.78
X132.105Y-103.78
T2
X113.6Y-81.8
X113.8Y-82.4
X113.89Y-81.28
X114.12Y-86.641
X114.3Y-87.2
X114.4Y-80.92
X114.4Y-82.7
X114.615Y-81.743
X114.615Y-86.302
X115.465Y-81.743
X115.465Y-86.302
X115.67Y-87.01
X115.67Y-81.033
X115.7Y-85.47
X116.08Y-86.44
X116.2Y-81.09
X116.25Y-85.68
X117.299Y-73.301
X117.901Y-72.699
X121.35Y-83.3
X122.05Y-83.3
T3
X92.8Y-59.4
X92.8Y-96.2
X93.9Y-117.6
X95.5Y-107.2
X97.135Y-96.505
X98.535Y-96.155
X99.635Y-100.33
X99.85Y-66.95
X101.085Y-100.58
X101.4Y-57.4
X102.285Y-93.68
X102.485Y-96.905
X102.985Y-100.38
X103.8Y-103.75
X103.885Y-92.88
X104.585Y-92.18
X105.04Y-100.59
X105.685Y-91.88
X105.785Y-91.08
X106.2Y-59.4
X106.3Y-100.6
X106.6Y-89.6
X107.13Y-96.0
X107.24Y-103.14
X107.345Y-61.9
X107.9Y-62.4
X108.01Y-92.32
X108.5Y-57.7
X110.7Y-86.5
X111.06Y-96.6
X111.3Y-106.4
X111.41Y-98.055
X113.1Y-50.2
X114.15Y-63.535
X114.175Y-62.035
X114.175Y-65.035
X114.175Y-66.535
X114.175Y-68.035
X116.0Y-94.5
X116.785Y-90.78
X117.109Y-77.049
X117.711Y-77.651
X118.87Y-63.97
X119.18Y-72.3
X119.19Y-73.5
X119.229Y-69.958
X119.23Y-77.178
X119.28Y-71.1
X119.282Y-78.254
X119.311Y-81.946
X120.69Y-79.46
X120.8Y-80.7
X121.5Y-63.9
X121.7Y-61.8
X123.763Y-69.822
X123.763Y-71.178
X123.83Y-72.31
X123.83Y-82.4
X124.2Y-77.1
X124.71Y-81.69
X125.95Y-67.7
X126.793Y-72.622
X126.793Y-73.472
X127.1Y-82.5
X127.1Y-113.6
X127.3Y-105.6
X128.3Y-124.9
X129.0Y-52.9
X131.1Y-49.0
X132.395Y-69.75
X132.42Y-71.125
X132.645Y-72.2
X132.695Y-73.0
X132.7Y-91.8
X133.07Y-69.025
X133.32Y-73.3
X133.784Y-105.186
X133.895Y-69.125
X133.92Y-67.9
X133.995Y-70.15
X134.022Y-73.346
X134.045Y-70.875
X134.07Y-74.025
X134.095Y-71.5
X134.095Y-72.45
X134.095Y-74.775
X134.386Y-104.584
X134.495Y-67.05
X134.87Y-74.75
X135.2Y-57.8
X135.295Y-69.35
X135.62Y-67.05
X135.62Y-74.675
X135.645Y-73.625
X135.895Y-68.475
X136.095Y-69.675
X136.645Y-67.025
X136.695Y-73.625
X136.82Y-68.225
X136.845Y-74.45
X136.92Y-69.9
X137.52Y-67.025
X137.62Y-68.4
X137.745Y-70.925
X137.745Y-73.525
X137.77Y-70.1
X137.77Y-71.775
X137.77Y-72.725
X137.788Y-105.75
X137.788Y-106.6
X137.82Y-74.4
X138.67Y-68.45
X138.695Y-69.825
X139.22Y-69.2
X142.964Y-51.125
X144.54Y-86.95
X145.07Y-95.87
X145.37Y-102.3
X145.9Y-73.9
X146.5Y-59.4
X146.8Y-105.6
X147.0Y-121.0
X148.0Y-66.6
X148.14Y-104.36
X148.927Y-113.497
X150.692Y-113.468
X151.14Y-93.64
X151.2Y-105.6
X151.6Y-62.1
X151.9Y-68.3
X152.01Y-80.48
X152.2Y-108.8
X152.5Y-63.5
X152.8Y-67.725
X152.885Y-79.1
X153.0Y-70.3
X153.0Y-77.1
X153.01Y-82.07
X153.07Y-83.09
X153.1Y-71.5
X153.175Y-66.875
X153.2Y-68.9
X153.2Y-73.1
X153.2Y-75.1
X153.3Y-65.2
X153.385Y-80.3
X154.5Y-109.7
X154.7Y-66.25
X155.1Y-80.4
X155.9Y-56.4
X156.0Y-64.1
X156.3Y-65.9
X157.7Y-83.4
X157.8Y-71.5
X157.9Y-69.1
X157.9Y-70.3
X157.9Y-76.7
X157.9Y-78.2
X157.926Y-81.264
X157.971Y-72.271
X158.0Y-74.7
X159.84Y-84.6
X160.1Y-118.4
X160.6Y-74.625
X160.6Y-80.4
X161.1Y-62.5
X161.275Y-82.5
X161.7Y-69.25
X161.7Y-72.75
X162.3Y-76.2
X163.141Y-70.766
X164.6Y-57.5
X165.1Y-99.8
X165.6Y-112.5
T4
X107.375Y-70.1
T6
X98.9Y-57.5
X106.595Y-57.775
X152.2Y-103.3
T7
X101.695Y-107.85
X101.695Y-112.91
X102.965Y-110.39
X104.235Y-107.85
X104.235Y-114.18
X105.505Y-110.39
X106.775Y-107.85
X108.045Y-110.39
X109.315Y-107.85
X110.585Y-110.39
X110.585Y-114.18
X111.855Y-107.85
X113.125Y-110.39
X113.125Y-112.91
X122.195Y-107.85
X122.195Y-112.91
X123.465Y-110.39
X124.735Y-107.85
X124.735Y-114.18
X126.005Y-110.39
X127.275Y-107.85
X128.545Y-110.39
X129.815Y-107.85
X131.085Y-110.39
X131.085Y-114.18
X132.355Y-107.85
X133.625Y-110.39
X133.625Y-112.91
T8
X142.795Y-111.745
X142.795Y-114.365
X145.295Y-111.745
X145.295Y-114.365
X147.295Y-111.745
X147.295Y-114.365
X149.795Y-111.745
X149.795Y-114.365
T9
X92.935Y-65.7
X95.475Y-65.7
T10
X100.78Y-120.8
X103.32Y-120.8
X111.5Y-120.8
X114.04Y-120.8
X121.28Y-120.8
X123.82Y-120.8
X132.0Y-120.8
X134.54Y-120.8
T11
X109.85Y-63.825
X113.15Y-56.575
X113.15Y-71.075
T12
X99.535Y-113.69
X115.285Y-113.69
X120.035Y-113.69
X135.785Y-113.69
T13
X139.725Y-111.395
X139.725Y-117.075
X152.865Y-111.395
X152.865Y-117.075
T5
G00X98.38Y-51.05
M15
G01X98.38Y-50.45
M16
G05
G00X98.38Y-55.48
M15
G01X98.38Y-54.38
M16
G05
G00X107.02Y-51.05
M15
G01X107.02Y-50.45
M16
G05
G00X107.02Y-55.48
M15
G01X107.02Y-54.38
M16
G05
M30
