ISO-10303-21;
HEADER;
/* Generated by software containing ST-Developer
 * from STEP Tools, Inc. (www.steptools.com) 
 */
/* OPTION: using custom renumber hook */

FILE_DESCRIPTION(
/* description */ ('STEP AP242 Edition 2',
'CAx-IF Rec.Pracs.---Representation and Presentation of Product Manufa
cturing Information (PMI)---4.0---2014-10-13',
'CAx-IF Rec.Pracs.---3D Tessellated Geometry---0.4---2014-09-14','2;1',
'CAx-IF Rec.Pracs.---User Defined Attributes---1.5---2016-08-15'),
/* implementation_level */ '2;1');

FILE_NAME(
/* name */ 'Part Studio 1 - power button',
/* time_stamp */ '2026-06-07T12:34:23Z',
/* author */ (''),
/* organization */ (''),
/* preprocessor_version */ 'ST-DEVELOPER v20',
/* originating_system */ 'ONSHAPE BY PTC INC, 1.216',
/* authorisation */ '  ');

FILE_SCHEMA (('AP242_MANAGED_MODEL_BASED_3D_ENGINEERING_MIM_LF { 1 0 10303 442 3 1 4 }'));
ENDSEC;

DATA;
#10=SHAPE_REPRESENTATION_RELATIONSHIP('','',#367,#11);
#11=ADVANCED_BREP_SHAPE_REPRESENTATION('',(#365),#605);
#12=CYLINDRICAL_SURFACE('',#377,0.00100000000000001);
#13=CYLINDRICAL_SURFACE('',#380,0.001);
#14=CYLINDRICAL_SURFACE('',#383,0.001);
#15=CYLINDRICAL_SURFACE('',#386,0.00100000000000002);
#16=CYLINDRICAL_SURFACE('',#389,0.0014987085048923);
#17=CYLINDRICAL_SURFACE('',#392,0.00229797583669693);
#18=CIRCLE('',#370,0.00100000000000001);
#19=CIRCLE('',#371,0.001);
#20=CIRCLE('',#372,0.001);
#21=CIRCLE('',#373,0.00100000000000002);
#22=CIRCLE('',#374,0.0014987085048923);
#23=CIRCLE('',#375,0.00229797583669693);
#24=CIRCLE('',#378,0.00100000000000001);
#25=CIRCLE('',#381,0.001);
#26=CIRCLE('',#384,0.001);
#27=CIRCLE('',#387,0.00100000000000002);
#28=CIRCLE('',#390,0.0014987085048923);
#29=CIRCLE('',#393,0.00229797583669693);
#30=ORIENTED_EDGE('',*,*,#126,.F.);
#31=ORIENTED_EDGE('',*,*,#127,.T.);
#32=ORIENTED_EDGE('',*,*,#128,.T.);
#33=ORIENTED_EDGE('',*,*,#129,.T.);
#34=ORIENTED_EDGE('',*,*,#130,.T.);
#35=ORIENTED_EDGE('',*,*,#131,.T.);
#36=ORIENTED_EDGE('',*,*,#132,.F.);
#37=ORIENTED_EDGE('',*,*,#133,.T.);
#38=ORIENTED_EDGE('',*,*,#134,.F.);
#39=ORIENTED_EDGE('',*,*,#135,.T.);
#40=ORIENTED_EDGE('',*,*,#136,.T.);
#41=ORIENTED_EDGE('',*,*,#137,.F.);
#42=ORIENTED_EDGE('',*,*,#138,.F.);
#43=ORIENTED_EDGE('',*,*,#139,.T.);
#44=ORIENTED_EDGE('',*,*,#140,.T.);
#45=ORIENTED_EDGE('',*,*,#141,.F.);
#46=ORIENTED_EDGE('',*,*,#142,.F.);
#47=ORIENTED_EDGE('',*,*,#143,.F.);
#48=ORIENTED_EDGE('',*,*,#126,.T.);
#49=ORIENTED_EDGE('',*,*,#144,.T.);
#50=ORIENTED_EDGE('',*,*,#145,.T.);
#51=ORIENTED_EDGE('',*,*,#146,.F.);
#52=ORIENTED_EDGE('',*,*,#127,.F.);
#53=ORIENTED_EDGE('',*,*,#143,.T.);
#54=ORIENTED_EDGE('',*,*,#147,.T.);
#55=ORIENTED_EDGE('',*,*,#148,.F.);
#56=ORIENTED_EDGE('',*,*,#128,.F.);
#57=ORIENTED_EDGE('',*,*,#146,.T.);
#58=ORIENTED_EDGE('',*,*,#149,.T.);
#59=ORIENTED_EDGE('',*,*,#150,.F.);
#60=ORIENTED_EDGE('',*,*,#129,.F.);
#61=ORIENTED_EDGE('',*,*,#148,.T.);
#62=ORIENTED_EDGE('',*,*,#151,.T.);
#63=ORIENTED_EDGE('',*,*,#152,.F.);
#64=ORIENTED_EDGE('',*,*,#130,.F.);
#65=ORIENTED_EDGE('',*,*,#150,.T.);
#66=ORIENTED_EDGE('',*,*,#153,.T.);
#67=ORIENTED_EDGE('',*,*,#154,.F.);
#68=ORIENTED_EDGE('',*,*,#131,.F.);
#69=ORIENTED_EDGE('',*,*,#152,.T.);
#70=ORIENTED_EDGE('',*,*,#155,.F.);
#71=ORIENTED_EDGE('',*,*,#156,.F.);
#72=ORIENTED_EDGE('',*,*,#132,.T.);
#73=ORIENTED_EDGE('',*,*,#154,.T.);
#74=ORIENTED_EDGE('',*,*,#157,.T.);
#75=ORIENTED_EDGE('',*,*,#144,.F.);
#76=ORIENTED_EDGE('',*,*,#133,.F.);
#77=ORIENTED_EDGE('',*,*,#156,.T.);
#78=ORIENTED_EDGE('',*,*,#142,.T.);
#79=ORIENTED_EDGE('',*,*,#157,.F.);
#80=ORIENTED_EDGE('',*,*,#155,.T.);
#81=ORIENTED_EDGE('',*,*,#153,.F.);
#82=ORIENTED_EDGE('',*,*,#151,.F.);
#83=ORIENTED_EDGE('',*,*,#149,.F.);
#84=ORIENTED_EDGE('',*,*,#147,.F.);
#85=ORIENTED_EDGE('',*,*,#145,.F.);
#86=ORIENTED_EDGE('',*,*,#135,.F.);
#87=ORIENTED_EDGE('',*,*,#158,.F.);
#88=ORIENTED_EDGE('',*,*,#159,.T.);
#89=ORIENTED_EDGE('',*,*,#160,.T.);
#90=ORIENTED_EDGE('',*,*,#134,.T.);
#91=ORIENTED_EDGE('',*,*,#161,.F.);
#92=ORIENTED_EDGE('',*,*,#162,.F.);
#93=ORIENTED_EDGE('',*,*,#158,.T.);
#94=ORIENTED_EDGE('',*,*,#137,.T.);
#95=ORIENTED_EDGE('',*,*,#163,.F.);
#96=ORIENTED_EDGE('',*,*,#164,.F.);
#97=ORIENTED_EDGE('',*,*,#161,.T.);
#98=ORIENTED_EDGE('',*,*,#136,.F.);
#99=ORIENTED_EDGE('',*,*,#160,.F.);
#100=ORIENTED_EDGE('',*,*,#165,.T.);
#101=ORIENTED_EDGE('',*,*,#163,.T.);
#102=ORIENTED_EDGE('',*,*,#159,.F.);
#103=ORIENTED_EDGE('',*,*,#162,.T.);
#104=ORIENTED_EDGE('',*,*,#164,.T.);
#105=ORIENTED_EDGE('',*,*,#165,.F.);
#106=ORIENTED_EDGE('',*,*,#139,.F.);
#107=ORIENTED_EDGE('',*,*,#166,.F.);
#108=ORIENTED_EDGE('',*,*,#167,.T.);
#109=ORIENTED_EDGE('',*,*,#168,.T.);
#110=ORIENTED_EDGE('',*,*,#138,.T.);
#111=ORIENTED_EDGE('',*,*,#169,.F.);
#112=ORIENTED_EDGE('',*,*,#170,.F.);
#113=ORIENTED_EDGE('',*,*,#166,.T.);
#114=ORIENTED_EDGE('',*,*,#141,.T.);
#115=ORIENTED_EDGE('',*,*,#171,.F.);
#116=ORIENTED_EDGE('',*,*,#172,.F.);
#117=ORIENTED_EDGE('',*,*,#169,.T.);
#118=ORIENTED_EDGE('',*,*,#140,.F.);
#119=ORIENTED_EDGE('',*,*,#168,.F.);
#120=ORIENTED_EDGE('',*,*,#173,.T.);
#121=ORIENTED_EDGE('',*,*,#171,.T.);
#122=ORIENTED_EDGE('',*,*,#167,.F.);
#123=ORIENTED_EDGE('',*,*,#170,.T.);
#124=ORIENTED_EDGE('',*,*,#172,.T.);
#125=ORIENTED_EDGE('',*,*,#173,.F.);
#126=EDGE_CURVE('',#174,#175,#206,.T.);
#127=EDGE_CURVE('',#174,#176,#18,.T.);
#128=EDGE_CURVE('',#176,#177,#207,.T.);
#129=EDGE_CURVE('',#177,#178,#19,.T.);
#130=EDGE_CURVE('',#178,#179,#208,.T.);
#131=EDGE_CURVE('',#179,#180,#20,.T.);
#132=EDGE_CURVE('',#181,#180,#209,.T.);
#133=EDGE_CURVE('',#181,#175,#21,.T.);
#134=EDGE_CURVE('',#182,#183,#210,.T.);
#135=EDGE_CURVE('',#182,#184,#22,.T.);
#136=EDGE_CURVE('',#184,#185,#211,.T.);
#137=EDGE_CURVE('',#183,#185,#23,.T.);
#138=EDGE_CURVE('',#186,#187,#212,.T.);
#139=EDGE_CURVE('',#186,#188,#213,.T.);
#140=EDGE_CURVE('',#188,#189,#214,.T.);
#141=EDGE_CURVE('',#187,#189,#215,.T.);
#142=EDGE_CURVE('',#190,#191,#216,.T.);
#143=EDGE_CURVE('',#174,#190,#217,.T.);
#144=EDGE_CURVE('',#175,#191,#218,.T.);
#145=EDGE_CURVE('',#190,#192,#24,.T.);
#146=EDGE_CURVE('',#176,#192,#219,.T.);
#147=EDGE_CURVE('',#192,#193,#220,.T.);
#148=EDGE_CURVE('',#177,#193,#221,.T.);
#149=EDGE_CURVE('',#193,#194,#25,.T.);
#150=EDGE_CURVE('',#178,#194,#222,.T.);
#151=EDGE_CURVE('',#194,#195,#223,.T.);
#152=EDGE_CURVE('',#179,#195,#224,.T.);
#153=EDGE_CURVE('',#195,#196,#26,.T.);
#154=EDGE_CURVE('',#180,#196,#225,.T.);
#155=EDGE_CURVE('',#197,#196,#226,.T.);
#156=EDGE_CURVE('',#181,#197,#227,.T.);
#157=EDGE_CURVE('',#197,#191,#27,.T.);
#158=EDGE_CURVE('',#198,#182,#228,.T.);
#159=EDGE_CURVE('',#198,#199,#28,.T.);
#160=EDGE_CURVE('',#199,#184,#229,.T.);
#161=EDGE_CURVE('',#200,#183,#230,.T.);
#162=EDGE_CURVE('',#198,#200,#231,.T.);
#163=EDGE_CURVE('',#201,#185,#232,.T.);
#164=EDGE_CURVE('',#200,#201,#29,.T.);
#165=EDGE_CURVE('',#199,#201,#233,.T.);
#166=EDGE_CURVE('',#202,#186,#234,.T.);
#167=EDGE_CURVE('',#202,#203,#235,.T.);
#168=EDGE_CURVE('',#203,#188,#236,.T.);
#169=EDGE_CURVE('',#204,#187,#237,.T.);
#170=EDGE_CURVE('',#202,#204,#238,.T.);
#171=EDGE_CURVE('',#205,#189,#239,.T.);
#172=EDGE_CURVE('',#204,#205,#240,.T.);
#173=EDGE_CURVE('',#203,#205,#241,.T.);
#174=VERTEX_POINT('',#506);
#175=VERTEX_POINT('',#507);
#176=VERTEX_POINT('',#509);
#177=VERTEX_POINT('',#511);
#178=VERTEX_POINT('',#513);
#179=VERTEX_POINT('',#515);
#180=VERTEX_POINT('',#517);
#181=VERTEX_POINT('',#519);
#182=VERTEX_POINT('',#522);
#183=VERTEX_POINT('',#523);
#184=VERTEX_POINT('',#525);
#185=VERTEX_POINT('',#527);
#186=VERTEX_POINT('',#530);
#187=VERTEX_POINT('',#531);
#188=VERTEX_POINT('',#533);
#189=VERTEX_POINT('',#535);
#190=VERTEX_POINT('',#539);
#191=VERTEX_POINT('',#540);
#192=VERTEX_POINT('',#545);
#193=VERTEX_POINT('',#549);
#194=VERTEX_POINT('',#553);
#195=VERTEX_POINT('',#557);
#196=VERTEX_POINT('',#561);
#197=VERTEX_POINT('',#565);
#198=VERTEX_POINT('',#572);
#199=VERTEX_POINT('',#574);
#200=VERTEX_POINT('',#578);
#201=VERTEX_POINT('',#582);
#202=VERTEX_POINT('',#589);
#203=VERTEX_POINT('',#591);
#204=VERTEX_POINT('',#595);
#205=VERTEX_POINT('',#599);
#206=LINE('',#505,#242);
#207=LINE('',#510,#243);
#208=LINE('',#514,#244);
#209=LINE('',#518,#245);
#210=LINE('',#521,#246);
#211=LINE('',#526,#247);
#212=LINE('',#529,#248);
#213=LINE('',#532,#249);
#214=LINE('',#534,#250);
#215=LINE('',#536,#251);
#216=LINE('',#538,#252);
#217=LINE('',#541,#253);
#218=LINE('',#542,#254);
#219=LINE('',#546,#255);
#220=LINE('',#548,#256);
#221=LINE('',#550,#257);
#222=LINE('',#554,#258);
#223=LINE('',#556,#259);
#224=LINE('',#558,#260);
#225=LINE('',#562,#261);
#226=LINE('',#564,#262);
#227=LINE('',#566,#263);
#228=LINE('',#571,#264);
#229=LINE('',#575,#265);
#230=LINE('',#577,#266);
#231=LINE('',#579,#267);
#232=LINE('',#581,#268);
#233=LINE('',#585,#269);
#234=LINE('',#588,#270);
#235=LINE('',#590,#271);
#236=LINE('',#592,#272);
#237=LINE('',#594,#273);
#238=LINE('',#596,#274);
#239=LINE('',#598,#275);
#240=LINE('',#600,#276);
#241=LINE('',#602,#277);
#242=VECTOR('',#405,1.);
#243=VECTOR('',#408,1.);
#244=VECTOR('',#411,1.);
#245=VECTOR('',#414,1.);
#246=VECTOR('',#417,1.);
#247=VECTOR('',#420,1.);
#248=VECTOR('',#423,1.);
#249=VECTOR('',#424,1.);
#250=VECTOR('',#425,1.);
#251=VECTOR('',#426,1.);
#252=VECTOR('',#429,1.);
#253=VECTOR('',#430,1.);
#254=VECTOR('',#431,1.);
#255=VECTOR('',#436,1.);
#256=VECTOR('',#439,1.);
#257=VECTOR('',#440,1.);
#258=VECTOR('',#445,1.);
#259=VECTOR('',#448,1.);
#260=VECTOR('',#449,1.);
#261=VECTOR('',#454,1.);
#262=VECTOR('',#457,1.);
#263=VECTOR('',#458,1.);
#264=VECTOR('',#467,1.);
#265=VECTOR('',#470,1.);
#266=VECTOR('',#473,1.);
#267=VECTOR('',#474,1.);
#268=VECTOR('',#477,1.);
#269=VECTOR('',#482,1.);
#270=VECTOR('',#487,1.);
#271=VECTOR('',#488,1.);
#272=VECTOR('',#489,1.);
#273=VECTOR('',#492,1.);
#274=VECTOR('',#493,1.);
#275=VECTOR('',#496,1.);
#276=VECTOR('',#497,1.);
#277=VECTOR('',#500,1.);
#278=EDGE_LOOP('',(#30,#31,#32,#33,#34,#35,#36,#37));
#279=EDGE_LOOP('',(#38,#39,#40,#41));
#280=EDGE_LOOP('',(#42,#43,#44,#45));
#281=EDGE_LOOP('',(#46,#47,#48,#49));
#282=EDGE_LOOP('',(#50,#51,#52,#53));
#283=EDGE_LOOP('',(#54,#55,#56,#57));
#284=EDGE_LOOP('',(#58,#59,#60,#61));
#285=EDGE_LOOP('',(#62,#63,#64,#65));
#286=EDGE_LOOP('',(#66,#67,#68,#69));
#287=EDGE_LOOP('',(#70,#71,#72,#73));
#288=EDGE_LOOP('',(#74,#75,#76,#77));
#289=EDGE_LOOP('',(#78,#79,#80,#81,#82,#83,#84,#85));
#290=EDGE_LOOP('',(#86,#87,#88,#89));
#291=EDGE_LOOP('',(#90,#91,#92,#93));
#292=EDGE_LOOP('',(#94,#95,#96,#97));
#293=EDGE_LOOP('',(#98,#99,#100,#101));
#294=EDGE_LOOP('',(#102,#103,#104,#105));
#295=EDGE_LOOP('',(#106,#107,#108,#109));
#296=EDGE_LOOP('',(#110,#111,#112,#113));
#297=EDGE_LOOP('',(#114,#115,#116,#117));
#298=EDGE_LOOP('',(#118,#119,#120,#121));
#299=EDGE_LOOP('',(#122,#123,#124,#125));
#300=FACE_BOUND('',#278,.T.);
#301=FACE_BOUND('',#279,.T.);
#302=FACE_BOUND('',#280,.T.);
#303=FACE_BOUND('',#281,.T.);
#304=FACE_BOUND('',#282,.T.);
#305=FACE_BOUND('',#283,.T.);
#306=FACE_BOUND('',#284,.T.);
#307=FACE_BOUND('',#285,.T.);
#308=FACE_BOUND('',#286,.T.);
#309=FACE_BOUND('',#287,.T.);
#310=FACE_BOUND('',#288,.T.);
#311=FACE_BOUND('',#289,.T.);
#312=FACE_BOUND('',#290,.T.);
#313=FACE_BOUND('',#291,.T.);
#314=FACE_BOUND('',#292,.T.);
#315=FACE_BOUND('',#293,.T.);
#316=FACE_BOUND('',#294,.T.);
#317=FACE_BOUND('',#295,.T.);
#318=FACE_BOUND('',#296,.T.);
#319=FACE_BOUND('',#297,.T.);
#320=FACE_BOUND('',#298,.T.);
#321=FACE_BOUND('',#299,.T.);
#322=PLANE('',#369);
#323=PLANE('',#376);
#324=PLANE('',#379);
#325=PLANE('',#382);
#326=PLANE('',#385);
#327=PLANE('',#388);
#328=PLANE('',#391);
#329=PLANE('',#394);
#330=PLANE('',#395);
#331=PLANE('',#396);
#332=PLANE('',#397);
#333=PLANE('',#398);
#334=PLANE('',#399);
#335=PLANE('',#400);
#336=ADVANCED_FACE('',(#300,#301,#302),#322,.T.);
#337=ADVANCED_FACE('',(#303),#323,.T.);
#338=ADVANCED_FACE('',(#304),#12,.T.);
#339=ADVANCED_FACE('',(#305),#324,.F.);
#340=ADVANCED_FACE('',(#306),#13,.T.);
#341=ADVANCED_FACE('',(#307),#325,.F.);
#342=ADVANCED_FACE('',(#308),#14,.T.);
#343=ADVANCED_FACE('',(#309),#326,.T.);
#344=ADVANCED_FACE('',(#310),#15,.T.);
#345=ADVANCED_FACE('',(#311),#327,.F.);
#346=ADVANCED_FACE('',(#312),#16,.T.);
#347=ADVANCED_FACE('',(#313),#328,.F.);
#348=ADVANCED_FACE('',(#314),#17,.F.);
#349=ADVANCED_FACE('',(#315),#329,.T.);
#350=ADVANCED_FACE('',(#316),#330,.T.);
#351=ADVANCED_FACE('',(#317),#331,.T.);
#352=ADVANCED_FACE('',(#318),#332,.F.);
#353=ADVANCED_FACE('',(#319),#333,.F.);
#354=ADVANCED_FACE('',(#320),#334,.T.);
#355=ADVANCED_FACE('',(#321),#335,.T.);
#356=CLOSED_SHELL('',(#336,#337,#338,#339,#340,#341,#342,#343,#344,#345,
#346,#347,#348,#349,#350,#351,#352,#353,#354,#355));
#357=STYLED_ITEM('',(#358),#365);
#358=PRESENTATION_STYLE_ASSIGNMENT((#359));
#359=SURFACE_STYLE_USAGE(.BOTH.,#360);
#360=SURFACE_SIDE_STYLE('',(#361));
#361=SURFACE_STYLE_FILL_AREA(#362);
#362=FILL_AREA_STYLE('',(#363));
#363=FILL_AREA_STYLE_COLOUR('',#364);
#364=COLOUR_RGB('',0.2,0.2,0.2);
#365=MANIFOLD_SOLID_BREP('power button',#356);
#366=SHAPE_DEFINITION_REPRESENTATION(#610,#367);
#367=SHAPE_REPRESENTATION('power button',(#368),#605);
#368=AXIS2_PLACEMENT_3D('',#503,#401,#402);
#369=AXIS2_PLACEMENT_3D('',#504,#403,#404);
#370=AXIS2_PLACEMENT_3D('',#508,#406,#407);
#371=AXIS2_PLACEMENT_3D('',#512,#409,#410);
#372=AXIS2_PLACEMENT_3D('',#516,#412,#413);
#373=AXIS2_PLACEMENT_3D('',#520,#415,#416);
#374=AXIS2_PLACEMENT_3D('',#524,#418,#419);
#375=AXIS2_PLACEMENT_3D('',#528,#421,#422);
#376=AXIS2_PLACEMENT_3D('',#537,#427,#428);
#377=AXIS2_PLACEMENT_3D('',#543,#432,#433);
#378=AXIS2_PLACEMENT_3D('',#544,#434,#435);
#379=AXIS2_PLACEMENT_3D('',#547,#437,#438);
#380=AXIS2_PLACEMENT_3D('',#551,#441,#442);
#381=AXIS2_PLACEMENT_3D('',#552,#443,#444);
#382=AXIS2_PLACEMENT_3D('',#555,#446,#447);
#383=AXIS2_PLACEMENT_3D('',#559,#450,#451);
#384=AXIS2_PLACEMENT_3D('',#560,#452,#453);
#385=AXIS2_PLACEMENT_3D('',#563,#455,#456);
#386=AXIS2_PLACEMENT_3D('',#567,#459,#460);
#387=AXIS2_PLACEMENT_3D('',#568,#461,#462);
#388=AXIS2_PLACEMENT_3D('',#569,#463,#464);
#389=AXIS2_PLACEMENT_3D('',#570,#465,#466);
#390=AXIS2_PLACEMENT_3D('',#573,#468,#469);
#391=AXIS2_PLACEMENT_3D('',#576,#471,#472);
#392=AXIS2_PLACEMENT_3D('',#580,#475,#476);
#393=AXIS2_PLACEMENT_3D('',#583,#478,#479);
#394=AXIS2_PLACEMENT_3D('',#584,#480,#481);
#395=AXIS2_PLACEMENT_3D('',#586,#483,#484);
#396=AXIS2_PLACEMENT_3D('',#587,#485,#486);
#397=AXIS2_PLACEMENT_3D('',#593,#490,#491);
#398=AXIS2_PLACEMENT_3D('',#597,#494,#495);
#399=AXIS2_PLACEMENT_3D('',#601,#498,#499);
#400=AXIS2_PLACEMENT_3D('',#603,#501,#502);
#401=DIRECTION('',(0.,0.,1.));
#402=DIRECTION('',(1.,0.,0.));
#403=DIRECTION('',(0.,0.,1.));
#404=DIRECTION('',(1.,0.,0.));
#405=DIRECTION('',(1.,0.,0.));
#406=DIRECTION('',(0.,0.,1.));
#407=DIRECTION('',(1.,0.,0.));
#408=DIRECTION('',(0.,-1.,0.));
#409=DIRECTION('',(0.,0.,1.));
#410=DIRECTION('',(1.,0.,0.));
#411=DIRECTION('',(1.,0.,0.));
#412=DIRECTION('',(0.,0.,1.));
#413=DIRECTION('',(1.,0.,0.));
#414=DIRECTION('',(0.,-1.,0.));
#415=DIRECTION('',(0.,0.,1.));
#416=DIRECTION('',(1.,0.,0.));
#417=DIRECTION('',(-0.5924682899057,0.805593771982018,0.));
#418=DIRECTION('',(0.,0.,1.));
#419=DIRECTION('',(1.,0.,0.));
#420=DIRECTION('',(0.58677185393184,0.809752302518117,0.));
#421=DIRECTION('',(0.,0.,1.));
#422=DIRECTION('',(1.,0.,0.));
#423=DIRECTION('',(0.,-1.,0.));
#424=DIRECTION('',(1.,0.,0.));
#425=DIRECTION('',(0.,-1.,0.));
#426=DIRECTION('',(1.,0.,0.));
#427=DIRECTION('',(0.,1.,0.));
#428=DIRECTION('',(0.,0.,1.));
#429=DIRECTION('',(1.,0.,0.));
#430=DIRECTION('',(0.,0.,-1.));
#431=DIRECTION('',(0.,0.,-1.));
#432=DIRECTION('',(0.,0.,-1.));
#433=DIRECTION('',(-1.,0.,0.));
#434=DIRECTION('',(0.,0.,1.));
#435=DIRECTION('',(1.,0.,0.));
#436=DIRECTION('',(0.,0.,-1.));
#437=DIRECTION('',(1.,0.,0.));
#438=DIRECTION('',(0.,0.,-1.));
#439=DIRECTION('',(0.,-1.,0.));
#440=DIRECTION('',(0.,0.,-1.));
#441=DIRECTION('',(0.,0.,-1.));
#442=DIRECTION('',(-1.,0.,0.));
#443=DIRECTION('',(0.,0.,1.));
#444=DIRECTION('',(1.,0.,0.));
#445=DIRECTION('',(0.,0.,-1.));
#446=DIRECTION('',(0.,1.,0.));
#447=DIRECTION('',(0.,0.,1.));
#448=DIRECTION('',(1.,0.,0.));
#449=DIRECTION('',(0.,0.,-1.));
#450=DIRECTION('',(0.,0.,-1.));
#451=DIRECTION('',(-1.,0.,0.));
#452=DIRECTION('',(0.,0.,1.));
#453=DIRECTION('',(1.,0.,0.));
#454=DIRECTION('',(0.,0.,-1.));
#455=DIRECTION('',(1.,0.,0.));
#456=DIRECTION('',(0.,0.,-1.));
#457=DIRECTION('',(0.,-1.,0.));
#458=DIRECTION('',(0.,0.,-1.));
#459=DIRECTION('',(0.,0.,-1.));
#460=DIRECTION('',(-1.,0.,0.));
#461=DIRECTION('',(0.,0.,1.));
#462=DIRECTION('',(1.,0.,0.));
#463=DIRECTION('',(0.,0.,1.));
#464=DIRECTION('',(1.,0.,0.));
#465=DIRECTION('',(0.,0.,1.));
#466=DIRECTION('',(1.,0.,0.));
#467=DIRECTION('',(0.,0.,1.));
#468=DIRECTION('',(0.,0.,1.));
#469=DIRECTION('',(1.,0.,0.));
#470=DIRECTION('',(0.,0.,1.));
#471=DIRECTION('',(0.805593771982018,0.5924682899057,0.));
#472=DIRECTION('',(-0.5924682899057,0.805593771982018,0.));
#473=DIRECTION('',(0.,0.,1.));
#474=DIRECTION('',(-0.5924682899057,0.805593771982018,0.));
#475=DIRECTION('',(0.,0.,1.));
#476=DIRECTION('',(1.,0.,0.));
#477=DIRECTION('',(0.,0.,1.));
#478=DIRECTION('',(0.,0.,1.));
#479=DIRECTION('',(1.,0.,0.));
#480=DIRECTION('',(0.809752302518117,-0.58677185393184,0.));
#481=DIRECTION('',(0.58677185393184,0.809752302518117,0.));
#482=DIRECTION('',(0.58677185393184,0.809752302518117,0.));
#483=DIRECTION('',(0.,0.,1.));
#484=DIRECTION('',(1.,0.,0.));
#485=DIRECTION('',(0.,-1.,0.));
#486=DIRECTION('',(0.,0.,-1.));
#487=DIRECTION('',(0.,0.,1.));
#488=DIRECTION('',(1.,0.,0.));
#489=DIRECTION('',(0.,0.,1.));
#490=DIRECTION('',(-1.,0.,0.));
#491=DIRECTION('',(0.,0.,1.));
#492=DIRECTION('',(0.,0.,1.));
#493=DIRECTION('',(0.,-1.,0.));
#494=DIRECTION('',(0.,-1.,0.));
#495=DIRECTION('',(0.,0.,-1.));
#496=DIRECTION('',(0.,0.,1.));
#497=DIRECTION('',(1.,0.,0.));
#498=DIRECTION('',(-1.,0.,0.));
#499=DIRECTION('',(0.,0.,1.));
#500=DIRECTION('',(0.,-1.,0.));
#501=DIRECTION('',(0.,0.,1.));
#502=DIRECTION('',(1.,0.,0.));
#503=CARTESIAN_POINT('',(0.,0.,0.));
#504=CARTESIAN_POINT('',(0.0298566208481789,0.0447551919817924,0.027895));
#505=CARTESIAN_POINT('',(0.0298566208481789,0.0477551919817925,0.027895));
#506=CARTESIAN_POINT('',(0.0278566208481789,0.0477551919817925,0.027895));
#507=CARTESIAN_POINT('',(0.0318566208481788,0.0477551919817925,0.027895));
#508=CARTESIAN_POINT('',(0.0278566208481789,0.0467551919817924,0.027895));
#509=CARTESIAN_POINT('',(0.0268566208481789,0.0467551919817924,0.027895));
#510=CARTESIAN_POINT('',(0.0268566208481789,0.0447551919817924,0.027895));
#511=CARTESIAN_POINT('',(0.0268566208481789,0.0427551919817925,0.027895));
#512=CARTESIAN_POINT('',(0.0278566208481788,0.0427551919817925,0.027895));
#513=CARTESIAN_POINT('',(0.0278566208481789,0.0417551919817924,0.027895));
#514=CARTESIAN_POINT('',(0.0298566208481789,0.0417551919817924,0.027895));
#515=CARTESIAN_POINT('',(0.0318566208481788,0.0417551919817924,0.027895));
#516=CARTESIAN_POINT('',(0.0318566208481788,0.0427551919817925,0.027895));
#517=CARTESIAN_POINT('',(0.0328566208481788,0.0427551919817925,0.027895));
#518=CARTESIAN_POINT('',(0.0328566208481788,0.0447551919817924,0.027895));
#519=CARTESIAN_POINT('',(0.0328566208481788,0.0467551919817924,0.027895));
#520=CARTESIAN_POINT('',(0.0318566208481788,0.0467551919817924,0.027895));
#521=CARTESIAN_POINT('',(0.0280529510237903,0.0448857116317986,0.027895));
#522=CARTESIAN_POINT('',(0.0283491851687432,0.0444829147458077,0.027895));
#523=CARTESIAN_POINT('',(0.0277567168788375,0.0452885085177897,0.027895));
#524=CARTESIAN_POINT('',(0.0298478828991439,0.0444885976612568,0.027895));
#525=CARTESIAN_POINT('',(0.0313465806295447,0.0444942805767059,0.027895));
#526=CARTESIAN_POINT('',(0.0316399665565106,0.044899156727965,0.027895));
#527=CARTESIAN_POINT('',(0.0319333524834766,0.045304032879224,0.027895));
#528=CARTESIAN_POINT('',(0.0298485989835105,0.0443373396546578,0.027895));
#529=CARTESIAN_POINT('',(0.0293491851687432,0.0457329147458076,0.027895));
#530=CARTESIAN_POINT('',(0.0293491851687432,0.0469829147458077,0.027895));
#531=CARTESIAN_POINT('',(0.0293491851687432,0.0444829147458077,0.027895));
#532=CARTESIAN_POINT('',(0.0298491851687432,0.0469829147458077,0.027895));
#533=CARTESIAN_POINT('',(0.0303491851687431,0.0469829147458077,0.027895));
#534=CARTESIAN_POINT('',(0.0303491851687431,0.0457329147458076,0.027895));
#535=CARTESIAN_POINT('',(0.0303491851687431,0.0444829147458077,0.027895));
#536=CARTESIAN_POINT('',(0.0298491851687432,0.0444829147458077,0.027895));
#537=CARTESIAN_POINT('',(0.0298566208481789,0.0477551919817925,0.027895));
#538=CARTESIAN_POINT('',(0.0298566208481789,0.0477551919817925,0.010895));
#539=CARTESIAN_POINT('',(0.0278566208481789,0.0477551919817925,0.010895));
#540=CARTESIAN_POINT('',(0.0318566208481788,0.0477551919817925,0.010895));
#541=CARTESIAN_POINT('',(0.0278566208481789,0.0477551919817925,0.027895));
#542=CARTESIAN_POINT('',(0.0318566208481788,0.0477551919817925,0.027895));
#543=CARTESIAN_POINT('',(0.0278566208481789,0.0467551919817924,0.027895));
#544=CARTESIAN_POINT('',(0.0278566208481789,0.0467551919817924,0.010895));
#545=CARTESIAN_POINT('',(0.0268566208481789,0.0467551919817924,0.010895));
#546=CARTESIAN_POINT('',(0.0268566208481789,0.0467551919817924,0.027895));
#547=CARTESIAN_POINT('',(0.0268566208481789,0.0447551919817924,0.027895));
#548=CARTESIAN_POINT('',(0.0268566208481789,0.0447551919817924,0.010895));
#549=CARTESIAN_POINT('',(0.0268566208481789,0.0427551919817925,0.010895));
#550=CARTESIAN_POINT('',(0.0268566208481789,0.0427551919817925,0.027895));
#551=CARTESIAN_POINT('',(0.0278566208481788,0.0427551919817925,0.027895));
#552=CARTESIAN_POINT('',(0.0278566208481788,0.0427551919817925,0.010895));
#553=CARTESIAN_POINT('',(0.0278566208481789,0.0417551919817924,0.010895));
#554=CARTESIAN_POINT('',(0.0278566208481789,0.0417551919817924,0.027895));
#555=CARTESIAN_POINT('',(0.0298566208481789,0.0417551919817924,0.027895));
#556=CARTESIAN_POINT('',(0.0298566208481789,0.0417551919817924,0.010895));
#557=CARTESIAN_POINT('',(0.0318566208481788,0.0417551919817924,0.010895));
#558=CARTESIAN_POINT('',(0.0318566208481788,0.0417551919817924,0.027895));
#559=CARTESIAN_POINT('',(0.0318566208481788,0.0427551919817925,0.027895));
#560=CARTESIAN_POINT('',(0.0318566208481788,0.0427551919817925,0.010895));
#561=CARTESIAN_POINT('',(0.0328566208481788,0.0427551919817925,0.010895));
#562=CARTESIAN_POINT('',(0.0328566208481788,0.0427551919817925,0.027895));
#563=CARTESIAN_POINT('',(0.0328566208481788,0.0447551919817924,0.027895));
#564=CARTESIAN_POINT('',(0.0328566208481788,0.0447551919817924,0.010895));
#565=CARTESIAN_POINT('',(0.0328566208481788,0.0467551919817924,0.010895));
#566=CARTESIAN_POINT('',(0.0328566208481788,0.0467551919817924,0.027895));
#567=CARTESIAN_POINT('',(0.0318566208481788,0.0467551919817924,0.027895));
#568=CARTESIAN_POINT('',(0.0318566208481788,0.0467551919817924,0.010895));
#569=CARTESIAN_POINT('',(0.0298566208481789,0.0447551919817924,0.010895));
#570=CARTESIAN_POINT('',(0.0298478828991439,0.0444885976612568,0.027645));
#571=CARTESIAN_POINT('',(0.0283491851687432,0.0444829147458077,0.027645));
#572=CARTESIAN_POINT('',(0.0283491851687432,0.0444829147458077,0.027645));
#573=CARTESIAN_POINT('',(0.0298478828991439,0.0444885976612568,0.027645));
#574=CARTESIAN_POINT('',(0.0313465806295447,0.0444942805767059,0.027645));
#575=CARTESIAN_POINT('',(0.0313465806295447,0.0444942805767059,0.027645));
#576=CARTESIAN_POINT('',(0.0280529510237903,0.0448857116317986,0.027645));
#577=CARTESIAN_POINT('',(0.0277567168788375,0.0452885085177897,0.027645));
#578=CARTESIAN_POINT('',(0.0277567168788375,0.0452885085177897,0.027645));
#579=CARTESIAN_POINT('',(0.0280529510237903,0.0448857116317986,0.027645));
#580=CARTESIAN_POINT('',(0.0298485989835105,0.0443373396546578,0.027645));
#581=CARTESIAN_POINT('',(0.0319333524834766,0.045304032879224,0.027645));
#582=CARTESIAN_POINT('',(0.0319333524834766,0.045304032879224,0.027645));
#583=CARTESIAN_POINT('',(0.0298485989835105,0.0443373396546578,0.027645));
#584=CARTESIAN_POINT('',(0.0316399665565106,0.044899156727965,0.027645));
#585=CARTESIAN_POINT('',(0.0316399665565106,0.044899156727965,0.027645));
#586=CARTESIAN_POINT('',(0.0298566208481789,0.0447551919817924,0.027645));
#587=CARTESIAN_POINT('',(0.0298491851687432,0.0469829147458077,0.027645));
#588=CARTESIAN_POINT('',(0.0293491851687432,0.0469829147458077,0.027645));
#589=CARTESIAN_POINT('',(0.0293491851687432,0.0469829147458077,0.027645));
#590=CARTESIAN_POINT('',(0.0298491851687432,0.0469829147458077,0.027645));
#591=CARTESIAN_POINT('',(0.0303491851687431,0.0469829147458077,0.027645));
#592=CARTESIAN_POINT('',(0.0303491851687431,0.0469829147458077,0.027645));
#593=CARTESIAN_POINT('',(0.0293491851687432,0.0457329147458076,0.027645));
#594=CARTESIAN_POINT('',(0.0293491851687432,0.0444829147458077,0.027645));
#595=CARTESIAN_POINT('',(0.0293491851687432,0.0444829147458077,0.027645));
#596=CARTESIAN_POINT('',(0.0293491851687432,0.0457329147458076,0.027645));
#597=CARTESIAN_POINT('',(0.0298491851687432,0.0444829147458077,0.027645));
#598=CARTESIAN_POINT('',(0.0303491851687431,0.0444829147458077,0.027645));
#599=CARTESIAN_POINT('',(0.0303491851687431,0.0444829147458077,0.027645));
#600=CARTESIAN_POINT('',(0.0298491851687432,0.0444829147458077,0.027645));
#601=CARTESIAN_POINT('',(0.0303491851687431,0.0457329147458076,0.027645));
#602=CARTESIAN_POINT('',(0.0303491851687431,0.0457329147458076,0.027645));
#603=CARTESIAN_POINT('',(0.0298566208481789,0.0447551919817924,0.027645));
#604=MECHANICAL_DESIGN_GEOMETRIC_PRESENTATION_REPRESENTATION('',(#357),
#605);
#605=(
GEOMETRIC_REPRESENTATION_CONTEXT(3)
GLOBAL_UNCERTAINTY_ASSIGNED_CONTEXT((#606))
GLOBAL_UNIT_ASSIGNED_CONTEXT((#609,#608,#607))
REPRESENTATION_CONTEXT('power button','TOP_LEVEL_ASSEMBLY_PART')
);
#606=UNCERTAINTY_MEASURE_WITH_UNIT(LENGTH_MEASURE(1.E-8),#609,
'DISTANCE_ACCURACY_VALUE','Maximum Tolerance applied to model');
#607=(
NAMED_UNIT(*)
SI_UNIT($,.STERADIAN.)
SOLID_ANGLE_UNIT()
);
#608=(
NAMED_UNIT(*)
PLANE_ANGLE_UNIT()
SI_UNIT($,.RADIAN.)
);
#609=(
LENGTH_UNIT()
NAMED_UNIT(*)
SI_UNIT($,.METRE.)
);
#610=PRODUCT_DEFINITION_SHAPE('','',#611);
#611=PRODUCT_DEFINITION('','',#613,#612);
#612=PRODUCT_DEFINITION_CONTEXT('',#619,'design');
#613=PRODUCT_DEFINITION_FORMATION_WITH_SPECIFIED_SOURCE('','',#615,
 .NOT_KNOWN.);
#614=PRODUCT_RELATED_PRODUCT_CATEGORY('','',(#615));
#615=PRODUCT('power button','power button','power button',(#617));
#616=PRODUCT_CATEGORY('','');
#617=PRODUCT_CONTEXT('',#619,'mechanical');
#618=APPLICATION_PROTOCOL_DEFINITION('international standard',
'ap242_managed_model_based_3d_engineering',2020,#619);
#619=APPLICATION_CONTEXT('managed model based 3d engineering');
ENDSEC;
END-ISO-10303-21;
